G04 #@! TF.GenerationSoftware,KiCad,Pcbnew,(5.0.1)-4*
G04 #@! TF.CreationDate,2018-11-19T23:15:06-05:00*
G04 #@! TF.ProjectId,CAN_Bus_Arduino,43414E5F4275735F41726475696E6F2E,rev?*
G04 #@! TF.SameCoordinates,Original*
G04 #@! TF.FileFunction,Copper,L2,Bot,Signal*
G04 #@! TF.FilePolarity,Positive*
%FSLAX46Y46*%
G04 Gerber Fmt 4.6, Leading zero omitted, Abs format (unit mm)*
G04 Created by KiCad (PCBNEW (5.0.1)-4) date 2018-11-19 11:15:06 PM*
%MOMM*%
%LPD*%
G01*
G04 APERTURE LIST*
G04 #@! TA.AperFunction,ComponentPad*
%ADD10R,2.200000X2.200000*%
G04 #@! TD*
G04 #@! TA.AperFunction,ComponentPad*
%ADD11C,2.200000*%
G04 #@! TD*
G04 #@! TA.AperFunction,ComponentPad*
%ADD12R,1.700000X1.700000*%
G04 #@! TD*
G04 #@! TA.AperFunction,ComponentPad*
%ADD13O,1.700000X1.700000*%
G04 #@! TD*
G04 #@! TA.AperFunction,ComponentPad*
%ADD14C,1.500000*%
G04 #@! TD*
G04 #@! TA.AperFunction,ViaPad*
%ADD15C,0.800000*%
G04 #@! TD*
G04 #@! TA.AperFunction,Conductor*
%ADD16C,0.250000*%
G04 #@! TD*
G04 #@! TA.AperFunction,Conductor*
%ADD17C,0.254000*%
G04 #@! TD*
G04 APERTURE END LIST*
D10*
G04 #@! TO.P,J2,1*
G04 #@! TO.N,Net-(J2-Pad1)*
X236347000Y-105867200D03*
D11*
G04 #@! TO.P,J2,2*
G04 #@! TO.N,Net-(J1-Pad1)*
X236347000Y-108407200D03*
G04 #@! TD*
D12*
G04 #@! TO.P,J1,1*
G04 #@! TO.N,Net-(J1-Pad1)*
X237540800Y-121462800D03*
D13*
G04 #@! TO.P,J1,2*
G04 #@! TO.N,Net-(J1-Pad2)*
X235000800Y-121462800D03*
G04 #@! TD*
G04 #@! TO.P,J3,2*
G04 #@! TO.N,Net-(J2-Pad1)*
X235026200Y-113665000D03*
D12*
G04 #@! TO.P,J3,1*
G04 #@! TO.N,Net-(J1-Pad1)*
X237566200Y-113665000D03*
G04 #@! TD*
G04 #@! TO.P,J4,1*
G04 #@! TO.N,Net-(D1-Pad2)*
X205917800Y-118770400D03*
D13*
G04 #@! TO.P,J4,2*
G04 #@! TO.N,GND*
X205917800Y-116230400D03*
G04 #@! TO.P,J4,3*
G04 #@! TO.N,Net-(J4-Pad3)*
X205917800Y-113690400D03*
G04 #@! TO.P,J4,4*
G04 #@! TO.N,Net-(J4-Pad4)*
X205917800Y-111150400D03*
G04 #@! TO.P,J4,5*
G04 #@! TO.N,Net-(J4-Pad5)*
X205917800Y-108610400D03*
G04 #@! TO.P,J4,6*
G04 #@! TO.N,Net-(J4-Pad6)*
X205917800Y-106070400D03*
G04 #@! TO.P,J4,7*
G04 #@! TO.N,Net-(J4-Pad7)*
X205917800Y-103530400D03*
G04 #@! TD*
D14*
G04 #@! TO.P,Y1,1*
G04 #@! TO.N,Net-(C3-Pad2)*
X224790000Y-111760000D03*
G04 #@! TO.P,Y1,2*
G04 #@! TO.N,Net-(C4-Pad2)*
X224790000Y-106880000D03*
G04 #@! TD*
D15*
G04 #@! TO.N,GND*
X208407000Y-102641400D03*
X221462600Y-102590600D03*
X238683800Y-102895400D03*
X229844600Y-102590600D03*
X230098600Y-109347000D03*
X230149400Y-115392200D03*
X207900000Y-115100000D03*
X211400000Y-119100000D03*
X207700000Y-121700000D03*
X216100000Y-121800000D03*
X220700000Y-119700000D03*
X223400000Y-122200000D03*
X216700000Y-113500000D03*
X216700000Y-105600000D03*
X228725000Y-122425000D03*
G04 #@! TO.N,Net-(R3-Pad1)*
X211378800Y-121462800D03*
X212826600Y-113157000D03*
G04 #@! TD*
D16*
G04 #@! TO.N,Net-(R3-Pad1)*
X212826600Y-120015000D02*
X212826600Y-113157000D01*
X211378800Y-121462800D02*
X212826600Y-120015000D01*
G04 #@! TD*
D17*
G04 #@! TO.N,GND*
G36*
X239265001Y-123265000D02*
X204735000Y-123265000D01*
X204735000Y-121256926D01*
X210343800Y-121256926D01*
X210343800Y-121668674D01*
X210501369Y-122049080D01*
X210792520Y-122340231D01*
X211172926Y-122497800D01*
X211584674Y-122497800D01*
X211965080Y-122340231D01*
X212256231Y-122049080D01*
X212413800Y-121668674D01*
X212413800Y-121502602D01*
X212453602Y-121462800D01*
X233486708Y-121462800D01*
X233601961Y-122042218D01*
X233930175Y-122533425D01*
X234421382Y-122861639D01*
X234854544Y-122947800D01*
X235147056Y-122947800D01*
X235580218Y-122861639D01*
X236071425Y-122533425D01*
X236083616Y-122515181D01*
X236092643Y-122560565D01*
X236232991Y-122770609D01*
X236443035Y-122910957D01*
X236690800Y-122960240D01*
X238390800Y-122960240D01*
X238638565Y-122910957D01*
X238848609Y-122770609D01*
X238988957Y-122560565D01*
X239038240Y-122312800D01*
X239038240Y-120612800D01*
X238988957Y-120365035D01*
X238848609Y-120154991D01*
X238638565Y-120014643D01*
X238390800Y-119965360D01*
X236690800Y-119965360D01*
X236443035Y-120014643D01*
X236232991Y-120154991D01*
X236092643Y-120365035D01*
X236083616Y-120410419D01*
X236071425Y-120392175D01*
X235580218Y-120063961D01*
X235147056Y-119977800D01*
X234854544Y-119977800D01*
X234421382Y-120063961D01*
X233930175Y-120392175D01*
X233601961Y-120883382D01*
X233486708Y-121462800D01*
X212453602Y-121462800D01*
X213311076Y-120605327D01*
X213374529Y-120562929D01*
X213416927Y-120499476D01*
X213416929Y-120499474D01*
X213542503Y-120311538D01*
X213542504Y-120311537D01*
X213586600Y-120089852D01*
X213586600Y-120089848D01*
X213601488Y-120015001D01*
X213586600Y-119940154D01*
X213586600Y-113860711D01*
X213704031Y-113743280D01*
X213736455Y-113665000D01*
X233512108Y-113665000D01*
X233627361Y-114244418D01*
X233955575Y-114735625D01*
X234446782Y-115063839D01*
X234879944Y-115150000D01*
X235172456Y-115150000D01*
X235605618Y-115063839D01*
X236096825Y-114735625D01*
X236109016Y-114717381D01*
X236118043Y-114762765D01*
X236258391Y-114972809D01*
X236468435Y-115113157D01*
X236716200Y-115162440D01*
X238416200Y-115162440D01*
X238663965Y-115113157D01*
X238874009Y-114972809D01*
X239014357Y-114762765D01*
X239063640Y-114515000D01*
X239063640Y-112815000D01*
X239014357Y-112567235D01*
X238874009Y-112357191D01*
X238663965Y-112216843D01*
X238416200Y-112167560D01*
X236716200Y-112167560D01*
X236468435Y-112216843D01*
X236258391Y-112357191D01*
X236118043Y-112567235D01*
X236109016Y-112612619D01*
X236096825Y-112594375D01*
X235605618Y-112266161D01*
X235172456Y-112180000D01*
X234879944Y-112180000D01*
X234446782Y-112266161D01*
X233955575Y-112594375D01*
X233627361Y-113085582D01*
X233512108Y-113665000D01*
X213736455Y-113665000D01*
X213861600Y-113362874D01*
X213861600Y-112951126D01*
X213704031Y-112570720D01*
X213412880Y-112279569D01*
X213032474Y-112122000D01*
X212620726Y-112122000D01*
X212240320Y-112279569D01*
X211949169Y-112570720D01*
X211791600Y-112951126D01*
X211791600Y-113362874D01*
X211949169Y-113743280D01*
X212066601Y-113860712D01*
X212066600Y-119700197D01*
X211338998Y-120427800D01*
X211172926Y-120427800D01*
X210792520Y-120585369D01*
X210501369Y-120876520D01*
X210343800Y-121256926D01*
X204735000Y-121256926D01*
X204735000Y-120161738D01*
X204820035Y-120218557D01*
X205067800Y-120267840D01*
X206767800Y-120267840D01*
X207015565Y-120218557D01*
X207225609Y-120078209D01*
X207365957Y-119868165D01*
X207415240Y-119620400D01*
X207415240Y-117920400D01*
X207365957Y-117672635D01*
X207225609Y-117462591D01*
X207015565Y-117322243D01*
X206912092Y-117301661D01*
X207189445Y-116997324D01*
X207359276Y-116587290D01*
X207237955Y-116357400D01*
X206044800Y-116357400D01*
X206044800Y-116377400D01*
X205790800Y-116377400D01*
X205790800Y-116357400D01*
X205770800Y-116357400D01*
X205770800Y-116103400D01*
X205790800Y-116103400D01*
X205790800Y-116083400D01*
X206044800Y-116083400D01*
X206044800Y-116103400D01*
X207237955Y-116103400D01*
X207359276Y-115873510D01*
X207189445Y-115463476D01*
X206799158Y-115035217D01*
X206669322Y-114974243D01*
X206988425Y-114761025D01*
X207316639Y-114269818D01*
X207431892Y-113690400D01*
X207316639Y-113110982D01*
X206988425Y-112619775D01*
X206690039Y-112420400D01*
X206988425Y-112221025D01*
X207316639Y-111729818D01*
X207365434Y-111484506D01*
X223405000Y-111484506D01*
X223405000Y-112035494D01*
X223615853Y-112544540D01*
X224005460Y-112934147D01*
X224514506Y-113145000D01*
X225065494Y-113145000D01*
X225574540Y-112934147D01*
X225964147Y-112544540D01*
X226175000Y-112035494D01*
X226175000Y-111484506D01*
X225964147Y-110975460D01*
X225574540Y-110585853D01*
X225065494Y-110375000D01*
X224514506Y-110375000D01*
X224005460Y-110585853D01*
X223615853Y-110975460D01*
X223405000Y-111484506D01*
X207365434Y-111484506D01*
X207431892Y-111150400D01*
X207316639Y-110570982D01*
X206988425Y-110079775D01*
X206690039Y-109880400D01*
X206988425Y-109681025D01*
X207316639Y-109189818D01*
X207431892Y-108610400D01*
X207316639Y-108030982D01*
X206988425Y-107539775D01*
X206690039Y-107340400D01*
X206988425Y-107141025D01*
X207316639Y-106649818D01*
X207325652Y-106604506D01*
X223405000Y-106604506D01*
X223405000Y-107155494D01*
X223615853Y-107664540D01*
X224005460Y-108054147D01*
X224514506Y-108265000D01*
X225065494Y-108265000D01*
X225574540Y-108054147D01*
X225964147Y-107664540D01*
X226175000Y-107155494D01*
X226175000Y-106604506D01*
X225964147Y-106095460D01*
X225574540Y-105705853D01*
X225395009Y-105631489D01*
X232622000Y-105631489D01*
X232622000Y-106102911D01*
X232802405Y-106538449D01*
X233135751Y-106871795D01*
X233571289Y-107052200D01*
X234042711Y-107052200D01*
X234478249Y-106871795D01*
X234599560Y-106750484D01*
X234599560Y-106967200D01*
X234648843Y-107214965D01*
X234789191Y-107425009D01*
X234857093Y-107470380D01*
X234765983Y-107690339D01*
X234478249Y-107402605D01*
X234042711Y-107222200D01*
X233571289Y-107222200D01*
X233135751Y-107402605D01*
X232802405Y-107735951D01*
X232622000Y-108171489D01*
X232622000Y-108642911D01*
X232802405Y-109078449D01*
X233135751Y-109411795D01*
X233571289Y-109592200D01*
X234042711Y-109592200D01*
X234478249Y-109411795D01*
X234765983Y-109124061D01*
X234876138Y-109389999D01*
X235364201Y-109878062D01*
X236001887Y-110142200D01*
X236692113Y-110142200D01*
X237329799Y-109878062D01*
X237817862Y-109389999D01*
X238082000Y-108752313D01*
X238082000Y-108062087D01*
X237836907Y-107470380D01*
X237904809Y-107425009D01*
X238045157Y-107214965D01*
X238094440Y-106967200D01*
X238094440Y-104767200D01*
X238045157Y-104519435D01*
X237904809Y-104309391D01*
X237694765Y-104169043D01*
X237447000Y-104119760D01*
X235247000Y-104119760D01*
X234999235Y-104169043D01*
X234789191Y-104309391D01*
X234648843Y-104519435D01*
X234599560Y-104767200D01*
X234599560Y-104983916D01*
X234478249Y-104862605D01*
X234042711Y-104682200D01*
X233571289Y-104682200D01*
X233135751Y-104862605D01*
X232802405Y-105195951D01*
X232622000Y-105631489D01*
X225395009Y-105631489D01*
X225065494Y-105495000D01*
X224514506Y-105495000D01*
X224005460Y-105705853D01*
X223615853Y-106095460D01*
X223405000Y-106604506D01*
X207325652Y-106604506D01*
X207431892Y-106070400D01*
X207316639Y-105490982D01*
X206988425Y-104999775D01*
X206690039Y-104800400D01*
X206988425Y-104601025D01*
X207316639Y-104109818D01*
X207431892Y-103530400D01*
X207316639Y-102950982D01*
X206988425Y-102459775D01*
X206652025Y-102235000D01*
X239265000Y-102235000D01*
X239265001Y-123265000D01*
X239265001Y-123265000D01*
G37*
X239265001Y-123265000D02*
X204735000Y-123265000D01*
X204735000Y-121256926D01*
X210343800Y-121256926D01*
X210343800Y-121668674D01*
X210501369Y-122049080D01*
X210792520Y-122340231D01*
X211172926Y-122497800D01*
X211584674Y-122497800D01*
X211965080Y-122340231D01*
X212256231Y-122049080D01*
X212413800Y-121668674D01*
X212413800Y-121502602D01*
X212453602Y-121462800D01*
X233486708Y-121462800D01*
X233601961Y-122042218D01*
X233930175Y-122533425D01*
X234421382Y-122861639D01*
X234854544Y-122947800D01*
X235147056Y-122947800D01*
X235580218Y-122861639D01*
X236071425Y-122533425D01*
X236083616Y-122515181D01*
X236092643Y-122560565D01*
X236232991Y-122770609D01*
X236443035Y-122910957D01*
X236690800Y-122960240D01*
X238390800Y-122960240D01*
X238638565Y-122910957D01*
X238848609Y-122770609D01*
X238988957Y-122560565D01*
X239038240Y-122312800D01*
X239038240Y-120612800D01*
X238988957Y-120365035D01*
X238848609Y-120154991D01*
X238638565Y-120014643D01*
X238390800Y-119965360D01*
X236690800Y-119965360D01*
X236443035Y-120014643D01*
X236232991Y-120154991D01*
X236092643Y-120365035D01*
X236083616Y-120410419D01*
X236071425Y-120392175D01*
X235580218Y-120063961D01*
X235147056Y-119977800D01*
X234854544Y-119977800D01*
X234421382Y-120063961D01*
X233930175Y-120392175D01*
X233601961Y-120883382D01*
X233486708Y-121462800D01*
X212453602Y-121462800D01*
X213311076Y-120605327D01*
X213374529Y-120562929D01*
X213416927Y-120499476D01*
X213416929Y-120499474D01*
X213542503Y-120311538D01*
X213542504Y-120311537D01*
X213586600Y-120089852D01*
X213586600Y-120089848D01*
X213601488Y-120015001D01*
X213586600Y-119940154D01*
X213586600Y-113860711D01*
X213704031Y-113743280D01*
X213736455Y-113665000D01*
X233512108Y-113665000D01*
X233627361Y-114244418D01*
X233955575Y-114735625D01*
X234446782Y-115063839D01*
X234879944Y-115150000D01*
X235172456Y-115150000D01*
X235605618Y-115063839D01*
X236096825Y-114735625D01*
X236109016Y-114717381D01*
X236118043Y-114762765D01*
X236258391Y-114972809D01*
X236468435Y-115113157D01*
X236716200Y-115162440D01*
X238416200Y-115162440D01*
X238663965Y-115113157D01*
X238874009Y-114972809D01*
X239014357Y-114762765D01*
X239063640Y-114515000D01*
X239063640Y-112815000D01*
X239014357Y-112567235D01*
X238874009Y-112357191D01*
X238663965Y-112216843D01*
X238416200Y-112167560D01*
X236716200Y-112167560D01*
X236468435Y-112216843D01*
X236258391Y-112357191D01*
X236118043Y-112567235D01*
X236109016Y-112612619D01*
X236096825Y-112594375D01*
X235605618Y-112266161D01*
X235172456Y-112180000D01*
X234879944Y-112180000D01*
X234446782Y-112266161D01*
X233955575Y-112594375D01*
X233627361Y-113085582D01*
X233512108Y-113665000D01*
X213736455Y-113665000D01*
X213861600Y-113362874D01*
X213861600Y-112951126D01*
X213704031Y-112570720D01*
X213412880Y-112279569D01*
X213032474Y-112122000D01*
X212620726Y-112122000D01*
X212240320Y-112279569D01*
X211949169Y-112570720D01*
X211791600Y-112951126D01*
X211791600Y-113362874D01*
X211949169Y-113743280D01*
X212066601Y-113860712D01*
X212066600Y-119700197D01*
X211338998Y-120427800D01*
X211172926Y-120427800D01*
X210792520Y-120585369D01*
X210501369Y-120876520D01*
X210343800Y-121256926D01*
X204735000Y-121256926D01*
X204735000Y-120161738D01*
X204820035Y-120218557D01*
X205067800Y-120267840D01*
X206767800Y-120267840D01*
X207015565Y-120218557D01*
X207225609Y-120078209D01*
X207365957Y-119868165D01*
X207415240Y-119620400D01*
X207415240Y-117920400D01*
X207365957Y-117672635D01*
X207225609Y-117462591D01*
X207015565Y-117322243D01*
X206912092Y-117301661D01*
X207189445Y-116997324D01*
X207359276Y-116587290D01*
X207237955Y-116357400D01*
X206044800Y-116357400D01*
X206044800Y-116377400D01*
X205790800Y-116377400D01*
X205790800Y-116357400D01*
X205770800Y-116357400D01*
X205770800Y-116103400D01*
X205790800Y-116103400D01*
X205790800Y-116083400D01*
X206044800Y-116083400D01*
X206044800Y-116103400D01*
X207237955Y-116103400D01*
X207359276Y-115873510D01*
X207189445Y-115463476D01*
X206799158Y-115035217D01*
X206669322Y-114974243D01*
X206988425Y-114761025D01*
X207316639Y-114269818D01*
X207431892Y-113690400D01*
X207316639Y-113110982D01*
X206988425Y-112619775D01*
X206690039Y-112420400D01*
X206988425Y-112221025D01*
X207316639Y-111729818D01*
X207365434Y-111484506D01*
X223405000Y-111484506D01*
X223405000Y-112035494D01*
X223615853Y-112544540D01*
X224005460Y-112934147D01*
X224514506Y-113145000D01*
X225065494Y-113145000D01*
X225574540Y-112934147D01*
X225964147Y-112544540D01*
X226175000Y-112035494D01*
X226175000Y-111484506D01*
X225964147Y-110975460D01*
X225574540Y-110585853D01*
X225065494Y-110375000D01*
X224514506Y-110375000D01*
X224005460Y-110585853D01*
X223615853Y-110975460D01*
X223405000Y-111484506D01*
X207365434Y-111484506D01*
X207431892Y-111150400D01*
X207316639Y-110570982D01*
X206988425Y-110079775D01*
X206690039Y-109880400D01*
X206988425Y-109681025D01*
X207316639Y-109189818D01*
X207431892Y-108610400D01*
X207316639Y-108030982D01*
X206988425Y-107539775D01*
X206690039Y-107340400D01*
X206988425Y-107141025D01*
X207316639Y-106649818D01*
X207325652Y-106604506D01*
X223405000Y-106604506D01*
X223405000Y-107155494D01*
X223615853Y-107664540D01*
X224005460Y-108054147D01*
X224514506Y-108265000D01*
X225065494Y-108265000D01*
X225574540Y-108054147D01*
X225964147Y-107664540D01*
X226175000Y-107155494D01*
X226175000Y-106604506D01*
X225964147Y-106095460D01*
X225574540Y-105705853D01*
X225395009Y-105631489D01*
X232622000Y-105631489D01*
X232622000Y-106102911D01*
X232802405Y-106538449D01*
X233135751Y-106871795D01*
X233571289Y-107052200D01*
X234042711Y-107052200D01*
X234478249Y-106871795D01*
X234599560Y-106750484D01*
X234599560Y-106967200D01*
X234648843Y-107214965D01*
X234789191Y-107425009D01*
X234857093Y-107470380D01*
X234765983Y-107690339D01*
X234478249Y-107402605D01*
X234042711Y-107222200D01*
X233571289Y-107222200D01*
X233135751Y-107402605D01*
X232802405Y-107735951D01*
X232622000Y-108171489D01*
X232622000Y-108642911D01*
X232802405Y-109078449D01*
X233135751Y-109411795D01*
X233571289Y-109592200D01*
X234042711Y-109592200D01*
X234478249Y-109411795D01*
X234765983Y-109124061D01*
X234876138Y-109389999D01*
X235364201Y-109878062D01*
X236001887Y-110142200D01*
X236692113Y-110142200D01*
X237329799Y-109878062D01*
X237817862Y-109389999D01*
X238082000Y-108752313D01*
X238082000Y-108062087D01*
X237836907Y-107470380D01*
X237904809Y-107425009D01*
X238045157Y-107214965D01*
X238094440Y-106967200D01*
X238094440Y-104767200D01*
X238045157Y-104519435D01*
X237904809Y-104309391D01*
X237694765Y-104169043D01*
X237447000Y-104119760D01*
X235247000Y-104119760D01*
X234999235Y-104169043D01*
X234789191Y-104309391D01*
X234648843Y-104519435D01*
X234599560Y-104767200D01*
X234599560Y-104983916D01*
X234478249Y-104862605D01*
X234042711Y-104682200D01*
X233571289Y-104682200D01*
X233135751Y-104862605D01*
X232802405Y-105195951D01*
X232622000Y-105631489D01*
X225395009Y-105631489D01*
X225065494Y-105495000D01*
X224514506Y-105495000D01*
X224005460Y-105705853D01*
X223615853Y-106095460D01*
X223405000Y-106604506D01*
X207325652Y-106604506D01*
X207431892Y-106070400D01*
X207316639Y-105490982D01*
X206988425Y-104999775D01*
X206690039Y-104800400D01*
X206988425Y-104601025D01*
X207316639Y-104109818D01*
X207431892Y-103530400D01*
X207316639Y-102950982D01*
X206988425Y-102459775D01*
X206652025Y-102235000D01*
X239265000Y-102235000D01*
X239265001Y-123265000D01*
G04 #@! TD*
M02*
