M48
;DRILL file {KiCad (5.0.1)-4} date 2018-11-19 11:15:32 PM
;FORMAT={-:-/ absolute / metric / decimal}
FMAT,2
METRIC,TZ
T1C0.400
T2C0.800
T3C1.000
T4C1.100
T5C1.100
%
G90
G05
M71
T1
X207.7Y-121.7
X207.9Y-115.1
X208.407Y-102.641
X211.379Y-121.463
X211.4Y-119.1
X212.827Y-113.157
X216.1Y-121.8
X216.7Y-105.6
X216.7Y-113.5
X220.7Y-119.7
X221.463Y-102.591
X223.4Y-122.2
X228.725Y-122.425
X229.845Y-102.591
X230.099Y-109.347
X230.149Y-115.392
X238.684Y-102.895
T2
X224.79Y-106.88
X224.79Y-111.76
T3
X235.001Y-121.463
X237.541Y-121.463
X205.918Y-103.53
X205.918Y-106.07
X205.918Y-108.61
X205.918Y-111.15
X205.918Y-113.69
X205.918Y-116.23
X205.918Y-118.77
X235.026Y-113.665
X237.566Y-113.665
T4
X236.347Y-105.867
X236.347Y-108.407
T5
X233.807Y-105.867
X233.807Y-108.407
T0
M30
