G04 #@! TF.GenerationSoftware,KiCad,Pcbnew,(5.0.1)-4*
G04 #@! TF.CreationDate,2018-11-19T23:15:06-05:00*
G04 #@! TF.ProjectId,CAN_Bus_Arduino,43414E5F4275735F41726475696E6F2E,rev?*
G04 #@! TF.SameCoordinates,Original*
G04 #@! TF.FileFunction,Soldermask,Bot*
G04 #@! TF.FilePolarity,Negative*
%FSLAX46Y46*%
G04 Gerber Fmt 4.6, Leading zero omitted, Abs format (unit mm)*
G04 Created by KiCad (PCBNEW (5.0.1)-4) date 2018-11-19 11:15:06 PM*
%MOMM*%
%LPD*%
G01*
G04 APERTURE LIST*
%ADD10C,0.100000*%
G04 APERTURE END LIST*
D10*
G36*
X235129507Y-120420396D02*
X235206636Y-120427993D01*
X235338587Y-120468020D01*
X235404563Y-120488033D01*
X235586972Y-120585533D01*
X235746854Y-120716746D01*
X235878067Y-120876628D01*
X235975567Y-121059037D01*
X235975567Y-121059038D01*
X236035607Y-121256964D01*
X236055880Y-121462800D01*
X236035607Y-121668636D01*
X235995580Y-121800587D01*
X235975567Y-121866563D01*
X235878067Y-122048972D01*
X235746854Y-122208854D01*
X235586972Y-122340067D01*
X235404563Y-122437567D01*
X235338587Y-122457580D01*
X235206636Y-122497607D01*
X235129507Y-122505204D01*
X235052380Y-122512800D01*
X234949220Y-122512800D01*
X234872093Y-122505204D01*
X234794964Y-122497607D01*
X234663013Y-122457580D01*
X234597037Y-122437567D01*
X234414628Y-122340067D01*
X234254746Y-122208854D01*
X234123533Y-122048972D01*
X234026033Y-121866563D01*
X234006020Y-121800587D01*
X233965993Y-121668636D01*
X233945720Y-121462800D01*
X233965993Y-121256964D01*
X234026033Y-121059038D01*
X234026033Y-121059037D01*
X234123533Y-120876628D01*
X234254746Y-120716746D01*
X234414628Y-120585533D01*
X234597037Y-120488033D01*
X234663013Y-120468020D01*
X234794964Y-120427993D01*
X234872093Y-120420396D01*
X234949220Y-120412800D01*
X235052380Y-120412800D01*
X235129507Y-120420396D01*
X235129507Y-120420396D01*
G37*
G36*
X238590800Y-122512800D02*
X236490800Y-122512800D01*
X236490800Y-120412800D01*
X238590800Y-120412800D01*
X238590800Y-122512800D01*
X238590800Y-122512800D01*
G37*
G36*
X206967800Y-119820400D02*
X204867800Y-119820400D01*
X204867800Y-117720400D01*
X206967800Y-117720400D01*
X206967800Y-119820400D01*
X206967800Y-119820400D01*
G37*
G36*
X206046507Y-115187996D02*
X206123636Y-115195593D01*
X206255587Y-115235620D01*
X206321563Y-115255633D01*
X206503972Y-115353133D01*
X206663854Y-115484346D01*
X206795067Y-115644228D01*
X206892567Y-115826637D01*
X206892567Y-115826638D01*
X206952607Y-116024564D01*
X206972880Y-116230400D01*
X206952607Y-116436236D01*
X206912580Y-116568187D01*
X206892567Y-116634163D01*
X206795067Y-116816572D01*
X206663854Y-116976454D01*
X206503972Y-117107667D01*
X206321563Y-117205167D01*
X206255587Y-117225180D01*
X206123636Y-117265207D01*
X206046507Y-117272804D01*
X205969380Y-117280400D01*
X205866220Y-117280400D01*
X205789093Y-117272804D01*
X205711964Y-117265207D01*
X205580013Y-117225180D01*
X205514037Y-117205167D01*
X205331628Y-117107667D01*
X205171746Y-116976454D01*
X205040533Y-116816572D01*
X204943033Y-116634163D01*
X204923020Y-116568187D01*
X204882993Y-116436236D01*
X204862720Y-116230400D01*
X204882993Y-116024564D01*
X204943033Y-115826638D01*
X204943033Y-115826637D01*
X205040533Y-115644228D01*
X205171746Y-115484346D01*
X205331628Y-115353133D01*
X205514037Y-115255633D01*
X205580013Y-115235620D01*
X205711964Y-115195593D01*
X205789093Y-115187996D01*
X205866220Y-115180400D01*
X205969380Y-115180400D01*
X206046507Y-115187996D01*
X206046507Y-115187996D01*
G37*
G36*
X206046507Y-112647996D02*
X206123636Y-112655593D01*
X206237829Y-112690233D01*
X206321563Y-112715633D01*
X206503972Y-112813133D01*
X206663854Y-112944346D01*
X206795067Y-113104228D01*
X206892567Y-113286637D01*
X206892567Y-113286638D01*
X206952607Y-113484564D01*
X206972880Y-113690400D01*
X206952607Y-113896236D01*
X206912580Y-114028187D01*
X206892567Y-114094163D01*
X206795067Y-114276572D01*
X206663854Y-114436454D01*
X206503972Y-114567667D01*
X206321563Y-114665167D01*
X206255587Y-114685180D01*
X206123636Y-114725207D01*
X206046507Y-114732804D01*
X205969380Y-114740400D01*
X205866220Y-114740400D01*
X205789093Y-114732804D01*
X205711964Y-114725207D01*
X205580013Y-114685180D01*
X205514037Y-114665167D01*
X205331628Y-114567667D01*
X205171746Y-114436454D01*
X205040533Y-114276572D01*
X204943033Y-114094163D01*
X204923020Y-114028187D01*
X204882993Y-113896236D01*
X204862720Y-113690400D01*
X204882993Y-113484564D01*
X204943033Y-113286638D01*
X204943033Y-113286637D01*
X205040533Y-113104228D01*
X205171746Y-112944346D01*
X205331628Y-112813133D01*
X205514037Y-112715633D01*
X205597771Y-112690233D01*
X205711964Y-112655593D01*
X205789093Y-112647996D01*
X205866220Y-112640400D01*
X205969380Y-112640400D01*
X206046507Y-112647996D01*
X206046507Y-112647996D01*
G37*
G36*
X238616200Y-114715000D02*
X236516200Y-114715000D01*
X236516200Y-112615000D01*
X238616200Y-112615000D01*
X238616200Y-114715000D01*
X238616200Y-114715000D01*
G37*
G36*
X235154907Y-112622596D02*
X235232036Y-112630193D01*
X235363987Y-112670220D01*
X235429963Y-112690233D01*
X235612372Y-112787733D01*
X235772254Y-112918946D01*
X235903467Y-113078828D01*
X236000967Y-113261237D01*
X236000967Y-113261238D01*
X236061007Y-113459164D01*
X236081280Y-113665000D01*
X236061007Y-113870836D01*
X236053302Y-113896236D01*
X236000967Y-114068763D01*
X235903467Y-114251172D01*
X235772254Y-114411054D01*
X235612372Y-114542267D01*
X235429963Y-114639767D01*
X235363987Y-114659780D01*
X235232036Y-114699807D01*
X235154907Y-114707404D01*
X235077780Y-114715000D01*
X234974620Y-114715000D01*
X234897493Y-114707404D01*
X234820364Y-114699807D01*
X234688413Y-114659780D01*
X234622437Y-114639767D01*
X234440028Y-114542267D01*
X234280146Y-114411054D01*
X234148933Y-114251172D01*
X234051433Y-114068763D01*
X233999098Y-113896236D01*
X233991393Y-113870836D01*
X233971120Y-113665000D01*
X233991393Y-113459164D01*
X234051433Y-113261238D01*
X234051433Y-113261237D01*
X234148933Y-113078828D01*
X234280146Y-112918946D01*
X234440028Y-112787733D01*
X234622437Y-112690233D01*
X234688413Y-112670220D01*
X234820364Y-112630193D01*
X234897493Y-112622596D01*
X234974620Y-112615000D01*
X235077780Y-112615000D01*
X235154907Y-112622596D01*
X235154907Y-112622596D01*
G37*
G36*
X224929452Y-110819127D02*
X225067105Y-110846508D01*
X225239994Y-110918121D01*
X225395590Y-111022087D01*
X225527913Y-111154410D01*
X225631879Y-111310006D01*
X225703492Y-111482895D01*
X225740000Y-111666433D01*
X225740000Y-111853567D01*
X225703492Y-112037105D01*
X225631879Y-112209994D01*
X225527913Y-112365590D01*
X225395590Y-112497913D01*
X225239994Y-112601879D01*
X225067105Y-112673492D01*
X224929452Y-112700873D01*
X224883568Y-112710000D01*
X224696432Y-112710000D01*
X224650548Y-112700873D01*
X224512895Y-112673492D01*
X224340006Y-112601879D01*
X224184410Y-112497913D01*
X224052087Y-112365590D01*
X223948121Y-112209994D01*
X223876508Y-112037105D01*
X223840000Y-111853567D01*
X223840000Y-111666433D01*
X223876508Y-111482895D01*
X223948121Y-111310006D01*
X224052087Y-111154410D01*
X224184410Y-111022087D01*
X224340006Y-110918121D01*
X224512895Y-110846508D01*
X224650548Y-110819127D01*
X224696432Y-110810000D01*
X224883568Y-110810000D01*
X224929452Y-110819127D01*
X224929452Y-110819127D01*
G37*
G36*
X206046507Y-110107996D02*
X206123636Y-110115593D01*
X206255587Y-110155620D01*
X206321563Y-110175633D01*
X206503972Y-110273133D01*
X206663854Y-110404346D01*
X206795067Y-110564228D01*
X206892567Y-110746637D01*
X206892567Y-110746638D01*
X206952607Y-110944564D01*
X206972880Y-111150400D01*
X206952607Y-111356236D01*
X206914186Y-111482895D01*
X206892567Y-111554163D01*
X206795067Y-111736572D01*
X206663854Y-111896454D01*
X206503972Y-112027667D01*
X206321563Y-112125167D01*
X206255587Y-112145180D01*
X206123636Y-112185207D01*
X206046507Y-112192803D01*
X205969380Y-112200400D01*
X205866220Y-112200400D01*
X205789093Y-112192803D01*
X205711964Y-112185207D01*
X205580013Y-112145180D01*
X205514037Y-112125167D01*
X205331628Y-112027667D01*
X205171746Y-111896454D01*
X205040533Y-111736572D01*
X204943033Y-111554163D01*
X204921414Y-111482895D01*
X204882993Y-111356236D01*
X204862720Y-111150400D01*
X204882993Y-110944564D01*
X204943033Y-110746638D01*
X204943033Y-110746637D01*
X205040533Y-110564228D01*
X205171746Y-110404346D01*
X205331628Y-110273133D01*
X205514037Y-110175633D01*
X205580013Y-110155620D01*
X205711964Y-110115593D01*
X205789093Y-110107996D01*
X205866220Y-110100400D01*
X205969380Y-110100400D01*
X206046507Y-110107996D01*
X206046507Y-110107996D01*
G37*
G36*
X237647000Y-107167200D02*
X237243218Y-107167200D01*
X237218832Y-107169602D01*
X237195383Y-107176715D01*
X237173772Y-107188266D01*
X237154830Y-107203812D01*
X237139284Y-107222754D01*
X237127733Y-107244365D01*
X237120620Y-107267814D01*
X237118218Y-107292200D01*
X237120620Y-107316586D01*
X237127733Y-107340035D01*
X237139284Y-107361646D01*
X237154830Y-107380588D01*
X237173770Y-107396133D01*
X237175705Y-107397426D01*
X237356774Y-107578495D01*
X237499046Y-107791420D01*
X237597042Y-108028004D01*
X237647000Y-108279160D01*
X237647000Y-108535240D01*
X237597042Y-108786396D01*
X237499046Y-109022980D01*
X237356774Y-109235905D01*
X237175705Y-109416974D01*
X236962780Y-109559246D01*
X236726196Y-109657242D01*
X236475040Y-109707200D01*
X236218960Y-109707200D01*
X235967804Y-109657242D01*
X235731220Y-109559246D01*
X235518295Y-109416974D01*
X235337226Y-109235905D01*
X235194954Y-109022980D01*
X235096958Y-108786396D01*
X235047000Y-108535240D01*
X235047000Y-108279160D01*
X235096958Y-108028004D01*
X235194954Y-107791420D01*
X235337226Y-107578495D01*
X235518295Y-107397426D01*
X235520230Y-107396133D01*
X235539172Y-107380587D01*
X235554717Y-107361645D01*
X235566268Y-107340034D01*
X235573381Y-107316584D01*
X235575782Y-107292198D01*
X235573380Y-107267812D01*
X235566266Y-107244363D01*
X235554715Y-107222752D01*
X235539169Y-107203810D01*
X235520227Y-107188265D01*
X235498616Y-107176714D01*
X235475166Y-107169601D01*
X235450782Y-107167200D01*
X235047000Y-107167200D01*
X235047000Y-104567200D01*
X237647000Y-104567200D01*
X237647000Y-107167200D01*
X237647000Y-107167200D01*
G37*
G36*
X206046507Y-107567997D02*
X206123636Y-107575593D01*
X206255587Y-107615620D01*
X206321563Y-107635633D01*
X206503972Y-107733133D01*
X206663854Y-107864346D01*
X206795067Y-108024228D01*
X206892567Y-108206637D01*
X206892567Y-108206638D01*
X206952607Y-108404564D01*
X206972880Y-108610400D01*
X206952607Y-108816236D01*
X206912580Y-108948187D01*
X206892567Y-109014163D01*
X206795067Y-109196572D01*
X206663854Y-109356454D01*
X206503972Y-109487667D01*
X206321563Y-109585167D01*
X206255587Y-109605180D01*
X206123636Y-109645207D01*
X206046507Y-109652803D01*
X205969380Y-109660400D01*
X205866220Y-109660400D01*
X205789093Y-109652803D01*
X205711964Y-109645207D01*
X205580013Y-109605180D01*
X205514037Y-109585167D01*
X205331628Y-109487667D01*
X205171746Y-109356454D01*
X205040533Y-109196572D01*
X204943033Y-109014163D01*
X204923020Y-108948187D01*
X204882993Y-108816236D01*
X204862720Y-108610400D01*
X204882993Y-108404564D01*
X204943033Y-108206638D01*
X204943033Y-108206637D01*
X205040533Y-108024228D01*
X205171746Y-107864346D01*
X205331628Y-107733133D01*
X205514037Y-107635633D01*
X205580013Y-107615620D01*
X205711964Y-107575593D01*
X205789093Y-107567997D01*
X205866220Y-107560400D01*
X205969380Y-107560400D01*
X206046507Y-107567997D01*
X206046507Y-107567997D01*
G37*
G36*
X233953318Y-107671611D02*
X234025767Y-107686022D01*
X234082303Y-107709440D01*
X234162257Y-107742558D01*
X234285100Y-107824639D01*
X234389561Y-107929100D01*
X234471642Y-108051943D01*
X234528178Y-108188434D01*
X234557000Y-108333330D01*
X234557000Y-108481070D01*
X234528178Y-108625966D01*
X234471642Y-108762457D01*
X234389561Y-108885300D01*
X234285100Y-108989761D01*
X234162257Y-109071842D01*
X234082303Y-109104960D01*
X234025767Y-109128378D01*
X233953318Y-109142789D01*
X233880870Y-109157200D01*
X233733130Y-109157200D01*
X233660682Y-109142789D01*
X233588233Y-109128378D01*
X233531697Y-109104960D01*
X233451743Y-109071842D01*
X233328900Y-108989761D01*
X233224439Y-108885300D01*
X233142358Y-108762457D01*
X233085822Y-108625966D01*
X233057000Y-108481070D01*
X233057000Y-108333330D01*
X233085822Y-108188434D01*
X233142358Y-108051943D01*
X233224439Y-107929100D01*
X233328900Y-107824639D01*
X233451743Y-107742558D01*
X233531697Y-107709440D01*
X233588233Y-107686022D01*
X233660682Y-107671611D01*
X233733130Y-107657200D01*
X233880870Y-107657200D01*
X233953318Y-107671611D01*
X233953318Y-107671611D01*
G37*
G36*
X224929452Y-105939127D02*
X225067105Y-105966508D01*
X225239994Y-106038121D01*
X225395590Y-106142087D01*
X225527913Y-106274410D01*
X225631879Y-106430006D01*
X225703492Y-106602895D01*
X225740000Y-106786433D01*
X225740000Y-106973567D01*
X225703492Y-107157105D01*
X225631879Y-107329994D01*
X225527913Y-107485590D01*
X225395590Y-107617913D01*
X225239994Y-107721879D01*
X225067105Y-107793492D01*
X224929451Y-107820873D01*
X224883568Y-107830000D01*
X224696432Y-107830000D01*
X224650549Y-107820873D01*
X224512895Y-107793492D01*
X224340006Y-107721879D01*
X224184410Y-107617913D01*
X224052087Y-107485590D01*
X223948121Y-107329994D01*
X223876508Y-107157105D01*
X223840000Y-106973567D01*
X223840000Y-106786433D01*
X223876508Y-106602895D01*
X223948121Y-106430006D01*
X224052087Y-106274410D01*
X224184410Y-106142087D01*
X224340006Y-106038121D01*
X224512895Y-105966508D01*
X224650548Y-105939127D01*
X224696432Y-105930000D01*
X224883568Y-105930000D01*
X224929452Y-105939127D01*
X224929452Y-105939127D01*
G37*
G36*
X206046507Y-105027996D02*
X206123636Y-105035593D01*
X206255587Y-105075620D01*
X206321563Y-105095633D01*
X206503972Y-105193133D01*
X206663854Y-105324346D01*
X206795067Y-105484228D01*
X206892567Y-105666637D01*
X206892567Y-105666638D01*
X206952607Y-105864564D01*
X206972880Y-106070400D01*
X206952607Y-106276236D01*
X206912580Y-106408187D01*
X206892567Y-106474163D01*
X206795067Y-106656572D01*
X206663854Y-106816454D01*
X206503972Y-106947667D01*
X206321563Y-107045167D01*
X206255587Y-107065180D01*
X206123636Y-107105207D01*
X206046507Y-107112804D01*
X205969380Y-107120400D01*
X205866220Y-107120400D01*
X205789093Y-107112804D01*
X205711964Y-107105207D01*
X205580013Y-107065180D01*
X205514037Y-107045167D01*
X205331628Y-106947667D01*
X205171746Y-106816454D01*
X205040533Y-106656572D01*
X204943033Y-106474163D01*
X204923020Y-106408187D01*
X204882993Y-106276236D01*
X204862720Y-106070400D01*
X204882993Y-105864564D01*
X204943033Y-105666638D01*
X204943033Y-105666637D01*
X205040533Y-105484228D01*
X205171746Y-105324346D01*
X205331628Y-105193133D01*
X205514037Y-105095633D01*
X205580013Y-105075620D01*
X205711964Y-105035593D01*
X205789093Y-105027997D01*
X205866220Y-105020400D01*
X205969380Y-105020400D01*
X206046507Y-105027996D01*
X206046507Y-105027996D01*
G37*
G36*
X233953318Y-105131611D02*
X234025767Y-105146022D01*
X234082303Y-105169440D01*
X234162257Y-105202558D01*
X234285100Y-105284639D01*
X234389561Y-105389100D01*
X234471642Y-105511943D01*
X234528178Y-105648434D01*
X234557000Y-105793330D01*
X234557000Y-105941070D01*
X234528178Y-106085966D01*
X234471642Y-106222457D01*
X234389561Y-106345300D01*
X234285100Y-106449761D01*
X234162257Y-106531842D01*
X234082303Y-106564960D01*
X234025767Y-106588378D01*
X233953318Y-106602789D01*
X233880870Y-106617200D01*
X233733130Y-106617200D01*
X233660682Y-106602789D01*
X233588233Y-106588378D01*
X233531697Y-106564960D01*
X233451743Y-106531842D01*
X233328900Y-106449761D01*
X233224439Y-106345300D01*
X233142358Y-106222457D01*
X233085822Y-106085966D01*
X233057000Y-105941070D01*
X233057000Y-105793330D01*
X233085822Y-105648434D01*
X233142358Y-105511943D01*
X233224439Y-105389100D01*
X233328900Y-105284639D01*
X233451743Y-105202558D01*
X233531697Y-105169440D01*
X233588233Y-105146022D01*
X233660682Y-105131611D01*
X233733130Y-105117200D01*
X233880870Y-105117200D01*
X233953318Y-105131611D01*
X233953318Y-105131611D01*
G37*
G36*
X206046507Y-102487996D02*
X206123636Y-102495593D01*
X206255587Y-102535620D01*
X206321563Y-102555633D01*
X206503972Y-102653133D01*
X206663854Y-102784346D01*
X206795067Y-102944228D01*
X206892567Y-103126637D01*
X206892567Y-103126638D01*
X206952607Y-103324564D01*
X206972880Y-103530400D01*
X206952607Y-103736236D01*
X206912580Y-103868187D01*
X206892567Y-103934163D01*
X206795067Y-104116572D01*
X206663854Y-104276454D01*
X206503972Y-104407667D01*
X206321563Y-104505167D01*
X206255587Y-104525180D01*
X206123636Y-104565207D01*
X206046507Y-104572804D01*
X205969380Y-104580400D01*
X205866220Y-104580400D01*
X205789093Y-104572803D01*
X205711964Y-104565207D01*
X205580013Y-104525180D01*
X205514037Y-104505167D01*
X205331628Y-104407667D01*
X205171746Y-104276454D01*
X205040533Y-104116572D01*
X204943033Y-103934163D01*
X204923020Y-103868187D01*
X204882993Y-103736236D01*
X204862720Y-103530400D01*
X204882993Y-103324564D01*
X204943033Y-103126638D01*
X204943033Y-103126637D01*
X205040533Y-102944228D01*
X205171746Y-102784346D01*
X205331628Y-102653133D01*
X205514037Y-102555633D01*
X205580013Y-102535620D01*
X205711964Y-102495593D01*
X205789093Y-102487996D01*
X205866220Y-102480400D01*
X205969380Y-102480400D01*
X206046507Y-102487996D01*
X206046507Y-102487996D01*
G37*
M02*
