G04 #@! TF.GenerationSoftware,KiCad,Pcbnew,(5.0.1)-4*
G04 #@! TF.CreationDate,2019-07-04T23:41:43-04:00*
G04 #@! TF.ProjectId,Receiver Board,526563656976657220426F6172642E6B,rev?*
G04 #@! TF.SameCoordinates,Original*
G04 #@! TF.FileFunction,Paste,Top*
G04 #@! TF.FilePolarity,Positive*
%FSLAX46Y46*%
G04 Gerber Fmt 4.6, Leading zero omitted, Abs format (unit mm)*
G04 Created by KiCad (PCBNEW (5.0.1)-4) date 7/4/2019 11:41:43 PM*
%MOMM*%
%LPD*%
G01*
G04 APERTURE LIST*
%ADD10C,0.100000*%
%ADD11C,1.125000*%
%ADD12R,1.500000X1.900000*%
%ADD13R,0.400000X1.350000*%
%ADD14R,1.550000X1.300000*%
%ADD15R,1.600000X0.700000*%
%ADD16R,0.600000X2.000000*%
%ADD17R,0.600000X1.500000*%
%ADD18R,1.500000X0.600000*%
%ADD19C,0.875000*%
G04 APERTURE END LIST*
D10*
G04 #@! TO.C,F1*
G36*
X160472505Y-63325204D02*
X160496773Y-63328804D01*
X160520572Y-63334765D01*
X160543671Y-63343030D01*
X160565850Y-63353520D01*
X160586893Y-63366132D01*
X160606599Y-63380747D01*
X160624777Y-63397223D01*
X160641253Y-63415401D01*
X160655868Y-63435107D01*
X160668480Y-63456150D01*
X160678970Y-63478329D01*
X160687235Y-63501428D01*
X160693196Y-63525227D01*
X160696796Y-63549495D01*
X160698000Y-63573999D01*
X160698000Y-66474001D01*
X160696796Y-66498505D01*
X160693196Y-66522773D01*
X160687235Y-66546572D01*
X160678970Y-66569671D01*
X160668480Y-66591850D01*
X160655868Y-66612893D01*
X160641253Y-66632599D01*
X160624777Y-66650777D01*
X160606599Y-66667253D01*
X160586893Y-66681868D01*
X160565850Y-66694480D01*
X160543671Y-66704970D01*
X160520572Y-66713235D01*
X160496773Y-66719196D01*
X160472505Y-66722796D01*
X160448001Y-66724000D01*
X159822999Y-66724000D01*
X159798495Y-66722796D01*
X159774227Y-66719196D01*
X159750428Y-66713235D01*
X159727329Y-66704970D01*
X159705150Y-66694480D01*
X159684107Y-66681868D01*
X159664401Y-66667253D01*
X159646223Y-66650777D01*
X159629747Y-66632599D01*
X159615132Y-66612893D01*
X159602520Y-66591850D01*
X159592030Y-66569671D01*
X159583765Y-66546572D01*
X159577804Y-66522773D01*
X159574204Y-66498505D01*
X159573000Y-66474001D01*
X159573000Y-63573999D01*
X159574204Y-63549495D01*
X159577804Y-63525227D01*
X159583765Y-63501428D01*
X159592030Y-63478329D01*
X159602520Y-63456150D01*
X159615132Y-63435107D01*
X159629747Y-63415401D01*
X159646223Y-63397223D01*
X159664401Y-63380747D01*
X159684107Y-63366132D01*
X159705150Y-63353520D01*
X159727329Y-63343030D01*
X159750428Y-63334765D01*
X159774227Y-63328804D01*
X159798495Y-63325204D01*
X159822999Y-63324000D01*
X160448001Y-63324000D01*
X160472505Y-63325204D01*
X160472505Y-63325204D01*
G37*
D11*
X160135500Y-65024000D03*
D10*
G36*
X156197505Y-63325204D02*
X156221773Y-63328804D01*
X156245572Y-63334765D01*
X156268671Y-63343030D01*
X156290850Y-63353520D01*
X156311893Y-63366132D01*
X156331599Y-63380747D01*
X156349777Y-63397223D01*
X156366253Y-63415401D01*
X156380868Y-63435107D01*
X156393480Y-63456150D01*
X156403970Y-63478329D01*
X156412235Y-63501428D01*
X156418196Y-63525227D01*
X156421796Y-63549495D01*
X156423000Y-63573999D01*
X156423000Y-66474001D01*
X156421796Y-66498505D01*
X156418196Y-66522773D01*
X156412235Y-66546572D01*
X156403970Y-66569671D01*
X156393480Y-66591850D01*
X156380868Y-66612893D01*
X156366253Y-66632599D01*
X156349777Y-66650777D01*
X156331599Y-66667253D01*
X156311893Y-66681868D01*
X156290850Y-66694480D01*
X156268671Y-66704970D01*
X156245572Y-66713235D01*
X156221773Y-66719196D01*
X156197505Y-66722796D01*
X156173001Y-66724000D01*
X155547999Y-66724000D01*
X155523495Y-66722796D01*
X155499227Y-66719196D01*
X155475428Y-66713235D01*
X155452329Y-66704970D01*
X155430150Y-66694480D01*
X155409107Y-66681868D01*
X155389401Y-66667253D01*
X155371223Y-66650777D01*
X155354747Y-66632599D01*
X155340132Y-66612893D01*
X155327520Y-66591850D01*
X155317030Y-66569671D01*
X155308765Y-66546572D01*
X155302804Y-66522773D01*
X155299204Y-66498505D01*
X155298000Y-66474001D01*
X155298000Y-63573999D01*
X155299204Y-63549495D01*
X155302804Y-63525227D01*
X155308765Y-63501428D01*
X155317030Y-63478329D01*
X155327520Y-63456150D01*
X155340132Y-63435107D01*
X155354747Y-63415401D01*
X155371223Y-63397223D01*
X155389401Y-63380747D01*
X155409107Y-63366132D01*
X155430150Y-63353520D01*
X155452329Y-63343030D01*
X155475428Y-63334765D01*
X155499227Y-63328804D01*
X155523495Y-63325204D01*
X155547999Y-63324000D01*
X156173001Y-63324000D01*
X156197505Y-63325204D01*
X156197505Y-63325204D01*
G37*
D11*
X155860500Y-65024000D03*
G04 #@! TD*
D12*
G04 #@! TO.C,J3*
X162798000Y-73056000D03*
D13*
X161148000Y-70356000D03*
X160498000Y-70356000D03*
X163098000Y-70356000D03*
X162448000Y-70356000D03*
X161798000Y-70356000D03*
D12*
X160798000Y-73056000D03*
G04 #@! TD*
D14*
G04 #@! TO.C,SW1*
X168740000Y-71846000D03*
X168740000Y-67346000D03*
X176700000Y-67346000D03*
X176700000Y-71846000D03*
G04 #@! TD*
D15*
G04 #@! TO.C,U1*
X150039000Y-70485000D03*
X150039000Y-71755000D03*
X150039000Y-69215000D03*
X150039000Y-73025000D03*
X145109000Y-69215000D03*
X145109000Y-70485000D03*
X145109000Y-71755000D03*
X145109000Y-73025000D03*
G04 #@! TD*
D16*
G04 #@! TO.C,U2*
X136906000Y-58802000D03*
X138176000Y-58802000D03*
X139446000Y-58802000D03*
X140716000Y-58802000D03*
X141986000Y-58802000D03*
X143256000Y-58802000D03*
X144526000Y-58802000D03*
X145796000Y-58802000D03*
X147066000Y-58802000D03*
X147066000Y-49402000D03*
X145796000Y-49402000D03*
X144526000Y-49402000D03*
X143256000Y-49402000D03*
X141986000Y-49402000D03*
X140716000Y-49402000D03*
X139446000Y-49402000D03*
X138176000Y-49402000D03*
X136906000Y-49402000D03*
G04 #@! TD*
D17*
G04 #@! TO.C,U3*
X163576000Y-56246000D03*
X162776000Y-56246000D03*
X161976000Y-56246000D03*
X161176000Y-56246000D03*
X160376000Y-56246000D03*
X159576000Y-56246000D03*
X164376000Y-56246000D03*
X165176000Y-56246000D03*
X165976000Y-56246000D03*
X166776000Y-56246000D03*
X167576000Y-56246000D03*
X163576000Y-44846000D03*
X162776000Y-44846000D03*
X161976000Y-44846000D03*
X161176000Y-44846000D03*
X160376000Y-44846000D03*
X159576000Y-44846000D03*
X164376000Y-44846000D03*
X165176000Y-44846000D03*
X165976000Y-44846000D03*
X166776000Y-44846000D03*
X167576000Y-44846000D03*
D18*
X169276000Y-50546000D03*
X169276000Y-49746000D03*
X169276000Y-48946000D03*
X169276000Y-48146000D03*
X169276000Y-47346000D03*
X169276000Y-46546000D03*
X169276000Y-51346000D03*
X169276000Y-52146000D03*
X169276000Y-52946000D03*
X169276000Y-53746000D03*
X169276000Y-54546000D03*
X157876000Y-46546000D03*
X157876000Y-47346000D03*
X157876000Y-48146000D03*
X157876000Y-48946000D03*
X157876000Y-49746000D03*
X157876000Y-50546000D03*
X157876000Y-51346000D03*
X157876000Y-52146000D03*
X157876000Y-52946000D03*
X157876000Y-53746000D03*
X157876000Y-54546000D03*
G04 #@! TD*
D10*
G04 #@! TO.C,C1*
G36*
X137437691Y-63825553D02*
X137458926Y-63828703D01*
X137479750Y-63833919D01*
X137499962Y-63841151D01*
X137519368Y-63850330D01*
X137537781Y-63861366D01*
X137555024Y-63874154D01*
X137570930Y-63888570D01*
X137585346Y-63904476D01*
X137598134Y-63921719D01*
X137609170Y-63940132D01*
X137618349Y-63959538D01*
X137625581Y-63979750D01*
X137630797Y-64000574D01*
X137633947Y-64021809D01*
X137635000Y-64043250D01*
X137635000Y-64480750D01*
X137633947Y-64502191D01*
X137630797Y-64523426D01*
X137625581Y-64544250D01*
X137618349Y-64564462D01*
X137609170Y-64583868D01*
X137598134Y-64602281D01*
X137585346Y-64619524D01*
X137570930Y-64635430D01*
X137555024Y-64649846D01*
X137537781Y-64662634D01*
X137519368Y-64673670D01*
X137499962Y-64682849D01*
X137479750Y-64690081D01*
X137458926Y-64695297D01*
X137437691Y-64698447D01*
X137416250Y-64699500D01*
X136903750Y-64699500D01*
X136882309Y-64698447D01*
X136861074Y-64695297D01*
X136840250Y-64690081D01*
X136820038Y-64682849D01*
X136800632Y-64673670D01*
X136782219Y-64662634D01*
X136764976Y-64649846D01*
X136749070Y-64635430D01*
X136734654Y-64619524D01*
X136721866Y-64602281D01*
X136710830Y-64583868D01*
X136701651Y-64564462D01*
X136694419Y-64544250D01*
X136689203Y-64523426D01*
X136686053Y-64502191D01*
X136685000Y-64480750D01*
X136685000Y-64043250D01*
X136686053Y-64021809D01*
X136689203Y-64000574D01*
X136694419Y-63979750D01*
X136701651Y-63959538D01*
X136710830Y-63940132D01*
X136721866Y-63921719D01*
X136734654Y-63904476D01*
X136749070Y-63888570D01*
X136764976Y-63874154D01*
X136782219Y-63861366D01*
X136800632Y-63850330D01*
X136820038Y-63841151D01*
X136840250Y-63833919D01*
X136861074Y-63828703D01*
X136882309Y-63825553D01*
X136903750Y-63824500D01*
X137416250Y-63824500D01*
X137437691Y-63825553D01*
X137437691Y-63825553D01*
G37*
D19*
X137160000Y-64262000D03*
D10*
G36*
X137437691Y-65400553D02*
X137458926Y-65403703D01*
X137479750Y-65408919D01*
X137499962Y-65416151D01*
X137519368Y-65425330D01*
X137537781Y-65436366D01*
X137555024Y-65449154D01*
X137570930Y-65463570D01*
X137585346Y-65479476D01*
X137598134Y-65496719D01*
X137609170Y-65515132D01*
X137618349Y-65534538D01*
X137625581Y-65554750D01*
X137630797Y-65575574D01*
X137633947Y-65596809D01*
X137635000Y-65618250D01*
X137635000Y-66055750D01*
X137633947Y-66077191D01*
X137630797Y-66098426D01*
X137625581Y-66119250D01*
X137618349Y-66139462D01*
X137609170Y-66158868D01*
X137598134Y-66177281D01*
X137585346Y-66194524D01*
X137570930Y-66210430D01*
X137555024Y-66224846D01*
X137537781Y-66237634D01*
X137519368Y-66248670D01*
X137499962Y-66257849D01*
X137479750Y-66265081D01*
X137458926Y-66270297D01*
X137437691Y-66273447D01*
X137416250Y-66274500D01*
X136903750Y-66274500D01*
X136882309Y-66273447D01*
X136861074Y-66270297D01*
X136840250Y-66265081D01*
X136820038Y-66257849D01*
X136800632Y-66248670D01*
X136782219Y-66237634D01*
X136764976Y-66224846D01*
X136749070Y-66210430D01*
X136734654Y-66194524D01*
X136721866Y-66177281D01*
X136710830Y-66158868D01*
X136701651Y-66139462D01*
X136694419Y-66119250D01*
X136689203Y-66098426D01*
X136686053Y-66077191D01*
X136685000Y-66055750D01*
X136685000Y-65618250D01*
X136686053Y-65596809D01*
X136689203Y-65575574D01*
X136694419Y-65554750D01*
X136701651Y-65534538D01*
X136710830Y-65515132D01*
X136721866Y-65496719D01*
X136734654Y-65479476D01*
X136749070Y-65463570D01*
X136764976Y-65449154D01*
X136782219Y-65436366D01*
X136800632Y-65425330D01*
X136820038Y-65416151D01*
X136840250Y-65408919D01*
X136861074Y-65403703D01*
X136882309Y-65400553D01*
X136903750Y-65399500D01*
X137416250Y-65399500D01*
X137437691Y-65400553D01*
X137437691Y-65400553D01*
G37*
D19*
X137160000Y-65837000D03*
G04 #@! TD*
D10*
G04 #@! TO.C,C2*
G36*
X153439691Y-65400553D02*
X153460926Y-65403703D01*
X153481750Y-65408919D01*
X153501962Y-65416151D01*
X153521368Y-65425330D01*
X153539781Y-65436366D01*
X153557024Y-65449154D01*
X153572930Y-65463570D01*
X153587346Y-65479476D01*
X153600134Y-65496719D01*
X153611170Y-65515132D01*
X153620349Y-65534538D01*
X153627581Y-65554750D01*
X153632797Y-65575574D01*
X153635947Y-65596809D01*
X153637000Y-65618250D01*
X153637000Y-66055750D01*
X153635947Y-66077191D01*
X153632797Y-66098426D01*
X153627581Y-66119250D01*
X153620349Y-66139462D01*
X153611170Y-66158868D01*
X153600134Y-66177281D01*
X153587346Y-66194524D01*
X153572930Y-66210430D01*
X153557024Y-66224846D01*
X153539781Y-66237634D01*
X153521368Y-66248670D01*
X153501962Y-66257849D01*
X153481750Y-66265081D01*
X153460926Y-66270297D01*
X153439691Y-66273447D01*
X153418250Y-66274500D01*
X152905750Y-66274500D01*
X152884309Y-66273447D01*
X152863074Y-66270297D01*
X152842250Y-66265081D01*
X152822038Y-66257849D01*
X152802632Y-66248670D01*
X152784219Y-66237634D01*
X152766976Y-66224846D01*
X152751070Y-66210430D01*
X152736654Y-66194524D01*
X152723866Y-66177281D01*
X152712830Y-66158868D01*
X152703651Y-66139462D01*
X152696419Y-66119250D01*
X152691203Y-66098426D01*
X152688053Y-66077191D01*
X152687000Y-66055750D01*
X152687000Y-65618250D01*
X152688053Y-65596809D01*
X152691203Y-65575574D01*
X152696419Y-65554750D01*
X152703651Y-65534538D01*
X152712830Y-65515132D01*
X152723866Y-65496719D01*
X152736654Y-65479476D01*
X152751070Y-65463570D01*
X152766976Y-65449154D01*
X152784219Y-65436366D01*
X152802632Y-65425330D01*
X152822038Y-65416151D01*
X152842250Y-65408919D01*
X152863074Y-65403703D01*
X152884309Y-65400553D01*
X152905750Y-65399500D01*
X153418250Y-65399500D01*
X153439691Y-65400553D01*
X153439691Y-65400553D01*
G37*
D19*
X153162000Y-65837000D03*
D10*
G36*
X153439691Y-63825553D02*
X153460926Y-63828703D01*
X153481750Y-63833919D01*
X153501962Y-63841151D01*
X153521368Y-63850330D01*
X153539781Y-63861366D01*
X153557024Y-63874154D01*
X153572930Y-63888570D01*
X153587346Y-63904476D01*
X153600134Y-63921719D01*
X153611170Y-63940132D01*
X153620349Y-63959538D01*
X153627581Y-63979750D01*
X153632797Y-64000574D01*
X153635947Y-64021809D01*
X153637000Y-64043250D01*
X153637000Y-64480750D01*
X153635947Y-64502191D01*
X153632797Y-64523426D01*
X153627581Y-64544250D01*
X153620349Y-64564462D01*
X153611170Y-64583868D01*
X153600134Y-64602281D01*
X153587346Y-64619524D01*
X153572930Y-64635430D01*
X153557024Y-64649846D01*
X153539781Y-64662634D01*
X153521368Y-64673670D01*
X153501962Y-64682849D01*
X153481750Y-64690081D01*
X153460926Y-64695297D01*
X153439691Y-64698447D01*
X153418250Y-64699500D01*
X152905750Y-64699500D01*
X152884309Y-64698447D01*
X152863074Y-64695297D01*
X152842250Y-64690081D01*
X152822038Y-64682849D01*
X152802632Y-64673670D01*
X152784219Y-64662634D01*
X152766976Y-64649846D01*
X152751070Y-64635430D01*
X152736654Y-64619524D01*
X152723866Y-64602281D01*
X152712830Y-64583868D01*
X152703651Y-64564462D01*
X152696419Y-64544250D01*
X152691203Y-64523426D01*
X152688053Y-64502191D01*
X152687000Y-64480750D01*
X152687000Y-64043250D01*
X152688053Y-64021809D01*
X152691203Y-64000574D01*
X152696419Y-63979750D01*
X152703651Y-63959538D01*
X152712830Y-63940132D01*
X152723866Y-63921719D01*
X152736654Y-63904476D01*
X152751070Y-63888570D01*
X152766976Y-63874154D01*
X152784219Y-63861366D01*
X152802632Y-63850330D01*
X152822038Y-63841151D01*
X152842250Y-63833919D01*
X152863074Y-63828703D01*
X152884309Y-63825553D01*
X152905750Y-63824500D01*
X153418250Y-63824500D01*
X153439691Y-63825553D01*
X153439691Y-63825553D01*
G37*
D19*
X153162000Y-64262000D03*
G04 #@! TD*
D10*
G04 #@! TO.C,C3*
G36*
X154963691Y-52509553D02*
X154984926Y-52512703D01*
X155005750Y-52517919D01*
X155025962Y-52525151D01*
X155045368Y-52534330D01*
X155063781Y-52545366D01*
X155081024Y-52558154D01*
X155096930Y-52572570D01*
X155111346Y-52588476D01*
X155124134Y-52605719D01*
X155135170Y-52624132D01*
X155144349Y-52643538D01*
X155151581Y-52663750D01*
X155156797Y-52684574D01*
X155159947Y-52705809D01*
X155161000Y-52727250D01*
X155161000Y-53164750D01*
X155159947Y-53186191D01*
X155156797Y-53207426D01*
X155151581Y-53228250D01*
X155144349Y-53248462D01*
X155135170Y-53267868D01*
X155124134Y-53286281D01*
X155111346Y-53303524D01*
X155096930Y-53319430D01*
X155081024Y-53333846D01*
X155063781Y-53346634D01*
X155045368Y-53357670D01*
X155025962Y-53366849D01*
X155005750Y-53374081D01*
X154984926Y-53379297D01*
X154963691Y-53382447D01*
X154942250Y-53383500D01*
X154429750Y-53383500D01*
X154408309Y-53382447D01*
X154387074Y-53379297D01*
X154366250Y-53374081D01*
X154346038Y-53366849D01*
X154326632Y-53357670D01*
X154308219Y-53346634D01*
X154290976Y-53333846D01*
X154275070Y-53319430D01*
X154260654Y-53303524D01*
X154247866Y-53286281D01*
X154236830Y-53267868D01*
X154227651Y-53248462D01*
X154220419Y-53228250D01*
X154215203Y-53207426D01*
X154212053Y-53186191D01*
X154211000Y-53164750D01*
X154211000Y-52727250D01*
X154212053Y-52705809D01*
X154215203Y-52684574D01*
X154220419Y-52663750D01*
X154227651Y-52643538D01*
X154236830Y-52624132D01*
X154247866Y-52605719D01*
X154260654Y-52588476D01*
X154275070Y-52572570D01*
X154290976Y-52558154D01*
X154308219Y-52545366D01*
X154326632Y-52534330D01*
X154346038Y-52525151D01*
X154366250Y-52517919D01*
X154387074Y-52512703D01*
X154408309Y-52509553D01*
X154429750Y-52508500D01*
X154942250Y-52508500D01*
X154963691Y-52509553D01*
X154963691Y-52509553D01*
G37*
D19*
X154686000Y-52946000D03*
D10*
G36*
X154963691Y-50934553D02*
X154984926Y-50937703D01*
X155005750Y-50942919D01*
X155025962Y-50950151D01*
X155045368Y-50959330D01*
X155063781Y-50970366D01*
X155081024Y-50983154D01*
X155096930Y-50997570D01*
X155111346Y-51013476D01*
X155124134Y-51030719D01*
X155135170Y-51049132D01*
X155144349Y-51068538D01*
X155151581Y-51088750D01*
X155156797Y-51109574D01*
X155159947Y-51130809D01*
X155161000Y-51152250D01*
X155161000Y-51589750D01*
X155159947Y-51611191D01*
X155156797Y-51632426D01*
X155151581Y-51653250D01*
X155144349Y-51673462D01*
X155135170Y-51692868D01*
X155124134Y-51711281D01*
X155111346Y-51728524D01*
X155096930Y-51744430D01*
X155081024Y-51758846D01*
X155063781Y-51771634D01*
X155045368Y-51782670D01*
X155025962Y-51791849D01*
X155005750Y-51799081D01*
X154984926Y-51804297D01*
X154963691Y-51807447D01*
X154942250Y-51808500D01*
X154429750Y-51808500D01*
X154408309Y-51807447D01*
X154387074Y-51804297D01*
X154366250Y-51799081D01*
X154346038Y-51791849D01*
X154326632Y-51782670D01*
X154308219Y-51771634D01*
X154290976Y-51758846D01*
X154275070Y-51744430D01*
X154260654Y-51728524D01*
X154247866Y-51711281D01*
X154236830Y-51692868D01*
X154227651Y-51673462D01*
X154220419Y-51653250D01*
X154215203Y-51632426D01*
X154212053Y-51611191D01*
X154211000Y-51589750D01*
X154211000Y-51152250D01*
X154212053Y-51130809D01*
X154215203Y-51109574D01*
X154220419Y-51088750D01*
X154227651Y-51068538D01*
X154236830Y-51049132D01*
X154247866Y-51030719D01*
X154260654Y-51013476D01*
X154275070Y-50997570D01*
X154290976Y-50983154D01*
X154308219Y-50970366D01*
X154326632Y-50959330D01*
X154346038Y-50950151D01*
X154366250Y-50942919D01*
X154387074Y-50937703D01*
X154408309Y-50934553D01*
X154429750Y-50933500D01*
X154942250Y-50933500D01*
X154963691Y-50934553D01*
X154963691Y-50934553D01*
G37*
D19*
X154686000Y-51371000D03*
G04 #@! TD*
D10*
G04 #@! TO.C,C4*
G36*
X168591191Y-41182053D02*
X168612426Y-41185203D01*
X168633250Y-41190419D01*
X168653462Y-41197651D01*
X168672868Y-41206830D01*
X168691281Y-41217866D01*
X168708524Y-41230654D01*
X168724430Y-41245070D01*
X168738846Y-41260976D01*
X168751634Y-41278219D01*
X168762670Y-41296632D01*
X168771849Y-41316038D01*
X168779081Y-41336250D01*
X168784297Y-41357074D01*
X168787447Y-41378309D01*
X168788500Y-41399750D01*
X168788500Y-41912250D01*
X168787447Y-41933691D01*
X168784297Y-41954926D01*
X168779081Y-41975750D01*
X168771849Y-41995962D01*
X168762670Y-42015368D01*
X168751634Y-42033781D01*
X168738846Y-42051024D01*
X168724430Y-42066930D01*
X168708524Y-42081346D01*
X168691281Y-42094134D01*
X168672868Y-42105170D01*
X168653462Y-42114349D01*
X168633250Y-42121581D01*
X168612426Y-42126797D01*
X168591191Y-42129947D01*
X168569750Y-42131000D01*
X168132250Y-42131000D01*
X168110809Y-42129947D01*
X168089574Y-42126797D01*
X168068750Y-42121581D01*
X168048538Y-42114349D01*
X168029132Y-42105170D01*
X168010719Y-42094134D01*
X167993476Y-42081346D01*
X167977570Y-42066930D01*
X167963154Y-42051024D01*
X167950366Y-42033781D01*
X167939330Y-42015368D01*
X167930151Y-41995962D01*
X167922919Y-41975750D01*
X167917703Y-41954926D01*
X167914553Y-41933691D01*
X167913500Y-41912250D01*
X167913500Y-41399750D01*
X167914553Y-41378309D01*
X167917703Y-41357074D01*
X167922919Y-41336250D01*
X167930151Y-41316038D01*
X167939330Y-41296632D01*
X167950366Y-41278219D01*
X167963154Y-41260976D01*
X167977570Y-41245070D01*
X167993476Y-41230654D01*
X168010719Y-41217866D01*
X168029132Y-41206830D01*
X168048538Y-41197651D01*
X168068750Y-41190419D01*
X168089574Y-41185203D01*
X168110809Y-41182053D01*
X168132250Y-41181000D01*
X168569750Y-41181000D01*
X168591191Y-41182053D01*
X168591191Y-41182053D01*
G37*
D19*
X168351000Y-41656000D03*
D10*
G36*
X167016191Y-41182053D02*
X167037426Y-41185203D01*
X167058250Y-41190419D01*
X167078462Y-41197651D01*
X167097868Y-41206830D01*
X167116281Y-41217866D01*
X167133524Y-41230654D01*
X167149430Y-41245070D01*
X167163846Y-41260976D01*
X167176634Y-41278219D01*
X167187670Y-41296632D01*
X167196849Y-41316038D01*
X167204081Y-41336250D01*
X167209297Y-41357074D01*
X167212447Y-41378309D01*
X167213500Y-41399750D01*
X167213500Y-41912250D01*
X167212447Y-41933691D01*
X167209297Y-41954926D01*
X167204081Y-41975750D01*
X167196849Y-41995962D01*
X167187670Y-42015368D01*
X167176634Y-42033781D01*
X167163846Y-42051024D01*
X167149430Y-42066930D01*
X167133524Y-42081346D01*
X167116281Y-42094134D01*
X167097868Y-42105170D01*
X167078462Y-42114349D01*
X167058250Y-42121581D01*
X167037426Y-42126797D01*
X167016191Y-42129947D01*
X166994750Y-42131000D01*
X166557250Y-42131000D01*
X166535809Y-42129947D01*
X166514574Y-42126797D01*
X166493750Y-42121581D01*
X166473538Y-42114349D01*
X166454132Y-42105170D01*
X166435719Y-42094134D01*
X166418476Y-42081346D01*
X166402570Y-42066930D01*
X166388154Y-42051024D01*
X166375366Y-42033781D01*
X166364330Y-42015368D01*
X166355151Y-41995962D01*
X166347919Y-41975750D01*
X166342703Y-41954926D01*
X166339553Y-41933691D01*
X166338500Y-41912250D01*
X166338500Y-41399750D01*
X166339553Y-41378309D01*
X166342703Y-41357074D01*
X166347919Y-41336250D01*
X166355151Y-41316038D01*
X166364330Y-41296632D01*
X166375366Y-41278219D01*
X166388154Y-41260976D01*
X166402570Y-41245070D01*
X166418476Y-41230654D01*
X166435719Y-41217866D01*
X166454132Y-41206830D01*
X166473538Y-41197651D01*
X166493750Y-41190419D01*
X166514574Y-41185203D01*
X166535809Y-41182053D01*
X166557250Y-41181000D01*
X166994750Y-41181000D01*
X167016191Y-41182053D01*
X167016191Y-41182053D01*
G37*
D19*
X166776000Y-41656000D03*
G04 #@! TD*
D10*
G04 #@! TO.C,C5*
G36*
X154963691Y-46109553D02*
X154984926Y-46112703D01*
X155005750Y-46117919D01*
X155025962Y-46125151D01*
X155045368Y-46134330D01*
X155063781Y-46145366D01*
X155081024Y-46158154D01*
X155096930Y-46172570D01*
X155111346Y-46188476D01*
X155124134Y-46205719D01*
X155135170Y-46224132D01*
X155144349Y-46243538D01*
X155151581Y-46263750D01*
X155156797Y-46284574D01*
X155159947Y-46305809D01*
X155161000Y-46327250D01*
X155161000Y-46764750D01*
X155159947Y-46786191D01*
X155156797Y-46807426D01*
X155151581Y-46828250D01*
X155144349Y-46848462D01*
X155135170Y-46867868D01*
X155124134Y-46886281D01*
X155111346Y-46903524D01*
X155096930Y-46919430D01*
X155081024Y-46933846D01*
X155063781Y-46946634D01*
X155045368Y-46957670D01*
X155025962Y-46966849D01*
X155005750Y-46974081D01*
X154984926Y-46979297D01*
X154963691Y-46982447D01*
X154942250Y-46983500D01*
X154429750Y-46983500D01*
X154408309Y-46982447D01*
X154387074Y-46979297D01*
X154366250Y-46974081D01*
X154346038Y-46966849D01*
X154326632Y-46957670D01*
X154308219Y-46946634D01*
X154290976Y-46933846D01*
X154275070Y-46919430D01*
X154260654Y-46903524D01*
X154247866Y-46886281D01*
X154236830Y-46867868D01*
X154227651Y-46848462D01*
X154220419Y-46828250D01*
X154215203Y-46807426D01*
X154212053Y-46786191D01*
X154211000Y-46764750D01*
X154211000Y-46327250D01*
X154212053Y-46305809D01*
X154215203Y-46284574D01*
X154220419Y-46263750D01*
X154227651Y-46243538D01*
X154236830Y-46224132D01*
X154247866Y-46205719D01*
X154260654Y-46188476D01*
X154275070Y-46172570D01*
X154290976Y-46158154D01*
X154308219Y-46145366D01*
X154326632Y-46134330D01*
X154346038Y-46125151D01*
X154366250Y-46117919D01*
X154387074Y-46112703D01*
X154408309Y-46109553D01*
X154429750Y-46108500D01*
X154942250Y-46108500D01*
X154963691Y-46109553D01*
X154963691Y-46109553D01*
G37*
D19*
X154686000Y-46546000D03*
D10*
G36*
X154963691Y-47684553D02*
X154984926Y-47687703D01*
X155005750Y-47692919D01*
X155025962Y-47700151D01*
X155045368Y-47709330D01*
X155063781Y-47720366D01*
X155081024Y-47733154D01*
X155096930Y-47747570D01*
X155111346Y-47763476D01*
X155124134Y-47780719D01*
X155135170Y-47799132D01*
X155144349Y-47818538D01*
X155151581Y-47838750D01*
X155156797Y-47859574D01*
X155159947Y-47880809D01*
X155161000Y-47902250D01*
X155161000Y-48339750D01*
X155159947Y-48361191D01*
X155156797Y-48382426D01*
X155151581Y-48403250D01*
X155144349Y-48423462D01*
X155135170Y-48442868D01*
X155124134Y-48461281D01*
X155111346Y-48478524D01*
X155096930Y-48494430D01*
X155081024Y-48508846D01*
X155063781Y-48521634D01*
X155045368Y-48532670D01*
X155025962Y-48541849D01*
X155005750Y-48549081D01*
X154984926Y-48554297D01*
X154963691Y-48557447D01*
X154942250Y-48558500D01*
X154429750Y-48558500D01*
X154408309Y-48557447D01*
X154387074Y-48554297D01*
X154366250Y-48549081D01*
X154346038Y-48541849D01*
X154326632Y-48532670D01*
X154308219Y-48521634D01*
X154290976Y-48508846D01*
X154275070Y-48494430D01*
X154260654Y-48478524D01*
X154247866Y-48461281D01*
X154236830Y-48442868D01*
X154227651Y-48423462D01*
X154220419Y-48403250D01*
X154215203Y-48382426D01*
X154212053Y-48361191D01*
X154211000Y-48339750D01*
X154211000Y-47902250D01*
X154212053Y-47880809D01*
X154215203Y-47859574D01*
X154220419Y-47838750D01*
X154227651Y-47818538D01*
X154236830Y-47799132D01*
X154247866Y-47780719D01*
X154260654Y-47763476D01*
X154275070Y-47747570D01*
X154290976Y-47733154D01*
X154308219Y-47720366D01*
X154326632Y-47709330D01*
X154346038Y-47700151D01*
X154366250Y-47692919D01*
X154387074Y-47687703D01*
X154408309Y-47684553D01*
X154429750Y-47683500D01*
X154942250Y-47683500D01*
X154963691Y-47684553D01*
X154963691Y-47684553D01*
G37*
D19*
X154686000Y-48121000D03*
G04 #@! TD*
D10*
G04 #@! TO.C,C6*
G36*
X165885691Y-60295053D02*
X165906926Y-60298203D01*
X165927750Y-60303419D01*
X165947962Y-60310651D01*
X165967368Y-60319830D01*
X165985781Y-60330866D01*
X166003024Y-60343654D01*
X166018930Y-60358070D01*
X166033346Y-60373976D01*
X166046134Y-60391219D01*
X166057170Y-60409632D01*
X166066349Y-60429038D01*
X166073581Y-60449250D01*
X166078797Y-60470074D01*
X166081947Y-60491309D01*
X166083000Y-60512750D01*
X166083000Y-60950250D01*
X166081947Y-60971691D01*
X166078797Y-60992926D01*
X166073581Y-61013750D01*
X166066349Y-61033962D01*
X166057170Y-61053368D01*
X166046134Y-61071781D01*
X166033346Y-61089024D01*
X166018930Y-61104930D01*
X166003024Y-61119346D01*
X165985781Y-61132134D01*
X165967368Y-61143170D01*
X165947962Y-61152349D01*
X165927750Y-61159581D01*
X165906926Y-61164797D01*
X165885691Y-61167947D01*
X165864250Y-61169000D01*
X165351750Y-61169000D01*
X165330309Y-61167947D01*
X165309074Y-61164797D01*
X165288250Y-61159581D01*
X165268038Y-61152349D01*
X165248632Y-61143170D01*
X165230219Y-61132134D01*
X165212976Y-61119346D01*
X165197070Y-61104930D01*
X165182654Y-61089024D01*
X165169866Y-61071781D01*
X165158830Y-61053368D01*
X165149651Y-61033962D01*
X165142419Y-61013750D01*
X165137203Y-60992926D01*
X165134053Y-60971691D01*
X165133000Y-60950250D01*
X165133000Y-60512750D01*
X165134053Y-60491309D01*
X165137203Y-60470074D01*
X165142419Y-60449250D01*
X165149651Y-60429038D01*
X165158830Y-60409632D01*
X165169866Y-60391219D01*
X165182654Y-60373976D01*
X165197070Y-60358070D01*
X165212976Y-60343654D01*
X165230219Y-60330866D01*
X165248632Y-60319830D01*
X165268038Y-60310651D01*
X165288250Y-60303419D01*
X165309074Y-60298203D01*
X165330309Y-60295053D01*
X165351750Y-60294000D01*
X165864250Y-60294000D01*
X165885691Y-60295053D01*
X165885691Y-60295053D01*
G37*
D19*
X165608000Y-60731500D03*
D10*
G36*
X165885691Y-58720053D02*
X165906926Y-58723203D01*
X165927750Y-58728419D01*
X165947962Y-58735651D01*
X165967368Y-58744830D01*
X165985781Y-58755866D01*
X166003024Y-58768654D01*
X166018930Y-58783070D01*
X166033346Y-58798976D01*
X166046134Y-58816219D01*
X166057170Y-58834632D01*
X166066349Y-58854038D01*
X166073581Y-58874250D01*
X166078797Y-58895074D01*
X166081947Y-58916309D01*
X166083000Y-58937750D01*
X166083000Y-59375250D01*
X166081947Y-59396691D01*
X166078797Y-59417926D01*
X166073581Y-59438750D01*
X166066349Y-59458962D01*
X166057170Y-59478368D01*
X166046134Y-59496781D01*
X166033346Y-59514024D01*
X166018930Y-59529930D01*
X166003024Y-59544346D01*
X165985781Y-59557134D01*
X165967368Y-59568170D01*
X165947962Y-59577349D01*
X165927750Y-59584581D01*
X165906926Y-59589797D01*
X165885691Y-59592947D01*
X165864250Y-59594000D01*
X165351750Y-59594000D01*
X165330309Y-59592947D01*
X165309074Y-59589797D01*
X165288250Y-59584581D01*
X165268038Y-59577349D01*
X165248632Y-59568170D01*
X165230219Y-59557134D01*
X165212976Y-59544346D01*
X165197070Y-59529930D01*
X165182654Y-59514024D01*
X165169866Y-59496781D01*
X165158830Y-59478368D01*
X165149651Y-59458962D01*
X165142419Y-59438750D01*
X165137203Y-59417926D01*
X165134053Y-59396691D01*
X165133000Y-59375250D01*
X165133000Y-58937750D01*
X165134053Y-58916309D01*
X165137203Y-58895074D01*
X165142419Y-58874250D01*
X165149651Y-58854038D01*
X165158830Y-58834632D01*
X165169866Y-58816219D01*
X165182654Y-58798976D01*
X165197070Y-58783070D01*
X165212976Y-58768654D01*
X165230219Y-58755866D01*
X165248632Y-58744830D01*
X165268038Y-58735651D01*
X165288250Y-58728419D01*
X165309074Y-58723203D01*
X165330309Y-58720053D01*
X165351750Y-58719000D01*
X165864250Y-58719000D01*
X165885691Y-58720053D01*
X165885691Y-58720053D01*
G37*
D19*
X165608000Y-59156500D03*
G04 #@! TD*
D10*
G04 #@! TO.C,C7*
G36*
X179855691Y-54732553D02*
X179876926Y-54735703D01*
X179897750Y-54740919D01*
X179917962Y-54748151D01*
X179937368Y-54757330D01*
X179955781Y-54768366D01*
X179973024Y-54781154D01*
X179988930Y-54795570D01*
X180003346Y-54811476D01*
X180016134Y-54828719D01*
X180027170Y-54847132D01*
X180036349Y-54866538D01*
X180043581Y-54886750D01*
X180048797Y-54907574D01*
X180051947Y-54928809D01*
X180053000Y-54950250D01*
X180053000Y-55387750D01*
X180051947Y-55409191D01*
X180048797Y-55430426D01*
X180043581Y-55451250D01*
X180036349Y-55471462D01*
X180027170Y-55490868D01*
X180016134Y-55509281D01*
X180003346Y-55526524D01*
X179988930Y-55542430D01*
X179973024Y-55556846D01*
X179955781Y-55569634D01*
X179937368Y-55580670D01*
X179917962Y-55589849D01*
X179897750Y-55597081D01*
X179876926Y-55602297D01*
X179855691Y-55605447D01*
X179834250Y-55606500D01*
X179321750Y-55606500D01*
X179300309Y-55605447D01*
X179279074Y-55602297D01*
X179258250Y-55597081D01*
X179238038Y-55589849D01*
X179218632Y-55580670D01*
X179200219Y-55569634D01*
X179182976Y-55556846D01*
X179167070Y-55542430D01*
X179152654Y-55526524D01*
X179139866Y-55509281D01*
X179128830Y-55490868D01*
X179119651Y-55471462D01*
X179112419Y-55451250D01*
X179107203Y-55430426D01*
X179104053Y-55409191D01*
X179103000Y-55387750D01*
X179103000Y-54950250D01*
X179104053Y-54928809D01*
X179107203Y-54907574D01*
X179112419Y-54886750D01*
X179119651Y-54866538D01*
X179128830Y-54847132D01*
X179139866Y-54828719D01*
X179152654Y-54811476D01*
X179167070Y-54795570D01*
X179182976Y-54781154D01*
X179200219Y-54768366D01*
X179218632Y-54757330D01*
X179238038Y-54748151D01*
X179258250Y-54740919D01*
X179279074Y-54735703D01*
X179300309Y-54732553D01*
X179321750Y-54731500D01*
X179834250Y-54731500D01*
X179855691Y-54732553D01*
X179855691Y-54732553D01*
G37*
D19*
X179578000Y-55169000D03*
D10*
G36*
X179855691Y-53157553D02*
X179876926Y-53160703D01*
X179897750Y-53165919D01*
X179917962Y-53173151D01*
X179937368Y-53182330D01*
X179955781Y-53193366D01*
X179973024Y-53206154D01*
X179988930Y-53220570D01*
X180003346Y-53236476D01*
X180016134Y-53253719D01*
X180027170Y-53272132D01*
X180036349Y-53291538D01*
X180043581Y-53311750D01*
X180048797Y-53332574D01*
X180051947Y-53353809D01*
X180053000Y-53375250D01*
X180053000Y-53812750D01*
X180051947Y-53834191D01*
X180048797Y-53855426D01*
X180043581Y-53876250D01*
X180036349Y-53896462D01*
X180027170Y-53915868D01*
X180016134Y-53934281D01*
X180003346Y-53951524D01*
X179988930Y-53967430D01*
X179973024Y-53981846D01*
X179955781Y-53994634D01*
X179937368Y-54005670D01*
X179917962Y-54014849D01*
X179897750Y-54022081D01*
X179876926Y-54027297D01*
X179855691Y-54030447D01*
X179834250Y-54031500D01*
X179321750Y-54031500D01*
X179300309Y-54030447D01*
X179279074Y-54027297D01*
X179258250Y-54022081D01*
X179238038Y-54014849D01*
X179218632Y-54005670D01*
X179200219Y-53994634D01*
X179182976Y-53981846D01*
X179167070Y-53967430D01*
X179152654Y-53951524D01*
X179139866Y-53934281D01*
X179128830Y-53915868D01*
X179119651Y-53896462D01*
X179112419Y-53876250D01*
X179107203Y-53855426D01*
X179104053Y-53834191D01*
X179103000Y-53812750D01*
X179103000Y-53375250D01*
X179104053Y-53353809D01*
X179107203Y-53332574D01*
X179112419Y-53311750D01*
X179119651Y-53291538D01*
X179128830Y-53272132D01*
X179139866Y-53253719D01*
X179152654Y-53236476D01*
X179167070Y-53220570D01*
X179182976Y-53206154D01*
X179200219Y-53193366D01*
X179218632Y-53182330D01*
X179238038Y-53173151D01*
X179258250Y-53165919D01*
X179279074Y-53160703D01*
X179300309Y-53157553D01*
X179321750Y-53156500D01*
X179834250Y-53156500D01*
X179855691Y-53157553D01*
X179855691Y-53157553D01*
G37*
D19*
X179578000Y-53594000D03*
G04 #@! TD*
D10*
G04 #@! TO.C,C8*
G36*
X179855691Y-48277553D02*
X179876926Y-48280703D01*
X179897750Y-48285919D01*
X179917962Y-48293151D01*
X179937368Y-48302330D01*
X179955781Y-48313366D01*
X179973024Y-48326154D01*
X179988930Y-48340570D01*
X180003346Y-48356476D01*
X180016134Y-48373719D01*
X180027170Y-48392132D01*
X180036349Y-48411538D01*
X180043581Y-48431750D01*
X180048797Y-48452574D01*
X180051947Y-48473809D01*
X180053000Y-48495250D01*
X180053000Y-48932750D01*
X180051947Y-48954191D01*
X180048797Y-48975426D01*
X180043581Y-48996250D01*
X180036349Y-49016462D01*
X180027170Y-49035868D01*
X180016134Y-49054281D01*
X180003346Y-49071524D01*
X179988930Y-49087430D01*
X179973024Y-49101846D01*
X179955781Y-49114634D01*
X179937368Y-49125670D01*
X179917962Y-49134849D01*
X179897750Y-49142081D01*
X179876926Y-49147297D01*
X179855691Y-49150447D01*
X179834250Y-49151500D01*
X179321750Y-49151500D01*
X179300309Y-49150447D01*
X179279074Y-49147297D01*
X179258250Y-49142081D01*
X179238038Y-49134849D01*
X179218632Y-49125670D01*
X179200219Y-49114634D01*
X179182976Y-49101846D01*
X179167070Y-49087430D01*
X179152654Y-49071524D01*
X179139866Y-49054281D01*
X179128830Y-49035868D01*
X179119651Y-49016462D01*
X179112419Y-48996250D01*
X179107203Y-48975426D01*
X179104053Y-48954191D01*
X179103000Y-48932750D01*
X179103000Y-48495250D01*
X179104053Y-48473809D01*
X179107203Y-48452574D01*
X179112419Y-48431750D01*
X179119651Y-48411538D01*
X179128830Y-48392132D01*
X179139866Y-48373719D01*
X179152654Y-48356476D01*
X179167070Y-48340570D01*
X179182976Y-48326154D01*
X179200219Y-48313366D01*
X179218632Y-48302330D01*
X179238038Y-48293151D01*
X179258250Y-48285919D01*
X179279074Y-48280703D01*
X179300309Y-48277553D01*
X179321750Y-48276500D01*
X179834250Y-48276500D01*
X179855691Y-48277553D01*
X179855691Y-48277553D01*
G37*
D19*
X179578000Y-48714000D03*
D10*
G36*
X179855691Y-46702553D02*
X179876926Y-46705703D01*
X179897750Y-46710919D01*
X179917962Y-46718151D01*
X179937368Y-46727330D01*
X179955781Y-46738366D01*
X179973024Y-46751154D01*
X179988930Y-46765570D01*
X180003346Y-46781476D01*
X180016134Y-46798719D01*
X180027170Y-46817132D01*
X180036349Y-46836538D01*
X180043581Y-46856750D01*
X180048797Y-46877574D01*
X180051947Y-46898809D01*
X180053000Y-46920250D01*
X180053000Y-47357750D01*
X180051947Y-47379191D01*
X180048797Y-47400426D01*
X180043581Y-47421250D01*
X180036349Y-47441462D01*
X180027170Y-47460868D01*
X180016134Y-47479281D01*
X180003346Y-47496524D01*
X179988930Y-47512430D01*
X179973024Y-47526846D01*
X179955781Y-47539634D01*
X179937368Y-47550670D01*
X179917962Y-47559849D01*
X179897750Y-47567081D01*
X179876926Y-47572297D01*
X179855691Y-47575447D01*
X179834250Y-47576500D01*
X179321750Y-47576500D01*
X179300309Y-47575447D01*
X179279074Y-47572297D01*
X179258250Y-47567081D01*
X179238038Y-47559849D01*
X179218632Y-47550670D01*
X179200219Y-47539634D01*
X179182976Y-47526846D01*
X179167070Y-47512430D01*
X179152654Y-47496524D01*
X179139866Y-47479281D01*
X179128830Y-47460868D01*
X179119651Y-47441462D01*
X179112419Y-47421250D01*
X179107203Y-47400426D01*
X179104053Y-47379191D01*
X179103000Y-47357750D01*
X179103000Y-46920250D01*
X179104053Y-46898809D01*
X179107203Y-46877574D01*
X179112419Y-46856750D01*
X179119651Y-46836538D01*
X179128830Y-46817132D01*
X179139866Y-46798719D01*
X179152654Y-46781476D01*
X179167070Y-46765570D01*
X179182976Y-46751154D01*
X179200219Y-46738366D01*
X179218632Y-46727330D01*
X179238038Y-46718151D01*
X179258250Y-46710919D01*
X179279074Y-46705703D01*
X179300309Y-46702553D01*
X179321750Y-46701500D01*
X179834250Y-46701500D01*
X179855691Y-46702553D01*
X179855691Y-46702553D01*
G37*
D19*
X179578000Y-47139000D03*
G04 #@! TD*
D10*
G04 #@! TO.C,D1*
G36*
X151522691Y-54771053D02*
X151543926Y-54774203D01*
X151564750Y-54779419D01*
X151584962Y-54786651D01*
X151604368Y-54795830D01*
X151622781Y-54806866D01*
X151640024Y-54819654D01*
X151655930Y-54834070D01*
X151670346Y-54849976D01*
X151683134Y-54867219D01*
X151694170Y-54885632D01*
X151703349Y-54905038D01*
X151710581Y-54925250D01*
X151715797Y-54946074D01*
X151718947Y-54967309D01*
X151720000Y-54988750D01*
X151720000Y-55501250D01*
X151718947Y-55522691D01*
X151715797Y-55543926D01*
X151710581Y-55564750D01*
X151703349Y-55584962D01*
X151694170Y-55604368D01*
X151683134Y-55622781D01*
X151670346Y-55640024D01*
X151655930Y-55655930D01*
X151640024Y-55670346D01*
X151622781Y-55683134D01*
X151604368Y-55694170D01*
X151584962Y-55703349D01*
X151564750Y-55710581D01*
X151543926Y-55715797D01*
X151522691Y-55718947D01*
X151501250Y-55720000D01*
X151063750Y-55720000D01*
X151042309Y-55718947D01*
X151021074Y-55715797D01*
X151000250Y-55710581D01*
X150980038Y-55703349D01*
X150960632Y-55694170D01*
X150942219Y-55683134D01*
X150924976Y-55670346D01*
X150909070Y-55655930D01*
X150894654Y-55640024D01*
X150881866Y-55622781D01*
X150870830Y-55604368D01*
X150861651Y-55584962D01*
X150854419Y-55564750D01*
X150849203Y-55543926D01*
X150846053Y-55522691D01*
X150845000Y-55501250D01*
X150845000Y-54988750D01*
X150846053Y-54967309D01*
X150849203Y-54946074D01*
X150854419Y-54925250D01*
X150861651Y-54905038D01*
X150870830Y-54885632D01*
X150881866Y-54867219D01*
X150894654Y-54849976D01*
X150909070Y-54834070D01*
X150924976Y-54819654D01*
X150942219Y-54806866D01*
X150960632Y-54795830D01*
X150980038Y-54786651D01*
X151000250Y-54779419D01*
X151021074Y-54774203D01*
X151042309Y-54771053D01*
X151063750Y-54770000D01*
X151501250Y-54770000D01*
X151522691Y-54771053D01*
X151522691Y-54771053D01*
G37*
D19*
X151282500Y-55245000D03*
D10*
G36*
X149947691Y-54771053D02*
X149968926Y-54774203D01*
X149989750Y-54779419D01*
X150009962Y-54786651D01*
X150029368Y-54795830D01*
X150047781Y-54806866D01*
X150065024Y-54819654D01*
X150080930Y-54834070D01*
X150095346Y-54849976D01*
X150108134Y-54867219D01*
X150119170Y-54885632D01*
X150128349Y-54905038D01*
X150135581Y-54925250D01*
X150140797Y-54946074D01*
X150143947Y-54967309D01*
X150145000Y-54988750D01*
X150145000Y-55501250D01*
X150143947Y-55522691D01*
X150140797Y-55543926D01*
X150135581Y-55564750D01*
X150128349Y-55584962D01*
X150119170Y-55604368D01*
X150108134Y-55622781D01*
X150095346Y-55640024D01*
X150080930Y-55655930D01*
X150065024Y-55670346D01*
X150047781Y-55683134D01*
X150029368Y-55694170D01*
X150009962Y-55703349D01*
X149989750Y-55710581D01*
X149968926Y-55715797D01*
X149947691Y-55718947D01*
X149926250Y-55720000D01*
X149488750Y-55720000D01*
X149467309Y-55718947D01*
X149446074Y-55715797D01*
X149425250Y-55710581D01*
X149405038Y-55703349D01*
X149385632Y-55694170D01*
X149367219Y-55683134D01*
X149349976Y-55670346D01*
X149334070Y-55655930D01*
X149319654Y-55640024D01*
X149306866Y-55622781D01*
X149295830Y-55604368D01*
X149286651Y-55584962D01*
X149279419Y-55564750D01*
X149274203Y-55543926D01*
X149271053Y-55522691D01*
X149270000Y-55501250D01*
X149270000Y-54988750D01*
X149271053Y-54967309D01*
X149274203Y-54946074D01*
X149279419Y-54925250D01*
X149286651Y-54905038D01*
X149295830Y-54885632D01*
X149306866Y-54867219D01*
X149319654Y-54849976D01*
X149334070Y-54834070D01*
X149349976Y-54819654D01*
X149367219Y-54806866D01*
X149385632Y-54795830D01*
X149405038Y-54786651D01*
X149425250Y-54779419D01*
X149446074Y-54774203D01*
X149467309Y-54771053D01*
X149488750Y-54770000D01*
X149926250Y-54770000D01*
X149947691Y-54771053D01*
X149947691Y-54771053D01*
G37*
D19*
X149707500Y-55245000D03*
G04 #@! TD*
D10*
G04 #@! TO.C,D2*
G36*
X134631691Y-45500053D02*
X134652926Y-45503203D01*
X134673750Y-45508419D01*
X134693962Y-45515651D01*
X134713368Y-45524830D01*
X134731781Y-45535866D01*
X134749024Y-45548654D01*
X134764930Y-45563070D01*
X134779346Y-45578976D01*
X134792134Y-45596219D01*
X134803170Y-45614632D01*
X134812349Y-45634038D01*
X134819581Y-45654250D01*
X134824797Y-45675074D01*
X134827947Y-45696309D01*
X134829000Y-45717750D01*
X134829000Y-46230250D01*
X134827947Y-46251691D01*
X134824797Y-46272926D01*
X134819581Y-46293750D01*
X134812349Y-46313962D01*
X134803170Y-46333368D01*
X134792134Y-46351781D01*
X134779346Y-46369024D01*
X134764930Y-46384930D01*
X134749024Y-46399346D01*
X134731781Y-46412134D01*
X134713368Y-46423170D01*
X134693962Y-46432349D01*
X134673750Y-46439581D01*
X134652926Y-46444797D01*
X134631691Y-46447947D01*
X134610250Y-46449000D01*
X134172750Y-46449000D01*
X134151309Y-46447947D01*
X134130074Y-46444797D01*
X134109250Y-46439581D01*
X134089038Y-46432349D01*
X134069632Y-46423170D01*
X134051219Y-46412134D01*
X134033976Y-46399346D01*
X134018070Y-46384930D01*
X134003654Y-46369024D01*
X133990866Y-46351781D01*
X133979830Y-46333368D01*
X133970651Y-46313962D01*
X133963419Y-46293750D01*
X133958203Y-46272926D01*
X133955053Y-46251691D01*
X133954000Y-46230250D01*
X133954000Y-45717750D01*
X133955053Y-45696309D01*
X133958203Y-45675074D01*
X133963419Y-45654250D01*
X133970651Y-45634038D01*
X133979830Y-45614632D01*
X133990866Y-45596219D01*
X134003654Y-45578976D01*
X134018070Y-45563070D01*
X134033976Y-45548654D01*
X134051219Y-45535866D01*
X134069632Y-45524830D01*
X134089038Y-45515651D01*
X134109250Y-45508419D01*
X134130074Y-45503203D01*
X134151309Y-45500053D01*
X134172750Y-45499000D01*
X134610250Y-45499000D01*
X134631691Y-45500053D01*
X134631691Y-45500053D01*
G37*
D19*
X134391500Y-45974000D03*
D10*
G36*
X133056691Y-45500053D02*
X133077926Y-45503203D01*
X133098750Y-45508419D01*
X133118962Y-45515651D01*
X133138368Y-45524830D01*
X133156781Y-45535866D01*
X133174024Y-45548654D01*
X133189930Y-45563070D01*
X133204346Y-45578976D01*
X133217134Y-45596219D01*
X133228170Y-45614632D01*
X133237349Y-45634038D01*
X133244581Y-45654250D01*
X133249797Y-45675074D01*
X133252947Y-45696309D01*
X133254000Y-45717750D01*
X133254000Y-46230250D01*
X133252947Y-46251691D01*
X133249797Y-46272926D01*
X133244581Y-46293750D01*
X133237349Y-46313962D01*
X133228170Y-46333368D01*
X133217134Y-46351781D01*
X133204346Y-46369024D01*
X133189930Y-46384930D01*
X133174024Y-46399346D01*
X133156781Y-46412134D01*
X133138368Y-46423170D01*
X133118962Y-46432349D01*
X133098750Y-46439581D01*
X133077926Y-46444797D01*
X133056691Y-46447947D01*
X133035250Y-46449000D01*
X132597750Y-46449000D01*
X132576309Y-46447947D01*
X132555074Y-46444797D01*
X132534250Y-46439581D01*
X132514038Y-46432349D01*
X132494632Y-46423170D01*
X132476219Y-46412134D01*
X132458976Y-46399346D01*
X132443070Y-46384930D01*
X132428654Y-46369024D01*
X132415866Y-46351781D01*
X132404830Y-46333368D01*
X132395651Y-46313962D01*
X132388419Y-46293750D01*
X132383203Y-46272926D01*
X132380053Y-46251691D01*
X132379000Y-46230250D01*
X132379000Y-45717750D01*
X132380053Y-45696309D01*
X132383203Y-45675074D01*
X132388419Y-45654250D01*
X132395651Y-45634038D01*
X132404830Y-45614632D01*
X132415866Y-45596219D01*
X132428654Y-45578976D01*
X132443070Y-45563070D01*
X132458976Y-45548654D01*
X132476219Y-45535866D01*
X132494632Y-45524830D01*
X132514038Y-45515651D01*
X132534250Y-45508419D01*
X132555074Y-45503203D01*
X132576309Y-45500053D01*
X132597750Y-45499000D01*
X133035250Y-45499000D01*
X133056691Y-45500053D01*
X133056691Y-45500053D01*
G37*
D19*
X132816500Y-45974000D03*
G04 #@! TD*
D10*
G04 #@! TO.C,R1*
G36*
X136929691Y-72512553D02*
X136950926Y-72515703D01*
X136971750Y-72520919D01*
X136991962Y-72528151D01*
X137011368Y-72537330D01*
X137029781Y-72548366D01*
X137047024Y-72561154D01*
X137062930Y-72575570D01*
X137077346Y-72591476D01*
X137090134Y-72608719D01*
X137101170Y-72627132D01*
X137110349Y-72646538D01*
X137117581Y-72666750D01*
X137122797Y-72687574D01*
X137125947Y-72708809D01*
X137127000Y-72730250D01*
X137127000Y-73167750D01*
X137125947Y-73189191D01*
X137122797Y-73210426D01*
X137117581Y-73231250D01*
X137110349Y-73251462D01*
X137101170Y-73270868D01*
X137090134Y-73289281D01*
X137077346Y-73306524D01*
X137062930Y-73322430D01*
X137047024Y-73336846D01*
X137029781Y-73349634D01*
X137011368Y-73360670D01*
X136991962Y-73369849D01*
X136971750Y-73377081D01*
X136950926Y-73382297D01*
X136929691Y-73385447D01*
X136908250Y-73386500D01*
X136395750Y-73386500D01*
X136374309Y-73385447D01*
X136353074Y-73382297D01*
X136332250Y-73377081D01*
X136312038Y-73369849D01*
X136292632Y-73360670D01*
X136274219Y-73349634D01*
X136256976Y-73336846D01*
X136241070Y-73322430D01*
X136226654Y-73306524D01*
X136213866Y-73289281D01*
X136202830Y-73270868D01*
X136193651Y-73251462D01*
X136186419Y-73231250D01*
X136181203Y-73210426D01*
X136178053Y-73189191D01*
X136177000Y-73167750D01*
X136177000Y-72730250D01*
X136178053Y-72708809D01*
X136181203Y-72687574D01*
X136186419Y-72666750D01*
X136193651Y-72646538D01*
X136202830Y-72627132D01*
X136213866Y-72608719D01*
X136226654Y-72591476D01*
X136241070Y-72575570D01*
X136256976Y-72561154D01*
X136274219Y-72548366D01*
X136292632Y-72537330D01*
X136312038Y-72528151D01*
X136332250Y-72520919D01*
X136353074Y-72515703D01*
X136374309Y-72512553D01*
X136395750Y-72511500D01*
X136908250Y-72511500D01*
X136929691Y-72512553D01*
X136929691Y-72512553D01*
G37*
D19*
X136652000Y-72949000D03*
D10*
G36*
X136929691Y-70937553D02*
X136950926Y-70940703D01*
X136971750Y-70945919D01*
X136991962Y-70953151D01*
X137011368Y-70962330D01*
X137029781Y-70973366D01*
X137047024Y-70986154D01*
X137062930Y-71000570D01*
X137077346Y-71016476D01*
X137090134Y-71033719D01*
X137101170Y-71052132D01*
X137110349Y-71071538D01*
X137117581Y-71091750D01*
X137122797Y-71112574D01*
X137125947Y-71133809D01*
X137127000Y-71155250D01*
X137127000Y-71592750D01*
X137125947Y-71614191D01*
X137122797Y-71635426D01*
X137117581Y-71656250D01*
X137110349Y-71676462D01*
X137101170Y-71695868D01*
X137090134Y-71714281D01*
X137077346Y-71731524D01*
X137062930Y-71747430D01*
X137047024Y-71761846D01*
X137029781Y-71774634D01*
X137011368Y-71785670D01*
X136991962Y-71794849D01*
X136971750Y-71802081D01*
X136950926Y-71807297D01*
X136929691Y-71810447D01*
X136908250Y-71811500D01*
X136395750Y-71811500D01*
X136374309Y-71810447D01*
X136353074Y-71807297D01*
X136332250Y-71802081D01*
X136312038Y-71794849D01*
X136292632Y-71785670D01*
X136274219Y-71774634D01*
X136256976Y-71761846D01*
X136241070Y-71747430D01*
X136226654Y-71731524D01*
X136213866Y-71714281D01*
X136202830Y-71695868D01*
X136193651Y-71676462D01*
X136186419Y-71656250D01*
X136181203Y-71635426D01*
X136178053Y-71614191D01*
X136177000Y-71592750D01*
X136177000Y-71155250D01*
X136178053Y-71133809D01*
X136181203Y-71112574D01*
X136186419Y-71091750D01*
X136193651Y-71071538D01*
X136202830Y-71052132D01*
X136213866Y-71033719D01*
X136226654Y-71016476D01*
X136241070Y-71000570D01*
X136256976Y-70986154D01*
X136274219Y-70973366D01*
X136292632Y-70962330D01*
X136312038Y-70953151D01*
X136332250Y-70945919D01*
X136353074Y-70940703D01*
X136374309Y-70937553D01*
X136395750Y-70936500D01*
X136908250Y-70936500D01*
X136929691Y-70937553D01*
X136929691Y-70937553D01*
G37*
D19*
X136652000Y-71374000D03*
G04 #@! TD*
D10*
G04 #@! TO.C,R2*
G36*
X163091691Y-58720053D02*
X163112926Y-58723203D01*
X163133750Y-58728419D01*
X163153962Y-58735651D01*
X163173368Y-58744830D01*
X163191781Y-58755866D01*
X163209024Y-58768654D01*
X163224930Y-58783070D01*
X163239346Y-58798976D01*
X163252134Y-58816219D01*
X163263170Y-58834632D01*
X163272349Y-58854038D01*
X163279581Y-58874250D01*
X163284797Y-58895074D01*
X163287947Y-58916309D01*
X163289000Y-58937750D01*
X163289000Y-59375250D01*
X163287947Y-59396691D01*
X163284797Y-59417926D01*
X163279581Y-59438750D01*
X163272349Y-59458962D01*
X163263170Y-59478368D01*
X163252134Y-59496781D01*
X163239346Y-59514024D01*
X163224930Y-59529930D01*
X163209024Y-59544346D01*
X163191781Y-59557134D01*
X163173368Y-59568170D01*
X163153962Y-59577349D01*
X163133750Y-59584581D01*
X163112926Y-59589797D01*
X163091691Y-59592947D01*
X163070250Y-59594000D01*
X162557750Y-59594000D01*
X162536309Y-59592947D01*
X162515074Y-59589797D01*
X162494250Y-59584581D01*
X162474038Y-59577349D01*
X162454632Y-59568170D01*
X162436219Y-59557134D01*
X162418976Y-59544346D01*
X162403070Y-59529930D01*
X162388654Y-59514024D01*
X162375866Y-59496781D01*
X162364830Y-59478368D01*
X162355651Y-59458962D01*
X162348419Y-59438750D01*
X162343203Y-59417926D01*
X162340053Y-59396691D01*
X162339000Y-59375250D01*
X162339000Y-58937750D01*
X162340053Y-58916309D01*
X162343203Y-58895074D01*
X162348419Y-58874250D01*
X162355651Y-58854038D01*
X162364830Y-58834632D01*
X162375866Y-58816219D01*
X162388654Y-58798976D01*
X162403070Y-58783070D01*
X162418976Y-58768654D01*
X162436219Y-58755866D01*
X162454632Y-58744830D01*
X162474038Y-58735651D01*
X162494250Y-58728419D01*
X162515074Y-58723203D01*
X162536309Y-58720053D01*
X162557750Y-58719000D01*
X163070250Y-58719000D01*
X163091691Y-58720053D01*
X163091691Y-58720053D01*
G37*
D19*
X162814000Y-59156500D03*
D10*
G36*
X163091691Y-60295053D02*
X163112926Y-60298203D01*
X163133750Y-60303419D01*
X163153962Y-60310651D01*
X163173368Y-60319830D01*
X163191781Y-60330866D01*
X163209024Y-60343654D01*
X163224930Y-60358070D01*
X163239346Y-60373976D01*
X163252134Y-60391219D01*
X163263170Y-60409632D01*
X163272349Y-60429038D01*
X163279581Y-60449250D01*
X163284797Y-60470074D01*
X163287947Y-60491309D01*
X163289000Y-60512750D01*
X163289000Y-60950250D01*
X163287947Y-60971691D01*
X163284797Y-60992926D01*
X163279581Y-61013750D01*
X163272349Y-61033962D01*
X163263170Y-61053368D01*
X163252134Y-61071781D01*
X163239346Y-61089024D01*
X163224930Y-61104930D01*
X163209024Y-61119346D01*
X163191781Y-61132134D01*
X163173368Y-61143170D01*
X163153962Y-61152349D01*
X163133750Y-61159581D01*
X163112926Y-61164797D01*
X163091691Y-61167947D01*
X163070250Y-61169000D01*
X162557750Y-61169000D01*
X162536309Y-61167947D01*
X162515074Y-61164797D01*
X162494250Y-61159581D01*
X162474038Y-61152349D01*
X162454632Y-61143170D01*
X162436219Y-61132134D01*
X162418976Y-61119346D01*
X162403070Y-61104930D01*
X162388654Y-61089024D01*
X162375866Y-61071781D01*
X162364830Y-61053368D01*
X162355651Y-61033962D01*
X162348419Y-61013750D01*
X162343203Y-60992926D01*
X162340053Y-60971691D01*
X162339000Y-60950250D01*
X162339000Y-60512750D01*
X162340053Y-60491309D01*
X162343203Y-60470074D01*
X162348419Y-60449250D01*
X162355651Y-60429038D01*
X162364830Y-60409632D01*
X162375866Y-60391219D01*
X162388654Y-60373976D01*
X162403070Y-60358070D01*
X162418976Y-60343654D01*
X162436219Y-60330866D01*
X162454632Y-60319830D01*
X162474038Y-60310651D01*
X162494250Y-60303419D01*
X162515074Y-60298203D01*
X162536309Y-60295053D01*
X162557750Y-60294000D01*
X163070250Y-60294000D01*
X163091691Y-60295053D01*
X163091691Y-60295053D01*
G37*
D19*
X162814000Y-60731500D03*
G04 #@! TD*
D10*
G04 #@! TO.C,R3*
G36*
X160297691Y-60295053D02*
X160318926Y-60298203D01*
X160339750Y-60303419D01*
X160359962Y-60310651D01*
X160379368Y-60319830D01*
X160397781Y-60330866D01*
X160415024Y-60343654D01*
X160430930Y-60358070D01*
X160445346Y-60373976D01*
X160458134Y-60391219D01*
X160469170Y-60409632D01*
X160478349Y-60429038D01*
X160485581Y-60449250D01*
X160490797Y-60470074D01*
X160493947Y-60491309D01*
X160495000Y-60512750D01*
X160495000Y-60950250D01*
X160493947Y-60971691D01*
X160490797Y-60992926D01*
X160485581Y-61013750D01*
X160478349Y-61033962D01*
X160469170Y-61053368D01*
X160458134Y-61071781D01*
X160445346Y-61089024D01*
X160430930Y-61104930D01*
X160415024Y-61119346D01*
X160397781Y-61132134D01*
X160379368Y-61143170D01*
X160359962Y-61152349D01*
X160339750Y-61159581D01*
X160318926Y-61164797D01*
X160297691Y-61167947D01*
X160276250Y-61169000D01*
X159763750Y-61169000D01*
X159742309Y-61167947D01*
X159721074Y-61164797D01*
X159700250Y-61159581D01*
X159680038Y-61152349D01*
X159660632Y-61143170D01*
X159642219Y-61132134D01*
X159624976Y-61119346D01*
X159609070Y-61104930D01*
X159594654Y-61089024D01*
X159581866Y-61071781D01*
X159570830Y-61053368D01*
X159561651Y-61033962D01*
X159554419Y-61013750D01*
X159549203Y-60992926D01*
X159546053Y-60971691D01*
X159545000Y-60950250D01*
X159545000Y-60512750D01*
X159546053Y-60491309D01*
X159549203Y-60470074D01*
X159554419Y-60449250D01*
X159561651Y-60429038D01*
X159570830Y-60409632D01*
X159581866Y-60391219D01*
X159594654Y-60373976D01*
X159609070Y-60358070D01*
X159624976Y-60343654D01*
X159642219Y-60330866D01*
X159660632Y-60319830D01*
X159680038Y-60310651D01*
X159700250Y-60303419D01*
X159721074Y-60298203D01*
X159742309Y-60295053D01*
X159763750Y-60294000D01*
X160276250Y-60294000D01*
X160297691Y-60295053D01*
X160297691Y-60295053D01*
G37*
D19*
X160020000Y-60731500D03*
D10*
G36*
X160297691Y-58720053D02*
X160318926Y-58723203D01*
X160339750Y-58728419D01*
X160359962Y-58735651D01*
X160379368Y-58744830D01*
X160397781Y-58755866D01*
X160415024Y-58768654D01*
X160430930Y-58783070D01*
X160445346Y-58798976D01*
X160458134Y-58816219D01*
X160469170Y-58834632D01*
X160478349Y-58854038D01*
X160485581Y-58874250D01*
X160490797Y-58895074D01*
X160493947Y-58916309D01*
X160495000Y-58937750D01*
X160495000Y-59375250D01*
X160493947Y-59396691D01*
X160490797Y-59417926D01*
X160485581Y-59438750D01*
X160478349Y-59458962D01*
X160469170Y-59478368D01*
X160458134Y-59496781D01*
X160445346Y-59514024D01*
X160430930Y-59529930D01*
X160415024Y-59544346D01*
X160397781Y-59557134D01*
X160379368Y-59568170D01*
X160359962Y-59577349D01*
X160339750Y-59584581D01*
X160318926Y-59589797D01*
X160297691Y-59592947D01*
X160276250Y-59594000D01*
X159763750Y-59594000D01*
X159742309Y-59592947D01*
X159721074Y-59589797D01*
X159700250Y-59584581D01*
X159680038Y-59577349D01*
X159660632Y-59568170D01*
X159642219Y-59557134D01*
X159624976Y-59544346D01*
X159609070Y-59529930D01*
X159594654Y-59514024D01*
X159581866Y-59496781D01*
X159570830Y-59478368D01*
X159561651Y-59458962D01*
X159554419Y-59438750D01*
X159549203Y-59417926D01*
X159546053Y-59396691D01*
X159545000Y-59375250D01*
X159545000Y-58937750D01*
X159546053Y-58916309D01*
X159549203Y-58895074D01*
X159554419Y-58874250D01*
X159561651Y-58854038D01*
X159570830Y-58834632D01*
X159581866Y-58816219D01*
X159594654Y-58798976D01*
X159609070Y-58783070D01*
X159624976Y-58768654D01*
X159642219Y-58755866D01*
X159660632Y-58744830D01*
X159680038Y-58735651D01*
X159700250Y-58728419D01*
X159721074Y-58723203D01*
X159742309Y-58720053D01*
X159763750Y-58719000D01*
X160276250Y-58719000D01*
X160297691Y-58720053D01*
X160297691Y-58720053D01*
G37*
D19*
X160020000Y-59156500D03*
G04 #@! TD*
D10*
G04 #@! TO.C,R4*
G36*
X155423691Y-55772053D02*
X155444926Y-55775203D01*
X155465750Y-55780419D01*
X155485962Y-55787651D01*
X155505368Y-55796830D01*
X155523781Y-55807866D01*
X155541024Y-55820654D01*
X155556930Y-55835070D01*
X155571346Y-55850976D01*
X155584134Y-55868219D01*
X155595170Y-55886632D01*
X155604349Y-55906038D01*
X155611581Y-55926250D01*
X155616797Y-55947074D01*
X155619947Y-55968309D01*
X155621000Y-55989750D01*
X155621000Y-56502250D01*
X155619947Y-56523691D01*
X155616797Y-56544926D01*
X155611581Y-56565750D01*
X155604349Y-56585962D01*
X155595170Y-56605368D01*
X155584134Y-56623781D01*
X155571346Y-56641024D01*
X155556930Y-56656930D01*
X155541024Y-56671346D01*
X155523781Y-56684134D01*
X155505368Y-56695170D01*
X155485962Y-56704349D01*
X155465750Y-56711581D01*
X155444926Y-56716797D01*
X155423691Y-56719947D01*
X155402250Y-56721000D01*
X154964750Y-56721000D01*
X154943309Y-56719947D01*
X154922074Y-56716797D01*
X154901250Y-56711581D01*
X154881038Y-56704349D01*
X154861632Y-56695170D01*
X154843219Y-56684134D01*
X154825976Y-56671346D01*
X154810070Y-56656930D01*
X154795654Y-56641024D01*
X154782866Y-56623781D01*
X154771830Y-56605368D01*
X154762651Y-56585962D01*
X154755419Y-56565750D01*
X154750203Y-56544926D01*
X154747053Y-56523691D01*
X154746000Y-56502250D01*
X154746000Y-55989750D01*
X154747053Y-55968309D01*
X154750203Y-55947074D01*
X154755419Y-55926250D01*
X154762651Y-55906038D01*
X154771830Y-55886632D01*
X154782866Y-55868219D01*
X154795654Y-55850976D01*
X154810070Y-55835070D01*
X154825976Y-55820654D01*
X154843219Y-55807866D01*
X154861632Y-55796830D01*
X154881038Y-55787651D01*
X154901250Y-55780419D01*
X154922074Y-55775203D01*
X154943309Y-55772053D01*
X154964750Y-55771000D01*
X155402250Y-55771000D01*
X155423691Y-55772053D01*
X155423691Y-55772053D01*
G37*
D19*
X155183500Y-56246000D03*
D10*
G36*
X153848691Y-55772053D02*
X153869926Y-55775203D01*
X153890750Y-55780419D01*
X153910962Y-55787651D01*
X153930368Y-55796830D01*
X153948781Y-55807866D01*
X153966024Y-55820654D01*
X153981930Y-55835070D01*
X153996346Y-55850976D01*
X154009134Y-55868219D01*
X154020170Y-55886632D01*
X154029349Y-55906038D01*
X154036581Y-55926250D01*
X154041797Y-55947074D01*
X154044947Y-55968309D01*
X154046000Y-55989750D01*
X154046000Y-56502250D01*
X154044947Y-56523691D01*
X154041797Y-56544926D01*
X154036581Y-56565750D01*
X154029349Y-56585962D01*
X154020170Y-56605368D01*
X154009134Y-56623781D01*
X153996346Y-56641024D01*
X153981930Y-56656930D01*
X153966024Y-56671346D01*
X153948781Y-56684134D01*
X153930368Y-56695170D01*
X153910962Y-56704349D01*
X153890750Y-56711581D01*
X153869926Y-56716797D01*
X153848691Y-56719947D01*
X153827250Y-56721000D01*
X153389750Y-56721000D01*
X153368309Y-56719947D01*
X153347074Y-56716797D01*
X153326250Y-56711581D01*
X153306038Y-56704349D01*
X153286632Y-56695170D01*
X153268219Y-56684134D01*
X153250976Y-56671346D01*
X153235070Y-56656930D01*
X153220654Y-56641024D01*
X153207866Y-56623781D01*
X153196830Y-56605368D01*
X153187651Y-56585962D01*
X153180419Y-56565750D01*
X153175203Y-56544926D01*
X153172053Y-56523691D01*
X153171000Y-56502250D01*
X153171000Y-55989750D01*
X153172053Y-55968309D01*
X153175203Y-55947074D01*
X153180419Y-55926250D01*
X153187651Y-55906038D01*
X153196830Y-55886632D01*
X153207866Y-55868219D01*
X153220654Y-55850976D01*
X153235070Y-55835070D01*
X153250976Y-55820654D01*
X153268219Y-55807866D01*
X153286632Y-55796830D01*
X153306038Y-55787651D01*
X153326250Y-55780419D01*
X153347074Y-55775203D01*
X153368309Y-55772053D01*
X153389750Y-55771000D01*
X153827250Y-55771000D01*
X153848691Y-55772053D01*
X153848691Y-55772053D01*
G37*
D19*
X153608500Y-56246000D03*
G04 #@! TD*
D10*
G04 #@! TO.C,R5*
G36*
X129018191Y-45500053D02*
X129039426Y-45503203D01*
X129060250Y-45508419D01*
X129080462Y-45515651D01*
X129099868Y-45524830D01*
X129118281Y-45535866D01*
X129135524Y-45548654D01*
X129151430Y-45563070D01*
X129165846Y-45578976D01*
X129178634Y-45596219D01*
X129189670Y-45614632D01*
X129198849Y-45634038D01*
X129206081Y-45654250D01*
X129211297Y-45675074D01*
X129214447Y-45696309D01*
X129215500Y-45717750D01*
X129215500Y-46230250D01*
X129214447Y-46251691D01*
X129211297Y-46272926D01*
X129206081Y-46293750D01*
X129198849Y-46313962D01*
X129189670Y-46333368D01*
X129178634Y-46351781D01*
X129165846Y-46369024D01*
X129151430Y-46384930D01*
X129135524Y-46399346D01*
X129118281Y-46412134D01*
X129099868Y-46423170D01*
X129080462Y-46432349D01*
X129060250Y-46439581D01*
X129039426Y-46444797D01*
X129018191Y-46447947D01*
X128996750Y-46449000D01*
X128559250Y-46449000D01*
X128537809Y-46447947D01*
X128516574Y-46444797D01*
X128495750Y-46439581D01*
X128475538Y-46432349D01*
X128456132Y-46423170D01*
X128437719Y-46412134D01*
X128420476Y-46399346D01*
X128404570Y-46384930D01*
X128390154Y-46369024D01*
X128377366Y-46351781D01*
X128366330Y-46333368D01*
X128357151Y-46313962D01*
X128349919Y-46293750D01*
X128344703Y-46272926D01*
X128341553Y-46251691D01*
X128340500Y-46230250D01*
X128340500Y-45717750D01*
X128341553Y-45696309D01*
X128344703Y-45675074D01*
X128349919Y-45654250D01*
X128357151Y-45634038D01*
X128366330Y-45614632D01*
X128377366Y-45596219D01*
X128390154Y-45578976D01*
X128404570Y-45563070D01*
X128420476Y-45548654D01*
X128437719Y-45535866D01*
X128456132Y-45524830D01*
X128475538Y-45515651D01*
X128495750Y-45508419D01*
X128516574Y-45503203D01*
X128537809Y-45500053D01*
X128559250Y-45499000D01*
X128996750Y-45499000D01*
X129018191Y-45500053D01*
X129018191Y-45500053D01*
G37*
D19*
X128778000Y-45974000D03*
D10*
G36*
X130593191Y-45500053D02*
X130614426Y-45503203D01*
X130635250Y-45508419D01*
X130655462Y-45515651D01*
X130674868Y-45524830D01*
X130693281Y-45535866D01*
X130710524Y-45548654D01*
X130726430Y-45563070D01*
X130740846Y-45578976D01*
X130753634Y-45596219D01*
X130764670Y-45614632D01*
X130773849Y-45634038D01*
X130781081Y-45654250D01*
X130786297Y-45675074D01*
X130789447Y-45696309D01*
X130790500Y-45717750D01*
X130790500Y-46230250D01*
X130789447Y-46251691D01*
X130786297Y-46272926D01*
X130781081Y-46293750D01*
X130773849Y-46313962D01*
X130764670Y-46333368D01*
X130753634Y-46351781D01*
X130740846Y-46369024D01*
X130726430Y-46384930D01*
X130710524Y-46399346D01*
X130693281Y-46412134D01*
X130674868Y-46423170D01*
X130655462Y-46432349D01*
X130635250Y-46439581D01*
X130614426Y-46444797D01*
X130593191Y-46447947D01*
X130571750Y-46449000D01*
X130134250Y-46449000D01*
X130112809Y-46447947D01*
X130091574Y-46444797D01*
X130070750Y-46439581D01*
X130050538Y-46432349D01*
X130031132Y-46423170D01*
X130012719Y-46412134D01*
X129995476Y-46399346D01*
X129979570Y-46384930D01*
X129965154Y-46369024D01*
X129952366Y-46351781D01*
X129941330Y-46333368D01*
X129932151Y-46313962D01*
X129924919Y-46293750D01*
X129919703Y-46272926D01*
X129916553Y-46251691D01*
X129915500Y-46230250D01*
X129915500Y-45717750D01*
X129916553Y-45696309D01*
X129919703Y-45675074D01*
X129924919Y-45654250D01*
X129932151Y-45634038D01*
X129941330Y-45614632D01*
X129952366Y-45596219D01*
X129965154Y-45578976D01*
X129979570Y-45563070D01*
X129995476Y-45548654D01*
X130012719Y-45535866D01*
X130031132Y-45524830D01*
X130050538Y-45515651D01*
X130070750Y-45508419D01*
X130091574Y-45503203D01*
X130112809Y-45500053D01*
X130134250Y-45499000D01*
X130571750Y-45499000D01*
X130593191Y-45500053D01*
X130593191Y-45500053D01*
G37*
D19*
X130353000Y-45974000D03*
G04 #@! TD*
D10*
G04 #@! TO.C,R6*
G36*
X138441691Y-45500053D02*
X138462926Y-45503203D01*
X138483750Y-45508419D01*
X138503962Y-45515651D01*
X138523368Y-45524830D01*
X138541781Y-45535866D01*
X138559024Y-45548654D01*
X138574930Y-45563070D01*
X138589346Y-45578976D01*
X138602134Y-45596219D01*
X138613170Y-45614632D01*
X138622349Y-45634038D01*
X138629581Y-45654250D01*
X138634797Y-45675074D01*
X138637947Y-45696309D01*
X138639000Y-45717750D01*
X138639000Y-46230250D01*
X138637947Y-46251691D01*
X138634797Y-46272926D01*
X138629581Y-46293750D01*
X138622349Y-46313962D01*
X138613170Y-46333368D01*
X138602134Y-46351781D01*
X138589346Y-46369024D01*
X138574930Y-46384930D01*
X138559024Y-46399346D01*
X138541781Y-46412134D01*
X138523368Y-46423170D01*
X138503962Y-46432349D01*
X138483750Y-46439581D01*
X138462926Y-46444797D01*
X138441691Y-46447947D01*
X138420250Y-46449000D01*
X137982750Y-46449000D01*
X137961309Y-46447947D01*
X137940074Y-46444797D01*
X137919250Y-46439581D01*
X137899038Y-46432349D01*
X137879632Y-46423170D01*
X137861219Y-46412134D01*
X137843976Y-46399346D01*
X137828070Y-46384930D01*
X137813654Y-46369024D01*
X137800866Y-46351781D01*
X137789830Y-46333368D01*
X137780651Y-46313962D01*
X137773419Y-46293750D01*
X137768203Y-46272926D01*
X137765053Y-46251691D01*
X137764000Y-46230250D01*
X137764000Y-45717750D01*
X137765053Y-45696309D01*
X137768203Y-45675074D01*
X137773419Y-45654250D01*
X137780651Y-45634038D01*
X137789830Y-45614632D01*
X137800866Y-45596219D01*
X137813654Y-45578976D01*
X137828070Y-45563070D01*
X137843976Y-45548654D01*
X137861219Y-45535866D01*
X137879632Y-45524830D01*
X137899038Y-45515651D01*
X137919250Y-45508419D01*
X137940074Y-45503203D01*
X137961309Y-45500053D01*
X137982750Y-45499000D01*
X138420250Y-45499000D01*
X138441691Y-45500053D01*
X138441691Y-45500053D01*
G37*
D19*
X138201500Y-45974000D03*
D10*
G36*
X136866691Y-45500053D02*
X136887926Y-45503203D01*
X136908750Y-45508419D01*
X136928962Y-45515651D01*
X136948368Y-45524830D01*
X136966781Y-45535866D01*
X136984024Y-45548654D01*
X136999930Y-45563070D01*
X137014346Y-45578976D01*
X137027134Y-45596219D01*
X137038170Y-45614632D01*
X137047349Y-45634038D01*
X137054581Y-45654250D01*
X137059797Y-45675074D01*
X137062947Y-45696309D01*
X137064000Y-45717750D01*
X137064000Y-46230250D01*
X137062947Y-46251691D01*
X137059797Y-46272926D01*
X137054581Y-46293750D01*
X137047349Y-46313962D01*
X137038170Y-46333368D01*
X137027134Y-46351781D01*
X137014346Y-46369024D01*
X136999930Y-46384930D01*
X136984024Y-46399346D01*
X136966781Y-46412134D01*
X136948368Y-46423170D01*
X136928962Y-46432349D01*
X136908750Y-46439581D01*
X136887926Y-46444797D01*
X136866691Y-46447947D01*
X136845250Y-46449000D01*
X136407750Y-46449000D01*
X136386309Y-46447947D01*
X136365074Y-46444797D01*
X136344250Y-46439581D01*
X136324038Y-46432349D01*
X136304632Y-46423170D01*
X136286219Y-46412134D01*
X136268976Y-46399346D01*
X136253070Y-46384930D01*
X136238654Y-46369024D01*
X136225866Y-46351781D01*
X136214830Y-46333368D01*
X136205651Y-46313962D01*
X136198419Y-46293750D01*
X136193203Y-46272926D01*
X136190053Y-46251691D01*
X136189000Y-46230250D01*
X136189000Y-45717750D01*
X136190053Y-45696309D01*
X136193203Y-45675074D01*
X136198419Y-45654250D01*
X136205651Y-45634038D01*
X136214830Y-45614632D01*
X136225866Y-45596219D01*
X136238654Y-45578976D01*
X136253070Y-45563070D01*
X136268976Y-45548654D01*
X136286219Y-45535866D01*
X136304632Y-45524830D01*
X136324038Y-45515651D01*
X136344250Y-45508419D01*
X136365074Y-45503203D01*
X136386309Y-45500053D01*
X136407750Y-45499000D01*
X136845250Y-45499000D01*
X136866691Y-45500053D01*
X136866691Y-45500053D01*
G37*
D19*
X136626500Y-45974000D03*
G04 #@! TD*
M02*
