M48
;DRILL file {KiCad (5.0.1)-4} date 7/4/2019 11:41:45 PM
;FORMAT={-:-/ absolute / metric / decimal}
FMAT,2
METRIC,TZ
T1C0.400
T2C0.600
T3C0.800
T4C0.850
T5C1.000
T6C1.300
%
G90
G05
M71
T1
X134.429Y-47.244
X137.16Y-67.056
X137.986Y-38.163
X139.129Y-64.262
X139.446Y-50.927
X140.779Y-47.625
X143.256Y-49.673
X143.446Y-73.025
X144.526Y-47.498
X144.526Y-60.706
X145.796Y-66.23
X147.066Y-60.642
X148.463Y-55.081
X148.526Y-46.545
X151.638Y-71.755
X153.035Y-46.228
X153.162Y-67.12
X156.147Y-52.07
X157.162Y-44.831
X158.305Y-61.849
X159.258Y-53.023
X159.504Y-48.223
X159.702Y-43.18
X161.251Y-43.18
X162.75Y-57.848
X163.648Y-54.03
X164.592Y-46.482
X164.993Y-57.638
X165.608Y-61.912
X165.925Y-43.116
X167.386Y-53.848
X167.576Y-43.307
X167.767Y-52.133
X168.084Y-57.441
X169.608Y-41.656
X170.434Y-67.31
X177.355Y-51.054
X179.578Y-45.91
X179.578Y-56.451
T2
X148.526Y-70.485
X157.988Y-65.024
X162.623Y-65.087
T3
X142.748Y-64.262
X147.628Y-64.262
X174.752Y-48.714
X174.752Y-53.594
T4
X159.298Y-70.356
X164.298Y-70.356
T5
X169.418Y-60.198
X169.418Y-62.738
X171.958Y-60.198
X171.958Y-62.738
X174.498Y-60.198
X174.498Y-62.738
X140.716Y-70.104
X140.716Y-72.644
X155.942Y-38.467
X158.482Y-38.467
X161.022Y-38.467
X163.562Y-38.467
X166.102Y-38.467
X168.642Y-38.467
X171.182Y-38.467
X155.942Y-33.387
X158.482Y-33.387
X161.022Y-33.387
X163.562Y-33.387
X166.102Y-33.387
X168.642Y-33.387
X171.182Y-33.387
X155.942Y-35.927
X158.482Y-35.927
X161.022Y-35.927
X163.562Y-35.927
X166.102Y-35.927
X168.642Y-35.927
X171.182Y-35.927
X133.604Y-41.656
X136.144Y-41.656
X138.684Y-41.656
X141.224Y-41.656
X143.764Y-41.656
X146.304Y-41.656
T6
X128.778Y-51.054
X128.778Y-56.134
X128.778Y-61.214
X128.778Y-66.294
X128.778Y-71.374
T2
X158.298Y-73.406G85X158.298Y-72.706
G05
X165.298Y-72.706G85X165.298Y-73.406
G05
T0
M30
