G04 #@! TF.GenerationSoftware,KiCad,Pcbnew,(5.0.1)-4*
G04 #@! TF.CreationDate,2019-07-04T23:41:43-04:00*
G04 #@! TF.ProjectId,Receiver Board,526563656976657220426F6172642E6B,rev?*
G04 #@! TF.SameCoordinates,Original*
G04 #@! TF.FileFunction,Copper,L1,Top,Signal*
G04 #@! TF.FilePolarity,Positive*
%FSLAX46Y46*%
G04 Gerber Fmt 4.6, Leading zero omitted, Abs format (unit mm)*
G04 Created by KiCad (PCBNEW (5.0.1)-4) date 7/4/2019 11:41:43 PM*
%MOMM*%
%LPD*%
G01*
G04 APERTURE LIST*
G04 #@! TA.AperFunction,Conductor*
%ADD10C,0.100000*%
G04 #@! TD*
G04 #@! TA.AperFunction,SMDPad,CuDef*
%ADD11C,1.125000*%
G04 #@! TD*
G04 #@! TA.AperFunction,ComponentPad*
%ADD12R,2.600000X2.600000*%
G04 #@! TD*
G04 #@! TA.AperFunction,ComponentPad*
%ADD13C,2.600000*%
G04 #@! TD*
G04 #@! TA.AperFunction,SMDPad,CuDef*
%ADD14R,1.500000X1.900000*%
G04 #@! TD*
G04 #@! TA.AperFunction,ComponentPad*
%ADD15C,1.450000*%
G04 #@! TD*
G04 #@! TA.AperFunction,SMDPad,CuDef*
%ADD16R,0.400000X1.350000*%
G04 #@! TD*
G04 #@! TA.AperFunction,ComponentPad*
%ADD17O,1.200000X1.900000*%
G04 #@! TD*
G04 #@! TA.AperFunction,SMDPad,CuDef*
%ADD18R,1.200000X1.900000*%
G04 #@! TD*
G04 #@! TA.AperFunction,ComponentPad*
%ADD19R,1.700000X1.700000*%
G04 #@! TD*
G04 #@! TA.AperFunction,ComponentPad*
%ADD20O,1.700000X1.700000*%
G04 #@! TD*
G04 #@! TA.AperFunction,SMDPad,CuDef*
%ADD21R,1.550000X1.300000*%
G04 #@! TD*
G04 #@! TA.AperFunction,SMDPad,CuDef*
%ADD22R,1.600000X0.700000*%
G04 #@! TD*
G04 #@! TA.AperFunction,SMDPad,CuDef*
%ADD23R,0.600000X2.000000*%
G04 #@! TD*
G04 #@! TA.AperFunction,SMDPad,CuDef*
%ADD24R,0.600000X1.500000*%
G04 #@! TD*
G04 #@! TA.AperFunction,SMDPad,CuDef*
%ADD25R,1.500000X0.600000*%
G04 #@! TD*
G04 #@! TA.AperFunction,SMDPad,CuDef*
%ADD26C,0.875000*%
G04 #@! TD*
G04 #@! TA.AperFunction,ComponentPad*
%ADD27C,1.500000*%
G04 #@! TD*
G04 #@! TA.AperFunction,ViaPad*
%ADD28C,1.000000*%
G04 #@! TD*
G04 #@! TA.AperFunction,ViaPad*
%ADD29C,0.800000*%
G04 #@! TD*
G04 #@! TA.AperFunction,Conductor*
%ADD30C,0.250000*%
G04 #@! TD*
G04 #@! TA.AperFunction,Conductor*
%ADD31C,0.600000*%
G04 #@! TD*
G04 #@! TA.AperFunction,Conductor*
%ADD32C,0.254000*%
G04 #@! TD*
G04 APERTURE END LIST*
D10*
G04 #@! TO.N,Net-(F1-Pad1)*
G04 #@! TO.C,F1*
G36*
X160472505Y-63325204D02*
X160496773Y-63328804D01*
X160520572Y-63334765D01*
X160543671Y-63343030D01*
X160565850Y-63353520D01*
X160586893Y-63366132D01*
X160606599Y-63380747D01*
X160624777Y-63397223D01*
X160641253Y-63415401D01*
X160655868Y-63435107D01*
X160668480Y-63456150D01*
X160678970Y-63478329D01*
X160687235Y-63501428D01*
X160693196Y-63525227D01*
X160696796Y-63549495D01*
X160698000Y-63573999D01*
X160698000Y-66474001D01*
X160696796Y-66498505D01*
X160693196Y-66522773D01*
X160687235Y-66546572D01*
X160678970Y-66569671D01*
X160668480Y-66591850D01*
X160655868Y-66612893D01*
X160641253Y-66632599D01*
X160624777Y-66650777D01*
X160606599Y-66667253D01*
X160586893Y-66681868D01*
X160565850Y-66694480D01*
X160543671Y-66704970D01*
X160520572Y-66713235D01*
X160496773Y-66719196D01*
X160472505Y-66722796D01*
X160448001Y-66724000D01*
X159822999Y-66724000D01*
X159798495Y-66722796D01*
X159774227Y-66719196D01*
X159750428Y-66713235D01*
X159727329Y-66704970D01*
X159705150Y-66694480D01*
X159684107Y-66681868D01*
X159664401Y-66667253D01*
X159646223Y-66650777D01*
X159629747Y-66632599D01*
X159615132Y-66612893D01*
X159602520Y-66591850D01*
X159592030Y-66569671D01*
X159583765Y-66546572D01*
X159577804Y-66522773D01*
X159574204Y-66498505D01*
X159573000Y-66474001D01*
X159573000Y-63573999D01*
X159574204Y-63549495D01*
X159577804Y-63525227D01*
X159583765Y-63501428D01*
X159592030Y-63478329D01*
X159602520Y-63456150D01*
X159615132Y-63435107D01*
X159629747Y-63415401D01*
X159646223Y-63397223D01*
X159664401Y-63380747D01*
X159684107Y-63366132D01*
X159705150Y-63353520D01*
X159727329Y-63343030D01*
X159750428Y-63334765D01*
X159774227Y-63328804D01*
X159798495Y-63325204D01*
X159822999Y-63324000D01*
X160448001Y-63324000D01*
X160472505Y-63325204D01*
X160472505Y-63325204D01*
G37*
D11*
G04 #@! TD*
G04 #@! TO.P,F1,1*
G04 #@! TO.N,Net-(F1-Pad1)*
X160135500Y-65024000D03*
D10*
G04 #@! TO.N,+5V*
G04 #@! TO.C,F1*
G36*
X156197505Y-63325204D02*
X156221773Y-63328804D01*
X156245572Y-63334765D01*
X156268671Y-63343030D01*
X156290850Y-63353520D01*
X156311893Y-63366132D01*
X156331599Y-63380747D01*
X156349777Y-63397223D01*
X156366253Y-63415401D01*
X156380868Y-63435107D01*
X156393480Y-63456150D01*
X156403970Y-63478329D01*
X156412235Y-63501428D01*
X156418196Y-63525227D01*
X156421796Y-63549495D01*
X156423000Y-63573999D01*
X156423000Y-66474001D01*
X156421796Y-66498505D01*
X156418196Y-66522773D01*
X156412235Y-66546572D01*
X156403970Y-66569671D01*
X156393480Y-66591850D01*
X156380868Y-66612893D01*
X156366253Y-66632599D01*
X156349777Y-66650777D01*
X156331599Y-66667253D01*
X156311893Y-66681868D01*
X156290850Y-66694480D01*
X156268671Y-66704970D01*
X156245572Y-66713235D01*
X156221773Y-66719196D01*
X156197505Y-66722796D01*
X156173001Y-66724000D01*
X155547999Y-66724000D01*
X155523495Y-66722796D01*
X155499227Y-66719196D01*
X155475428Y-66713235D01*
X155452329Y-66704970D01*
X155430150Y-66694480D01*
X155409107Y-66681868D01*
X155389401Y-66667253D01*
X155371223Y-66650777D01*
X155354747Y-66632599D01*
X155340132Y-66612893D01*
X155327520Y-66591850D01*
X155317030Y-66569671D01*
X155308765Y-66546572D01*
X155302804Y-66522773D01*
X155299204Y-66498505D01*
X155298000Y-66474001D01*
X155298000Y-63573999D01*
X155299204Y-63549495D01*
X155302804Y-63525227D01*
X155308765Y-63501428D01*
X155317030Y-63478329D01*
X155327520Y-63456150D01*
X155340132Y-63435107D01*
X155354747Y-63415401D01*
X155371223Y-63397223D01*
X155389401Y-63380747D01*
X155409107Y-63366132D01*
X155430150Y-63353520D01*
X155452329Y-63343030D01*
X155475428Y-63334765D01*
X155499227Y-63328804D01*
X155523495Y-63325204D01*
X155547999Y-63324000D01*
X156173001Y-63324000D01*
X156197505Y-63325204D01*
X156197505Y-63325204D01*
G37*
D11*
G04 #@! TD*
G04 #@! TO.P,F1,2*
G04 #@! TO.N,+5V*
X155860500Y-65024000D03*
D12*
G04 #@! TO.P,J1,1*
G04 #@! TO.N,+5V*
X128778000Y-51054000D03*
D13*
G04 #@! TO.P,J1,2*
G04 #@! TO.N,+12V*
X128778000Y-56134000D03*
G04 #@! TO.P,J1,3*
G04 #@! TO.N,GND*
X128778000Y-61214000D03*
G04 #@! TO.P,J1,4*
G04 #@! TO.N,/CANL*
X128778000Y-66294000D03*
G04 #@! TO.P,J1,5*
G04 #@! TO.N,/CANH*
X128778000Y-71374000D03*
G04 #@! TD*
D14*
G04 #@! TO.P,J3,6*
G04 #@! TO.N,GND*
X162798000Y-73056000D03*
D15*
X159298000Y-70356000D03*
D16*
G04 #@! TO.P,J3,2*
G04 #@! TO.N,Net-(J3-Pad2)*
X161148000Y-70356000D03*
G04 #@! TO.P,J3,1*
G04 #@! TO.N,Net-(F1-Pad1)*
X160498000Y-70356000D03*
G04 #@! TO.P,J3,5*
G04 #@! TO.N,GND*
X163098000Y-70356000D03*
G04 #@! TO.P,J3,4*
G04 #@! TO.N,Net-(J3-Pad4)*
X162448000Y-70356000D03*
G04 #@! TO.P,J3,3*
G04 #@! TO.N,Net-(J3-Pad3)*
X161798000Y-70356000D03*
D15*
G04 #@! TO.P,J3,6*
G04 #@! TO.N,GND*
X164298000Y-70356000D03*
D14*
X160798000Y-73056000D03*
D17*
X158298000Y-73056000D03*
X165298000Y-73056000D03*
D18*
X164698000Y-73056000D03*
X158898000Y-73056000D03*
G04 #@! TD*
D19*
G04 #@! TO.P,J5,1*
G04 #@! TO.N,+5V*
X133604000Y-41656000D03*
D20*
G04 #@! TO.P,J5,2*
G04 #@! TO.N,/CH1*
X136144000Y-41656000D03*
G04 #@! TO.P,J5,3*
G04 #@! TO.N,/~INT*
X138684000Y-41656000D03*
G04 #@! TO.P,J5,4*
G04 #@! TO.N,/A0*
X141224000Y-41656000D03*
G04 #@! TO.P,J5,5*
G04 #@! TO.N,/A1*
X143764000Y-41656000D03*
G04 #@! TO.P,J5,6*
G04 #@! TO.N,GND*
X146304000Y-41656000D03*
G04 #@! TD*
D19*
G04 #@! TO.P,J6,1*
G04 #@! TO.N,/CH7*
X155941789Y-38467167D03*
D20*
G04 #@! TO.P,J6,2*
G04 #@! TO.N,/CH6*
X158481789Y-38467167D03*
G04 #@! TO.P,J6,3*
G04 #@! TO.N,/CH5*
X161021789Y-38467167D03*
G04 #@! TO.P,J6,4*
G04 #@! TO.N,/CH4*
X163561789Y-38467167D03*
G04 #@! TO.P,J6,5*
G04 #@! TO.N,/CH3*
X166101789Y-38467167D03*
G04 #@! TO.P,J6,6*
G04 #@! TO.N,/CH2*
X168641789Y-38467167D03*
G04 #@! TO.P,J6,7*
G04 #@! TO.N,/CH1*
X171181789Y-38467167D03*
G04 #@! TD*
G04 #@! TO.P,5V,7*
G04 #@! TO.N,Net-(J7-Pad7)*
X171181789Y-35927167D03*
G04 #@! TO.P,5V,6*
G04 #@! TO.N,Net-(J7-Pad6)*
X168641789Y-35927167D03*
G04 #@! TO.P,5V,5*
G04 #@! TO.N,Net-(J7-Pad5)*
X166101789Y-35927167D03*
G04 #@! TO.P,5V,4*
G04 #@! TO.N,Net-(J7-Pad4)*
X163561789Y-35927167D03*
G04 #@! TO.P,5V,3*
G04 #@! TO.N,Net-(J7-Pad3)*
X161021789Y-35927167D03*
G04 #@! TO.P,5V,2*
G04 #@! TO.N,Net-(J7-Pad2)*
X158481789Y-35927167D03*
D19*
G04 #@! TO.P,5V,1*
G04 #@! TO.N,+5V*
X155941789Y-35927167D03*
G04 #@! TD*
G04 #@! TO.P,GND,1*
G04 #@! TO.N,GND*
X155941789Y-33387167D03*
D20*
G04 #@! TO.P,GND,2*
G04 #@! TO.N,Net-(J8-Pad2)*
X158481789Y-33387167D03*
G04 #@! TO.P,GND,3*
G04 #@! TO.N,Net-(J8-Pad3)*
X161021789Y-33387167D03*
G04 #@! TO.P,GND,4*
G04 #@! TO.N,Net-(J8-Pad4)*
X163561789Y-33387167D03*
G04 #@! TO.P,GND,5*
G04 #@! TO.N,Net-(J8-Pad5)*
X166101789Y-33387167D03*
G04 #@! TO.P,GND,6*
G04 #@! TO.N,Net-(J8-Pad6)*
X168641789Y-33387167D03*
G04 #@! TO.P,GND,7*
G04 #@! TO.N,Net-(J8-Pad7)*
X171181789Y-33387167D03*
G04 #@! TD*
D21*
G04 #@! TO.P,SW1,2*
G04 #@! TO.N,GND*
X168740000Y-71846000D03*
G04 #@! TO.P,SW1,1*
G04 #@! TO.N,/RST*
X168740000Y-67346000D03*
X176700000Y-67346000D03*
G04 #@! TO.P,SW1,2*
G04 #@! TO.N,GND*
X176700000Y-71846000D03*
G04 #@! TD*
D22*
G04 #@! TO.P,U1,3*
G04 #@! TO.N,+5V*
X150039000Y-70485000D03*
G04 #@! TO.P,U1,2*
G04 #@! TO.N,GND*
X150039000Y-71755000D03*
G04 #@! TO.P,U1,4*
G04 #@! TO.N,Net-(U1-Pad4)*
X150039000Y-69215000D03*
G04 #@! TO.P,U1,1*
G04 #@! TO.N,Net-(U1-Pad1)*
X150039000Y-73025000D03*
G04 #@! TO.P,U1,5*
G04 #@! TO.N,Net-(U1-Pad5)*
X145109000Y-69215000D03*
G04 #@! TO.P,U1,6*
G04 #@! TO.N,/CANL*
X145109000Y-70485000D03*
G04 #@! TO.P,U1,7*
G04 #@! TO.N,/CANH*
X145109000Y-71755000D03*
G04 #@! TO.P,U1,8*
G04 #@! TO.N,GND*
X145109000Y-73025000D03*
G04 #@! TD*
D23*
G04 #@! TO.P,U2,1*
G04 #@! TO.N,Net-(U1-Pad1)*
X136906000Y-58802000D03*
G04 #@! TO.P,U2,2*
G04 #@! TO.N,Net-(U1-Pad4)*
X138176000Y-58802000D03*
G04 #@! TO.P,U2,3*
G04 #@! TO.N,Net-(U2-Pad3)*
X139446000Y-58802000D03*
G04 #@! TO.P,U2,4*
G04 #@! TO.N,Net-(U2-Pad4)*
X140716000Y-58802000D03*
G04 #@! TO.P,U2,5*
G04 #@! TO.N,Net-(U2-Pad5)*
X141986000Y-58802000D03*
G04 #@! TO.P,U2,6*
G04 #@! TO.N,Net-(U2-Pad6)*
X143256000Y-58802000D03*
G04 #@! TO.P,U2,7*
G04 #@! TO.N,Net-(C1-Pad1)*
X144526000Y-58802000D03*
G04 #@! TO.P,U2,8*
G04 #@! TO.N,Net-(C2-Pad1)*
X145796000Y-58802000D03*
G04 #@! TO.P,U2,9*
G04 #@! TO.N,GND*
X147066000Y-58802000D03*
G04 #@! TO.P,U2,10*
G04 #@! TO.N,Net-(U2-Pad10)*
X147066000Y-49402000D03*
G04 #@! TO.P,U2,11*
G04 #@! TO.N,Net-(U2-Pad11)*
X145796000Y-49402000D03*
G04 #@! TO.P,U2,12*
G04 #@! TO.N,/~INT*
X144526000Y-49402000D03*
G04 #@! TO.P,U2,13*
G04 #@! TO.N,/SCK*
X143256000Y-49402000D03*
G04 #@! TO.P,U2,14*
G04 #@! TO.N,/MOSI*
X141986000Y-49402000D03*
G04 #@! TO.P,U2,15*
G04 #@! TO.N,/MISO*
X140716000Y-49402000D03*
G04 #@! TO.P,U2,16*
G04 #@! TO.N,/~CS*
X139446000Y-49402000D03*
G04 #@! TO.P,U2,17*
G04 #@! TO.N,Net-(R6-Pad2)*
X138176000Y-49402000D03*
G04 #@! TO.P,U2,18*
G04 #@! TO.N,+5V*
X136906000Y-49402000D03*
G04 #@! TD*
D24*
G04 #@! TO.P,U3,6*
G04 #@! TO.N,Net-(C6-Pad1)*
X163576000Y-56246000D03*
G04 #@! TO.P,U3,5*
G04 #@! TO.N,GND*
X162776000Y-56246000D03*
G04 #@! TO.P,U3,4*
G04 #@! TO.N,/D+*
X161976000Y-56246000D03*
G04 #@! TO.P,U3,3*
G04 #@! TO.N,/D-*
X161176000Y-56246000D03*
G04 #@! TO.P,U3,2*
G04 #@! TO.N,+5V*
X160376000Y-56246000D03*
G04 #@! TO.P,U3,1*
G04 #@! TO.N,/PE6*
X159576000Y-56246000D03*
G04 #@! TO.P,U3,7*
G04 #@! TO.N,+5V*
X164376000Y-56246000D03*
G04 #@! TO.P,U3,8*
G04 #@! TO.N,/~CS*
X165176000Y-56246000D03*
G04 #@! TO.P,U3,9*
G04 #@! TO.N,/SCK*
X165976000Y-56246000D03*
G04 #@! TO.P,U3,10*
G04 #@! TO.N,/MOSI*
X166776000Y-56246000D03*
G04 #@! TO.P,U3,11*
G04 #@! TO.N,/MISO*
X167576000Y-56246000D03*
G04 #@! TO.P,U3,28*
G04 #@! TO.N,Net-(U3-Pad28)*
X163576000Y-44846000D03*
G04 #@! TO.P,U3,29*
G04 #@! TO.N,/CH4*
X162776000Y-44846000D03*
G04 #@! TO.P,U3,30*
G04 #@! TO.N,/CH5*
X161976000Y-44846000D03*
G04 #@! TO.P,U3,31*
G04 #@! TO.N,/CH2*
X161176000Y-44846000D03*
G04 #@! TO.P,U3,32*
G04 #@! TO.N,/CH7*
X160376000Y-44846000D03*
G04 #@! TO.P,U3,33*
G04 #@! TO.N,Net-(U3-Pad33)*
X159576000Y-44846000D03*
G04 #@! TO.P,U3,27*
G04 #@! TO.N,/CH3*
X164376000Y-44846000D03*
G04 #@! TO.P,U3,26*
G04 #@! TO.N,/~INT*
X165176000Y-44846000D03*
G04 #@! TO.P,U3,25*
G04 #@! TO.N,Net-(U3-Pad25)*
X165976000Y-44846000D03*
G04 #@! TO.P,U3,24*
G04 #@! TO.N,+5V*
X166776000Y-44846000D03*
G04 #@! TO.P,U3,23*
G04 #@! TO.N,GND*
X167576000Y-44846000D03*
D25*
G04 #@! TO.P,U3,17*
G04 #@! TO.N,/XTAL1*
X169276000Y-50546000D03*
G04 #@! TO.P,U3,18*
G04 #@! TO.N,/CH1*
X169276000Y-49746000D03*
G04 #@! TO.P,U3,19*
G04 #@! TO.N,/~INT*
X169276000Y-48946000D03*
G04 #@! TO.P,U3,20*
G04 #@! TO.N,Net-(U3-Pad20)*
X169276000Y-48146000D03*
G04 #@! TO.P,U3,21*
G04 #@! TO.N,Net-(U3-Pad21)*
X169276000Y-47346000D03*
G04 #@! TO.P,U3,22*
G04 #@! TO.N,Net-(U3-Pad22)*
X169276000Y-46546000D03*
G04 #@! TO.P,U3,16*
G04 #@! TO.N,Net-(C7-Pad2)*
X169276000Y-51346000D03*
G04 #@! TO.P,U3,15*
G04 #@! TO.N,GND*
X169276000Y-52146000D03*
G04 #@! TO.P,U3,14*
G04 #@! TO.N,+5V*
X169276000Y-52946000D03*
G04 #@! TO.P,U3,13*
G04 #@! TO.N,/RST*
X169276000Y-53746000D03*
G04 #@! TO.P,U3,12*
G04 #@! TO.N,/CH6*
X169276000Y-54546000D03*
G04 #@! TO.P,U3,34*
G04 #@! TO.N,+5V*
X157876000Y-46546000D03*
G04 #@! TO.P,U3,35*
G04 #@! TO.N,GND*
X157876000Y-47346000D03*
G04 #@! TO.P,U3,36*
G04 #@! TO.N,/A0*
X157876000Y-48146000D03*
G04 #@! TO.P,U3,37*
G04 #@! TO.N,/A1*
X157876000Y-48946000D03*
G04 #@! TO.P,U3,38*
G04 #@! TO.N,Net-(U3-Pad38)*
X157876000Y-49746000D03*
G04 #@! TO.P,U3,39*
G04 #@! TO.N,Net-(U3-Pad39)*
X157876000Y-50546000D03*
G04 #@! TO.P,U3,40*
G04 #@! TO.N,Net-(U3-Pad40)*
X157876000Y-51346000D03*
G04 #@! TO.P,U3,41*
G04 #@! TO.N,Net-(U3-Pad41)*
X157876000Y-52146000D03*
G04 #@! TO.P,U3,42*
G04 #@! TO.N,Net-(C3-Pad1)*
X157876000Y-52946000D03*
G04 #@! TO.P,U3,43*
G04 #@! TO.N,GND*
X157876000Y-53746000D03*
G04 #@! TO.P,U3,44*
G04 #@! TO.N,+5V*
X157876000Y-54546000D03*
G04 #@! TD*
D10*
G04 #@! TO.N,Net-(C1-Pad1)*
G04 #@! TO.C,C1*
G36*
X137437691Y-63825553D02*
X137458926Y-63828703D01*
X137479750Y-63833919D01*
X137499962Y-63841151D01*
X137519368Y-63850330D01*
X137537781Y-63861366D01*
X137555024Y-63874154D01*
X137570930Y-63888570D01*
X137585346Y-63904476D01*
X137598134Y-63921719D01*
X137609170Y-63940132D01*
X137618349Y-63959538D01*
X137625581Y-63979750D01*
X137630797Y-64000574D01*
X137633947Y-64021809D01*
X137635000Y-64043250D01*
X137635000Y-64480750D01*
X137633947Y-64502191D01*
X137630797Y-64523426D01*
X137625581Y-64544250D01*
X137618349Y-64564462D01*
X137609170Y-64583868D01*
X137598134Y-64602281D01*
X137585346Y-64619524D01*
X137570930Y-64635430D01*
X137555024Y-64649846D01*
X137537781Y-64662634D01*
X137519368Y-64673670D01*
X137499962Y-64682849D01*
X137479750Y-64690081D01*
X137458926Y-64695297D01*
X137437691Y-64698447D01*
X137416250Y-64699500D01*
X136903750Y-64699500D01*
X136882309Y-64698447D01*
X136861074Y-64695297D01*
X136840250Y-64690081D01*
X136820038Y-64682849D01*
X136800632Y-64673670D01*
X136782219Y-64662634D01*
X136764976Y-64649846D01*
X136749070Y-64635430D01*
X136734654Y-64619524D01*
X136721866Y-64602281D01*
X136710830Y-64583868D01*
X136701651Y-64564462D01*
X136694419Y-64544250D01*
X136689203Y-64523426D01*
X136686053Y-64502191D01*
X136685000Y-64480750D01*
X136685000Y-64043250D01*
X136686053Y-64021809D01*
X136689203Y-64000574D01*
X136694419Y-63979750D01*
X136701651Y-63959538D01*
X136710830Y-63940132D01*
X136721866Y-63921719D01*
X136734654Y-63904476D01*
X136749070Y-63888570D01*
X136764976Y-63874154D01*
X136782219Y-63861366D01*
X136800632Y-63850330D01*
X136820038Y-63841151D01*
X136840250Y-63833919D01*
X136861074Y-63828703D01*
X136882309Y-63825553D01*
X136903750Y-63824500D01*
X137416250Y-63824500D01*
X137437691Y-63825553D01*
X137437691Y-63825553D01*
G37*
D26*
G04 #@! TD*
G04 #@! TO.P,C1,1*
G04 #@! TO.N,Net-(C1-Pad1)*
X137160000Y-64262000D03*
D10*
G04 #@! TO.N,GND*
G04 #@! TO.C,C1*
G36*
X137437691Y-65400553D02*
X137458926Y-65403703D01*
X137479750Y-65408919D01*
X137499962Y-65416151D01*
X137519368Y-65425330D01*
X137537781Y-65436366D01*
X137555024Y-65449154D01*
X137570930Y-65463570D01*
X137585346Y-65479476D01*
X137598134Y-65496719D01*
X137609170Y-65515132D01*
X137618349Y-65534538D01*
X137625581Y-65554750D01*
X137630797Y-65575574D01*
X137633947Y-65596809D01*
X137635000Y-65618250D01*
X137635000Y-66055750D01*
X137633947Y-66077191D01*
X137630797Y-66098426D01*
X137625581Y-66119250D01*
X137618349Y-66139462D01*
X137609170Y-66158868D01*
X137598134Y-66177281D01*
X137585346Y-66194524D01*
X137570930Y-66210430D01*
X137555024Y-66224846D01*
X137537781Y-66237634D01*
X137519368Y-66248670D01*
X137499962Y-66257849D01*
X137479750Y-66265081D01*
X137458926Y-66270297D01*
X137437691Y-66273447D01*
X137416250Y-66274500D01*
X136903750Y-66274500D01*
X136882309Y-66273447D01*
X136861074Y-66270297D01*
X136840250Y-66265081D01*
X136820038Y-66257849D01*
X136800632Y-66248670D01*
X136782219Y-66237634D01*
X136764976Y-66224846D01*
X136749070Y-66210430D01*
X136734654Y-66194524D01*
X136721866Y-66177281D01*
X136710830Y-66158868D01*
X136701651Y-66139462D01*
X136694419Y-66119250D01*
X136689203Y-66098426D01*
X136686053Y-66077191D01*
X136685000Y-66055750D01*
X136685000Y-65618250D01*
X136686053Y-65596809D01*
X136689203Y-65575574D01*
X136694419Y-65554750D01*
X136701651Y-65534538D01*
X136710830Y-65515132D01*
X136721866Y-65496719D01*
X136734654Y-65479476D01*
X136749070Y-65463570D01*
X136764976Y-65449154D01*
X136782219Y-65436366D01*
X136800632Y-65425330D01*
X136820038Y-65416151D01*
X136840250Y-65408919D01*
X136861074Y-65403703D01*
X136882309Y-65400553D01*
X136903750Y-65399500D01*
X137416250Y-65399500D01*
X137437691Y-65400553D01*
X137437691Y-65400553D01*
G37*
D26*
G04 #@! TD*
G04 #@! TO.P,C1,2*
G04 #@! TO.N,GND*
X137160000Y-65837000D03*
D10*
G04 #@! TO.N,GND*
G04 #@! TO.C,C2*
G36*
X153439691Y-65400553D02*
X153460926Y-65403703D01*
X153481750Y-65408919D01*
X153501962Y-65416151D01*
X153521368Y-65425330D01*
X153539781Y-65436366D01*
X153557024Y-65449154D01*
X153572930Y-65463570D01*
X153587346Y-65479476D01*
X153600134Y-65496719D01*
X153611170Y-65515132D01*
X153620349Y-65534538D01*
X153627581Y-65554750D01*
X153632797Y-65575574D01*
X153635947Y-65596809D01*
X153637000Y-65618250D01*
X153637000Y-66055750D01*
X153635947Y-66077191D01*
X153632797Y-66098426D01*
X153627581Y-66119250D01*
X153620349Y-66139462D01*
X153611170Y-66158868D01*
X153600134Y-66177281D01*
X153587346Y-66194524D01*
X153572930Y-66210430D01*
X153557024Y-66224846D01*
X153539781Y-66237634D01*
X153521368Y-66248670D01*
X153501962Y-66257849D01*
X153481750Y-66265081D01*
X153460926Y-66270297D01*
X153439691Y-66273447D01*
X153418250Y-66274500D01*
X152905750Y-66274500D01*
X152884309Y-66273447D01*
X152863074Y-66270297D01*
X152842250Y-66265081D01*
X152822038Y-66257849D01*
X152802632Y-66248670D01*
X152784219Y-66237634D01*
X152766976Y-66224846D01*
X152751070Y-66210430D01*
X152736654Y-66194524D01*
X152723866Y-66177281D01*
X152712830Y-66158868D01*
X152703651Y-66139462D01*
X152696419Y-66119250D01*
X152691203Y-66098426D01*
X152688053Y-66077191D01*
X152687000Y-66055750D01*
X152687000Y-65618250D01*
X152688053Y-65596809D01*
X152691203Y-65575574D01*
X152696419Y-65554750D01*
X152703651Y-65534538D01*
X152712830Y-65515132D01*
X152723866Y-65496719D01*
X152736654Y-65479476D01*
X152751070Y-65463570D01*
X152766976Y-65449154D01*
X152784219Y-65436366D01*
X152802632Y-65425330D01*
X152822038Y-65416151D01*
X152842250Y-65408919D01*
X152863074Y-65403703D01*
X152884309Y-65400553D01*
X152905750Y-65399500D01*
X153418250Y-65399500D01*
X153439691Y-65400553D01*
X153439691Y-65400553D01*
G37*
D26*
G04 #@! TD*
G04 #@! TO.P,C2,2*
G04 #@! TO.N,GND*
X153162000Y-65837000D03*
D10*
G04 #@! TO.N,Net-(C2-Pad1)*
G04 #@! TO.C,C2*
G36*
X153439691Y-63825553D02*
X153460926Y-63828703D01*
X153481750Y-63833919D01*
X153501962Y-63841151D01*
X153521368Y-63850330D01*
X153539781Y-63861366D01*
X153557024Y-63874154D01*
X153572930Y-63888570D01*
X153587346Y-63904476D01*
X153600134Y-63921719D01*
X153611170Y-63940132D01*
X153620349Y-63959538D01*
X153627581Y-63979750D01*
X153632797Y-64000574D01*
X153635947Y-64021809D01*
X153637000Y-64043250D01*
X153637000Y-64480750D01*
X153635947Y-64502191D01*
X153632797Y-64523426D01*
X153627581Y-64544250D01*
X153620349Y-64564462D01*
X153611170Y-64583868D01*
X153600134Y-64602281D01*
X153587346Y-64619524D01*
X153572930Y-64635430D01*
X153557024Y-64649846D01*
X153539781Y-64662634D01*
X153521368Y-64673670D01*
X153501962Y-64682849D01*
X153481750Y-64690081D01*
X153460926Y-64695297D01*
X153439691Y-64698447D01*
X153418250Y-64699500D01*
X152905750Y-64699500D01*
X152884309Y-64698447D01*
X152863074Y-64695297D01*
X152842250Y-64690081D01*
X152822038Y-64682849D01*
X152802632Y-64673670D01*
X152784219Y-64662634D01*
X152766976Y-64649846D01*
X152751070Y-64635430D01*
X152736654Y-64619524D01*
X152723866Y-64602281D01*
X152712830Y-64583868D01*
X152703651Y-64564462D01*
X152696419Y-64544250D01*
X152691203Y-64523426D01*
X152688053Y-64502191D01*
X152687000Y-64480750D01*
X152687000Y-64043250D01*
X152688053Y-64021809D01*
X152691203Y-64000574D01*
X152696419Y-63979750D01*
X152703651Y-63959538D01*
X152712830Y-63940132D01*
X152723866Y-63921719D01*
X152736654Y-63904476D01*
X152751070Y-63888570D01*
X152766976Y-63874154D01*
X152784219Y-63861366D01*
X152802632Y-63850330D01*
X152822038Y-63841151D01*
X152842250Y-63833919D01*
X152863074Y-63828703D01*
X152884309Y-63825553D01*
X152905750Y-63824500D01*
X153418250Y-63824500D01*
X153439691Y-63825553D01*
X153439691Y-63825553D01*
G37*
D26*
G04 #@! TD*
G04 #@! TO.P,C2,1*
G04 #@! TO.N,Net-(C2-Pad1)*
X153162000Y-64262000D03*
D10*
G04 #@! TO.N,Net-(C3-Pad1)*
G04 #@! TO.C,C3*
G36*
X154963691Y-52509553D02*
X154984926Y-52512703D01*
X155005750Y-52517919D01*
X155025962Y-52525151D01*
X155045368Y-52534330D01*
X155063781Y-52545366D01*
X155081024Y-52558154D01*
X155096930Y-52572570D01*
X155111346Y-52588476D01*
X155124134Y-52605719D01*
X155135170Y-52624132D01*
X155144349Y-52643538D01*
X155151581Y-52663750D01*
X155156797Y-52684574D01*
X155159947Y-52705809D01*
X155161000Y-52727250D01*
X155161000Y-53164750D01*
X155159947Y-53186191D01*
X155156797Y-53207426D01*
X155151581Y-53228250D01*
X155144349Y-53248462D01*
X155135170Y-53267868D01*
X155124134Y-53286281D01*
X155111346Y-53303524D01*
X155096930Y-53319430D01*
X155081024Y-53333846D01*
X155063781Y-53346634D01*
X155045368Y-53357670D01*
X155025962Y-53366849D01*
X155005750Y-53374081D01*
X154984926Y-53379297D01*
X154963691Y-53382447D01*
X154942250Y-53383500D01*
X154429750Y-53383500D01*
X154408309Y-53382447D01*
X154387074Y-53379297D01*
X154366250Y-53374081D01*
X154346038Y-53366849D01*
X154326632Y-53357670D01*
X154308219Y-53346634D01*
X154290976Y-53333846D01*
X154275070Y-53319430D01*
X154260654Y-53303524D01*
X154247866Y-53286281D01*
X154236830Y-53267868D01*
X154227651Y-53248462D01*
X154220419Y-53228250D01*
X154215203Y-53207426D01*
X154212053Y-53186191D01*
X154211000Y-53164750D01*
X154211000Y-52727250D01*
X154212053Y-52705809D01*
X154215203Y-52684574D01*
X154220419Y-52663750D01*
X154227651Y-52643538D01*
X154236830Y-52624132D01*
X154247866Y-52605719D01*
X154260654Y-52588476D01*
X154275070Y-52572570D01*
X154290976Y-52558154D01*
X154308219Y-52545366D01*
X154326632Y-52534330D01*
X154346038Y-52525151D01*
X154366250Y-52517919D01*
X154387074Y-52512703D01*
X154408309Y-52509553D01*
X154429750Y-52508500D01*
X154942250Y-52508500D01*
X154963691Y-52509553D01*
X154963691Y-52509553D01*
G37*
D26*
G04 #@! TD*
G04 #@! TO.P,C3,1*
G04 #@! TO.N,Net-(C3-Pad1)*
X154686000Y-52946000D03*
D10*
G04 #@! TO.N,GND*
G04 #@! TO.C,C3*
G36*
X154963691Y-50934553D02*
X154984926Y-50937703D01*
X155005750Y-50942919D01*
X155025962Y-50950151D01*
X155045368Y-50959330D01*
X155063781Y-50970366D01*
X155081024Y-50983154D01*
X155096930Y-50997570D01*
X155111346Y-51013476D01*
X155124134Y-51030719D01*
X155135170Y-51049132D01*
X155144349Y-51068538D01*
X155151581Y-51088750D01*
X155156797Y-51109574D01*
X155159947Y-51130809D01*
X155161000Y-51152250D01*
X155161000Y-51589750D01*
X155159947Y-51611191D01*
X155156797Y-51632426D01*
X155151581Y-51653250D01*
X155144349Y-51673462D01*
X155135170Y-51692868D01*
X155124134Y-51711281D01*
X155111346Y-51728524D01*
X155096930Y-51744430D01*
X155081024Y-51758846D01*
X155063781Y-51771634D01*
X155045368Y-51782670D01*
X155025962Y-51791849D01*
X155005750Y-51799081D01*
X154984926Y-51804297D01*
X154963691Y-51807447D01*
X154942250Y-51808500D01*
X154429750Y-51808500D01*
X154408309Y-51807447D01*
X154387074Y-51804297D01*
X154366250Y-51799081D01*
X154346038Y-51791849D01*
X154326632Y-51782670D01*
X154308219Y-51771634D01*
X154290976Y-51758846D01*
X154275070Y-51744430D01*
X154260654Y-51728524D01*
X154247866Y-51711281D01*
X154236830Y-51692868D01*
X154227651Y-51673462D01*
X154220419Y-51653250D01*
X154215203Y-51632426D01*
X154212053Y-51611191D01*
X154211000Y-51589750D01*
X154211000Y-51152250D01*
X154212053Y-51130809D01*
X154215203Y-51109574D01*
X154220419Y-51088750D01*
X154227651Y-51068538D01*
X154236830Y-51049132D01*
X154247866Y-51030719D01*
X154260654Y-51013476D01*
X154275070Y-50997570D01*
X154290976Y-50983154D01*
X154308219Y-50970366D01*
X154326632Y-50959330D01*
X154346038Y-50950151D01*
X154366250Y-50942919D01*
X154387074Y-50937703D01*
X154408309Y-50934553D01*
X154429750Y-50933500D01*
X154942250Y-50933500D01*
X154963691Y-50934553D01*
X154963691Y-50934553D01*
G37*
D26*
G04 #@! TD*
G04 #@! TO.P,C3,2*
G04 #@! TO.N,GND*
X154686000Y-51371000D03*
D10*
G04 #@! TO.N,GND*
G04 #@! TO.C,C4*
G36*
X168591191Y-41182053D02*
X168612426Y-41185203D01*
X168633250Y-41190419D01*
X168653462Y-41197651D01*
X168672868Y-41206830D01*
X168691281Y-41217866D01*
X168708524Y-41230654D01*
X168724430Y-41245070D01*
X168738846Y-41260976D01*
X168751634Y-41278219D01*
X168762670Y-41296632D01*
X168771849Y-41316038D01*
X168779081Y-41336250D01*
X168784297Y-41357074D01*
X168787447Y-41378309D01*
X168788500Y-41399750D01*
X168788500Y-41912250D01*
X168787447Y-41933691D01*
X168784297Y-41954926D01*
X168779081Y-41975750D01*
X168771849Y-41995962D01*
X168762670Y-42015368D01*
X168751634Y-42033781D01*
X168738846Y-42051024D01*
X168724430Y-42066930D01*
X168708524Y-42081346D01*
X168691281Y-42094134D01*
X168672868Y-42105170D01*
X168653462Y-42114349D01*
X168633250Y-42121581D01*
X168612426Y-42126797D01*
X168591191Y-42129947D01*
X168569750Y-42131000D01*
X168132250Y-42131000D01*
X168110809Y-42129947D01*
X168089574Y-42126797D01*
X168068750Y-42121581D01*
X168048538Y-42114349D01*
X168029132Y-42105170D01*
X168010719Y-42094134D01*
X167993476Y-42081346D01*
X167977570Y-42066930D01*
X167963154Y-42051024D01*
X167950366Y-42033781D01*
X167939330Y-42015368D01*
X167930151Y-41995962D01*
X167922919Y-41975750D01*
X167917703Y-41954926D01*
X167914553Y-41933691D01*
X167913500Y-41912250D01*
X167913500Y-41399750D01*
X167914553Y-41378309D01*
X167917703Y-41357074D01*
X167922919Y-41336250D01*
X167930151Y-41316038D01*
X167939330Y-41296632D01*
X167950366Y-41278219D01*
X167963154Y-41260976D01*
X167977570Y-41245070D01*
X167993476Y-41230654D01*
X168010719Y-41217866D01*
X168029132Y-41206830D01*
X168048538Y-41197651D01*
X168068750Y-41190419D01*
X168089574Y-41185203D01*
X168110809Y-41182053D01*
X168132250Y-41181000D01*
X168569750Y-41181000D01*
X168591191Y-41182053D01*
X168591191Y-41182053D01*
G37*
D26*
G04 #@! TD*
G04 #@! TO.P,C4,1*
G04 #@! TO.N,GND*
X168351000Y-41656000D03*
D10*
G04 #@! TO.N,+5V*
G04 #@! TO.C,C4*
G36*
X167016191Y-41182053D02*
X167037426Y-41185203D01*
X167058250Y-41190419D01*
X167078462Y-41197651D01*
X167097868Y-41206830D01*
X167116281Y-41217866D01*
X167133524Y-41230654D01*
X167149430Y-41245070D01*
X167163846Y-41260976D01*
X167176634Y-41278219D01*
X167187670Y-41296632D01*
X167196849Y-41316038D01*
X167204081Y-41336250D01*
X167209297Y-41357074D01*
X167212447Y-41378309D01*
X167213500Y-41399750D01*
X167213500Y-41912250D01*
X167212447Y-41933691D01*
X167209297Y-41954926D01*
X167204081Y-41975750D01*
X167196849Y-41995962D01*
X167187670Y-42015368D01*
X167176634Y-42033781D01*
X167163846Y-42051024D01*
X167149430Y-42066930D01*
X167133524Y-42081346D01*
X167116281Y-42094134D01*
X167097868Y-42105170D01*
X167078462Y-42114349D01*
X167058250Y-42121581D01*
X167037426Y-42126797D01*
X167016191Y-42129947D01*
X166994750Y-42131000D01*
X166557250Y-42131000D01*
X166535809Y-42129947D01*
X166514574Y-42126797D01*
X166493750Y-42121581D01*
X166473538Y-42114349D01*
X166454132Y-42105170D01*
X166435719Y-42094134D01*
X166418476Y-42081346D01*
X166402570Y-42066930D01*
X166388154Y-42051024D01*
X166375366Y-42033781D01*
X166364330Y-42015368D01*
X166355151Y-41995962D01*
X166347919Y-41975750D01*
X166342703Y-41954926D01*
X166339553Y-41933691D01*
X166338500Y-41912250D01*
X166338500Y-41399750D01*
X166339553Y-41378309D01*
X166342703Y-41357074D01*
X166347919Y-41336250D01*
X166355151Y-41316038D01*
X166364330Y-41296632D01*
X166375366Y-41278219D01*
X166388154Y-41260976D01*
X166402570Y-41245070D01*
X166418476Y-41230654D01*
X166435719Y-41217866D01*
X166454132Y-41206830D01*
X166473538Y-41197651D01*
X166493750Y-41190419D01*
X166514574Y-41185203D01*
X166535809Y-41182053D01*
X166557250Y-41181000D01*
X166994750Y-41181000D01*
X167016191Y-41182053D01*
X167016191Y-41182053D01*
G37*
D26*
G04 #@! TD*
G04 #@! TO.P,C4,2*
G04 #@! TO.N,+5V*
X166776000Y-41656000D03*
D10*
G04 #@! TO.N,+5V*
G04 #@! TO.C,C5*
G36*
X154963691Y-46109553D02*
X154984926Y-46112703D01*
X155005750Y-46117919D01*
X155025962Y-46125151D01*
X155045368Y-46134330D01*
X155063781Y-46145366D01*
X155081024Y-46158154D01*
X155096930Y-46172570D01*
X155111346Y-46188476D01*
X155124134Y-46205719D01*
X155135170Y-46224132D01*
X155144349Y-46243538D01*
X155151581Y-46263750D01*
X155156797Y-46284574D01*
X155159947Y-46305809D01*
X155161000Y-46327250D01*
X155161000Y-46764750D01*
X155159947Y-46786191D01*
X155156797Y-46807426D01*
X155151581Y-46828250D01*
X155144349Y-46848462D01*
X155135170Y-46867868D01*
X155124134Y-46886281D01*
X155111346Y-46903524D01*
X155096930Y-46919430D01*
X155081024Y-46933846D01*
X155063781Y-46946634D01*
X155045368Y-46957670D01*
X155025962Y-46966849D01*
X155005750Y-46974081D01*
X154984926Y-46979297D01*
X154963691Y-46982447D01*
X154942250Y-46983500D01*
X154429750Y-46983500D01*
X154408309Y-46982447D01*
X154387074Y-46979297D01*
X154366250Y-46974081D01*
X154346038Y-46966849D01*
X154326632Y-46957670D01*
X154308219Y-46946634D01*
X154290976Y-46933846D01*
X154275070Y-46919430D01*
X154260654Y-46903524D01*
X154247866Y-46886281D01*
X154236830Y-46867868D01*
X154227651Y-46848462D01*
X154220419Y-46828250D01*
X154215203Y-46807426D01*
X154212053Y-46786191D01*
X154211000Y-46764750D01*
X154211000Y-46327250D01*
X154212053Y-46305809D01*
X154215203Y-46284574D01*
X154220419Y-46263750D01*
X154227651Y-46243538D01*
X154236830Y-46224132D01*
X154247866Y-46205719D01*
X154260654Y-46188476D01*
X154275070Y-46172570D01*
X154290976Y-46158154D01*
X154308219Y-46145366D01*
X154326632Y-46134330D01*
X154346038Y-46125151D01*
X154366250Y-46117919D01*
X154387074Y-46112703D01*
X154408309Y-46109553D01*
X154429750Y-46108500D01*
X154942250Y-46108500D01*
X154963691Y-46109553D01*
X154963691Y-46109553D01*
G37*
D26*
G04 #@! TD*
G04 #@! TO.P,C5,2*
G04 #@! TO.N,+5V*
X154686000Y-46546000D03*
D10*
G04 #@! TO.N,GND*
G04 #@! TO.C,C5*
G36*
X154963691Y-47684553D02*
X154984926Y-47687703D01*
X155005750Y-47692919D01*
X155025962Y-47700151D01*
X155045368Y-47709330D01*
X155063781Y-47720366D01*
X155081024Y-47733154D01*
X155096930Y-47747570D01*
X155111346Y-47763476D01*
X155124134Y-47780719D01*
X155135170Y-47799132D01*
X155144349Y-47818538D01*
X155151581Y-47838750D01*
X155156797Y-47859574D01*
X155159947Y-47880809D01*
X155161000Y-47902250D01*
X155161000Y-48339750D01*
X155159947Y-48361191D01*
X155156797Y-48382426D01*
X155151581Y-48403250D01*
X155144349Y-48423462D01*
X155135170Y-48442868D01*
X155124134Y-48461281D01*
X155111346Y-48478524D01*
X155096930Y-48494430D01*
X155081024Y-48508846D01*
X155063781Y-48521634D01*
X155045368Y-48532670D01*
X155025962Y-48541849D01*
X155005750Y-48549081D01*
X154984926Y-48554297D01*
X154963691Y-48557447D01*
X154942250Y-48558500D01*
X154429750Y-48558500D01*
X154408309Y-48557447D01*
X154387074Y-48554297D01*
X154366250Y-48549081D01*
X154346038Y-48541849D01*
X154326632Y-48532670D01*
X154308219Y-48521634D01*
X154290976Y-48508846D01*
X154275070Y-48494430D01*
X154260654Y-48478524D01*
X154247866Y-48461281D01*
X154236830Y-48442868D01*
X154227651Y-48423462D01*
X154220419Y-48403250D01*
X154215203Y-48382426D01*
X154212053Y-48361191D01*
X154211000Y-48339750D01*
X154211000Y-47902250D01*
X154212053Y-47880809D01*
X154215203Y-47859574D01*
X154220419Y-47838750D01*
X154227651Y-47818538D01*
X154236830Y-47799132D01*
X154247866Y-47780719D01*
X154260654Y-47763476D01*
X154275070Y-47747570D01*
X154290976Y-47733154D01*
X154308219Y-47720366D01*
X154326632Y-47709330D01*
X154346038Y-47700151D01*
X154366250Y-47692919D01*
X154387074Y-47687703D01*
X154408309Y-47684553D01*
X154429750Y-47683500D01*
X154942250Y-47683500D01*
X154963691Y-47684553D01*
X154963691Y-47684553D01*
G37*
D26*
G04 #@! TD*
G04 #@! TO.P,C5,1*
G04 #@! TO.N,GND*
X154686000Y-48121000D03*
D10*
G04 #@! TO.N,GND*
G04 #@! TO.C,C6*
G36*
X165885691Y-60295053D02*
X165906926Y-60298203D01*
X165927750Y-60303419D01*
X165947962Y-60310651D01*
X165967368Y-60319830D01*
X165985781Y-60330866D01*
X166003024Y-60343654D01*
X166018930Y-60358070D01*
X166033346Y-60373976D01*
X166046134Y-60391219D01*
X166057170Y-60409632D01*
X166066349Y-60429038D01*
X166073581Y-60449250D01*
X166078797Y-60470074D01*
X166081947Y-60491309D01*
X166083000Y-60512750D01*
X166083000Y-60950250D01*
X166081947Y-60971691D01*
X166078797Y-60992926D01*
X166073581Y-61013750D01*
X166066349Y-61033962D01*
X166057170Y-61053368D01*
X166046134Y-61071781D01*
X166033346Y-61089024D01*
X166018930Y-61104930D01*
X166003024Y-61119346D01*
X165985781Y-61132134D01*
X165967368Y-61143170D01*
X165947962Y-61152349D01*
X165927750Y-61159581D01*
X165906926Y-61164797D01*
X165885691Y-61167947D01*
X165864250Y-61169000D01*
X165351750Y-61169000D01*
X165330309Y-61167947D01*
X165309074Y-61164797D01*
X165288250Y-61159581D01*
X165268038Y-61152349D01*
X165248632Y-61143170D01*
X165230219Y-61132134D01*
X165212976Y-61119346D01*
X165197070Y-61104930D01*
X165182654Y-61089024D01*
X165169866Y-61071781D01*
X165158830Y-61053368D01*
X165149651Y-61033962D01*
X165142419Y-61013750D01*
X165137203Y-60992926D01*
X165134053Y-60971691D01*
X165133000Y-60950250D01*
X165133000Y-60512750D01*
X165134053Y-60491309D01*
X165137203Y-60470074D01*
X165142419Y-60449250D01*
X165149651Y-60429038D01*
X165158830Y-60409632D01*
X165169866Y-60391219D01*
X165182654Y-60373976D01*
X165197070Y-60358070D01*
X165212976Y-60343654D01*
X165230219Y-60330866D01*
X165248632Y-60319830D01*
X165268038Y-60310651D01*
X165288250Y-60303419D01*
X165309074Y-60298203D01*
X165330309Y-60295053D01*
X165351750Y-60294000D01*
X165864250Y-60294000D01*
X165885691Y-60295053D01*
X165885691Y-60295053D01*
G37*
D26*
G04 #@! TD*
G04 #@! TO.P,C6,2*
G04 #@! TO.N,GND*
X165608000Y-60731500D03*
D10*
G04 #@! TO.N,Net-(C6-Pad1)*
G04 #@! TO.C,C6*
G36*
X165885691Y-58720053D02*
X165906926Y-58723203D01*
X165927750Y-58728419D01*
X165947962Y-58735651D01*
X165967368Y-58744830D01*
X165985781Y-58755866D01*
X166003024Y-58768654D01*
X166018930Y-58783070D01*
X166033346Y-58798976D01*
X166046134Y-58816219D01*
X166057170Y-58834632D01*
X166066349Y-58854038D01*
X166073581Y-58874250D01*
X166078797Y-58895074D01*
X166081947Y-58916309D01*
X166083000Y-58937750D01*
X166083000Y-59375250D01*
X166081947Y-59396691D01*
X166078797Y-59417926D01*
X166073581Y-59438750D01*
X166066349Y-59458962D01*
X166057170Y-59478368D01*
X166046134Y-59496781D01*
X166033346Y-59514024D01*
X166018930Y-59529930D01*
X166003024Y-59544346D01*
X165985781Y-59557134D01*
X165967368Y-59568170D01*
X165947962Y-59577349D01*
X165927750Y-59584581D01*
X165906926Y-59589797D01*
X165885691Y-59592947D01*
X165864250Y-59594000D01*
X165351750Y-59594000D01*
X165330309Y-59592947D01*
X165309074Y-59589797D01*
X165288250Y-59584581D01*
X165268038Y-59577349D01*
X165248632Y-59568170D01*
X165230219Y-59557134D01*
X165212976Y-59544346D01*
X165197070Y-59529930D01*
X165182654Y-59514024D01*
X165169866Y-59496781D01*
X165158830Y-59478368D01*
X165149651Y-59458962D01*
X165142419Y-59438750D01*
X165137203Y-59417926D01*
X165134053Y-59396691D01*
X165133000Y-59375250D01*
X165133000Y-58937750D01*
X165134053Y-58916309D01*
X165137203Y-58895074D01*
X165142419Y-58874250D01*
X165149651Y-58854038D01*
X165158830Y-58834632D01*
X165169866Y-58816219D01*
X165182654Y-58798976D01*
X165197070Y-58783070D01*
X165212976Y-58768654D01*
X165230219Y-58755866D01*
X165248632Y-58744830D01*
X165268038Y-58735651D01*
X165288250Y-58728419D01*
X165309074Y-58723203D01*
X165330309Y-58720053D01*
X165351750Y-58719000D01*
X165864250Y-58719000D01*
X165885691Y-58720053D01*
X165885691Y-58720053D01*
G37*
D26*
G04 #@! TD*
G04 #@! TO.P,C6,1*
G04 #@! TO.N,Net-(C6-Pad1)*
X165608000Y-59156500D03*
D10*
G04 #@! TO.N,GND*
G04 #@! TO.C,C7*
G36*
X179855691Y-54732553D02*
X179876926Y-54735703D01*
X179897750Y-54740919D01*
X179917962Y-54748151D01*
X179937368Y-54757330D01*
X179955781Y-54768366D01*
X179973024Y-54781154D01*
X179988930Y-54795570D01*
X180003346Y-54811476D01*
X180016134Y-54828719D01*
X180027170Y-54847132D01*
X180036349Y-54866538D01*
X180043581Y-54886750D01*
X180048797Y-54907574D01*
X180051947Y-54928809D01*
X180053000Y-54950250D01*
X180053000Y-55387750D01*
X180051947Y-55409191D01*
X180048797Y-55430426D01*
X180043581Y-55451250D01*
X180036349Y-55471462D01*
X180027170Y-55490868D01*
X180016134Y-55509281D01*
X180003346Y-55526524D01*
X179988930Y-55542430D01*
X179973024Y-55556846D01*
X179955781Y-55569634D01*
X179937368Y-55580670D01*
X179917962Y-55589849D01*
X179897750Y-55597081D01*
X179876926Y-55602297D01*
X179855691Y-55605447D01*
X179834250Y-55606500D01*
X179321750Y-55606500D01*
X179300309Y-55605447D01*
X179279074Y-55602297D01*
X179258250Y-55597081D01*
X179238038Y-55589849D01*
X179218632Y-55580670D01*
X179200219Y-55569634D01*
X179182976Y-55556846D01*
X179167070Y-55542430D01*
X179152654Y-55526524D01*
X179139866Y-55509281D01*
X179128830Y-55490868D01*
X179119651Y-55471462D01*
X179112419Y-55451250D01*
X179107203Y-55430426D01*
X179104053Y-55409191D01*
X179103000Y-55387750D01*
X179103000Y-54950250D01*
X179104053Y-54928809D01*
X179107203Y-54907574D01*
X179112419Y-54886750D01*
X179119651Y-54866538D01*
X179128830Y-54847132D01*
X179139866Y-54828719D01*
X179152654Y-54811476D01*
X179167070Y-54795570D01*
X179182976Y-54781154D01*
X179200219Y-54768366D01*
X179218632Y-54757330D01*
X179238038Y-54748151D01*
X179258250Y-54740919D01*
X179279074Y-54735703D01*
X179300309Y-54732553D01*
X179321750Y-54731500D01*
X179834250Y-54731500D01*
X179855691Y-54732553D01*
X179855691Y-54732553D01*
G37*
D26*
G04 #@! TD*
G04 #@! TO.P,C7,1*
G04 #@! TO.N,GND*
X179578000Y-55169000D03*
D10*
G04 #@! TO.N,Net-(C7-Pad2)*
G04 #@! TO.C,C7*
G36*
X179855691Y-53157553D02*
X179876926Y-53160703D01*
X179897750Y-53165919D01*
X179917962Y-53173151D01*
X179937368Y-53182330D01*
X179955781Y-53193366D01*
X179973024Y-53206154D01*
X179988930Y-53220570D01*
X180003346Y-53236476D01*
X180016134Y-53253719D01*
X180027170Y-53272132D01*
X180036349Y-53291538D01*
X180043581Y-53311750D01*
X180048797Y-53332574D01*
X180051947Y-53353809D01*
X180053000Y-53375250D01*
X180053000Y-53812750D01*
X180051947Y-53834191D01*
X180048797Y-53855426D01*
X180043581Y-53876250D01*
X180036349Y-53896462D01*
X180027170Y-53915868D01*
X180016134Y-53934281D01*
X180003346Y-53951524D01*
X179988930Y-53967430D01*
X179973024Y-53981846D01*
X179955781Y-53994634D01*
X179937368Y-54005670D01*
X179917962Y-54014849D01*
X179897750Y-54022081D01*
X179876926Y-54027297D01*
X179855691Y-54030447D01*
X179834250Y-54031500D01*
X179321750Y-54031500D01*
X179300309Y-54030447D01*
X179279074Y-54027297D01*
X179258250Y-54022081D01*
X179238038Y-54014849D01*
X179218632Y-54005670D01*
X179200219Y-53994634D01*
X179182976Y-53981846D01*
X179167070Y-53967430D01*
X179152654Y-53951524D01*
X179139866Y-53934281D01*
X179128830Y-53915868D01*
X179119651Y-53896462D01*
X179112419Y-53876250D01*
X179107203Y-53855426D01*
X179104053Y-53834191D01*
X179103000Y-53812750D01*
X179103000Y-53375250D01*
X179104053Y-53353809D01*
X179107203Y-53332574D01*
X179112419Y-53311750D01*
X179119651Y-53291538D01*
X179128830Y-53272132D01*
X179139866Y-53253719D01*
X179152654Y-53236476D01*
X179167070Y-53220570D01*
X179182976Y-53206154D01*
X179200219Y-53193366D01*
X179218632Y-53182330D01*
X179238038Y-53173151D01*
X179258250Y-53165919D01*
X179279074Y-53160703D01*
X179300309Y-53157553D01*
X179321750Y-53156500D01*
X179834250Y-53156500D01*
X179855691Y-53157553D01*
X179855691Y-53157553D01*
G37*
D26*
G04 #@! TD*
G04 #@! TO.P,C7,2*
G04 #@! TO.N,Net-(C7-Pad2)*
X179578000Y-53594000D03*
D10*
G04 #@! TO.N,/XTAL1*
G04 #@! TO.C,C8*
G36*
X179855691Y-48277553D02*
X179876926Y-48280703D01*
X179897750Y-48285919D01*
X179917962Y-48293151D01*
X179937368Y-48302330D01*
X179955781Y-48313366D01*
X179973024Y-48326154D01*
X179988930Y-48340570D01*
X180003346Y-48356476D01*
X180016134Y-48373719D01*
X180027170Y-48392132D01*
X180036349Y-48411538D01*
X180043581Y-48431750D01*
X180048797Y-48452574D01*
X180051947Y-48473809D01*
X180053000Y-48495250D01*
X180053000Y-48932750D01*
X180051947Y-48954191D01*
X180048797Y-48975426D01*
X180043581Y-48996250D01*
X180036349Y-49016462D01*
X180027170Y-49035868D01*
X180016134Y-49054281D01*
X180003346Y-49071524D01*
X179988930Y-49087430D01*
X179973024Y-49101846D01*
X179955781Y-49114634D01*
X179937368Y-49125670D01*
X179917962Y-49134849D01*
X179897750Y-49142081D01*
X179876926Y-49147297D01*
X179855691Y-49150447D01*
X179834250Y-49151500D01*
X179321750Y-49151500D01*
X179300309Y-49150447D01*
X179279074Y-49147297D01*
X179258250Y-49142081D01*
X179238038Y-49134849D01*
X179218632Y-49125670D01*
X179200219Y-49114634D01*
X179182976Y-49101846D01*
X179167070Y-49087430D01*
X179152654Y-49071524D01*
X179139866Y-49054281D01*
X179128830Y-49035868D01*
X179119651Y-49016462D01*
X179112419Y-48996250D01*
X179107203Y-48975426D01*
X179104053Y-48954191D01*
X179103000Y-48932750D01*
X179103000Y-48495250D01*
X179104053Y-48473809D01*
X179107203Y-48452574D01*
X179112419Y-48431750D01*
X179119651Y-48411538D01*
X179128830Y-48392132D01*
X179139866Y-48373719D01*
X179152654Y-48356476D01*
X179167070Y-48340570D01*
X179182976Y-48326154D01*
X179200219Y-48313366D01*
X179218632Y-48302330D01*
X179238038Y-48293151D01*
X179258250Y-48285919D01*
X179279074Y-48280703D01*
X179300309Y-48277553D01*
X179321750Y-48276500D01*
X179834250Y-48276500D01*
X179855691Y-48277553D01*
X179855691Y-48277553D01*
G37*
D26*
G04 #@! TD*
G04 #@! TO.P,C8,2*
G04 #@! TO.N,/XTAL1*
X179578000Y-48714000D03*
D10*
G04 #@! TO.N,GND*
G04 #@! TO.C,C8*
G36*
X179855691Y-46702553D02*
X179876926Y-46705703D01*
X179897750Y-46710919D01*
X179917962Y-46718151D01*
X179937368Y-46727330D01*
X179955781Y-46738366D01*
X179973024Y-46751154D01*
X179988930Y-46765570D01*
X180003346Y-46781476D01*
X180016134Y-46798719D01*
X180027170Y-46817132D01*
X180036349Y-46836538D01*
X180043581Y-46856750D01*
X180048797Y-46877574D01*
X180051947Y-46898809D01*
X180053000Y-46920250D01*
X180053000Y-47357750D01*
X180051947Y-47379191D01*
X180048797Y-47400426D01*
X180043581Y-47421250D01*
X180036349Y-47441462D01*
X180027170Y-47460868D01*
X180016134Y-47479281D01*
X180003346Y-47496524D01*
X179988930Y-47512430D01*
X179973024Y-47526846D01*
X179955781Y-47539634D01*
X179937368Y-47550670D01*
X179917962Y-47559849D01*
X179897750Y-47567081D01*
X179876926Y-47572297D01*
X179855691Y-47575447D01*
X179834250Y-47576500D01*
X179321750Y-47576500D01*
X179300309Y-47575447D01*
X179279074Y-47572297D01*
X179258250Y-47567081D01*
X179238038Y-47559849D01*
X179218632Y-47550670D01*
X179200219Y-47539634D01*
X179182976Y-47526846D01*
X179167070Y-47512430D01*
X179152654Y-47496524D01*
X179139866Y-47479281D01*
X179128830Y-47460868D01*
X179119651Y-47441462D01*
X179112419Y-47421250D01*
X179107203Y-47400426D01*
X179104053Y-47379191D01*
X179103000Y-47357750D01*
X179103000Y-46920250D01*
X179104053Y-46898809D01*
X179107203Y-46877574D01*
X179112419Y-46856750D01*
X179119651Y-46836538D01*
X179128830Y-46817132D01*
X179139866Y-46798719D01*
X179152654Y-46781476D01*
X179167070Y-46765570D01*
X179182976Y-46751154D01*
X179200219Y-46738366D01*
X179218632Y-46727330D01*
X179238038Y-46718151D01*
X179258250Y-46710919D01*
X179279074Y-46705703D01*
X179300309Y-46702553D01*
X179321750Y-46701500D01*
X179834250Y-46701500D01*
X179855691Y-46702553D01*
X179855691Y-46702553D01*
G37*
D26*
G04 #@! TD*
G04 #@! TO.P,C8,1*
G04 #@! TO.N,GND*
X179578000Y-47139000D03*
D10*
G04 #@! TO.N,Net-(D1-Pad2)*
G04 #@! TO.C,D1*
G36*
X151522691Y-54771053D02*
X151543926Y-54774203D01*
X151564750Y-54779419D01*
X151584962Y-54786651D01*
X151604368Y-54795830D01*
X151622781Y-54806866D01*
X151640024Y-54819654D01*
X151655930Y-54834070D01*
X151670346Y-54849976D01*
X151683134Y-54867219D01*
X151694170Y-54885632D01*
X151703349Y-54905038D01*
X151710581Y-54925250D01*
X151715797Y-54946074D01*
X151718947Y-54967309D01*
X151720000Y-54988750D01*
X151720000Y-55501250D01*
X151718947Y-55522691D01*
X151715797Y-55543926D01*
X151710581Y-55564750D01*
X151703349Y-55584962D01*
X151694170Y-55604368D01*
X151683134Y-55622781D01*
X151670346Y-55640024D01*
X151655930Y-55655930D01*
X151640024Y-55670346D01*
X151622781Y-55683134D01*
X151604368Y-55694170D01*
X151584962Y-55703349D01*
X151564750Y-55710581D01*
X151543926Y-55715797D01*
X151522691Y-55718947D01*
X151501250Y-55720000D01*
X151063750Y-55720000D01*
X151042309Y-55718947D01*
X151021074Y-55715797D01*
X151000250Y-55710581D01*
X150980038Y-55703349D01*
X150960632Y-55694170D01*
X150942219Y-55683134D01*
X150924976Y-55670346D01*
X150909070Y-55655930D01*
X150894654Y-55640024D01*
X150881866Y-55622781D01*
X150870830Y-55604368D01*
X150861651Y-55584962D01*
X150854419Y-55564750D01*
X150849203Y-55543926D01*
X150846053Y-55522691D01*
X150845000Y-55501250D01*
X150845000Y-54988750D01*
X150846053Y-54967309D01*
X150849203Y-54946074D01*
X150854419Y-54925250D01*
X150861651Y-54905038D01*
X150870830Y-54885632D01*
X150881866Y-54867219D01*
X150894654Y-54849976D01*
X150909070Y-54834070D01*
X150924976Y-54819654D01*
X150942219Y-54806866D01*
X150960632Y-54795830D01*
X150980038Y-54786651D01*
X151000250Y-54779419D01*
X151021074Y-54774203D01*
X151042309Y-54771053D01*
X151063750Y-54770000D01*
X151501250Y-54770000D01*
X151522691Y-54771053D01*
X151522691Y-54771053D01*
G37*
D26*
G04 #@! TD*
G04 #@! TO.P,D1,2*
G04 #@! TO.N,Net-(D1-Pad2)*
X151282500Y-55245000D03*
D10*
G04 #@! TO.N,GND*
G04 #@! TO.C,D1*
G36*
X149947691Y-54771053D02*
X149968926Y-54774203D01*
X149989750Y-54779419D01*
X150009962Y-54786651D01*
X150029368Y-54795830D01*
X150047781Y-54806866D01*
X150065024Y-54819654D01*
X150080930Y-54834070D01*
X150095346Y-54849976D01*
X150108134Y-54867219D01*
X150119170Y-54885632D01*
X150128349Y-54905038D01*
X150135581Y-54925250D01*
X150140797Y-54946074D01*
X150143947Y-54967309D01*
X150145000Y-54988750D01*
X150145000Y-55501250D01*
X150143947Y-55522691D01*
X150140797Y-55543926D01*
X150135581Y-55564750D01*
X150128349Y-55584962D01*
X150119170Y-55604368D01*
X150108134Y-55622781D01*
X150095346Y-55640024D01*
X150080930Y-55655930D01*
X150065024Y-55670346D01*
X150047781Y-55683134D01*
X150029368Y-55694170D01*
X150009962Y-55703349D01*
X149989750Y-55710581D01*
X149968926Y-55715797D01*
X149947691Y-55718947D01*
X149926250Y-55720000D01*
X149488750Y-55720000D01*
X149467309Y-55718947D01*
X149446074Y-55715797D01*
X149425250Y-55710581D01*
X149405038Y-55703349D01*
X149385632Y-55694170D01*
X149367219Y-55683134D01*
X149349976Y-55670346D01*
X149334070Y-55655930D01*
X149319654Y-55640024D01*
X149306866Y-55622781D01*
X149295830Y-55604368D01*
X149286651Y-55584962D01*
X149279419Y-55564750D01*
X149274203Y-55543926D01*
X149271053Y-55522691D01*
X149270000Y-55501250D01*
X149270000Y-54988750D01*
X149271053Y-54967309D01*
X149274203Y-54946074D01*
X149279419Y-54925250D01*
X149286651Y-54905038D01*
X149295830Y-54885632D01*
X149306866Y-54867219D01*
X149319654Y-54849976D01*
X149334070Y-54834070D01*
X149349976Y-54819654D01*
X149367219Y-54806866D01*
X149385632Y-54795830D01*
X149405038Y-54786651D01*
X149425250Y-54779419D01*
X149446074Y-54774203D01*
X149467309Y-54771053D01*
X149488750Y-54770000D01*
X149926250Y-54770000D01*
X149947691Y-54771053D01*
X149947691Y-54771053D01*
G37*
D26*
G04 #@! TD*
G04 #@! TO.P,D1,1*
G04 #@! TO.N,GND*
X149707500Y-55245000D03*
D10*
G04 #@! TO.N,GND*
G04 #@! TO.C,D2*
G36*
X134631691Y-45500053D02*
X134652926Y-45503203D01*
X134673750Y-45508419D01*
X134693962Y-45515651D01*
X134713368Y-45524830D01*
X134731781Y-45535866D01*
X134749024Y-45548654D01*
X134764930Y-45563070D01*
X134779346Y-45578976D01*
X134792134Y-45596219D01*
X134803170Y-45614632D01*
X134812349Y-45634038D01*
X134819581Y-45654250D01*
X134824797Y-45675074D01*
X134827947Y-45696309D01*
X134829000Y-45717750D01*
X134829000Y-46230250D01*
X134827947Y-46251691D01*
X134824797Y-46272926D01*
X134819581Y-46293750D01*
X134812349Y-46313962D01*
X134803170Y-46333368D01*
X134792134Y-46351781D01*
X134779346Y-46369024D01*
X134764930Y-46384930D01*
X134749024Y-46399346D01*
X134731781Y-46412134D01*
X134713368Y-46423170D01*
X134693962Y-46432349D01*
X134673750Y-46439581D01*
X134652926Y-46444797D01*
X134631691Y-46447947D01*
X134610250Y-46449000D01*
X134172750Y-46449000D01*
X134151309Y-46447947D01*
X134130074Y-46444797D01*
X134109250Y-46439581D01*
X134089038Y-46432349D01*
X134069632Y-46423170D01*
X134051219Y-46412134D01*
X134033976Y-46399346D01*
X134018070Y-46384930D01*
X134003654Y-46369024D01*
X133990866Y-46351781D01*
X133979830Y-46333368D01*
X133970651Y-46313962D01*
X133963419Y-46293750D01*
X133958203Y-46272926D01*
X133955053Y-46251691D01*
X133954000Y-46230250D01*
X133954000Y-45717750D01*
X133955053Y-45696309D01*
X133958203Y-45675074D01*
X133963419Y-45654250D01*
X133970651Y-45634038D01*
X133979830Y-45614632D01*
X133990866Y-45596219D01*
X134003654Y-45578976D01*
X134018070Y-45563070D01*
X134033976Y-45548654D01*
X134051219Y-45535866D01*
X134069632Y-45524830D01*
X134089038Y-45515651D01*
X134109250Y-45508419D01*
X134130074Y-45503203D01*
X134151309Y-45500053D01*
X134172750Y-45499000D01*
X134610250Y-45499000D01*
X134631691Y-45500053D01*
X134631691Y-45500053D01*
G37*
D26*
G04 #@! TD*
G04 #@! TO.P,D2,1*
G04 #@! TO.N,GND*
X134391500Y-45974000D03*
D10*
G04 #@! TO.N,Net-(D2-Pad2)*
G04 #@! TO.C,D2*
G36*
X133056691Y-45500053D02*
X133077926Y-45503203D01*
X133098750Y-45508419D01*
X133118962Y-45515651D01*
X133138368Y-45524830D01*
X133156781Y-45535866D01*
X133174024Y-45548654D01*
X133189930Y-45563070D01*
X133204346Y-45578976D01*
X133217134Y-45596219D01*
X133228170Y-45614632D01*
X133237349Y-45634038D01*
X133244581Y-45654250D01*
X133249797Y-45675074D01*
X133252947Y-45696309D01*
X133254000Y-45717750D01*
X133254000Y-46230250D01*
X133252947Y-46251691D01*
X133249797Y-46272926D01*
X133244581Y-46293750D01*
X133237349Y-46313962D01*
X133228170Y-46333368D01*
X133217134Y-46351781D01*
X133204346Y-46369024D01*
X133189930Y-46384930D01*
X133174024Y-46399346D01*
X133156781Y-46412134D01*
X133138368Y-46423170D01*
X133118962Y-46432349D01*
X133098750Y-46439581D01*
X133077926Y-46444797D01*
X133056691Y-46447947D01*
X133035250Y-46449000D01*
X132597750Y-46449000D01*
X132576309Y-46447947D01*
X132555074Y-46444797D01*
X132534250Y-46439581D01*
X132514038Y-46432349D01*
X132494632Y-46423170D01*
X132476219Y-46412134D01*
X132458976Y-46399346D01*
X132443070Y-46384930D01*
X132428654Y-46369024D01*
X132415866Y-46351781D01*
X132404830Y-46333368D01*
X132395651Y-46313962D01*
X132388419Y-46293750D01*
X132383203Y-46272926D01*
X132380053Y-46251691D01*
X132379000Y-46230250D01*
X132379000Y-45717750D01*
X132380053Y-45696309D01*
X132383203Y-45675074D01*
X132388419Y-45654250D01*
X132395651Y-45634038D01*
X132404830Y-45614632D01*
X132415866Y-45596219D01*
X132428654Y-45578976D01*
X132443070Y-45563070D01*
X132458976Y-45548654D01*
X132476219Y-45535866D01*
X132494632Y-45524830D01*
X132514038Y-45515651D01*
X132534250Y-45508419D01*
X132555074Y-45503203D01*
X132576309Y-45500053D01*
X132597750Y-45499000D01*
X133035250Y-45499000D01*
X133056691Y-45500053D01*
X133056691Y-45500053D01*
G37*
D26*
G04 #@! TD*
G04 #@! TO.P,D2,2*
G04 #@! TO.N,Net-(D2-Pad2)*
X132816500Y-45974000D03*
D10*
G04 #@! TO.N,Net-(J2-Pad1)*
G04 #@! TO.C,R1*
G36*
X136929691Y-72512553D02*
X136950926Y-72515703D01*
X136971750Y-72520919D01*
X136991962Y-72528151D01*
X137011368Y-72537330D01*
X137029781Y-72548366D01*
X137047024Y-72561154D01*
X137062930Y-72575570D01*
X137077346Y-72591476D01*
X137090134Y-72608719D01*
X137101170Y-72627132D01*
X137110349Y-72646538D01*
X137117581Y-72666750D01*
X137122797Y-72687574D01*
X137125947Y-72708809D01*
X137127000Y-72730250D01*
X137127000Y-73167750D01*
X137125947Y-73189191D01*
X137122797Y-73210426D01*
X137117581Y-73231250D01*
X137110349Y-73251462D01*
X137101170Y-73270868D01*
X137090134Y-73289281D01*
X137077346Y-73306524D01*
X137062930Y-73322430D01*
X137047024Y-73336846D01*
X137029781Y-73349634D01*
X137011368Y-73360670D01*
X136991962Y-73369849D01*
X136971750Y-73377081D01*
X136950926Y-73382297D01*
X136929691Y-73385447D01*
X136908250Y-73386500D01*
X136395750Y-73386500D01*
X136374309Y-73385447D01*
X136353074Y-73382297D01*
X136332250Y-73377081D01*
X136312038Y-73369849D01*
X136292632Y-73360670D01*
X136274219Y-73349634D01*
X136256976Y-73336846D01*
X136241070Y-73322430D01*
X136226654Y-73306524D01*
X136213866Y-73289281D01*
X136202830Y-73270868D01*
X136193651Y-73251462D01*
X136186419Y-73231250D01*
X136181203Y-73210426D01*
X136178053Y-73189191D01*
X136177000Y-73167750D01*
X136177000Y-72730250D01*
X136178053Y-72708809D01*
X136181203Y-72687574D01*
X136186419Y-72666750D01*
X136193651Y-72646538D01*
X136202830Y-72627132D01*
X136213866Y-72608719D01*
X136226654Y-72591476D01*
X136241070Y-72575570D01*
X136256976Y-72561154D01*
X136274219Y-72548366D01*
X136292632Y-72537330D01*
X136312038Y-72528151D01*
X136332250Y-72520919D01*
X136353074Y-72515703D01*
X136374309Y-72512553D01*
X136395750Y-72511500D01*
X136908250Y-72511500D01*
X136929691Y-72512553D01*
X136929691Y-72512553D01*
G37*
D26*
G04 #@! TD*
G04 #@! TO.P,R1,2*
G04 #@! TO.N,Net-(J2-Pad1)*
X136652000Y-72949000D03*
D10*
G04 #@! TO.N,/CANH*
G04 #@! TO.C,R1*
G36*
X136929691Y-70937553D02*
X136950926Y-70940703D01*
X136971750Y-70945919D01*
X136991962Y-70953151D01*
X137011368Y-70962330D01*
X137029781Y-70973366D01*
X137047024Y-70986154D01*
X137062930Y-71000570D01*
X137077346Y-71016476D01*
X137090134Y-71033719D01*
X137101170Y-71052132D01*
X137110349Y-71071538D01*
X137117581Y-71091750D01*
X137122797Y-71112574D01*
X137125947Y-71133809D01*
X137127000Y-71155250D01*
X137127000Y-71592750D01*
X137125947Y-71614191D01*
X137122797Y-71635426D01*
X137117581Y-71656250D01*
X137110349Y-71676462D01*
X137101170Y-71695868D01*
X137090134Y-71714281D01*
X137077346Y-71731524D01*
X137062930Y-71747430D01*
X137047024Y-71761846D01*
X137029781Y-71774634D01*
X137011368Y-71785670D01*
X136991962Y-71794849D01*
X136971750Y-71802081D01*
X136950926Y-71807297D01*
X136929691Y-71810447D01*
X136908250Y-71811500D01*
X136395750Y-71811500D01*
X136374309Y-71810447D01*
X136353074Y-71807297D01*
X136332250Y-71802081D01*
X136312038Y-71794849D01*
X136292632Y-71785670D01*
X136274219Y-71774634D01*
X136256976Y-71761846D01*
X136241070Y-71747430D01*
X136226654Y-71731524D01*
X136213866Y-71714281D01*
X136202830Y-71695868D01*
X136193651Y-71676462D01*
X136186419Y-71656250D01*
X136181203Y-71635426D01*
X136178053Y-71614191D01*
X136177000Y-71592750D01*
X136177000Y-71155250D01*
X136178053Y-71133809D01*
X136181203Y-71112574D01*
X136186419Y-71091750D01*
X136193651Y-71071538D01*
X136202830Y-71052132D01*
X136213866Y-71033719D01*
X136226654Y-71016476D01*
X136241070Y-71000570D01*
X136256976Y-70986154D01*
X136274219Y-70973366D01*
X136292632Y-70962330D01*
X136312038Y-70953151D01*
X136332250Y-70945919D01*
X136353074Y-70940703D01*
X136374309Y-70937553D01*
X136395750Y-70936500D01*
X136908250Y-70936500D01*
X136929691Y-70937553D01*
X136929691Y-70937553D01*
G37*
D26*
G04 #@! TD*
G04 #@! TO.P,R1,1*
G04 #@! TO.N,/CANH*
X136652000Y-71374000D03*
D10*
G04 #@! TO.N,/D+*
G04 #@! TO.C,R2*
G36*
X163091691Y-58720053D02*
X163112926Y-58723203D01*
X163133750Y-58728419D01*
X163153962Y-58735651D01*
X163173368Y-58744830D01*
X163191781Y-58755866D01*
X163209024Y-58768654D01*
X163224930Y-58783070D01*
X163239346Y-58798976D01*
X163252134Y-58816219D01*
X163263170Y-58834632D01*
X163272349Y-58854038D01*
X163279581Y-58874250D01*
X163284797Y-58895074D01*
X163287947Y-58916309D01*
X163289000Y-58937750D01*
X163289000Y-59375250D01*
X163287947Y-59396691D01*
X163284797Y-59417926D01*
X163279581Y-59438750D01*
X163272349Y-59458962D01*
X163263170Y-59478368D01*
X163252134Y-59496781D01*
X163239346Y-59514024D01*
X163224930Y-59529930D01*
X163209024Y-59544346D01*
X163191781Y-59557134D01*
X163173368Y-59568170D01*
X163153962Y-59577349D01*
X163133750Y-59584581D01*
X163112926Y-59589797D01*
X163091691Y-59592947D01*
X163070250Y-59594000D01*
X162557750Y-59594000D01*
X162536309Y-59592947D01*
X162515074Y-59589797D01*
X162494250Y-59584581D01*
X162474038Y-59577349D01*
X162454632Y-59568170D01*
X162436219Y-59557134D01*
X162418976Y-59544346D01*
X162403070Y-59529930D01*
X162388654Y-59514024D01*
X162375866Y-59496781D01*
X162364830Y-59478368D01*
X162355651Y-59458962D01*
X162348419Y-59438750D01*
X162343203Y-59417926D01*
X162340053Y-59396691D01*
X162339000Y-59375250D01*
X162339000Y-58937750D01*
X162340053Y-58916309D01*
X162343203Y-58895074D01*
X162348419Y-58874250D01*
X162355651Y-58854038D01*
X162364830Y-58834632D01*
X162375866Y-58816219D01*
X162388654Y-58798976D01*
X162403070Y-58783070D01*
X162418976Y-58768654D01*
X162436219Y-58755866D01*
X162454632Y-58744830D01*
X162474038Y-58735651D01*
X162494250Y-58728419D01*
X162515074Y-58723203D01*
X162536309Y-58720053D01*
X162557750Y-58719000D01*
X163070250Y-58719000D01*
X163091691Y-58720053D01*
X163091691Y-58720053D01*
G37*
D26*
G04 #@! TD*
G04 #@! TO.P,R2,1*
G04 #@! TO.N,/D+*
X162814000Y-59156500D03*
D10*
G04 #@! TO.N,Net-(J3-Pad3)*
G04 #@! TO.C,R2*
G36*
X163091691Y-60295053D02*
X163112926Y-60298203D01*
X163133750Y-60303419D01*
X163153962Y-60310651D01*
X163173368Y-60319830D01*
X163191781Y-60330866D01*
X163209024Y-60343654D01*
X163224930Y-60358070D01*
X163239346Y-60373976D01*
X163252134Y-60391219D01*
X163263170Y-60409632D01*
X163272349Y-60429038D01*
X163279581Y-60449250D01*
X163284797Y-60470074D01*
X163287947Y-60491309D01*
X163289000Y-60512750D01*
X163289000Y-60950250D01*
X163287947Y-60971691D01*
X163284797Y-60992926D01*
X163279581Y-61013750D01*
X163272349Y-61033962D01*
X163263170Y-61053368D01*
X163252134Y-61071781D01*
X163239346Y-61089024D01*
X163224930Y-61104930D01*
X163209024Y-61119346D01*
X163191781Y-61132134D01*
X163173368Y-61143170D01*
X163153962Y-61152349D01*
X163133750Y-61159581D01*
X163112926Y-61164797D01*
X163091691Y-61167947D01*
X163070250Y-61169000D01*
X162557750Y-61169000D01*
X162536309Y-61167947D01*
X162515074Y-61164797D01*
X162494250Y-61159581D01*
X162474038Y-61152349D01*
X162454632Y-61143170D01*
X162436219Y-61132134D01*
X162418976Y-61119346D01*
X162403070Y-61104930D01*
X162388654Y-61089024D01*
X162375866Y-61071781D01*
X162364830Y-61053368D01*
X162355651Y-61033962D01*
X162348419Y-61013750D01*
X162343203Y-60992926D01*
X162340053Y-60971691D01*
X162339000Y-60950250D01*
X162339000Y-60512750D01*
X162340053Y-60491309D01*
X162343203Y-60470074D01*
X162348419Y-60449250D01*
X162355651Y-60429038D01*
X162364830Y-60409632D01*
X162375866Y-60391219D01*
X162388654Y-60373976D01*
X162403070Y-60358070D01*
X162418976Y-60343654D01*
X162436219Y-60330866D01*
X162454632Y-60319830D01*
X162474038Y-60310651D01*
X162494250Y-60303419D01*
X162515074Y-60298203D01*
X162536309Y-60295053D01*
X162557750Y-60294000D01*
X163070250Y-60294000D01*
X163091691Y-60295053D01*
X163091691Y-60295053D01*
G37*
D26*
G04 #@! TD*
G04 #@! TO.P,R2,2*
G04 #@! TO.N,Net-(J3-Pad3)*
X162814000Y-60731500D03*
D10*
G04 #@! TO.N,Net-(J3-Pad2)*
G04 #@! TO.C,R3*
G36*
X160297691Y-60295053D02*
X160318926Y-60298203D01*
X160339750Y-60303419D01*
X160359962Y-60310651D01*
X160379368Y-60319830D01*
X160397781Y-60330866D01*
X160415024Y-60343654D01*
X160430930Y-60358070D01*
X160445346Y-60373976D01*
X160458134Y-60391219D01*
X160469170Y-60409632D01*
X160478349Y-60429038D01*
X160485581Y-60449250D01*
X160490797Y-60470074D01*
X160493947Y-60491309D01*
X160495000Y-60512750D01*
X160495000Y-60950250D01*
X160493947Y-60971691D01*
X160490797Y-60992926D01*
X160485581Y-61013750D01*
X160478349Y-61033962D01*
X160469170Y-61053368D01*
X160458134Y-61071781D01*
X160445346Y-61089024D01*
X160430930Y-61104930D01*
X160415024Y-61119346D01*
X160397781Y-61132134D01*
X160379368Y-61143170D01*
X160359962Y-61152349D01*
X160339750Y-61159581D01*
X160318926Y-61164797D01*
X160297691Y-61167947D01*
X160276250Y-61169000D01*
X159763750Y-61169000D01*
X159742309Y-61167947D01*
X159721074Y-61164797D01*
X159700250Y-61159581D01*
X159680038Y-61152349D01*
X159660632Y-61143170D01*
X159642219Y-61132134D01*
X159624976Y-61119346D01*
X159609070Y-61104930D01*
X159594654Y-61089024D01*
X159581866Y-61071781D01*
X159570830Y-61053368D01*
X159561651Y-61033962D01*
X159554419Y-61013750D01*
X159549203Y-60992926D01*
X159546053Y-60971691D01*
X159545000Y-60950250D01*
X159545000Y-60512750D01*
X159546053Y-60491309D01*
X159549203Y-60470074D01*
X159554419Y-60449250D01*
X159561651Y-60429038D01*
X159570830Y-60409632D01*
X159581866Y-60391219D01*
X159594654Y-60373976D01*
X159609070Y-60358070D01*
X159624976Y-60343654D01*
X159642219Y-60330866D01*
X159660632Y-60319830D01*
X159680038Y-60310651D01*
X159700250Y-60303419D01*
X159721074Y-60298203D01*
X159742309Y-60295053D01*
X159763750Y-60294000D01*
X160276250Y-60294000D01*
X160297691Y-60295053D01*
X160297691Y-60295053D01*
G37*
D26*
G04 #@! TD*
G04 #@! TO.P,R3,2*
G04 #@! TO.N,Net-(J3-Pad2)*
X160020000Y-60731500D03*
D10*
G04 #@! TO.N,/D-*
G04 #@! TO.C,R3*
G36*
X160297691Y-58720053D02*
X160318926Y-58723203D01*
X160339750Y-58728419D01*
X160359962Y-58735651D01*
X160379368Y-58744830D01*
X160397781Y-58755866D01*
X160415024Y-58768654D01*
X160430930Y-58783070D01*
X160445346Y-58798976D01*
X160458134Y-58816219D01*
X160469170Y-58834632D01*
X160478349Y-58854038D01*
X160485581Y-58874250D01*
X160490797Y-58895074D01*
X160493947Y-58916309D01*
X160495000Y-58937750D01*
X160495000Y-59375250D01*
X160493947Y-59396691D01*
X160490797Y-59417926D01*
X160485581Y-59438750D01*
X160478349Y-59458962D01*
X160469170Y-59478368D01*
X160458134Y-59496781D01*
X160445346Y-59514024D01*
X160430930Y-59529930D01*
X160415024Y-59544346D01*
X160397781Y-59557134D01*
X160379368Y-59568170D01*
X160359962Y-59577349D01*
X160339750Y-59584581D01*
X160318926Y-59589797D01*
X160297691Y-59592947D01*
X160276250Y-59594000D01*
X159763750Y-59594000D01*
X159742309Y-59592947D01*
X159721074Y-59589797D01*
X159700250Y-59584581D01*
X159680038Y-59577349D01*
X159660632Y-59568170D01*
X159642219Y-59557134D01*
X159624976Y-59544346D01*
X159609070Y-59529930D01*
X159594654Y-59514024D01*
X159581866Y-59496781D01*
X159570830Y-59478368D01*
X159561651Y-59458962D01*
X159554419Y-59438750D01*
X159549203Y-59417926D01*
X159546053Y-59396691D01*
X159545000Y-59375250D01*
X159545000Y-58937750D01*
X159546053Y-58916309D01*
X159549203Y-58895074D01*
X159554419Y-58874250D01*
X159561651Y-58854038D01*
X159570830Y-58834632D01*
X159581866Y-58816219D01*
X159594654Y-58798976D01*
X159609070Y-58783070D01*
X159624976Y-58768654D01*
X159642219Y-58755866D01*
X159660632Y-58744830D01*
X159680038Y-58735651D01*
X159700250Y-58728419D01*
X159721074Y-58723203D01*
X159742309Y-58720053D01*
X159763750Y-58719000D01*
X160276250Y-58719000D01*
X160297691Y-58720053D01*
X160297691Y-58720053D01*
G37*
D26*
G04 #@! TD*
G04 #@! TO.P,R3,1*
G04 #@! TO.N,/D-*
X160020000Y-59156500D03*
D10*
G04 #@! TO.N,/PE6*
G04 #@! TO.C,R4*
G36*
X155423691Y-55772053D02*
X155444926Y-55775203D01*
X155465750Y-55780419D01*
X155485962Y-55787651D01*
X155505368Y-55796830D01*
X155523781Y-55807866D01*
X155541024Y-55820654D01*
X155556930Y-55835070D01*
X155571346Y-55850976D01*
X155584134Y-55868219D01*
X155595170Y-55886632D01*
X155604349Y-55906038D01*
X155611581Y-55926250D01*
X155616797Y-55947074D01*
X155619947Y-55968309D01*
X155621000Y-55989750D01*
X155621000Y-56502250D01*
X155619947Y-56523691D01*
X155616797Y-56544926D01*
X155611581Y-56565750D01*
X155604349Y-56585962D01*
X155595170Y-56605368D01*
X155584134Y-56623781D01*
X155571346Y-56641024D01*
X155556930Y-56656930D01*
X155541024Y-56671346D01*
X155523781Y-56684134D01*
X155505368Y-56695170D01*
X155485962Y-56704349D01*
X155465750Y-56711581D01*
X155444926Y-56716797D01*
X155423691Y-56719947D01*
X155402250Y-56721000D01*
X154964750Y-56721000D01*
X154943309Y-56719947D01*
X154922074Y-56716797D01*
X154901250Y-56711581D01*
X154881038Y-56704349D01*
X154861632Y-56695170D01*
X154843219Y-56684134D01*
X154825976Y-56671346D01*
X154810070Y-56656930D01*
X154795654Y-56641024D01*
X154782866Y-56623781D01*
X154771830Y-56605368D01*
X154762651Y-56585962D01*
X154755419Y-56565750D01*
X154750203Y-56544926D01*
X154747053Y-56523691D01*
X154746000Y-56502250D01*
X154746000Y-55989750D01*
X154747053Y-55968309D01*
X154750203Y-55947074D01*
X154755419Y-55926250D01*
X154762651Y-55906038D01*
X154771830Y-55886632D01*
X154782866Y-55868219D01*
X154795654Y-55850976D01*
X154810070Y-55835070D01*
X154825976Y-55820654D01*
X154843219Y-55807866D01*
X154861632Y-55796830D01*
X154881038Y-55787651D01*
X154901250Y-55780419D01*
X154922074Y-55775203D01*
X154943309Y-55772053D01*
X154964750Y-55771000D01*
X155402250Y-55771000D01*
X155423691Y-55772053D01*
X155423691Y-55772053D01*
G37*
D26*
G04 #@! TD*
G04 #@! TO.P,R4,1*
G04 #@! TO.N,/PE6*
X155183500Y-56246000D03*
D10*
G04 #@! TO.N,Net-(D1-Pad2)*
G04 #@! TO.C,R4*
G36*
X153848691Y-55772053D02*
X153869926Y-55775203D01*
X153890750Y-55780419D01*
X153910962Y-55787651D01*
X153930368Y-55796830D01*
X153948781Y-55807866D01*
X153966024Y-55820654D01*
X153981930Y-55835070D01*
X153996346Y-55850976D01*
X154009134Y-55868219D01*
X154020170Y-55886632D01*
X154029349Y-55906038D01*
X154036581Y-55926250D01*
X154041797Y-55947074D01*
X154044947Y-55968309D01*
X154046000Y-55989750D01*
X154046000Y-56502250D01*
X154044947Y-56523691D01*
X154041797Y-56544926D01*
X154036581Y-56565750D01*
X154029349Y-56585962D01*
X154020170Y-56605368D01*
X154009134Y-56623781D01*
X153996346Y-56641024D01*
X153981930Y-56656930D01*
X153966024Y-56671346D01*
X153948781Y-56684134D01*
X153930368Y-56695170D01*
X153910962Y-56704349D01*
X153890750Y-56711581D01*
X153869926Y-56716797D01*
X153848691Y-56719947D01*
X153827250Y-56721000D01*
X153389750Y-56721000D01*
X153368309Y-56719947D01*
X153347074Y-56716797D01*
X153326250Y-56711581D01*
X153306038Y-56704349D01*
X153286632Y-56695170D01*
X153268219Y-56684134D01*
X153250976Y-56671346D01*
X153235070Y-56656930D01*
X153220654Y-56641024D01*
X153207866Y-56623781D01*
X153196830Y-56605368D01*
X153187651Y-56585962D01*
X153180419Y-56565750D01*
X153175203Y-56544926D01*
X153172053Y-56523691D01*
X153171000Y-56502250D01*
X153171000Y-55989750D01*
X153172053Y-55968309D01*
X153175203Y-55947074D01*
X153180419Y-55926250D01*
X153187651Y-55906038D01*
X153196830Y-55886632D01*
X153207866Y-55868219D01*
X153220654Y-55850976D01*
X153235070Y-55835070D01*
X153250976Y-55820654D01*
X153268219Y-55807866D01*
X153286632Y-55796830D01*
X153306038Y-55787651D01*
X153326250Y-55780419D01*
X153347074Y-55775203D01*
X153368309Y-55772053D01*
X153389750Y-55771000D01*
X153827250Y-55771000D01*
X153848691Y-55772053D01*
X153848691Y-55772053D01*
G37*
D26*
G04 #@! TD*
G04 #@! TO.P,R4,2*
G04 #@! TO.N,Net-(D1-Pad2)*
X153608500Y-56246000D03*
D10*
G04 #@! TO.N,+5V*
G04 #@! TO.C,R5*
G36*
X129018191Y-45500053D02*
X129039426Y-45503203D01*
X129060250Y-45508419D01*
X129080462Y-45515651D01*
X129099868Y-45524830D01*
X129118281Y-45535866D01*
X129135524Y-45548654D01*
X129151430Y-45563070D01*
X129165846Y-45578976D01*
X129178634Y-45596219D01*
X129189670Y-45614632D01*
X129198849Y-45634038D01*
X129206081Y-45654250D01*
X129211297Y-45675074D01*
X129214447Y-45696309D01*
X129215500Y-45717750D01*
X129215500Y-46230250D01*
X129214447Y-46251691D01*
X129211297Y-46272926D01*
X129206081Y-46293750D01*
X129198849Y-46313962D01*
X129189670Y-46333368D01*
X129178634Y-46351781D01*
X129165846Y-46369024D01*
X129151430Y-46384930D01*
X129135524Y-46399346D01*
X129118281Y-46412134D01*
X129099868Y-46423170D01*
X129080462Y-46432349D01*
X129060250Y-46439581D01*
X129039426Y-46444797D01*
X129018191Y-46447947D01*
X128996750Y-46449000D01*
X128559250Y-46449000D01*
X128537809Y-46447947D01*
X128516574Y-46444797D01*
X128495750Y-46439581D01*
X128475538Y-46432349D01*
X128456132Y-46423170D01*
X128437719Y-46412134D01*
X128420476Y-46399346D01*
X128404570Y-46384930D01*
X128390154Y-46369024D01*
X128377366Y-46351781D01*
X128366330Y-46333368D01*
X128357151Y-46313962D01*
X128349919Y-46293750D01*
X128344703Y-46272926D01*
X128341553Y-46251691D01*
X128340500Y-46230250D01*
X128340500Y-45717750D01*
X128341553Y-45696309D01*
X128344703Y-45675074D01*
X128349919Y-45654250D01*
X128357151Y-45634038D01*
X128366330Y-45614632D01*
X128377366Y-45596219D01*
X128390154Y-45578976D01*
X128404570Y-45563070D01*
X128420476Y-45548654D01*
X128437719Y-45535866D01*
X128456132Y-45524830D01*
X128475538Y-45515651D01*
X128495750Y-45508419D01*
X128516574Y-45503203D01*
X128537809Y-45500053D01*
X128559250Y-45499000D01*
X128996750Y-45499000D01*
X129018191Y-45500053D01*
X129018191Y-45500053D01*
G37*
D26*
G04 #@! TD*
G04 #@! TO.P,R5,1*
G04 #@! TO.N,+5V*
X128778000Y-45974000D03*
D10*
G04 #@! TO.N,Net-(D2-Pad2)*
G04 #@! TO.C,R5*
G36*
X130593191Y-45500053D02*
X130614426Y-45503203D01*
X130635250Y-45508419D01*
X130655462Y-45515651D01*
X130674868Y-45524830D01*
X130693281Y-45535866D01*
X130710524Y-45548654D01*
X130726430Y-45563070D01*
X130740846Y-45578976D01*
X130753634Y-45596219D01*
X130764670Y-45614632D01*
X130773849Y-45634038D01*
X130781081Y-45654250D01*
X130786297Y-45675074D01*
X130789447Y-45696309D01*
X130790500Y-45717750D01*
X130790500Y-46230250D01*
X130789447Y-46251691D01*
X130786297Y-46272926D01*
X130781081Y-46293750D01*
X130773849Y-46313962D01*
X130764670Y-46333368D01*
X130753634Y-46351781D01*
X130740846Y-46369024D01*
X130726430Y-46384930D01*
X130710524Y-46399346D01*
X130693281Y-46412134D01*
X130674868Y-46423170D01*
X130655462Y-46432349D01*
X130635250Y-46439581D01*
X130614426Y-46444797D01*
X130593191Y-46447947D01*
X130571750Y-46449000D01*
X130134250Y-46449000D01*
X130112809Y-46447947D01*
X130091574Y-46444797D01*
X130070750Y-46439581D01*
X130050538Y-46432349D01*
X130031132Y-46423170D01*
X130012719Y-46412134D01*
X129995476Y-46399346D01*
X129979570Y-46384930D01*
X129965154Y-46369024D01*
X129952366Y-46351781D01*
X129941330Y-46333368D01*
X129932151Y-46313962D01*
X129924919Y-46293750D01*
X129919703Y-46272926D01*
X129916553Y-46251691D01*
X129915500Y-46230250D01*
X129915500Y-45717750D01*
X129916553Y-45696309D01*
X129919703Y-45675074D01*
X129924919Y-45654250D01*
X129932151Y-45634038D01*
X129941330Y-45614632D01*
X129952366Y-45596219D01*
X129965154Y-45578976D01*
X129979570Y-45563070D01*
X129995476Y-45548654D01*
X130012719Y-45535866D01*
X130031132Y-45524830D01*
X130050538Y-45515651D01*
X130070750Y-45508419D01*
X130091574Y-45503203D01*
X130112809Y-45500053D01*
X130134250Y-45499000D01*
X130571750Y-45499000D01*
X130593191Y-45500053D01*
X130593191Y-45500053D01*
G37*
D26*
G04 #@! TD*
G04 #@! TO.P,R5,2*
G04 #@! TO.N,Net-(D2-Pad2)*
X130353000Y-45974000D03*
D10*
G04 #@! TO.N,Net-(R6-Pad2)*
G04 #@! TO.C,R6*
G36*
X138441691Y-45500053D02*
X138462926Y-45503203D01*
X138483750Y-45508419D01*
X138503962Y-45515651D01*
X138523368Y-45524830D01*
X138541781Y-45535866D01*
X138559024Y-45548654D01*
X138574930Y-45563070D01*
X138589346Y-45578976D01*
X138602134Y-45596219D01*
X138613170Y-45614632D01*
X138622349Y-45634038D01*
X138629581Y-45654250D01*
X138634797Y-45675074D01*
X138637947Y-45696309D01*
X138639000Y-45717750D01*
X138639000Y-46230250D01*
X138637947Y-46251691D01*
X138634797Y-46272926D01*
X138629581Y-46293750D01*
X138622349Y-46313962D01*
X138613170Y-46333368D01*
X138602134Y-46351781D01*
X138589346Y-46369024D01*
X138574930Y-46384930D01*
X138559024Y-46399346D01*
X138541781Y-46412134D01*
X138523368Y-46423170D01*
X138503962Y-46432349D01*
X138483750Y-46439581D01*
X138462926Y-46444797D01*
X138441691Y-46447947D01*
X138420250Y-46449000D01*
X137982750Y-46449000D01*
X137961309Y-46447947D01*
X137940074Y-46444797D01*
X137919250Y-46439581D01*
X137899038Y-46432349D01*
X137879632Y-46423170D01*
X137861219Y-46412134D01*
X137843976Y-46399346D01*
X137828070Y-46384930D01*
X137813654Y-46369024D01*
X137800866Y-46351781D01*
X137789830Y-46333368D01*
X137780651Y-46313962D01*
X137773419Y-46293750D01*
X137768203Y-46272926D01*
X137765053Y-46251691D01*
X137764000Y-46230250D01*
X137764000Y-45717750D01*
X137765053Y-45696309D01*
X137768203Y-45675074D01*
X137773419Y-45654250D01*
X137780651Y-45634038D01*
X137789830Y-45614632D01*
X137800866Y-45596219D01*
X137813654Y-45578976D01*
X137828070Y-45563070D01*
X137843976Y-45548654D01*
X137861219Y-45535866D01*
X137879632Y-45524830D01*
X137899038Y-45515651D01*
X137919250Y-45508419D01*
X137940074Y-45503203D01*
X137961309Y-45500053D01*
X137982750Y-45499000D01*
X138420250Y-45499000D01*
X138441691Y-45500053D01*
X138441691Y-45500053D01*
G37*
D26*
G04 #@! TD*
G04 #@! TO.P,R6,2*
G04 #@! TO.N,Net-(R6-Pad2)*
X138201500Y-45974000D03*
D10*
G04 #@! TO.N,+5V*
G04 #@! TO.C,R6*
G36*
X136866691Y-45500053D02*
X136887926Y-45503203D01*
X136908750Y-45508419D01*
X136928962Y-45515651D01*
X136948368Y-45524830D01*
X136966781Y-45535866D01*
X136984024Y-45548654D01*
X136999930Y-45563070D01*
X137014346Y-45578976D01*
X137027134Y-45596219D01*
X137038170Y-45614632D01*
X137047349Y-45634038D01*
X137054581Y-45654250D01*
X137059797Y-45675074D01*
X137062947Y-45696309D01*
X137064000Y-45717750D01*
X137064000Y-46230250D01*
X137062947Y-46251691D01*
X137059797Y-46272926D01*
X137054581Y-46293750D01*
X137047349Y-46313962D01*
X137038170Y-46333368D01*
X137027134Y-46351781D01*
X137014346Y-46369024D01*
X136999930Y-46384930D01*
X136984024Y-46399346D01*
X136966781Y-46412134D01*
X136948368Y-46423170D01*
X136928962Y-46432349D01*
X136908750Y-46439581D01*
X136887926Y-46444797D01*
X136866691Y-46447947D01*
X136845250Y-46449000D01*
X136407750Y-46449000D01*
X136386309Y-46447947D01*
X136365074Y-46444797D01*
X136344250Y-46439581D01*
X136324038Y-46432349D01*
X136304632Y-46423170D01*
X136286219Y-46412134D01*
X136268976Y-46399346D01*
X136253070Y-46384930D01*
X136238654Y-46369024D01*
X136225866Y-46351781D01*
X136214830Y-46333368D01*
X136205651Y-46313962D01*
X136198419Y-46293750D01*
X136193203Y-46272926D01*
X136190053Y-46251691D01*
X136189000Y-46230250D01*
X136189000Y-45717750D01*
X136190053Y-45696309D01*
X136193203Y-45675074D01*
X136198419Y-45654250D01*
X136205651Y-45634038D01*
X136214830Y-45614632D01*
X136225866Y-45596219D01*
X136238654Y-45578976D01*
X136253070Y-45563070D01*
X136268976Y-45548654D01*
X136286219Y-45535866D01*
X136304632Y-45524830D01*
X136324038Y-45515651D01*
X136344250Y-45508419D01*
X136365074Y-45503203D01*
X136386309Y-45500053D01*
X136407750Y-45499000D01*
X136845250Y-45499000D01*
X136866691Y-45500053D01*
X136866691Y-45500053D01*
G37*
D26*
G04 #@! TD*
G04 #@! TO.P,R6,1*
G04 #@! TO.N,+5V*
X136626500Y-45974000D03*
D19*
G04 #@! TO.P,J2,1*
G04 #@! TO.N,Net-(J2-Pad1)*
X140716000Y-72644000D03*
D20*
G04 #@! TO.P,J2,2*
G04 #@! TO.N,/CANL*
X140716000Y-70104000D03*
G04 #@! TD*
D19*
G04 #@! TO.P,J4,1*
G04 #@! TO.N,/MISO*
X174498000Y-60198000D03*
D20*
G04 #@! TO.P,J4,2*
G04 #@! TO.N,+5V*
X174498000Y-62738000D03*
G04 #@! TO.P,J4,3*
G04 #@! TO.N,/SCK*
X171958000Y-60198000D03*
G04 #@! TO.P,J4,4*
G04 #@! TO.N,/MOSI*
X171958000Y-62738000D03*
G04 #@! TO.P,J4,5*
G04 #@! TO.N,/RST*
X169418000Y-60198000D03*
G04 #@! TO.P,J4,6*
G04 #@! TO.N,GND*
X169418000Y-62738000D03*
G04 #@! TD*
D27*
G04 #@! TO.P,Y1,1*
G04 #@! TO.N,Net-(C1-Pad1)*
X142748000Y-64262000D03*
G04 #@! TO.P,Y1,2*
G04 #@! TO.N,Net-(C2-Pad1)*
X147628000Y-64262000D03*
G04 #@! TD*
G04 #@! TO.P,Y2,2*
G04 #@! TO.N,/XTAL1*
X174752000Y-48714000D03*
G04 #@! TO.P,Y2,1*
G04 #@! TO.N,Net-(C7-Pad2)*
X174752000Y-53594000D03*
G04 #@! TD*
D28*
G04 #@! TO.N,+5V*
X148526500Y-70485000D03*
D29*
X157162500Y-44831000D03*
X165925500Y-43116500D03*
D28*
X162623500Y-65087500D03*
X157988000Y-65024000D03*
D29*
G04 #@! TO.N,GND*
X153035000Y-46228000D03*
X159258000Y-53022500D03*
X165608000Y-61912500D03*
X153162000Y-67119500D03*
X143446500Y-73025000D03*
X151638000Y-71755000D03*
X137160000Y-67056000D03*
X147066000Y-60642500D03*
X134429500Y-47244000D03*
X179578000Y-56451500D03*
X179578000Y-45910500D03*
X167767000Y-52133500D03*
X169608500Y-41656000D03*
X167576500Y-43307000D03*
X162750500Y-57848500D03*
X156146500Y-52070000D03*
X148463000Y-55081000D03*
X145796000Y-66230500D03*
X158305500Y-61849000D03*
X177355500Y-51054000D03*
X137985500Y-38163500D03*
G04 #@! TO.N,/~INT*
X164592000Y-46482000D03*
X144526000Y-47498000D03*
G04 #@! TO.N,/A0*
X159503950Y-48223000D03*
G04 #@! TO.N,/A1*
X148526500Y-46545500D03*
G04 #@! TO.N,/CH7*
X159702500Y-43180000D03*
G04 #@! TO.N,/CH2*
X161251000Y-43180000D03*
G04 #@! TO.N,/RST*
X167386000Y-53848000D03*
X170434000Y-67310000D03*
G04 #@! TO.N,Net-(C1-Pad1)*
X144526000Y-60706000D03*
X139128500Y-64262000D03*
G04 #@! TO.N,/SCK*
X143256000Y-49673001D03*
X163648097Y-54029903D03*
G04 #@! TO.N,/MISO*
X168084500Y-57441000D03*
X140779500Y-47625000D03*
G04 #@! TO.N,/~CS*
X164993153Y-57637847D03*
X139446000Y-50927000D03*
G04 #@! TD*
D30*
G04 #@! TO.N,Net-(F1-Pad1)*
X160498000Y-65386500D02*
X160135500Y-65024000D01*
X160498000Y-69403500D02*
X160498000Y-65386500D01*
X160498000Y-69403500D02*
X160498000Y-70356000D01*
G04 #@! TO.N,+5V*
X156876000Y-46546000D02*
X154686000Y-46546000D01*
X157876000Y-46546000D02*
X156876000Y-46546000D01*
X166776000Y-41656000D02*
X166776000Y-44846000D01*
D31*
X150039000Y-70485000D02*
X148526500Y-70485000D01*
X154841789Y-35927167D02*
X155941789Y-35927167D01*
X138232833Y-35927167D02*
X154841789Y-35927167D01*
X133604000Y-40556000D02*
X138232833Y-35927167D01*
X133604000Y-41656000D02*
X133604000Y-40556000D01*
X155860500Y-65024000D02*
X155860500Y-59340500D01*
D30*
X166776000Y-41656000D02*
X166776000Y-42266000D01*
X166776000Y-42266000D02*
X165925500Y-43116500D01*
D31*
X156876000Y-54546000D02*
X156622500Y-54292500D01*
X157876000Y-54546000D02*
X156876000Y-54546000D01*
X160376000Y-57246000D02*
X159583000Y-58039000D01*
X160376000Y-56246000D02*
X160376000Y-57246000D01*
D30*
X164376000Y-55410998D02*
X163829002Y-54864000D01*
X164376000Y-56246000D02*
X164376000Y-55410998D01*
X160376000Y-55246000D02*
X160376000Y-56246000D01*
X160758000Y-54864000D02*
X160376000Y-55246000D01*
X163829002Y-54864000D02*
X160758000Y-54864000D01*
D31*
X175700081Y-62738000D02*
X176720500Y-61717581D01*
X174498000Y-62738000D02*
X175700081Y-62738000D01*
X176720500Y-61717581D02*
X176720500Y-58674000D01*
X170992500Y-52946000D02*
X169276000Y-52946000D01*
X176720500Y-58674000D02*
X170992500Y-52946000D01*
X171347502Y-65087500D02*
X162623500Y-65087500D01*
X174498000Y-62738000D02*
X172148500Y-65087500D01*
X172148500Y-65087500D02*
X171347502Y-65087500D01*
X155860500Y-65024000D02*
X157988000Y-65024000D01*
D30*
G04 #@! TO.N,GND*
X154686000Y-48121000D02*
X154637000Y-48121000D01*
X155461000Y-47346000D02*
X154686000Y-48121000D01*
X157876000Y-47346000D02*
X155461000Y-47346000D01*
X154686000Y-48121000D02*
X153035000Y-46470000D01*
X153035000Y-46470000D02*
X153035000Y-46228000D01*
X159258000Y-53364000D02*
X159258000Y-53022500D01*
X157876000Y-53746000D02*
X158876000Y-53746000D01*
X158876000Y-53746000D02*
X159258000Y-53364000D01*
X165608000Y-60731500D02*
X165608000Y-61912500D01*
X153162000Y-65837000D02*
X153162000Y-67119500D01*
X145109000Y-73025000D02*
X143446500Y-73025000D01*
X150039000Y-71755000D02*
X151638000Y-71755000D01*
X137160000Y-65837000D02*
X137160000Y-67056000D01*
X147066000Y-58802000D02*
X147066000Y-60642500D01*
X134391500Y-45974000D02*
X134391500Y-47206000D01*
X134391500Y-47206000D02*
X134429500Y-47244000D01*
X179578000Y-55169000D02*
X179578000Y-56451500D01*
X179578000Y-47139000D02*
X179578000Y-45910500D01*
X169276000Y-52146000D02*
X167779500Y-52146000D01*
X167779500Y-52146000D02*
X167767000Y-52133500D01*
X168351000Y-41656000D02*
X169608500Y-41656000D01*
X167576000Y-44846000D02*
X167576000Y-43307500D01*
X167576000Y-43307500D02*
X167576500Y-43307000D01*
X162776000Y-56246000D02*
X162776000Y-57823000D01*
X162776000Y-57823000D02*
X162750500Y-57848500D01*
X154686000Y-51371000D02*
X155447500Y-51371000D01*
X155447500Y-51371000D02*
X156146500Y-52070000D01*
X149707500Y-55245000D02*
X148627000Y-55245000D01*
X148627000Y-55245000D02*
X148463000Y-55081000D01*
G04 #@! TO.N,/CANH*
X137227000Y-71374000D02*
X136652000Y-71374000D01*
X143678000Y-71374000D02*
X137227000Y-71374000D01*
X144059000Y-71755000D02*
X143678000Y-71374000D01*
X145109000Y-71755000D02*
X144059000Y-71755000D01*
X136652000Y-71374000D02*
X128778000Y-71374000D01*
G04 #@! TO.N,/CANL*
X132588000Y-70104000D02*
X140716000Y-70104000D01*
X128778000Y-66294000D02*
X132588000Y-70104000D01*
X144728000Y-70104000D02*
X145109000Y-70485000D01*
X140716000Y-70104000D02*
X144728000Y-70104000D01*
G04 #@! TO.N,Net-(J3-Pad2)*
X161148000Y-69403500D02*
X161148000Y-70356000D01*
X161148000Y-62397000D02*
X161148000Y-69403500D01*
X160020000Y-60731500D02*
X160020000Y-61269000D01*
X160020000Y-61269000D02*
X161148000Y-62397000D01*
G04 #@! TO.N,Net-(J3-Pad3)*
X161798000Y-61747500D02*
X161798000Y-69403500D01*
X162814000Y-60731500D02*
X161798000Y-61747500D01*
X161798000Y-69403500D02*
X161798000Y-70356000D01*
G04 #@! TO.N,/CH1*
X171181789Y-39669248D02*
X171181789Y-38467167D01*
X171181789Y-48675213D02*
X171181789Y-39669248D01*
X170111002Y-49746000D02*
X171181789Y-48675213D01*
X169276000Y-49746000D02*
X170111002Y-49746000D01*
X170331790Y-37617168D02*
X171181789Y-38467167D01*
X169816790Y-37102168D02*
X170331790Y-37617168D01*
X140697832Y-37102168D02*
X169816790Y-37102168D01*
X136144000Y-41656000D02*
X140697832Y-37102168D01*
G04 #@! TO.N,/~INT*
X168276000Y-48946000D02*
X169276000Y-48946000D01*
X165176000Y-45846000D02*
X168276000Y-48946000D01*
X165176000Y-44846000D02*
X165176000Y-45846000D01*
X165176000Y-44846000D02*
X165176000Y-45898000D01*
X165176000Y-45898000D02*
X164592000Y-46482000D01*
X144526000Y-47498000D02*
X144526000Y-49402000D01*
G04 #@! TO.N,/A0*
X157953000Y-48223000D02*
X157876000Y-48146000D01*
X159503950Y-48223000D02*
X157953000Y-48223000D01*
G04 #@! TO.N,/A1*
X151054000Y-48946000D02*
X157876000Y-48946000D01*
X151054000Y-48946000D02*
X150927000Y-48946000D01*
X150927000Y-48946000D02*
X148526500Y-46545500D01*
G04 #@! TO.N,/CH7*
X160376000Y-44846000D02*
X160376000Y-43853500D01*
X160376000Y-43853500D02*
X159702500Y-43180000D01*
G04 #@! TO.N,/CH6*
X158481789Y-45386791D02*
X158481789Y-39669248D01*
X158951001Y-45856003D02*
X158481789Y-45386791D01*
X158481789Y-39669248D02*
X158481789Y-38467167D01*
X158951001Y-46486003D02*
X158951001Y-45856003D01*
X167037999Y-54573001D02*
X158951001Y-46486003D01*
X168248999Y-54573001D02*
X167037999Y-54573001D01*
X168276000Y-54546000D02*
X168248999Y-54573001D01*
X169276000Y-54546000D02*
X168276000Y-54546000D01*
G04 #@! TO.N,/CH5*
X161976000Y-43846000D02*
X161976000Y-44846000D01*
X161976000Y-40623459D02*
X161976000Y-43846000D01*
X161021789Y-39669248D02*
X161976000Y-40623459D01*
X161021789Y-38467167D02*
X161021789Y-39669248D01*
G04 #@! TO.N,/CH4*
X162776000Y-43846000D02*
X162776000Y-44846000D01*
X162776000Y-40455037D02*
X162776000Y-43846000D01*
X163561789Y-39669248D02*
X162776000Y-40455037D01*
X163561789Y-38467167D02*
X163561789Y-39669248D01*
G04 #@! TO.N,/CH3*
X164376000Y-40192956D02*
X164376000Y-44846000D01*
X166101789Y-38467167D02*
X164376000Y-40192956D01*
G04 #@! TO.N,/CH2*
X161251000Y-44771000D02*
X161176000Y-44846000D01*
X161251000Y-43180000D02*
X161251000Y-44771000D01*
G04 #@! TO.N,/RST*
X169174000Y-53848000D02*
X169276000Y-53746000D01*
X167386000Y-53848000D02*
X169174000Y-53848000D01*
X168776000Y-67310000D02*
X168740000Y-67346000D01*
X170434000Y-67310000D02*
X168776000Y-67310000D01*
X176664000Y-67310000D02*
X176700000Y-67346000D01*
X170434000Y-67310000D02*
X176664000Y-67310000D01*
G04 #@! TO.N,Net-(U1-Pad4)*
X150039000Y-68615000D02*
X143400000Y-61976000D01*
X150039000Y-69215000D02*
X150039000Y-68615000D01*
X138176000Y-59502000D02*
X138176000Y-58802000D01*
X140650000Y-61976000D02*
X138176000Y-59502000D01*
X143400000Y-61976000D02*
X140650000Y-61976000D01*
G04 #@! TO.N,Net-(U1-Pad1)*
X136906000Y-60052000D02*
X136906000Y-58802000D01*
X142191001Y-65337001D02*
X136906000Y-60052000D01*
X142966003Y-65337001D02*
X142191001Y-65337001D01*
X146234001Y-68604999D02*
X142966003Y-65337001D01*
X146234001Y-69670001D02*
X146234001Y-68604999D01*
X149589000Y-73025000D02*
X146234001Y-69670001D01*
X150039000Y-73025000D02*
X149589000Y-73025000D01*
G04 #@! TO.N,Net-(C1-Pad1)*
X144526000Y-60706000D02*
X144526000Y-58802000D01*
X139128500Y-64262000D02*
X137160000Y-64262000D01*
G04 #@! TO.N,Net-(C2-Pad1)*
X145796000Y-62430000D02*
X147628000Y-64262000D01*
X145796000Y-58802000D02*
X145796000Y-62430000D01*
X147628000Y-64262000D02*
X153162000Y-64262000D01*
G04 #@! TO.N,/SCK*
X165976000Y-57246000D02*
X165976000Y-56246000D01*
X167346010Y-58616010D02*
X165976000Y-57246000D01*
X170376010Y-58616010D02*
X167346010Y-58616010D01*
X171958000Y-60198000D02*
X170376010Y-58616010D01*
X165340000Y-54610000D02*
X165976000Y-55246000D01*
X165976000Y-55246000D02*
X165976000Y-56246000D01*
X165340000Y-54610000D02*
X164228194Y-54610000D01*
X164228194Y-54610000D02*
X163648097Y-54029903D01*
G04 #@! TO.N,/MOSI*
X173133001Y-59633999D02*
X171665002Y-58166000D01*
X171958000Y-62738000D02*
X173133001Y-61562999D01*
X173133001Y-61562999D02*
X173133001Y-59633999D01*
X166776000Y-57246000D02*
X166776000Y-56246000D01*
X167696000Y-58166000D02*
X166776000Y-57246000D01*
X171665002Y-58166000D02*
X167696000Y-58166000D01*
X145690000Y-54356000D02*
X141986000Y-50652000D01*
X151637494Y-54356000D02*
X145690000Y-54356000D01*
X166776000Y-56246000D02*
X166776000Y-55246000D01*
X166776000Y-55246000D02*
X164806500Y-53276500D01*
X141986000Y-50652000D02*
X141986000Y-49402000D01*
X164806500Y-53276500D02*
X160910498Y-53276500D01*
X160910498Y-53276500D02*
X158950999Y-55235999D01*
X158950999Y-55235999D02*
X152517493Y-55235999D01*
X152517493Y-55235999D02*
X151637494Y-54356000D01*
G04 #@! TO.N,/MISO*
X168126000Y-56246000D02*
X167576000Y-56246000D01*
X171646000Y-56246000D02*
X168126000Y-56246000D01*
X174498000Y-59098000D02*
X171646000Y-56246000D01*
X174498000Y-60198000D02*
X174498000Y-59098000D01*
X167576000Y-56246000D02*
X167576000Y-56932500D01*
X167576000Y-56932500D02*
X168084500Y-57441000D01*
X140779500Y-49338500D02*
X140716000Y-49402000D01*
X140779500Y-47625000D02*
X140779500Y-49338500D01*
G04 #@! TO.N,/~CS*
X165176000Y-56246000D02*
X165176000Y-57455000D01*
X165176000Y-57455000D02*
X164993153Y-57637847D01*
X139446000Y-50927000D02*
X139446000Y-49402000D01*
G04 #@! TO.N,Net-(R6-Pad2)*
X138201500Y-49376500D02*
X138176000Y-49402000D01*
X138201500Y-45974000D02*
X138201500Y-49376500D01*
G04 #@! TO.N,/D+*
X161976000Y-58318500D02*
X162814000Y-59156500D01*
X161976000Y-56246000D02*
X161976000Y-58318500D01*
G04 #@! TO.N,/D-*
X161176000Y-58000500D02*
X161176000Y-56246000D01*
X160020000Y-59156500D02*
X161176000Y-58000500D01*
G04 #@! TO.N,/PE6*
X159026000Y-56246000D02*
X154965500Y-56246000D01*
X159576000Y-56246000D02*
X159026000Y-56246000D01*
G04 #@! TO.N,/XTAL1*
X172920000Y-50546000D02*
X174752000Y-48714000D01*
X169276000Y-50546000D02*
X172920000Y-50546000D01*
X179578000Y-48714000D02*
X174752000Y-48714000D01*
G04 #@! TO.N,Net-(C7-Pad2)*
X172504000Y-51346000D02*
X169276000Y-51346000D01*
X174752000Y-53594000D02*
X172504000Y-51346000D01*
X179578000Y-53594000D02*
X174752000Y-53594000D01*
G04 #@! TO.N,Net-(C3-Pad1)*
X154686000Y-52946000D02*
X157876000Y-52946000D01*
G04 #@! TO.N,Net-(D1-Pad2)*
X152283500Y-56246000D02*
X151282500Y-55245000D01*
X153608500Y-56246000D02*
X152283500Y-56246000D01*
G04 #@! TO.N,Net-(D2-Pad2)*
X130353000Y-45974000D02*
X132816500Y-45974000D01*
G04 #@! TO.N,Net-(J2-Pad1)*
X140411000Y-72949000D02*
X140716000Y-72644000D01*
X136652000Y-72949000D02*
X140411000Y-72949000D01*
G04 #@! TO.N,Net-(C6-Pad1)*
X165486500Y-59156500D02*
X165608000Y-59156500D01*
X163576000Y-57246000D02*
X165486500Y-59156500D01*
X163576000Y-56246000D02*
X163576000Y-57246000D01*
G04 #@! TD*
D32*
G04 #@! TO.N,+5V*
G36*
X134747000Y-40240045D02*
X134580310Y-40171000D01*
X133889750Y-40171000D01*
X133731000Y-40329750D01*
X133731000Y-41529000D01*
X133751000Y-41529000D01*
X133751000Y-41783000D01*
X133731000Y-41783000D01*
X133731000Y-42982250D01*
X133889750Y-43141000D01*
X134580310Y-43141000D01*
X134747000Y-43071955D01*
X134747000Y-43497500D01*
X134756667Y-43546101D01*
X134801170Y-43601542D01*
X135164027Y-43855542D01*
X135209386Y-43875493D01*
X135236857Y-43878500D01*
X156844613Y-43878500D01*
X157721789Y-43882638D01*
X157721789Y-45311944D01*
X157706901Y-45386791D01*
X157721789Y-45461638D01*
X157721789Y-45461642D01*
X157751498Y-45611000D01*
X157748998Y-45611000D01*
X157748998Y-45769748D01*
X157590250Y-45611000D01*
X156999690Y-45611000D01*
X156766301Y-45707673D01*
X156587673Y-45886302D01*
X156491000Y-46119691D01*
X156491000Y-46260250D01*
X156649750Y-46419000D01*
X157023240Y-46419000D01*
X156878235Y-46447843D01*
X156671470Y-46586000D01*
X155535848Y-46586000D01*
X155461000Y-46571112D01*
X155386152Y-46586000D01*
X155386148Y-46586000D01*
X155164463Y-46630096D01*
X155100253Y-46673000D01*
X154813000Y-46673000D01*
X154813000Y-46693000D01*
X154559000Y-46693000D01*
X154559000Y-46673000D01*
X154539000Y-46673000D01*
X154539000Y-46419000D01*
X154559000Y-46419000D01*
X154559000Y-45632250D01*
X154813000Y-45632250D01*
X154813000Y-46419000D01*
X155637250Y-46419000D01*
X155796000Y-46260250D01*
X155796000Y-45982191D01*
X155699327Y-45748802D01*
X155520699Y-45570173D01*
X155287310Y-45473500D01*
X154971750Y-45473500D01*
X154813000Y-45632250D01*
X154559000Y-45632250D01*
X154400250Y-45473500D01*
X154084690Y-45473500D01*
X153851301Y-45570173D01*
X153846093Y-45575382D01*
X153621280Y-45350569D01*
X153240874Y-45193000D01*
X152829126Y-45193000D01*
X152448720Y-45350569D01*
X152157569Y-45641720D01*
X152000000Y-46022126D01*
X152000000Y-46433874D01*
X152157569Y-46814280D01*
X152448720Y-47105431D01*
X152699510Y-47209312D01*
X153563560Y-48073362D01*
X153563560Y-48186000D01*
X151241802Y-48186000D01*
X149561500Y-46505699D01*
X149561500Y-46339626D01*
X149403931Y-45959220D01*
X149112780Y-45668069D01*
X148732374Y-45510500D01*
X148320626Y-45510500D01*
X147940220Y-45668069D01*
X147649069Y-45959220D01*
X147491500Y-46339626D01*
X147491500Y-46751374D01*
X147649069Y-47131780D01*
X147940220Y-47422931D01*
X148320626Y-47580500D01*
X148486699Y-47580500D01*
X150336671Y-49430473D01*
X150379071Y-49493929D01*
X150442527Y-49536329D01*
X150630462Y-49661904D01*
X150678605Y-49671480D01*
X150852148Y-49706000D01*
X150852152Y-49706000D01*
X150927000Y-49720888D01*
X151001848Y-49706000D01*
X156478560Y-49706000D01*
X156478560Y-50046000D01*
X156498451Y-50146000D01*
X156478560Y-50246000D01*
X156478560Y-50846000D01*
X156498451Y-50946000D01*
X156478560Y-51046000D01*
X156478560Y-51087268D01*
X156352374Y-51035000D01*
X156186301Y-51035000D01*
X156037831Y-50886530D01*
X155995429Y-50823071D01*
X155744037Y-50655096D01*
X155614600Y-50629349D01*
X155554739Y-50539761D01*
X155273727Y-50351995D01*
X154942250Y-50286060D01*
X154429750Y-50286060D01*
X154098273Y-50351995D01*
X153817261Y-50539761D01*
X153629495Y-50820773D01*
X153563560Y-51152250D01*
X153563560Y-51589750D01*
X153629495Y-51921227D01*
X153788036Y-52158500D01*
X153629495Y-52395773D01*
X153563560Y-52727250D01*
X153563560Y-53164750D01*
X153629495Y-53496227D01*
X153817261Y-53777239D01*
X154098273Y-53965005D01*
X154429750Y-54030940D01*
X154942250Y-54030940D01*
X155273727Y-53965005D01*
X155554739Y-53777239D01*
X155602339Y-53706000D01*
X156478560Y-53706000D01*
X156478560Y-54046000D01*
X156492498Y-54116074D01*
X156491000Y-54119691D01*
X156491000Y-54260250D01*
X156534545Y-54303795D01*
X156611522Y-54418998D01*
X156491000Y-54418998D01*
X156491000Y-54475999D01*
X152832295Y-54475999D01*
X152227825Y-53871530D01*
X152185423Y-53808071D01*
X151934031Y-53640096D01*
X151712346Y-53596000D01*
X151712341Y-53596000D01*
X151637494Y-53581112D01*
X151562647Y-53596000D01*
X146004802Y-53596000D01*
X143458241Y-51049440D01*
X143556000Y-51049440D01*
X143803765Y-51000157D01*
X143891000Y-50941868D01*
X143978235Y-51000157D01*
X144226000Y-51049440D01*
X144826000Y-51049440D01*
X145073765Y-51000157D01*
X145161000Y-50941868D01*
X145248235Y-51000157D01*
X145496000Y-51049440D01*
X146096000Y-51049440D01*
X146343765Y-51000157D01*
X146431000Y-50941868D01*
X146518235Y-51000157D01*
X146766000Y-51049440D01*
X147366000Y-51049440D01*
X147613765Y-51000157D01*
X147823809Y-50859809D01*
X147964157Y-50649765D01*
X148013440Y-50402000D01*
X148013440Y-48402000D01*
X147964157Y-48154235D01*
X147823809Y-47944191D01*
X147613765Y-47803843D01*
X147366000Y-47754560D01*
X146766000Y-47754560D01*
X146518235Y-47803843D01*
X146431000Y-47862132D01*
X146343765Y-47803843D01*
X146096000Y-47754560D01*
X145540005Y-47754560D01*
X145561000Y-47703874D01*
X145561000Y-47292126D01*
X145403431Y-46911720D01*
X145112280Y-46620569D01*
X144731874Y-46463000D01*
X144320126Y-46463000D01*
X143939720Y-46620569D01*
X143648569Y-46911720D01*
X143491000Y-47292126D01*
X143491000Y-47703874D01*
X143511995Y-47754560D01*
X142956000Y-47754560D01*
X142708235Y-47803843D01*
X142621000Y-47862132D01*
X142533765Y-47803843D01*
X142286000Y-47754560D01*
X141814500Y-47754560D01*
X141814500Y-47419126D01*
X141656931Y-47038720D01*
X141365780Y-46747569D01*
X140985374Y-46590000D01*
X140573626Y-46590000D01*
X140193220Y-46747569D01*
X139902069Y-47038720D01*
X139744500Y-47419126D01*
X139744500Y-47754560D01*
X139146000Y-47754560D01*
X138961500Y-47791259D01*
X138961500Y-46890339D01*
X139032739Y-46842739D01*
X139220505Y-46561727D01*
X139286440Y-46230250D01*
X139286440Y-45717750D01*
X139220505Y-45386273D01*
X139032739Y-45105261D01*
X138751727Y-44917495D01*
X138420250Y-44851560D01*
X137982750Y-44851560D01*
X137651273Y-44917495D01*
X137488969Y-45025943D01*
X137423698Y-44960673D01*
X137190309Y-44864000D01*
X136912250Y-44864000D01*
X136753500Y-45022750D01*
X136753500Y-45847000D01*
X136773500Y-45847000D01*
X136773500Y-46101000D01*
X136753500Y-46101000D01*
X136753500Y-46925250D01*
X136912250Y-47084000D01*
X137190309Y-47084000D01*
X137423698Y-46987327D01*
X137441500Y-46969525D01*
X137441501Y-47812229D01*
X137332309Y-47767000D01*
X137191750Y-47767000D01*
X137033000Y-47925750D01*
X137033000Y-49275000D01*
X137053000Y-49275000D01*
X137053000Y-49529000D01*
X137033000Y-49529000D01*
X137033000Y-50878250D01*
X137191750Y-51037000D01*
X137332309Y-51037000D01*
X137549028Y-50947232D01*
X137628235Y-51000157D01*
X137876000Y-51049440D01*
X138411000Y-51049440D01*
X138411000Y-51132874D01*
X138568569Y-51513280D01*
X138859720Y-51804431D01*
X139240126Y-51962000D01*
X139651874Y-51962000D01*
X140032280Y-51804431D01*
X140323431Y-51513280D01*
X140481000Y-51132874D01*
X140481000Y-51049440D01*
X141016000Y-51049440D01*
X141263765Y-51000157D01*
X141291988Y-50981299D01*
X141438071Y-51199929D01*
X141501530Y-51242331D01*
X145099670Y-54840472D01*
X145142071Y-54903929D01*
X145393463Y-55071904D01*
X145615148Y-55116000D01*
X145615152Y-55116000D01*
X145689999Y-55130888D01*
X145764846Y-55116000D01*
X147428000Y-55116000D01*
X147428000Y-55286874D01*
X147585569Y-55667280D01*
X147876720Y-55958431D01*
X148257126Y-56116000D01*
X148668874Y-56116000D01*
X148832489Y-56048229D01*
X148876261Y-56113739D01*
X149157273Y-56301505D01*
X149488750Y-56367440D01*
X149926250Y-56367440D01*
X150257727Y-56301505D01*
X150495000Y-56142964D01*
X150732273Y-56301505D01*
X151063750Y-56367440D01*
X151330138Y-56367440D01*
X151693171Y-56730473D01*
X151735571Y-56793929D01*
X151799027Y-56836329D01*
X151986962Y-56961904D01*
X152033038Y-56971069D01*
X152208648Y-57006000D01*
X152208652Y-57006000D01*
X152283500Y-57020888D01*
X152358348Y-57006000D01*
X152704604Y-57006000D01*
X152777261Y-57114739D01*
X153058273Y-57302505D01*
X153389750Y-57368440D01*
X153827250Y-57368440D01*
X154158727Y-57302505D01*
X154396000Y-57143964D01*
X154633273Y-57302505D01*
X154964750Y-57368440D01*
X155402250Y-57368440D01*
X155733727Y-57302505D01*
X156014739Y-57114739D01*
X156087396Y-57006000D01*
X158630549Y-57006000D01*
X158677843Y-57243765D01*
X158818191Y-57453809D01*
X159028235Y-57594157D01*
X159276000Y-57643440D01*
X159876000Y-57643440D01*
X159946073Y-57629502D01*
X159949690Y-57631000D01*
X160090250Y-57631000D01*
X160133795Y-57587455D01*
X160333809Y-57453809D01*
X160376000Y-57390666D01*
X160416000Y-57450530D01*
X160416000Y-57685698D01*
X160030139Y-58071560D01*
X159763750Y-58071560D01*
X159432273Y-58137495D01*
X159151261Y-58325261D01*
X158963495Y-58606273D01*
X158897560Y-58937750D01*
X158897560Y-59375250D01*
X158963495Y-59706727D01*
X159122036Y-59944000D01*
X147985195Y-59944000D01*
X148013440Y-59802000D01*
X148013440Y-57802000D01*
X147964157Y-57554235D01*
X147823809Y-57344191D01*
X147613765Y-57203843D01*
X147366000Y-57154560D01*
X146766000Y-57154560D01*
X146518235Y-57203843D01*
X146431000Y-57262132D01*
X146343765Y-57203843D01*
X146096000Y-57154560D01*
X145496000Y-57154560D01*
X145248235Y-57203843D01*
X145161000Y-57262132D01*
X145073765Y-57203843D01*
X144826000Y-57154560D01*
X144226000Y-57154560D01*
X143978235Y-57203843D01*
X143891000Y-57262132D01*
X143803765Y-57203843D01*
X143556000Y-57154560D01*
X142956000Y-57154560D01*
X142708235Y-57203843D01*
X142621000Y-57262132D01*
X142533765Y-57203843D01*
X142286000Y-57154560D01*
X141686000Y-57154560D01*
X141438235Y-57203843D01*
X141351000Y-57262132D01*
X141263765Y-57203843D01*
X141016000Y-57154560D01*
X140416000Y-57154560D01*
X140168235Y-57203843D01*
X140081000Y-57262132D01*
X139993765Y-57203843D01*
X139746000Y-57154560D01*
X139146000Y-57154560D01*
X138898235Y-57203843D01*
X138811000Y-57262132D01*
X138723765Y-57203843D01*
X138476000Y-57154560D01*
X137876000Y-57154560D01*
X137628235Y-57203843D01*
X137541000Y-57262132D01*
X137453765Y-57203843D01*
X137206000Y-57154560D01*
X136606000Y-57154560D01*
X136358235Y-57203843D01*
X136148191Y-57344191D01*
X136007843Y-57554235D01*
X135958560Y-57802000D01*
X135958560Y-59802000D01*
X135986185Y-59940882D01*
X130709758Y-56526723D01*
X130713000Y-56518895D01*
X130713000Y-55749105D01*
X130418414Y-55037910D01*
X129874090Y-54493586D01*
X129162895Y-54199000D01*
X128393105Y-54199000D01*
X127681910Y-54493586D01*
X127637017Y-54538479D01*
X126417708Y-53749514D01*
X126423356Y-53738369D01*
X126427136Y-53688961D01*
X126411720Y-53641867D01*
X126379456Y-53604257D01*
X126365000Y-53596931D01*
X126365000Y-51339750D01*
X126843000Y-51339750D01*
X126843000Y-52480309D01*
X126939673Y-52713698D01*
X127118301Y-52892327D01*
X127351690Y-52989000D01*
X128492250Y-52989000D01*
X128651000Y-52830250D01*
X128651000Y-51181000D01*
X128905000Y-51181000D01*
X128905000Y-52830250D01*
X129063750Y-52989000D01*
X130204310Y-52989000D01*
X130437699Y-52892327D01*
X130616327Y-52713698D01*
X130713000Y-52480309D01*
X130713000Y-51339750D01*
X130554250Y-51181000D01*
X128905000Y-51181000D01*
X128651000Y-51181000D01*
X127001750Y-51181000D01*
X126843000Y-51339750D01*
X126365000Y-51339750D01*
X126365000Y-49627691D01*
X126843000Y-49627691D01*
X126843000Y-50768250D01*
X127001750Y-50927000D01*
X128651000Y-50927000D01*
X128651000Y-49277750D01*
X128905000Y-49277750D01*
X128905000Y-50927000D01*
X130554250Y-50927000D01*
X130713000Y-50768250D01*
X130713000Y-49687750D01*
X135971000Y-49687750D01*
X135971000Y-50528310D01*
X136067673Y-50761699D01*
X136246302Y-50940327D01*
X136479691Y-51037000D01*
X136620250Y-51037000D01*
X136779000Y-50878250D01*
X136779000Y-49529000D01*
X136129750Y-49529000D01*
X135971000Y-49687750D01*
X130713000Y-49687750D01*
X130713000Y-49627691D01*
X130616327Y-49394302D01*
X130437699Y-49215673D01*
X130204310Y-49119000D01*
X129063750Y-49119000D01*
X128905000Y-49277750D01*
X128651000Y-49277750D01*
X128492250Y-49119000D01*
X127351690Y-49119000D01*
X127118301Y-49215673D01*
X126939673Y-49394302D01*
X126843000Y-49627691D01*
X126365000Y-49627691D01*
X126365000Y-48043704D01*
X127705500Y-45985078D01*
X127705500Y-46101002D01*
X127864248Y-46101002D01*
X127705500Y-46259750D01*
X127705500Y-46575310D01*
X127802173Y-46808699D01*
X127980802Y-46987327D01*
X128214191Y-47084000D01*
X128492250Y-47084000D01*
X128651000Y-46925250D01*
X128651000Y-46101000D01*
X128631000Y-46101000D01*
X128631000Y-45847000D01*
X128651000Y-45847000D01*
X128651000Y-45022750D01*
X128905000Y-45022750D01*
X128905000Y-45847000D01*
X128925000Y-45847000D01*
X128925000Y-46101000D01*
X128905000Y-46101000D01*
X128905000Y-46925250D01*
X129063750Y-47084000D01*
X129341809Y-47084000D01*
X129575198Y-46987327D01*
X129640469Y-46922057D01*
X129802773Y-47030505D01*
X130134250Y-47096440D01*
X130571750Y-47096440D01*
X130903227Y-47030505D01*
X131184239Y-46842739D01*
X131256896Y-46734000D01*
X131912604Y-46734000D01*
X131985261Y-46842739D01*
X132266273Y-47030505D01*
X132597750Y-47096440D01*
X133035250Y-47096440D01*
X133366727Y-47030505D01*
X133409493Y-47001930D01*
X133394500Y-47038126D01*
X133394500Y-47449874D01*
X133552069Y-47830280D01*
X133843220Y-48121431D01*
X134223626Y-48279000D01*
X134635374Y-48279000D01*
X134643365Y-48275690D01*
X135971000Y-48275690D01*
X135971000Y-49116250D01*
X136129750Y-49275000D01*
X136779000Y-49275000D01*
X136779000Y-47925750D01*
X136620250Y-47767000D01*
X136479691Y-47767000D01*
X136246302Y-47863673D01*
X136067673Y-48042301D01*
X135971000Y-48275690D01*
X134643365Y-48275690D01*
X135015780Y-48121431D01*
X135306931Y-47830280D01*
X135464500Y-47449874D01*
X135464500Y-47038126D01*
X135322022Y-46694152D01*
X135410505Y-46561727D01*
X135470572Y-46259750D01*
X135554000Y-46259750D01*
X135554000Y-46575310D01*
X135650673Y-46808699D01*
X135829302Y-46987327D01*
X136062691Y-47084000D01*
X136340750Y-47084000D01*
X136499500Y-46925250D01*
X136499500Y-46101000D01*
X135712750Y-46101000D01*
X135554000Y-46259750D01*
X135470572Y-46259750D01*
X135476440Y-46230250D01*
X135476440Y-45717750D01*
X135410505Y-45386273D01*
X135401430Y-45372690D01*
X135554000Y-45372690D01*
X135554000Y-45688250D01*
X135712750Y-45847000D01*
X136499500Y-45847000D01*
X136499500Y-45022750D01*
X136340750Y-44864000D01*
X136062691Y-44864000D01*
X135829302Y-44960673D01*
X135650673Y-45139301D01*
X135554000Y-45372690D01*
X135401430Y-45372690D01*
X135222739Y-45105261D01*
X134941727Y-44917495D01*
X134610250Y-44851560D01*
X134172750Y-44851560D01*
X133841273Y-44917495D01*
X133604000Y-45076036D01*
X133366727Y-44917495D01*
X133035250Y-44851560D01*
X132597750Y-44851560D01*
X132266273Y-44917495D01*
X131985261Y-45105261D01*
X131912604Y-45214000D01*
X131256896Y-45214000D01*
X131184239Y-45105261D01*
X130903227Y-44917495D01*
X130571750Y-44851560D01*
X130134250Y-44851560D01*
X129802773Y-44917495D01*
X129640469Y-45025943D01*
X129575198Y-44960673D01*
X129341809Y-44864000D01*
X129063750Y-44864000D01*
X128905000Y-45022750D01*
X128651000Y-45022750D01*
X128492250Y-44864000D01*
X128461924Y-44864000D01*
X130524688Y-41941750D01*
X132119000Y-41941750D01*
X132119000Y-42632309D01*
X132215673Y-42865698D01*
X132394301Y-43044327D01*
X132627690Y-43141000D01*
X133318250Y-43141000D01*
X133477000Y-42982250D01*
X133477000Y-41783000D01*
X132277750Y-41783000D01*
X132119000Y-41941750D01*
X130524688Y-41941750D01*
X131415553Y-40679691D01*
X132119000Y-40679691D01*
X132119000Y-41370250D01*
X132277750Y-41529000D01*
X133477000Y-41529000D01*
X133477000Y-40329750D01*
X133318250Y-40171000D01*
X132627690Y-40171000D01*
X132394301Y-40267673D01*
X132215673Y-40446302D01*
X132119000Y-40679691D01*
X131415553Y-40679691D01*
X131891806Y-40005000D01*
X134747000Y-40005000D01*
X134747000Y-40240045D01*
X134747000Y-40240045D01*
G37*
X134747000Y-40240045D02*
X134580310Y-40171000D01*
X133889750Y-40171000D01*
X133731000Y-40329750D01*
X133731000Y-41529000D01*
X133751000Y-41529000D01*
X133751000Y-41783000D01*
X133731000Y-41783000D01*
X133731000Y-42982250D01*
X133889750Y-43141000D01*
X134580310Y-43141000D01*
X134747000Y-43071955D01*
X134747000Y-43497500D01*
X134756667Y-43546101D01*
X134801170Y-43601542D01*
X135164027Y-43855542D01*
X135209386Y-43875493D01*
X135236857Y-43878500D01*
X156844613Y-43878500D01*
X157721789Y-43882638D01*
X157721789Y-45311944D01*
X157706901Y-45386791D01*
X157721789Y-45461638D01*
X157721789Y-45461642D01*
X157751498Y-45611000D01*
X157748998Y-45611000D01*
X157748998Y-45769748D01*
X157590250Y-45611000D01*
X156999690Y-45611000D01*
X156766301Y-45707673D01*
X156587673Y-45886302D01*
X156491000Y-46119691D01*
X156491000Y-46260250D01*
X156649750Y-46419000D01*
X157023240Y-46419000D01*
X156878235Y-46447843D01*
X156671470Y-46586000D01*
X155535848Y-46586000D01*
X155461000Y-46571112D01*
X155386152Y-46586000D01*
X155386148Y-46586000D01*
X155164463Y-46630096D01*
X155100253Y-46673000D01*
X154813000Y-46673000D01*
X154813000Y-46693000D01*
X154559000Y-46693000D01*
X154559000Y-46673000D01*
X154539000Y-46673000D01*
X154539000Y-46419000D01*
X154559000Y-46419000D01*
X154559000Y-45632250D01*
X154813000Y-45632250D01*
X154813000Y-46419000D01*
X155637250Y-46419000D01*
X155796000Y-46260250D01*
X155796000Y-45982191D01*
X155699327Y-45748802D01*
X155520699Y-45570173D01*
X155287310Y-45473500D01*
X154971750Y-45473500D01*
X154813000Y-45632250D01*
X154559000Y-45632250D01*
X154400250Y-45473500D01*
X154084690Y-45473500D01*
X153851301Y-45570173D01*
X153846093Y-45575382D01*
X153621280Y-45350569D01*
X153240874Y-45193000D01*
X152829126Y-45193000D01*
X152448720Y-45350569D01*
X152157569Y-45641720D01*
X152000000Y-46022126D01*
X152000000Y-46433874D01*
X152157569Y-46814280D01*
X152448720Y-47105431D01*
X152699510Y-47209312D01*
X153563560Y-48073362D01*
X153563560Y-48186000D01*
X151241802Y-48186000D01*
X149561500Y-46505699D01*
X149561500Y-46339626D01*
X149403931Y-45959220D01*
X149112780Y-45668069D01*
X148732374Y-45510500D01*
X148320626Y-45510500D01*
X147940220Y-45668069D01*
X147649069Y-45959220D01*
X147491500Y-46339626D01*
X147491500Y-46751374D01*
X147649069Y-47131780D01*
X147940220Y-47422931D01*
X148320626Y-47580500D01*
X148486699Y-47580500D01*
X150336671Y-49430473D01*
X150379071Y-49493929D01*
X150442527Y-49536329D01*
X150630462Y-49661904D01*
X150678605Y-49671480D01*
X150852148Y-49706000D01*
X150852152Y-49706000D01*
X150927000Y-49720888D01*
X151001848Y-49706000D01*
X156478560Y-49706000D01*
X156478560Y-50046000D01*
X156498451Y-50146000D01*
X156478560Y-50246000D01*
X156478560Y-50846000D01*
X156498451Y-50946000D01*
X156478560Y-51046000D01*
X156478560Y-51087268D01*
X156352374Y-51035000D01*
X156186301Y-51035000D01*
X156037831Y-50886530D01*
X155995429Y-50823071D01*
X155744037Y-50655096D01*
X155614600Y-50629349D01*
X155554739Y-50539761D01*
X155273727Y-50351995D01*
X154942250Y-50286060D01*
X154429750Y-50286060D01*
X154098273Y-50351995D01*
X153817261Y-50539761D01*
X153629495Y-50820773D01*
X153563560Y-51152250D01*
X153563560Y-51589750D01*
X153629495Y-51921227D01*
X153788036Y-52158500D01*
X153629495Y-52395773D01*
X153563560Y-52727250D01*
X153563560Y-53164750D01*
X153629495Y-53496227D01*
X153817261Y-53777239D01*
X154098273Y-53965005D01*
X154429750Y-54030940D01*
X154942250Y-54030940D01*
X155273727Y-53965005D01*
X155554739Y-53777239D01*
X155602339Y-53706000D01*
X156478560Y-53706000D01*
X156478560Y-54046000D01*
X156492498Y-54116074D01*
X156491000Y-54119691D01*
X156491000Y-54260250D01*
X156534545Y-54303795D01*
X156611522Y-54418998D01*
X156491000Y-54418998D01*
X156491000Y-54475999D01*
X152832295Y-54475999D01*
X152227825Y-53871530D01*
X152185423Y-53808071D01*
X151934031Y-53640096D01*
X151712346Y-53596000D01*
X151712341Y-53596000D01*
X151637494Y-53581112D01*
X151562647Y-53596000D01*
X146004802Y-53596000D01*
X143458241Y-51049440D01*
X143556000Y-51049440D01*
X143803765Y-51000157D01*
X143891000Y-50941868D01*
X143978235Y-51000157D01*
X144226000Y-51049440D01*
X144826000Y-51049440D01*
X145073765Y-51000157D01*
X145161000Y-50941868D01*
X145248235Y-51000157D01*
X145496000Y-51049440D01*
X146096000Y-51049440D01*
X146343765Y-51000157D01*
X146431000Y-50941868D01*
X146518235Y-51000157D01*
X146766000Y-51049440D01*
X147366000Y-51049440D01*
X147613765Y-51000157D01*
X147823809Y-50859809D01*
X147964157Y-50649765D01*
X148013440Y-50402000D01*
X148013440Y-48402000D01*
X147964157Y-48154235D01*
X147823809Y-47944191D01*
X147613765Y-47803843D01*
X147366000Y-47754560D01*
X146766000Y-47754560D01*
X146518235Y-47803843D01*
X146431000Y-47862132D01*
X146343765Y-47803843D01*
X146096000Y-47754560D01*
X145540005Y-47754560D01*
X145561000Y-47703874D01*
X145561000Y-47292126D01*
X145403431Y-46911720D01*
X145112280Y-46620569D01*
X144731874Y-46463000D01*
X144320126Y-46463000D01*
X143939720Y-46620569D01*
X143648569Y-46911720D01*
X143491000Y-47292126D01*
X143491000Y-47703874D01*
X143511995Y-47754560D01*
X142956000Y-47754560D01*
X142708235Y-47803843D01*
X142621000Y-47862132D01*
X142533765Y-47803843D01*
X142286000Y-47754560D01*
X141814500Y-47754560D01*
X141814500Y-47419126D01*
X141656931Y-47038720D01*
X141365780Y-46747569D01*
X140985374Y-46590000D01*
X140573626Y-46590000D01*
X140193220Y-46747569D01*
X139902069Y-47038720D01*
X139744500Y-47419126D01*
X139744500Y-47754560D01*
X139146000Y-47754560D01*
X138961500Y-47791259D01*
X138961500Y-46890339D01*
X139032739Y-46842739D01*
X139220505Y-46561727D01*
X139286440Y-46230250D01*
X139286440Y-45717750D01*
X139220505Y-45386273D01*
X139032739Y-45105261D01*
X138751727Y-44917495D01*
X138420250Y-44851560D01*
X137982750Y-44851560D01*
X137651273Y-44917495D01*
X137488969Y-45025943D01*
X137423698Y-44960673D01*
X137190309Y-44864000D01*
X136912250Y-44864000D01*
X136753500Y-45022750D01*
X136753500Y-45847000D01*
X136773500Y-45847000D01*
X136773500Y-46101000D01*
X136753500Y-46101000D01*
X136753500Y-46925250D01*
X136912250Y-47084000D01*
X137190309Y-47084000D01*
X137423698Y-46987327D01*
X137441500Y-46969525D01*
X137441501Y-47812229D01*
X137332309Y-47767000D01*
X137191750Y-47767000D01*
X137033000Y-47925750D01*
X137033000Y-49275000D01*
X137053000Y-49275000D01*
X137053000Y-49529000D01*
X137033000Y-49529000D01*
X137033000Y-50878250D01*
X137191750Y-51037000D01*
X137332309Y-51037000D01*
X137549028Y-50947232D01*
X137628235Y-51000157D01*
X137876000Y-51049440D01*
X138411000Y-51049440D01*
X138411000Y-51132874D01*
X138568569Y-51513280D01*
X138859720Y-51804431D01*
X139240126Y-51962000D01*
X139651874Y-51962000D01*
X140032280Y-51804431D01*
X140323431Y-51513280D01*
X140481000Y-51132874D01*
X140481000Y-51049440D01*
X141016000Y-51049440D01*
X141263765Y-51000157D01*
X141291988Y-50981299D01*
X141438071Y-51199929D01*
X141501530Y-51242331D01*
X145099670Y-54840472D01*
X145142071Y-54903929D01*
X145393463Y-55071904D01*
X145615148Y-55116000D01*
X145615152Y-55116000D01*
X145689999Y-55130888D01*
X145764846Y-55116000D01*
X147428000Y-55116000D01*
X147428000Y-55286874D01*
X147585569Y-55667280D01*
X147876720Y-55958431D01*
X148257126Y-56116000D01*
X148668874Y-56116000D01*
X148832489Y-56048229D01*
X148876261Y-56113739D01*
X149157273Y-56301505D01*
X149488750Y-56367440D01*
X149926250Y-56367440D01*
X150257727Y-56301505D01*
X150495000Y-56142964D01*
X150732273Y-56301505D01*
X151063750Y-56367440D01*
X151330138Y-56367440D01*
X151693171Y-56730473D01*
X151735571Y-56793929D01*
X151799027Y-56836329D01*
X151986962Y-56961904D01*
X152033038Y-56971069D01*
X152208648Y-57006000D01*
X152208652Y-57006000D01*
X152283500Y-57020888D01*
X152358348Y-57006000D01*
X152704604Y-57006000D01*
X152777261Y-57114739D01*
X153058273Y-57302505D01*
X153389750Y-57368440D01*
X153827250Y-57368440D01*
X154158727Y-57302505D01*
X154396000Y-57143964D01*
X154633273Y-57302505D01*
X154964750Y-57368440D01*
X155402250Y-57368440D01*
X155733727Y-57302505D01*
X156014739Y-57114739D01*
X156087396Y-57006000D01*
X158630549Y-57006000D01*
X158677843Y-57243765D01*
X158818191Y-57453809D01*
X159028235Y-57594157D01*
X159276000Y-57643440D01*
X159876000Y-57643440D01*
X159946073Y-57629502D01*
X159949690Y-57631000D01*
X160090250Y-57631000D01*
X160133795Y-57587455D01*
X160333809Y-57453809D01*
X160376000Y-57390666D01*
X160416000Y-57450530D01*
X160416000Y-57685698D01*
X160030139Y-58071560D01*
X159763750Y-58071560D01*
X159432273Y-58137495D01*
X159151261Y-58325261D01*
X158963495Y-58606273D01*
X158897560Y-58937750D01*
X158897560Y-59375250D01*
X158963495Y-59706727D01*
X159122036Y-59944000D01*
X147985195Y-59944000D01*
X148013440Y-59802000D01*
X148013440Y-57802000D01*
X147964157Y-57554235D01*
X147823809Y-57344191D01*
X147613765Y-57203843D01*
X147366000Y-57154560D01*
X146766000Y-57154560D01*
X146518235Y-57203843D01*
X146431000Y-57262132D01*
X146343765Y-57203843D01*
X146096000Y-57154560D01*
X145496000Y-57154560D01*
X145248235Y-57203843D01*
X145161000Y-57262132D01*
X145073765Y-57203843D01*
X144826000Y-57154560D01*
X144226000Y-57154560D01*
X143978235Y-57203843D01*
X143891000Y-57262132D01*
X143803765Y-57203843D01*
X143556000Y-57154560D01*
X142956000Y-57154560D01*
X142708235Y-57203843D01*
X142621000Y-57262132D01*
X142533765Y-57203843D01*
X142286000Y-57154560D01*
X141686000Y-57154560D01*
X141438235Y-57203843D01*
X141351000Y-57262132D01*
X141263765Y-57203843D01*
X141016000Y-57154560D01*
X140416000Y-57154560D01*
X140168235Y-57203843D01*
X140081000Y-57262132D01*
X139993765Y-57203843D01*
X139746000Y-57154560D01*
X139146000Y-57154560D01*
X138898235Y-57203843D01*
X138811000Y-57262132D01*
X138723765Y-57203843D01*
X138476000Y-57154560D01*
X137876000Y-57154560D01*
X137628235Y-57203843D01*
X137541000Y-57262132D01*
X137453765Y-57203843D01*
X137206000Y-57154560D01*
X136606000Y-57154560D01*
X136358235Y-57203843D01*
X136148191Y-57344191D01*
X136007843Y-57554235D01*
X135958560Y-57802000D01*
X135958560Y-59802000D01*
X135986185Y-59940882D01*
X130709758Y-56526723D01*
X130713000Y-56518895D01*
X130713000Y-55749105D01*
X130418414Y-55037910D01*
X129874090Y-54493586D01*
X129162895Y-54199000D01*
X128393105Y-54199000D01*
X127681910Y-54493586D01*
X127637017Y-54538479D01*
X126417708Y-53749514D01*
X126423356Y-53738369D01*
X126427136Y-53688961D01*
X126411720Y-53641867D01*
X126379456Y-53604257D01*
X126365000Y-53596931D01*
X126365000Y-51339750D01*
X126843000Y-51339750D01*
X126843000Y-52480309D01*
X126939673Y-52713698D01*
X127118301Y-52892327D01*
X127351690Y-52989000D01*
X128492250Y-52989000D01*
X128651000Y-52830250D01*
X128651000Y-51181000D01*
X128905000Y-51181000D01*
X128905000Y-52830250D01*
X129063750Y-52989000D01*
X130204310Y-52989000D01*
X130437699Y-52892327D01*
X130616327Y-52713698D01*
X130713000Y-52480309D01*
X130713000Y-51339750D01*
X130554250Y-51181000D01*
X128905000Y-51181000D01*
X128651000Y-51181000D01*
X127001750Y-51181000D01*
X126843000Y-51339750D01*
X126365000Y-51339750D01*
X126365000Y-49627691D01*
X126843000Y-49627691D01*
X126843000Y-50768250D01*
X127001750Y-50927000D01*
X128651000Y-50927000D01*
X128651000Y-49277750D01*
X128905000Y-49277750D01*
X128905000Y-50927000D01*
X130554250Y-50927000D01*
X130713000Y-50768250D01*
X130713000Y-49687750D01*
X135971000Y-49687750D01*
X135971000Y-50528310D01*
X136067673Y-50761699D01*
X136246302Y-50940327D01*
X136479691Y-51037000D01*
X136620250Y-51037000D01*
X136779000Y-50878250D01*
X136779000Y-49529000D01*
X136129750Y-49529000D01*
X135971000Y-49687750D01*
X130713000Y-49687750D01*
X130713000Y-49627691D01*
X130616327Y-49394302D01*
X130437699Y-49215673D01*
X130204310Y-49119000D01*
X129063750Y-49119000D01*
X128905000Y-49277750D01*
X128651000Y-49277750D01*
X128492250Y-49119000D01*
X127351690Y-49119000D01*
X127118301Y-49215673D01*
X126939673Y-49394302D01*
X126843000Y-49627691D01*
X126365000Y-49627691D01*
X126365000Y-48043704D01*
X127705500Y-45985078D01*
X127705500Y-46101002D01*
X127864248Y-46101002D01*
X127705500Y-46259750D01*
X127705500Y-46575310D01*
X127802173Y-46808699D01*
X127980802Y-46987327D01*
X128214191Y-47084000D01*
X128492250Y-47084000D01*
X128651000Y-46925250D01*
X128651000Y-46101000D01*
X128631000Y-46101000D01*
X128631000Y-45847000D01*
X128651000Y-45847000D01*
X128651000Y-45022750D01*
X128905000Y-45022750D01*
X128905000Y-45847000D01*
X128925000Y-45847000D01*
X128925000Y-46101000D01*
X128905000Y-46101000D01*
X128905000Y-46925250D01*
X129063750Y-47084000D01*
X129341809Y-47084000D01*
X129575198Y-46987327D01*
X129640469Y-46922057D01*
X129802773Y-47030505D01*
X130134250Y-47096440D01*
X130571750Y-47096440D01*
X130903227Y-47030505D01*
X131184239Y-46842739D01*
X131256896Y-46734000D01*
X131912604Y-46734000D01*
X131985261Y-46842739D01*
X132266273Y-47030505D01*
X132597750Y-47096440D01*
X133035250Y-47096440D01*
X133366727Y-47030505D01*
X133409493Y-47001930D01*
X133394500Y-47038126D01*
X133394500Y-47449874D01*
X133552069Y-47830280D01*
X133843220Y-48121431D01*
X134223626Y-48279000D01*
X134635374Y-48279000D01*
X134643365Y-48275690D01*
X135971000Y-48275690D01*
X135971000Y-49116250D01*
X136129750Y-49275000D01*
X136779000Y-49275000D01*
X136779000Y-47925750D01*
X136620250Y-47767000D01*
X136479691Y-47767000D01*
X136246302Y-47863673D01*
X136067673Y-48042301D01*
X135971000Y-48275690D01*
X134643365Y-48275690D01*
X135015780Y-48121431D01*
X135306931Y-47830280D01*
X135464500Y-47449874D01*
X135464500Y-47038126D01*
X135322022Y-46694152D01*
X135410505Y-46561727D01*
X135470572Y-46259750D01*
X135554000Y-46259750D01*
X135554000Y-46575310D01*
X135650673Y-46808699D01*
X135829302Y-46987327D01*
X136062691Y-47084000D01*
X136340750Y-47084000D01*
X136499500Y-46925250D01*
X136499500Y-46101000D01*
X135712750Y-46101000D01*
X135554000Y-46259750D01*
X135470572Y-46259750D01*
X135476440Y-46230250D01*
X135476440Y-45717750D01*
X135410505Y-45386273D01*
X135401430Y-45372690D01*
X135554000Y-45372690D01*
X135554000Y-45688250D01*
X135712750Y-45847000D01*
X136499500Y-45847000D01*
X136499500Y-45022750D01*
X136340750Y-44864000D01*
X136062691Y-44864000D01*
X135829302Y-44960673D01*
X135650673Y-45139301D01*
X135554000Y-45372690D01*
X135401430Y-45372690D01*
X135222739Y-45105261D01*
X134941727Y-44917495D01*
X134610250Y-44851560D01*
X134172750Y-44851560D01*
X133841273Y-44917495D01*
X133604000Y-45076036D01*
X133366727Y-44917495D01*
X133035250Y-44851560D01*
X132597750Y-44851560D01*
X132266273Y-44917495D01*
X131985261Y-45105261D01*
X131912604Y-45214000D01*
X131256896Y-45214000D01*
X131184239Y-45105261D01*
X130903227Y-44917495D01*
X130571750Y-44851560D01*
X130134250Y-44851560D01*
X129802773Y-44917495D01*
X129640469Y-45025943D01*
X129575198Y-44960673D01*
X129341809Y-44864000D01*
X129063750Y-44864000D01*
X128905000Y-45022750D01*
X128651000Y-45022750D01*
X128492250Y-44864000D01*
X128461924Y-44864000D01*
X130524688Y-41941750D01*
X132119000Y-41941750D01*
X132119000Y-42632309D01*
X132215673Y-42865698D01*
X132394301Y-43044327D01*
X132627690Y-43141000D01*
X133318250Y-43141000D01*
X133477000Y-42982250D01*
X133477000Y-41783000D01*
X132277750Y-41783000D01*
X132119000Y-41941750D01*
X130524688Y-41941750D01*
X131415553Y-40679691D01*
X132119000Y-40679691D01*
X132119000Y-41370250D01*
X132277750Y-41529000D01*
X133477000Y-41529000D01*
X133477000Y-40329750D01*
X133318250Y-40171000D01*
X132627690Y-40171000D01*
X132394301Y-40267673D01*
X132215673Y-40446302D01*
X132119000Y-40679691D01*
X131415553Y-40679691D01*
X131891806Y-40005000D01*
X134747000Y-40005000D01*
X134747000Y-40240045D01*
G36*
X162613097Y-54235777D02*
X162770666Y-54616183D01*
X163003043Y-54848560D01*
X162476000Y-54848560D01*
X162376000Y-54868451D01*
X162276000Y-54848560D01*
X161676000Y-54848560D01*
X161576000Y-54868451D01*
X161476000Y-54848560D01*
X160876000Y-54848560D01*
X160805927Y-54862498D01*
X160802310Y-54861000D01*
X160661750Y-54861000D01*
X160618205Y-54904545D01*
X160503002Y-54981522D01*
X160503002Y-54861000D01*
X160400800Y-54861000D01*
X161225300Y-54036500D01*
X162613097Y-54036500D01*
X162613097Y-54235777D01*
X162613097Y-54235777D01*
G37*
X162613097Y-54235777D02*
X162770666Y-54616183D01*
X163003043Y-54848560D01*
X162476000Y-54848560D01*
X162376000Y-54868451D01*
X162276000Y-54848560D01*
X161676000Y-54848560D01*
X161576000Y-54868451D01*
X161476000Y-54848560D01*
X160876000Y-54848560D01*
X160805927Y-54862498D01*
X160802310Y-54861000D01*
X160661750Y-54861000D01*
X160618205Y-54904545D01*
X160503002Y-54981522D01*
X160503002Y-54861000D01*
X160400800Y-54861000D01*
X161225300Y-54036500D01*
X162613097Y-54036500D01*
X162613097Y-54235777D01*
G04 #@! TO.N,GND*
G36*
X148591560Y-73102362D02*
X148591560Y-73375000D01*
X148640843Y-73622765D01*
X148752587Y-73790000D01*
X146392026Y-73790000D01*
X146447327Y-73734699D01*
X146544000Y-73501310D01*
X146544000Y-73310750D01*
X146385250Y-73152000D01*
X145236000Y-73152000D01*
X145236000Y-73172000D01*
X144982000Y-73172000D01*
X144982000Y-73152000D01*
X143832750Y-73152000D01*
X143674000Y-73310750D01*
X143674000Y-73501310D01*
X143770673Y-73734699D01*
X143825974Y-73790000D01*
X142131927Y-73790000D01*
X142164157Y-73741765D01*
X142213440Y-73494000D01*
X142213440Y-72134000D01*
X143363198Y-72134000D01*
X143468671Y-72239472D01*
X143511071Y-72302929D01*
X143718412Y-72441470D01*
X143674000Y-72548690D01*
X143674000Y-72739250D01*
X143832750Y-72898000D01*
X144982000Y-72898000D01*
X144982000Y-72878000D01*
X145236000Y-72878000D01*
X145236000Y-72898000D01*
X146385250Y-72898000D01*
X146544000Y-72739250D01*
X146544000Y-72548690D01*
X146479802Y-72393704D01*
X146507157Y-72352765D01*
X146556440Y-72105000D01*
X146556440Y-71405000D01*
X146507157Y-71157235D01*
X146482277Y-71120000D01*
X146507157Y-71082765D01*
X146517909Y-71028710D01*
X148591560Y-73102362D01*
X148591560Y-73102362D01*
G37*
X148591560Y-73102362D02*
X148591560Y-73375000D01*
X148640843Y-73622765D01*
X148752587Y-73790000D01*
X146392026Y-73790000D01*
X146447327Y-73734699D01*
X146544000Y-73501310D01*
X146544000Y-73310750D01*
X146385250Y-73152000D01*
X145236000Y-73152000D01*
X145236000Y-73172000D01*
X144982000Y-73172000D01*
X144982000Y-73152000D01*
X143832750Y-73152000D01*
X143674000Y-73310750D01*
X143674000Y-73501310D01*
X143770673Y-73734699D01*
X143825974Y-73790000D01*
X142131927Y-73790000D01*
X142164157Y-73741765D01*
X142213440Y-73494000D01*
X142213440Y-72134000D01*
X143363198Y-72134000D01*
X143468671Y-72239472D01*
X143511071Y-72302929D01*
X143718412Y-72441470D01*
X143674000Y-72548690D01*
X143674000Y-72739250D01*
X143832750Y-72898000D01*
X144982000Y-72898000D01*
X144982000Y-72878000D01*
X145236000Y-72878000D01*
X145236000Y-72898000D01*
X146385250Y-72898000D01*
X146544000Y-72739250D01*
X146544000Y-72548690D01*
X146479802Y-72393704D01*
X146507157Y-72352765D01*
X146556440Y-72105000D01*
X146556440Y-71405000D01*
X146507157Y-71157235D01*
X146482277Y-71120000D01*
X146507157Y-71082765D01*
X146517909Y-71028710D01*
X148591560Y-73102362D01*
G36*
X178564673Y-54371802D02*
X178468000Y-54605191D01*
X178468000Y-54883250D01*
X178626750Y-55042000D01*
X179451000Y-55042000D01*
X179451000Y-55022000D01*
X179705000Y-55022000D01*
X179705000Y-55042000D01*
X179725000Y-55042000D01*
X179725000Y-55296000D01*
X179705000Y-55296000D01*
X179705000Y-56082750D01*
X179863750Y-56241500D01*
X180179310Y-56241500D01*
X180290000Y-56195650D01*
X180290000Y-73790000D01*
X166453832Y-73790000D01*
X166533000Y-73533000D01*
X166533000Y-73183000D01*
X162925000Y-73183000D01*
X162925000Y-73203000D01*
X162671000Y-73203000D01*
X162671000Y-73183000D01*
X160925000Y-73183000D01*
X160925000Y-73203000D01*
X160671000Y-73203000D01*
X160671000Y-73183000D01*
X157063000Y-73183000D01*
X157063000Y-73533000D01*
X157142168Y-73790000D01*
X151325413Y-73790000D01*
X151437157Y-73622765D01*
X151486440Y-73375000D01*
X151486440Y-72675000D01*
X151437157Y-72427235D01*
X151409802Y-72386296D01*
X151474000Y-72231310D01*
X151474000Y-72040750D01*
X151315250Y-71882000D01*
X150166000Y-71882000D01*
X150166000Y-71902000D01*
X149912000Y-71902000D01*
X149912000Y-71882000D01*
X149892000Y-71882000D01*
X149892000Y-71628000D01*
X149912000Y-71628000D01*
X149912000Y-71608000D01*
X150166000Y-71608000D01*
X150166000Y-71628000D01*
X151315250Y-71628000D01*
X151474000Y-71469250D01*
X151474000Y-71278690D01*
X151409802Y-71123704D01*
X151437157Y-71082765D01*
X151486440Y-70835000D01*
X151486440Y-70157146D01*
X157925688Y-70157146D01*
X157954051Y-70697444D01*
X158106247Y-71064878D01*
X158344602Y-71129793D01*
X159118395Y-70356000D01*
X158344602Y-69582207D01*
X158106247Y-69647122D01*
X157925688Y-70157146D01*
X151486440Y-70157146D01*
X151486440Y-70135000D01*
X151437157Y-69887235D01*
X151412277Y-69850000D01*
X151437157Y-69812765D01*
X151486440Y-69565000D01*
X151486440Y-68865000D01*
X151437157Y-68617235D01*
X151296809Y-68407191D01*
X151086765Y-68266843D01*
X150839000Y-68217560D01*
X150687483Y-68217560D01*
X150629329Y-68130527D01*
X150586929Y-68067071D01*
X150523473Y-68024671D01*
X148621552Y-66122750D01*
X152052000Y-66122750D01*
X152052000Y-66400809D01*
X152148673Y-66634198D01*
X152327301Y-66812827D01*
X152560690Y-66909500D01*
X152876250Y-66909500D01*
X153035000Y-66750750D01*
X153035000Y-65964000D01*
X153289000Y-65964000D01*
X153289000Y-66750750D01*
X153447750Y-66909500D01*
X153763310Y-66909500D01*
X153996699Y-66812827D01*
X154175327Y-66634198D01*
X154272000Y-66400809D01*
X154272000Y-66122750D01*
X154113250Y-65964000D01*
X153289000Y-65964000D01*
X153035000Y-65964000D01*
X152210750Y-65964000D01*
X152052000Y-66122750D01*
X148621552Y-66122750D01*
X148074832Y-65576030D01*
X148412540Y-65436147D01*
X148802147Y-65046540D01*
X148812312Y-65022000D01*
X152166475Y-65022000D01*
X152148673Y-65039802D01*
X152052000Y-65273191D01*
X152052000Y-65551250D01*
X152210750Y-65710000D01*
X153035000Y-65710000D01*
X153035000Y-65690000D01*
X153289000Y-65690000D01*
X153289000Y-65710000D01*
X154113250Y-65710000D01*
X154272000Y-65551250D01*
X154272000Y-65273191D01*
X154175327Y-65039802D01*
X154110057Y-64974531D01*
X154218505Y-64812227D01*
X154284440Y-64480750D01*
X154284440Y-64043250D01*
X154218505Y-63711773D01*
X154030739Y-63430761D01*
X153749727Y-63242995D01*
X153418250Y-63177060D01*
X152905750Y-63177060D01*
X152574273Y-63242995D01*
X152293261Y-63430761D01*
X152245661Y-63502000D01*
X148812312Y-63502000D01*
X148802147Y-63477460D01*
X148412540Y-63087853D01*
X147903494Y-62877000D01*
X147352506Y-62877000D01*
X147327966Y-62887165D01*
X146556000Y-62115199D01*
X146556000Y-60706000D01*
X154925501Y-60706000D01*
X154925500Y-62931338D01*
X154913414Y-62939414D01*
X154718873Y-63230564D01*
X154650560Y-63573999D01*
X154650560Y-66474001D01*
X154718873Y-66817436D01*
X154913414Y-67108586D01*
X155204564Y-67303127D01*
X155547999Y-67371440D01*
X156173001Y-67371440D01*
X156516436Y-67303127D01*
X156807586Y-67108586D01*
X157002127Y-66817436D01*
X157070440Y-66474001D01*
X157070440Y-65959000D01*
X157317867Y-65959000D01*
X157345074Y-65986207D01*
X157762234Y-66159000D01*
X158213766Y-66159000D01*
X158630926Y-65986207D01*
X158925560Y-65691573D01*
X158925560Y-66474001D01*
X158993873Y-66817436D01*
X159188414Y-67108586D01*
X159479564Y-67303127D01*
X159738001Y-67354533D01*
X159738000Y-69069059D01*
X159496854Y-68983688D01*
X158956556Y-69012051D01*
X158589122Y-69164247D01*
X158524207Y-69402602D01*
X159298000Y-70176395D01*
X159312143Y-70162253D01*
X159491748Y-70341858D01*
X159477605Y-70356000D01*
X159491748Y-70370143D01*
X159312143Y-70549748D01*
X159298000Y-70535605D01*
X158524207Y-71309398D01*
X158568219Y-71471000D01*
X158170998Y-71471000D01*
X158170998Y-71471287D01*
X158015672Y-71535625D01*
X157980391Y-71512538D01*
X157942719Y-71516408D01*
X157514526Y-71742920D01*
X157205610Y-72116053D01*
X157063000Y-72579000D01*
X157063000Y-72929000D01*
X160671000Y-72929000D01*
X160671000Y-72909000D01*
X160925000Y-72909000D01*
X160925000Y-72929000D01*
X162671000Y-72929000D01*
X162671000Y-72909000D01*
X162925000Y-72909000D01*
X162925000Y-72929000D01*
X166533000Y-72929000D01*
X166533000Y-72579000D01*
X166395226Y-72131750D01*
X167330000Y-72131750D01*
X167330000Y-72622310D01*
X167426673Y-72855699D01*
X167605302Y-73034327D01*
X167838691Y-73131000D01*
X168454250Y-73131000D01*
X168613000Y-72972250D01*
X168613000Y-71973000D01*
X168867000Y-71973000D01*
X168867000Y-72972250D01*
X169025750Y-73131000D01*
X169641309Y-73131000D01*
X169874698Y-73034327D01*
X170053327Y-72855699D01*
X170150000Y-72622310D01*
X170150000Y-72131750D01*
X175290000Y-72131750D01*
X175290000Y-72622310D01*
X175386673Y-72855699D01*
X175565302Y-73034327D01*
X175798691Y-73131000D01*
X176414250Y-73131000D01*
X176573000Y-72972250D01*
X176573000Y-71973000D01*
X176827000Y-71973000D01*
X176827000Y-72972250D01*
X176985750Y-73131000D01*
X177601309Y-73131000D01*
X177834698Y-73034327D01*
X178013327Y-72855699D01*
X178110000Y-72622310D01*
X178110000Y-72131750D01*
X177951250Y-71973000D01*
X176827000Y-71973000D01*
X176573000Y-71973000D01*
X175448750Y-71973000D01*
X175290000Y-72131750D01*
X170150000Y-72131750D01*
X169991250Y-71973000D01*
X168867000Y-71973000D01*
X168613000Y-71973000D01*
X167488750Y-71973000D01*
X167330000Y-72131750D01*
X166395226Y-72131750D01*
X166390390Y-72116053D01*
X166081474Y-71742920D01*
X165653281Y-71516408D01*
X165615609Y-71512538D01*
X165580328Y-71535625D01*
X165425002Y-71471287D01*
X165425002Y-71471000D01*
X165027781Y-71471000D01*
X165071793Y-71309398D01*
X164298000Y-70535605D01*
X164283858Y-70549748D01*
X164104253Y-70370143D01*
X164118395Y-70356000D01*
X164477605Y-70356000D01*
X165251398Y-71129793D01*
X165472084Y-71069690D01*
X167330000Y-71069690D01*
X167330000Y-71560250D01*
X167488750Y-71719000D01*
X168613000Y-71719000D01*
X168613000Y-70719750D01*
X168867000Y-70719750D01*
X168867000Y-71719000D01*
X169991250Y-71719000D01*
X170150000Y-71560250D01*
X170150000Y-71069690D01*
X175290000Y-71069690D01*
X175290000Y-71560250D01*
X175448750Y-71719000D01*
X176573000Y-71719000D01*
X176573000Y-70719750D01*
X176827000Y-70719750D01*
X176827000Y-71719000D01*
X177951250Y-71719000D01*
X178110000Y-71560250D01*
X178110000Y-71069690D01*
X178013327Y-70836301D01*
X177834698Y-70657673D01*
X177601309Y-70561000D01*
X176985750Y-70561000D01*
X176827000Y-70719750D01*
X176573000Y-70719750D01*
X176414250Y-70561000D01*
X175798691Y-70561000D01*
X175565302Y-70657673D01*
X175386673Y-70836301D01*
X175290000Y-71069690D01*
X170150000Y-71069690D01*
X170053327Y-70836301D01*
X169874698Y-70657673D01*
X169641309Y-70561000D01*
X169025750Y-70561000D01*
X168867000Y-70719750D01*
X168613000Y-70719750D01*
X168454250Y-70561000D01*
X167838691Y-70561000D01*
X167605302Y-70657673D01*
X167426673Y-70836301D01*
X167330000Y-71069690D01*
X165472084Y-71069690D01*
X165489753Y-71064878D01*
X165670312Y-70554854D01*
X165641949Y-70014556D01*
X165489753Y-69647122D01*
X165251398Y-69582207D01*
X164477605Y-70356000D01*
X164118395Y-70356000D01*
X164104253Y-70341858D01*
X164283858Y-70162253D01*
X164298000Y-70176395D01*
X165071793Y-69402602D01*
X165006878Y-69164247D01*
X164496854Y-68983688D01*
X163956556Y-69012051D01*
X163649452Y-69139257D01*
X163424309Y-69046000D01*
X163356750Y-69046000D01*
X163198000Y-69204750D01*
X163198000Y-69361164D01*
X163105809Y-69223191D01*
X162895765Y-69082843D01*
X162871208Y-69077958D01*
X162839250Y-69046000D01*
X162771691Y-69046000D01*
X162751853Y-69054217D01*
X162648000Y-69033560D01*
X162558000Y-69033560D01*
X162558000Y-66696000D01*
X167317560Y-66696000D01*
X167317560Y-67996000D01*
X167366843Y-68243765D01*
X167507191Y-68453809D01*
X167717235Y-68594157D01*
X167965000Y-68643440D01*
X169515000Y-68643440D01*
X169762765Y-68594157D01*
X169972809Y-68453809D01*
X170085099Y-68285756D01*
X170228126Y-68345000D01*
X170639874Y-68345000D01*
X171020280Y-68187431D01*
X171137711Y-68070000D01*
X175292279Y-68070000D01*
X175326843Y-68243765D01*
X175467191Y-68453809D01*
X175677235Y-68594157D01*
X175925000Y-68643440D01*
X177475000Y-68643440D01*
X177722765Y-68594157D01*
X177932809Y-68453809D01*
X178073157Y-68243765D01*
X178122440Y-67996000D01*
X178122440Y-66696000D01*
X178073157Y-66448235D01*
X177932809Y-66238191D01*
X177722765Y-66097843D01*
X177475000Y-66048560D01*
X175925000Y-66048560D01*
X175677235Y-66097843D01*
X175467191Y-66238191D01*
X175326843Y-66448235D01*
X175306601Y-66550000D01*
X171137711Y-66550000D01*
X171020280Y-66432569D01*
X170639874Y-66275000D01*
X170228126Y-66275000D01*
X170047419Y-66349851D01*
X169972809Y-66238191D01*
X169762765Y-66097843D01*
X169515000Y-66048560D01*
X167965000Y-66048560D01*
X167717235Y-66097843D01*
X167507191Y-66238191D01*
X167366843Y-66448235D01*
X167317560Y-66696000D01*
X162558000Y-66696000D01*
X162558000Y-66222500D01*
X162849266Y-66222500D01*
X163266426Y-66049707D01*
X163293633Y-66022500D01*
X172056414Y-66022500D01*
X172148500Y-66040817D01*
X172240586Y-66022500D01*
X172513319Y-65968250D01*
X172822597Y-65761597D01*
X172874761Y-65683528D01*
X174338020Y-64220270D01*
X174351744Y-64223000D01*
X174644256Y-64223000D01*
X175077418Y-64136839D01*
X175568625Y-63808625D01*
X175653234Y-63681999D01*
X175700081Y-63691317D01*
X175792167Y-63673000D01*
X176064900Y-63618750D01*
X176374178Y-63412097D01*
X176426342Y-63334028D01*
X177316531Y-62443840D01*
X177394597Y-62391678D01*
X177601250Y-62082400D01*
X177655500Y-61809667D01*
X177655500Y-61809664D01*
X177673816Y-61717582D01*
X177655500Y-61625500D01*
X177655500Y-58766081D01*
X177673816Y-58673999D01*
X177655500Y-58581917D01*
X177655500Y-58581914D01*
X177601250Y-58309181D01*
X177394597Y-57999903D01*
X177316531Y-57947741D01*
X174823540Y-55454750D01*
X178468000Y-55454750D01*
X178468000Y-55732809D01*
X178564673Y-55966198D01*
X178743301Y-56144827D01*
X178976690Y-56241500D01*
X179292250Y-56241500D01*
X179451000Y-56082750D01*
X179451000Y-55296000D01*
X178626750Y-55296000D01*
X178468000Y-55454750D01*
X174823540Y-55454750D01*
X174256774Y-54887984D01*
X174476506Y-54979000D01*
X175027494Y-54979000D01*
X175536540Y-54768147D01*
X175926147Y-54378540D01*
X175936312Y-54354000D01*
X178582475Y-54354000D01*
X178564673Y-54371802D01*
X178564673Y-54371802D01*
G37*
X178564673Y-54371802D02*
X178468000Y-54605191D01*
X178468000Y-54883250D01*
X178626750Y-55042000D01*
X179451000Y-55042000D01*
X179451000Y-55022000D01*
X179705000Y-55022000D01*
X179705000Y-55042000D01*
X179725000Y-55042000D01*
X179725000Y-55296000D01*
X179705000Y-55296000D01*
X179705000Y-56082750D01*
X179863750Y-56241500D01*
X180179310Y-56241500D01*
X180290000Y-56195650D01*
X180290000Y-73790000D01*
X166453832Y-73790000D01*
X166533000Y-73533000D01*
X166533000Y-73183000D01*
X162925000Y-73183000D01*
X162925000Y-73203000D01*
X162671000Y-73203000D01*
X162671000Y-73183000D01*
X160925000Y-73183000D01*
X160925000Y-73203000D01*
X160671000Y-73203000D01*
X160671000Y-73183000D01*
X157063000Y-73183000D01*
X157063000Y-73533000D01*
X157142168Y-73790000D01*
X151325413Y-73790000D01*
X151437157Y-73622765D01*
X151486440Y-73375000D01*
X151486440Y-72675000D01*
X151437157Y-72427235D01*
X151409802Y-72386296D01*
X151474000Y-72231310D01*
X151474000Y-72040750D01*
X151315250Y-71882000D01*
X150166000Y-71882000D01*
X150166000Y-71902000D01*
X149912000Y-71902000D01*
X149912000Y-71882000D01*
X149892000Y-71882000D01*
X149892000Y-71628000D01*
X149912000Y-71628000D01*
X149912000Y-71608000D01*
X150166000Y-71608000D01*
X150166000Y-71628000D01*
X151315250Y-71628000D01*
X151474000Y-71469250D01*
X151474000Y-71278690D01*
X151409802Y-71123704D01*
X151437157Y-71082765D01*
X151486440Y-70835000D01*
X151486440Y-70157146D01*
X157925688Y-70157146D01*
X157954051Y-70697444D01*
X158106247Y-71064878D01*
X158344602Y-71129793D01*
X159118395Y-70356000D01*
X158344602Y-69582207D01*
X158106247Y-69647122D01*
X157925688Y-70157146D01*
X151486440Y-70157146D01*
X151486440Y-70135000D01*
X151437157Y-69887235D01*
X151412277Y-69850000D01*
X151437157Y-69812765D01*
X151486440Y-69565000D01*
X151486440Y-68865000D01*
X151437157Y-68617235D01*
X151296809Y-68407191D01*
X151086765Y-68266843D01*
X150839000Y-68217560D01*
X150687483Y-68217560D01*
X150629329Y-68130527D01*
X150586929Y-68067071D01*
X150523473Y-68024671D01*
X148621552Y-66122750D01*
X152052000Y-66122750D01*
X152052000Y-66400809D01*
X152148673Y-66634198D01*
X152327301Y-66812827D01*
X152560690Y-66909500D01*
X152876250Y-66909500D01*
X153035000Y-66750750D01*
X153035000Y-65964000D01*
X153289000Y-65964000D01*
X153289000Y-66750750D01*
X153447750Y-66909500D01*
X153763310Y-66909500D01*
X153996699Y-66812827D01*
X154175327Y-66634198D01*
X154272000Y-66400809D01*
X154272000Y-66122750D01*
X154113250Y-65964000D01*
X153289000Y-65964000D01*
X153035000Y-65964000D01*
X152210750Y-65964000D01*
X152052000Y-66122750D01*
X148621552Y-66122750D01*
X148074832Y-65576030D01*
X148412540Y-65436147D01*
X148802147Y-65046540D01*
X148812312Y-65022000D01*
X152166475Y-65022000D01*
X152148673Y-65039802D01*
X152052000Y-65273191D01*
X152052000Y-65551250D01*
X152210750Y-65710000D01*
X153035000Y-65710000D01*
X153035000Y-65690000D01*
X153289000Y-65690000D01*
X153289000Y-65710000D01*
X154113250Y-65710000D01*
X154272000Y-65551250D01*
X154272000Y-65273191D01*
X154175327Y-65039802D01*
X154110057Y-64974531D01*
X154218505Y-64812227D01*
X154284440Y-64480750D01*
X154284440Y-64043250D01*
X154218505Y-63711773D01*
X154030739Y-63430761D01*
X153749727Y-63242995D01*
X153418250Y-63177060D01*
X152905750Y-63177060D01*
X152574273Y-63242995D01*
X152293261Y-63430761D01*
X152245661Y-63502000D01*
X148812312Y-63502000D01*
X148802147Y-63477460D01*
X148412540Y-63087853D01*
X147903494Y-62877000D01*
X147352506Y-62877000D01*
X147327966Y-62887165D01*
X146556000Y-62115199D01*
X146556000Y-60706000D01*
X154925501Y-60706000D01*
X154925500Y-62931338D01*
X154913414Y-62939414D01*
X154718873Y-63230564D01*
X154650560Y-63573999D01*
X154650560Y-66474001D01*
X154718873Y-66817436D01*
X154913414Y-67108586D01*
X155204564Y-67303127D01*
X155547999Y-67371440D01*
X156173001Y-67371440D01*
X156516436Y-67303127D01*
X156807586Y-67108586D01*
X157002127Y-66817436D01*
X157070440Y-66474001D01*
X157070440Y-65959000D01*
X157317867Y-65959000D01*
X157345074Y-65986207D01*
X157762234Y-66159000D01*
X158213766Y-66159000D01*
X158630926Y-65986207D01*
X158925560Y-65691573D01*
X158925560Y-66474001D01*
X158993873Y-66817436D01*
X159188414Y-67108586D01*
X159479564Y-67303127D01*
X159738001Y-67354533D01*
X159738000Y-69069059D01*
X159496854Y-68983688D01*
X158956556Y-69012051D01*
X158589122Y-69164247D01*
X158524207Y-69402602D01*
X159298000Y-70176395D01*
X159312143Y-70162253D01*
X159491748Y-70341858D01*
X159477605Y-70356000D01*
X159491748Y-70370143D01*
X159312143Y-70549748D01*
X159298000Y-70535605D01*
X158524207Y-71309398D01*
X158568219Y-71471000D01*
X158170998Y-71471000D01*
X158170998Y-71471287D01*
X158015672Y-71535625D01*
X157980391Y-71512538D01*
X157942719Y-71516408D01*
X157514526Y-71742920D01*
X157205610Y-72116053D01*
X157063000Y-72579000D01*
X157063000Y-72929000D01*
X160671000Y-72929000D01*
X160671000Y-72909000D01*
X160925000Y-72909000D01*
X160925000Y-72929000D01*
X162671000Y-72929000D01*
X162671000Y-72909000D01*
X162925000Y-72909000D01*
X162925000Y-72929000D01*
X166533000Y-72929000D01*
X166533000Y-72579000D01*
X166395226Y-72131750D01*
X167330000Y-72131750D01*
X167330000Y-72622310D01*
X167426673Y-72855699D01*
X167605302Y-73034327D01*
X167838691Y-73131000D01*
X168454250Y-73131000D01*
X168613000Y-72972250D01*
X168613000Y-71973000D01*
X168867000Y-71973000D01*
X168867000Y-72972250D01*
X169025750Y-73131000D01*
X169641309Y-73131000D01*
X169874698Y-73034327D01*
X170053327Y-72855699D01*
X170150000Y-72622310D01*
X170150000Y-72131750D01*
X175290000Y-72131750D01*
X175290000Y-72622310D01*
X175386673Y-72855699D01*
X175565302Y-73034327D01*
X175798691Y-73131000D01*
X176414250Y-73131000D01*
X176573000Y-72972250D01*
X176573000Y-71973000D01*
X176827000Y-71973000D01*
X176827000Y-72972250D01*
X176985750Y-73131000D01*
X177601309Y-73131000D01*
X177834698Y-73034327D01*
X178013327Y-72855699D01*
X178110000Y-72622310D01*
X178110000Y-72131750D01*
X177951250Y-71973000D01*
X176827000Y-71973000D01*
X176573000Y-71973000D01*
X175448750Y-71973000D01*
X175290000Y-72131750D01*
X170150000Y-72131750D01*
X169991250Y-71973000D01*
X168867000Y-71973000D01*
X168613000Y-71973000D01*
X167488750Y-71973000D01*
X167330000Y-72131750D01*
X166395226Y-72131750D01*
X166390390Y-72116053D01*
X166081474Y-71742920D01*
X165653281Y-71516408D01*
X165615609Y-71512538D01*
X165580328Y-71535625D01*
X165425002Y-71471287D01*
X165425002Y-71471000D01*
X165027781Y-71471000D01*
X165071793Y-71309398D01*
X164298000Y-70535605D01*
X164283858Y-70549748D01*
X164104253Y-70370143D01*
X164118395Y-70356000D01*
X164477605Y-70356000D01*
X165251398Y-71129793D01*
X165472084Y-71069690D01*
X167330000Y-71069690D01*
X167330000Y-71560250D01*
X167488750Y-71719000D01*
X168613000Y-71719000D01*
X168613000Y-70719750D01*
X168867000Y-70719750D01*
X168867000Y-71719000D01*
X169991250Y-71719000D01*
X170150000Y-71560250D01*
X170150000Y-71069690D01*
X175290000Y-71069690D01*
X175290000Y-71560250D01*
X175448750Y-71719000D01*
X176573000Y-71719000D01*
X176573000Y-70719750D01*
X176827000Y-70719750D01*
X176827000Y-71719000D01*
X177951250Y-71719000D01*
X178110000Y-71560250D01*
X178110000Y-71069690D01*
X178013327Y-70836301D01*
X177834698Y-70657673D01*
X177601309Y-70561000D01*
X176985750Y-70561000D01*
X176827000Y-70719750D01*
X176573000Y-70719750D01*
X176414250Y-70561000D01*
X175798691Y-70561000D01*
X175565302Y-70657673D01*
X175386673Y-70836301D01*
X175290000Y-71069690D01*
X170150000Y-71069690D01*
X170053327Y-70836301D01*
X169874698Y-70657673D01*
X169641309Y-70561000D01*
X169025750Y-70561000D01*
X168867000Y-70719750D01*
X168613000Y-70719750D01*
X168454250Y-70561000D01*
X167838691Y-70561000D01*
X167605302Y-70657673D01*
X167426673Y-70836301D01*
X167330000Y-71069690D01*
X165472084Y-71069690D01*
X165489753Y-71064878D01*
X165670312Y-70554854D01*
X165641949Y-70014556D01*
X165489753Y-69647122D01*
X165251398Y-69582207D01*
X164477605Y-70356000D01*
X164118395Y-70356000D01*
X164104253Y-70341858D01*
X164283858Y-70162253D01*
X164298000Y-70176395D01*
X165071793Y-69402602D01*
X165006878Y-69164247D01*
X164496854Y-68983688D01*
X163956556Y-69012051D01*
X163649452Y-69139257D01*
X163424309Y-69046000D01*
X163356750Y-69046000D01*
X163198000Y-69204750D01*
X163198000Y-69361164D01*
X163105809Y-69223191D01*
X162895765Y-69082843D01*
X162871208Y-69077958D01*
X162839250Y-69046000D01*
X162771691Y-69046000D01*
X162751853Y-69054217D01*
X162648000Y-69033560D01*
X162558000Y-69033560D01*
X162558000Y-66696000D01*
X167317560Y-66696000D01*
X167317560Y-67996000D01*
X167366843Y-68243765D01*
X167507191Y-68453809D01*
X167717235Y-68594157D01*
X167965000Y-68643440D01*
X169515000Y-68643440D01*
X169762765Y-68594157D01*
X169972809Y-68453809D01*
X170085099Y-68285756D01*
X170228126Y-68345000D01*
X170639874Y-68345000D01*
X171020280Y-68187431D01*
X171137711Y-68070000D01*
X175292279Y-68070000D01*
X175326843Y-68243765D01*
X175467191Y-68453809D01*
X175677235Y-68594157D01*
X175925000Y-68643440D01*
X177475000Y-68643440D01*
X177722765Y-68594157D01*
X177932809Y-68453809D01*
X178073157Y-68243765D01*
X178122440Y-67996000D01*
X178122440Y-66696000D01*
X178073157Y-66448235D01*
X177932809Y-66238191D01*
X177722765Y-66097843D01*
X177475000Y-66048560D01*
X175925000Y-66048560D01*
X175677235Y-66097843D01*
X175467191Y-66238191D01*
X175326843Y-66448235D01*
X175306601Y-66550000D01*
X171137711Y-66550000D01*
X171020280Y-66432569D01*
X170639874Y-66275000D01*
X170228126Y-66275000D01*
X170047419Y-66349851D01*
X169972809Y-66238191D01*
X169762765Y-66097843D01*
X169515000Y-66048560D01*
X167965000Y-66048560D01*
X167717235Y-66097843D01*
X167507191Y-66238191D01*
X167366843Y-66448235D01*
X167317560Y-66696000D01*
X162558000Y-66696000D01*
X162558000Y-66222500D01*
X162849266Y-66222500D01*
X163266426Y-66049707D01*
X163293633Y-66022500D01*
X172056414Y-66022500D01*
X172148500Y-66040817D01*
X172240586Y-66022500D01*
X172513319Y-65968250D01*
X172822597Y-65761597D01*
X172874761Y-65683528D01*
X174338020Y-64220270D01*
X174351744Y-64223000D01*
X174644256Y-64223000D01*
X175077418Y-64136839D01*
X175568625Y-63808625D01*
X175653234Y-63681999D01*
X175700081Y-63691317D01*
X175792167Y-63673000D01*
X176064900Y-63618750D01*
X176374178Y-63412097D01*
X176426342Y-63334028D01*
X177316531Y-62443840D01*
X177394597Y-62391678D01*
X177601250Y-62082400D01*
X177655500Y-61809667D01*
X177655500Y-61809664D01*
X177673816Y-61717582D01*
X177655500Y-61625500D01*
X177655500Y-58766081D01*
X177673816Y-58673999D01*
X177655500Y-58581917D01*
X177655500Y-58581914D01*
X177601250Y-58309181D01*
X177394597Y-57999903D01*
X177316531Y-57947741D01*
X174823540Y-55454750D01*
X178468000Y-55454750D01*
X178468000Y-55732809D01*
X178564673Y-55966198D01*
X178743301Y-56144827D01*
X178976690Y-56241500D01*
X179292250Y-56241500D01*
X179451000Y-56082750D01*
X179451000Y-55296000D01*
X178626750Y-55296000D01*
X178468000Y-55454750D01*
X174823540Y-55454750D01*
X174256774Y-54887984D01*
X174476506Y-54979000D01*
X175027494Y-54979000D01*
X175536540Y-54768147D01*
X175926147Y-54378540D01*
X175936312Y-54354000D01*
X178582475Y-54354000D01*
X178564673Y-54371802D01*
G36*
X154456789Y-32410858D02*
X154456789Y-33101417D01*
X154615539Y-33260167D01*
X155814789Y-33260167D01*
X155814789Y-33240167D01*
X156068789Y-33240167D01*
X156068789Y-33260167D01*
X156088789Y-33260167D01*
X156088789Y-33514167D01*
X156068789Y-33514167D01*
X156068789Y-33534167D01*
X155814789Y-33534167D01*
X155814789Y-33514167D01*
X154615539Y-33514167D01*
X154456789Y-33672917D01*
X154456789Y-34363476D01*
X154553462Y-34596865D01*
X154610738Y-34654142D01*
X154493632Y-34829402D01*
X154461256Y-34992167D01*
X138324913Y-34992167D01*
X138232832Y-34973851D01*
X138140751Y-34992167D01*
X138140747Y-34992167D01*
X137868014Y-35046417D01*
X137558736Y-35253070D01*
X137506574Y-35331136D01*
X133594711Y-39243000D01*
X131826000Y-39243000D01*
X131486851Y-39341155D01*
X131307225Y-39511806D01*
X127497225Y-44909306D01*
X127483871Y-44928998D01*
X125705871Y-47659498D01*
X125603000Y-48006000D01*
X125603000Y-53721000D01*
X125615615Y-53817130D01*
X125617095Y-53917551D01*
X125715275Y-54145033D01*
X125893035Y-54317627D01*
X127109815Y-55104955D01*
X126843000Y-55749105D01*
X126843000Y-56518895D01*
X127137586Y-57230090D01*
X127681910Y-57774414D01*
X128393105Y-58069000D01*
X129162895Y-58069000D01*
X129874090Y-57774414D01*
X130408868Y-57239636D01*
X135608535Y-60604127D01*
X135953500Y-60706000D01*
X136485199Y-60706000D01*
X139006199Y-63227000D01*
X138922626Y-63227000D01*
X138542220Y-63384569D01*
X138424789Y-63502000D01*
X138076339Y-63502000D01*
X138028739Y-63430761D01*
X137747727Y-63242995D01*
X137416250Y-63177060D01*
X136903750Y-63177060D01*
X136572273Y-63242995D01*
X136291261Y-63430761D01*
X136103495Y-63711773D01*
X136037560Y-64043250D01*
X136037560Y-64480750D01*
X136103495Y-64812227D01*
X136211943Y-64974531D01*
X136146673Y-65039802D01*
X136050000Y-65273191D01*
X136050000Y-65551250D01*
X136208750Y-65710000D01*
X137033000Y-65710000D01*
X137033000Y-65690000D01*
X137287000Y-65690000D01*
X137287000Y-65710000D01*
X138111250Y-65710000D01*
X138270000Y-65551250D01*
X138270000Y-65273191D01*
X138173327Y-65039802D01*
X138155525Y-65022000D01*
X138424789Y-65022000D01*
X138542220Y-65139431D01*
X138922626Y-65297000D01*
X139334374Y-65297000D01*
X139714780Y-65139431D01*
X140005931Y-64848280D01*
X140163500Y-64467874D01*
X140163500Y-64384302D01*
X141600671Y-65821473D01*
X141643072Y-65884930D01*
X141894464Y-66052905D01*
X142116149Y-66097001D01*
X142116153Y-66097001D01*
X142191000Y-66111889D01*
X142265847Y-66097001D01*
X142651202Y-66097001D01*
X144771760Y-68217560D01*
X144309000Y-68217560D01*
X144061235Y-68266843D01*
X143851191Y-68407191D01*
X143710843Y-68617235D01*
X143661560Y-68865000D01*
X143661560Y-69344000D01*
X141994178Y-69344000D01*
X141786625Y-69033375D01*
X141295418Y-68705161D01*
X140862256Y-68619000D01*
X140569744Y-68619000D01*
X140136582Y-68705161D01*
X139645375Y-69033375D01*
X139437822Y-69344000D01*
X132902802Y-69344000D01*
X130573787Y-67014986D01*
X130713000Y-66678895D01*
X130713000Y-66122750D01*
X136050000Y-66122750D01*
X136050000Y-66400809D01*
X136146673Y-66634198D01*
X136325301Y-66812827D01*
X136558690Y-66909500D01*
X136874250Y-66909500D01*
X137033000Y-66750750D01*
X137033000Y-65964000D01*
X137287000Y-65964000D01*
X137287000Y-66750750D01*
X137445750Y-66909500D01*
X137761310Y-66909500D01*
X137994699Y-66812827D01*
X138173327Y-66634198D01*
X138270000Y-66400809D01*
X138270000Y-66122750D01*
X138111250Y-65964000D01*
X137287000Y-65964000D01*
X137033000Y-65964000D01*
X136208750Y-65964000D01*
X136050000Y-66122750D01*
X130713000Y-66122750D01*
X130713000Y-65909105D01*
X130418414Y-65197910D01*
X129874090Y-64653586D01*
X129162895Y-64359000D01*
X128393105Y-64359000D01*
X127681910Y-64653586D01*
X127137586Y-65197910D01*
X126843000Y-65909105D01*
X126843000Y-66678895D01*
X127137586Y-67390090D01*
X127681910Y-67934414D01*
X128393105Y-68229000D01*
X129162895Y-68229000D01*
X129498986Y-68089787D01*
X131997670Y-70588472D01*
X132014728Y-70614000D01*
X130557627Y-70614000D01*
X130418414Y-70277910D01*
X129874090Y-69733586D01*
X129162895Y-69439000D01*
X128393105Y-69439000D01*
X127681910Y-69733586D01*
X127137586Y-70277910D01*
X126843000Y-70989105D01*
X126843000Y-71758895D01*
X127137586Y-72470090D01*
X127681910Y-73014414D01*
X128393105Y-73309000D01*
X129162895Y-73309000D01*
X129874090Y-73014414D01*
X130418414Y-72470090D01*
X130557627Y-72134000D01*
X135735661Y-72134000D01*
X135754036Y-72161500D01*
X135595495Y-72398773D01*
X135529560Y-72730250D01*
X135529560Y-73167750D01*
X135595495Y-73499227D01*
X135783261Y-73780239D01*
X135797869Y-73790000D01*
X124210000Y-73790000D01*
X124210000Y-62583459D01*
X127588146Y-62583459D01*
X127723504Y-62881455D01*
X128441880Y-63158066D01*
X129211427Y-63138710D01*
X129832496Y-62881455D01*
X129967854Y-62583459D01*
X128778000Y-61393605D01*
X127588146Y-62583459D01*
X124210000Y-62583459D01*
X124210000Y-60877880D01*
X126833934Y-60877880D01*
X126853290Y-61647427D01*
X127110545Y-62268496D01*
X127408541Y-62403854D01*
X128598395Y-61214000D01*
X128957605Y-61214000D01*
X130147459Y-62403854D01*
X130445455Y-62268496D01*
X130722066Y-61550120D01*
X130702710Y-60780573D01*
X130445455Y-60159504D01*
X130147459Y-60024146D01*
X128957605Y-61214000D01*
X128598395Y-61214000D01*
X127408541Y-60024146D01*
X127110545Y-60159504D01*
X126833934Y-60877880D01*
X124210000Y-60877880D01*
X124210000Y-59844541D01*
X127588146Y-59844541D01*
X128778000Y-61034395D01*
X129967854Y-59844541D01*
X129832496Y-59546545D01*
X129114120Y-59269934D01*
X128344573Y-59289290D01*
X127723504Y-59546545D01*
X127588146Y-59844541D01*
X124210000Y-59844541D01*
X124210000Y-32210000D01*
X154539987Y-32210000D01*
X154456789Y-32410858D01*
X154456789Y-32410858D01*
G37*
X154456789Y-32410858D02*
X154456789Y-33101417D01*
X154615539Y-33260167D01*
X155814789Y-33260167D01*
X155814789Y-33240167D01*
X156068789Y-33240167D01*
X156068789Y-33260167D01*
X156088789Y-33260167D01*
X156088789Y-33514167D01*
X156068789Y-33514167D01*
X156068789Y-33534167D01*
X155814789Y-33534167D01*
X155814789Y-33514167D01*
X154615539Y-33514167D01*
X154456789Y-33672917D01*
X154456789Y-34363476D01*
X154553462Y-34596865D01*
X154610738Y-34654142D01*
X154493632Y-34829402D01*
X154461256Y-34992167D01*
X138324913Y-34992167D01*
X138232832Y-34973851D01*
X138140751Y-34992167D01*
X138140747Y-34992167D01*
X137868014Y-35046417D01*
X137558736Y-35253070D01*
X137506574Y-35331136D01*
X133594711Y-39243000D01*
X131826000Y-39243000D01*
X131486851Y-39341155D01*
X131307225Y-39511806D01*
X127497225Y-44909306D01*
X127483871Y-44928998D01*
X125705871Y-47659498D01*
X125603000Y-48006000D01*
X125603000Y-53721000D01*
X125615615Y-53817130D01*
X125617095Y-53917551D01*
X125715275Y-54145033D01*
X125893035Y-54317627D01*
X127109815Y-55104955D01*
X126843000Y-55749105D01*
X126843000Y-56518895D01*
X127137586Y-57230090D01*
X127681910Y-57774414D01*
X128393105Y-58069000D01*
X129162895Y-58069000D01*
X129874090Y-57774414D01*
X130408868Y-57239636D01*
X135608535Y-60604127D01*
X135953500Y-60706000D01*
X136485199Y-60706000D01*
X139006199Y-63227000D01*
X138922626Y-63227000D01*
X138542220Y-63384569D01*
X138424789Y-63502000D01*
X138076339Y-63502000D01*
X138028739Y-63430761D01*
X137747727Y-63242995D01*
X137416250Y-63177060D01*
X136903750Y-63177060D01*
X136572273Y-63242995D01*
X136291261Y-63430761D01*
X136103495Y-63711773D01*
X136037560Y-64043250D01*
X136037560Y-64480750D01*
X136103495Y-64812227D01*
X136211943Y-64974531D01*
X136146673Y-65039802D01*
X136050000Y-65273191D01*
X136050000Y-65551250D01*
X136208750Y-65710000D01*
X137033000Y-65710000D01*
X137033000Y-65690000D01*
X137287000Y-65690000D01*
X137287000Y-65710000D01*
X138111250Y-65710000D01*
X138270000Y-65551250D01*
X138270000Y-65273191D01*
X138173327Y-65039802D01*
X138155525Y-65022000D01*
X138424789Y-65022000D01*
X138542220Y-65139431D01*
X138922626Y-65297000D01*
X139334374Y-65297000D01*
X139714780Y-65139431D01*
X140005931Y-64848280D01*
X140163500Y-64467874D01*
X140163500Y-64384302D01*
X141600671Y-65821473D01*
X141643072Y-65884930D01*
X141894464Y-66052905D01*
X142116149Y-66097001D01*
X142116153Y-66097001D01*
X142191000Y-66111889D01*
X142265847Y-66097001D01*
X142651202Y-66097001D01*
X144771760Y-68217560D01*
X144309000Y-68217560D01*
X144061235Y-68266843D01*
X143851191Y-68407191D01*
X143710843Y-68617235D01*
X143661560Y-68865000D01*
X143661560Y-69344000D01*
X141994178Y-69344000D01*
X141786625Y-69033375D01*
X141295418Y-68705161D01*
X140862256Y-68619000D01*
X140569744Y-68619000D01*
X140136582Y-68705161D01*
X139645375Y-69033375D01*
X139437822Y-69344000D01*
X132902802Y-69344000D01*
X130573787Y-67014986D01*
X130713000Y-66678895D01*
X130713000Y-66122750D01*
X136050000Y-66122750D01*
X136050000Y-66400809D01*
X136146673Y-66634198D01*
X136325301Y-66812827D01*
X136558690Y-66909500D01*
X136874250Y-66909500D01*
X137033000Y-66750750D01*
X137033000Y-65964000D01*
X137287000Y-65964000D01*
X137287000Y-66750750D01*
X137445750Y-66909500D01*
X137761310Y-66909500D01*
X137994699Y-66812827D01*
X138173327Y-66634198D01*
X138270000Y-66400809D01*
X138270000Y-66122750D01*
X138111250Y-65964000D01*
X137287000Y-65964000D01*
X137033000Y-65964000D01*
X136208750Y-65964000D01*
X136050000Y-66122750D01*
X130713000Y-66122750D01*
X130713000Y-65909105D01*
X130418414Y-65197910D01*
X129874090Y-64653586D01*
X129162895Y-64359000D01*
X128393105Y-64359000D01*
X127681910Y-64653586D01*
X127137586Y-65197910D01*
X126843000Y-65909105D01*
X126843000Y-66678895D01*
X127137586Y-67390090D01*
X127681910Y-67934414D01*
X128393105Y-68229000D01*
X129162895Y-68229000D01*
X129498986Y-68089787D01*
X131997670Y-70588472D01*
X132014728Y-70614000D01*
X130557627Y-70614000D01*
X130418414Y-70277910D01*
X129874090Y-69733586D01*
X129162895Y-69439000D01*
X128393105Y-69439000D01*
X127681910Y-69733586D01*
X127137586Y-70277910D01*
X126843000Y-70989105D01*
X126843000Y-71758895D01*
X127137586Y-72470090D01*
X127681910Y-73014414D01*
X128393105Y-73309000D01*
X129162895Y-73309000D01*
X129874090Y-73014414D01*
X130418414Y-72470090D01*
X130557627Y-72134000D01*
X135735661Y-72134000D01*
X135754036Y-72161500D01*
X135595495Y-72398773D01*
X135529560Y-72730250D01*
X135529560Y-73167750D01*
X135595495Y-73499227D01*
X135783261Y-73780239D01*
X135797869Y-73790000D01*
X124210000Y-73790000D01*
X124210000Y-62583459D01*
X127588146Y-62583459D01*
X127723504Y-62881455D01*
X128441880Y-63158066D01*
X129211427Y-63138710D01*
X129832496Y-62881455D01*
X129967854Y-62583459D01*
X128778000Y-61393605D01*
X127588146Y-62583459D01*
X124210000Y-62583459D01*
X124210000Y-60877880D01*
X126833934Y-60877880D01*
X126853290Y-61647427D01*
X127110545Y-62268496D01*
X127408541Y-62403854D01*
X128598395Y-61214000D01*
X128957605Y-61214000D01*
X130147459Y-62403854D01*
X130445455Y-62268496D01*
X130722066Y-61550120D01*
X130702710Y-60780573D01*
X130445455Y-60159504D01*
X130147459Y-60024146D01*
X128957605Y-61214000D01*
X128598395Y-61214000D01*
X127408541Y-60024146D01*
X127110545Y-60159504D01*
X126833934Y-60877880D01*
X124210000Y-60877880D01*
X124210000Y-59844541D01*
X127588146Y-59844541D01*
X128778000Y-61034395D01*
X129967854Y-59844541D01*
X129832496Y-59546545D01*
X129114120Y-59269934D01*
X128344573Y-59289290D01*
X127723504Y-59546545D01*
X127588146Y-59844541D01*
X124210000Y-59844541D01*
X124210000Y-32210000D01*
X154539987Y-32210000D01*
X154456789Y-32410858D01*
G36*
X148771257Y-68422059D02*
X148640843Y-68617235D01*
X148591560Y-68865000D01*
X148591560Y-69350000D01*
X148300734Y-69350000D01*
X147883574Y-69522793D01*
X147564293Y-69842074D01*
X147539861Y-69901059D01*
X146994001Y-69355200D01*
X146994001Y-68679845D01*
X147008889Y-68604998D01*
X146994001Y-68530151D01*
X146994001Y-68530147D01*
X146949905Y-68308462D01*
X146781930Y-68057070D01*
X146718474Y-68014670D01*
X143836245Y-65132442D01*
X143922147Y-65046540D01*
X144133000Y-64537494D01*
X144133000Y-63986506D01*
X143989667Y-63640468D01*
X148771257Y-68422059D01*
X148771257Y-68422059D01*
G37*
X148771257Y-68422059D02*
X148640843Y-68617235D01*
X148591560Y-68865000D01*
X148591560Y-69350000D01*
X148300734Y-69350000D01*
X147883574Y-69522793D01*
X147564293Y-69842074D01*
X147539861Y-69901059D01*
X146994001Y-69355200D01*
X146994001Y-68679845D01*
X147008889Y-68604998D01*
X146994001Y-68530151D01*
X146994001Y-68530147D01*
X146949905Y-68308462D01*
X146781930Y-68057070D01*
X146718474Y-68014670D01*
X143836245Y-65132442D01*
X143922147Y-65046540D01*
X144133000Y-64537494D01*
X144133000Y-63986506D01*
X143989667Y-63640468D01*
X148771257Y-68422059D01*
G36*
X158897560Y-60950250D02*
X158963495Y-61281727D01*
X159151261Y-61562739D01*
X159423991Y-61744971D01*
X159472072Y-61816929D01*
X159535528Y-61859329D01*
X160352758Y-62676560D01*
X159822999Y-62676560D01*
X159479564Y-62744873D01*
X159188414Y-62939414D01*
X158993873Y-63230564D01*
X158925560Y-63573999D01*
X158925560Y-64356427D01*
X158630926Y-64061793D01*
X158213766Y-63889000D01*
X157762234Y-63889000D01*
X157345074Y-64061793D01*
X157317867Y-64089000D01*
X157070440Y-64089000D01*
X157070440Y-63573999D01*
X157002127Y-63230564D01*
X156807586Y-62939414D01*
X156795500Y-62931338D01*
X156795500Y-60706000D01*
X158897560Y-60706000D01*
X158897560Y-60950250D01*
X158897560Y-60950250D01*
G37*
X158897560Y-60950250D02*
X158963495Y-61281727D01*
X159151261Y-61562739D01*
X159423991Y-61744971D01*
X159472072Y-61816929D01*
X159535528Y-61859329D01*
X160352758Y-62676560D01*
X159822999Y-62676560D01*
X159479564Y-62744873D01*
X159188414Y-62939414D01*
X158993873Y-63230564D01*
X158925560Y-63573999D01*
X158925560Y-64356427D01*
X158630926Y-64061793D01*
X158213766Y-63889000D01*
X157762234Y-63889000D01*
X157345074Y-64061793D01*
X157317867Y-64089000D01*
X157070440Y-64089000D01*
X157070440Y-63573999D01*
X157002127Y-63230564D01*
X156807586Y-62939414D01*
X156795500Y-62931338D01*
X156795500Y-60706000D01*
X158897560Y-60706000D01*
X158897560Y-60950250D01*
G36*
X168019161Y-60777418D02*
X168347375Y-61268625D01*
X168647786Y-61469353D01*
X168222817Y-61856642D01*
X167976514Y-62381108D01*
X168097181Y-62611000D01*
X169291000Y-62611000D01*
X169291000Y-62591000D01*
X169545000Y-62591000D01*
X169545000Y-62611000D01*
X169565000Y-62611000D01*
X169565000Y-62865000D01*
X169545000Y-62865000D01*
X169545000Y-62885000D01*
X169291000Y-62885000D01*
X169291000Y-62865000D01*
X168097181Y-62865000D01*
X167976514Y-63094892D01*
X168222817Y-63619358D01*
X168651076Y-64009645D01*
X168995980Y-64152500D01*
X163293633Y-64152500D01*
X163266426Y-64125293D01*
X162849266Y-63952500D01*
X162558000Y-63952500D01*
X162558000Y-62062301D01*
X162803861Y-61816440D01*
X163070250Y-61816440D01*
X163401727Y-61750505D01*
X163682739Y-61562739D01*
X163870505Y-61281727D01*
X163923112Y-61017250D01*
X164498000Y-61017250D01*
X164498000Y-61295309D01*
X164594673Y-61528698D01*
X164773301Y-61707327D01*
X165006690Y-61804000D01*
X165322250Y-61804000D01*
X165481000Y-61645250D01*
X165481000Y-60858500D01*
X165735000Y-60858500D01*
X165735000Y-61645250D01*
X165893750Y-61804000D01*
X166209310Y-61804000D01*
X166442699Y-61707327D01*
X166621327Y-61528698D01*
X166718000Y-61295309D01*
X166718000Y-61017250D01*
X166559250Y-60858500D01*
X165735000Y-60858500D01*
X165481000Y-60858500D01*
X164656750Y-60858500D01*
X164498000Y-61017250D01*
X163923112Y-61017250D01*
X163936440Y-60950250D01*
X163936440Y-60706000D01*
X168004955Y-60706000D01*
X168019161Y-60777418D01*
X168019161Y-60777418D01*
G37*
X168019161Y-60777418D02*
X168347375Y-61268625D01*
X168647786Y-61469353D01*
X168222817Y-61856642D01*
X167976514Y-62381108D01*
X168097181Y-62611000D01*
X169291000Y-62611000D01*
X169291000Y-62591000D01*
X169545000Y-62591000D01*
X169545000Y-62611000D01*
X169565000Y-62611000D01*
X169565000Y-62865000D01*
X169545000Y-62865000D01*
X169545000Y-62885000D01*
X169291000Y-62885000D01*
X169291000Y-62865000D01*
X168097181Y-62865000D01*
X167976514Y-63094892D01*
X168222817Y-63619358D01*
X168651076Y-64009645D01*
X168995980Y-64152500D01*
X163293633Y-64152500D01*
X163266426Y-64125293D01*
X162849266Y-63952500D01*
X162558000Y-63952500D01*
X162558000Y-62062301D01*
X162803861Y-61816440D01*
X163070250Y-61816440D01*
X163401727Y-61750505D01*
X163682739Y-61562739D01*
X163870505Y-61281727D01*
X163923112Y-61017250D01*
X164498000Y-61017250D01*
X164498000Y-61295309D01*
X164594673Y-61528698D01*
X164773301Y-61707327D01*
X165006690Y-61804000D01*
X165322250Y-61804000D01*
X165481000Y-61645250D01*
X165481000Y-60858500D01*
X165735000Y-60858500D01*
X165735000Y-61645250D01*
X165893750Y-61804000D01*
X166209310Y-61804000D01*
X166442699Y-61707327D01*
X166621327Y-61528698D01*
X166718000Y-61295309D01*
X166718000Y-61017250D01*
X166559250Y-60858500D01*
X165735000Y-60858500D01*
X165481000Y-60858500D01*
X164656750Y-60858500D01*
X164498000Y-61017250D01*
X163923112Y-61017250D01*
X163936440Y-60950250D01*
X163936440Y-60706000D01*
X168004955Y-60706000D01*
X168019161Y-60777418D01*
G36*
X178709261Y-49545239D02*
X178990273Y-49733005D01*
X179321750Y-49798940D01*
X179834250Y-49798940D01*
X180165727Y-49733005D01*
X180290001Y-49649968D01*
X180290001Y-52658032D01*
X180165727Y-52574995D01*
X179834250Y-52509060D01*
X179321750Y-52509060D01*
X178990273Y-52574995D01*
X178709261Y-52762761D01*
X178661661Y-52834000D01*
X175936312Y-52834000D01*
X175926147Y-52809460D01*
X175536540Y-52419853D01*
X175027494Y-52209000D01*
X174476506Y-52209000D01*
X174451966Y-52219165D01*
X173383287Y-51150485D01*
X173467929Y-51093929D01*
X173510331Y-51030470D01*
X174451966Y-50088835D01*
X174476506Y-50099000D01*
X175027494Y-50099000D01*
X175536540Y-49888147D01*
X175926147Y-49498540D01*
X175936312Y-49474000D01*
X178661661Y-49474000D01*
X178709261Y-49545239D01*
X178709261Y-49545239D01*
G37*
X178709261Y-49545239D02*
X178990273Y-49733005D01*
X179321750Y-49798940D01*
X179834250Y-49798940D01*
X180165727Y-49733005D01*
X180290001Y-49649968D01*
X180290001Y-52658032D01*
X180165727Y-52574995D01*
X179834250Y-52509060D01*
X179321750Y-52509060D01*
X178990273Y-52574995D01*
X178709261Y-52762761D01*
X178661661Y-52834000D01*
X175936312Y-52834000D01*
X175926147Y-52809460D01*
X175536540Y-52419853D01*
X175027494Y-52209000D01*
X174476506Y-52209000D01*
X174451966Y-52219165D01*
X173383287Y-51150485D01*
X173467929Y-51093929D01*
X173510331Y-51030470D01*
X174451966Y-50088835D01*
X174476506Y-50099000D01*
X175027494Y-50099000D01*
X175536540Y-49888147D01*
X175926147Y-49498540D01*
X175936312Y-49474000D01*
X178661661Y-49474000D01*
X178709261Y-49545239D01*
G36*
X180290001Y-46112350D02*
X180179310Y-46066500D01*
X179863750Y-46066500D01*
X179705000Y-46225250D01*
X179705000Y-47012000D01*
X179725000Y-47012000D01*
X179725000Y-47266000D01*
X179705000Y-47266000D01*
X179705000Y-47286000D01*
X179451000Y-47286000D01*
X179451000Y-47266000D01*
X178626750Y-47266000D01*
X178468000Y-47424750D01*
X178468000Y-47702809D01*
X178564673Y-47936198D01*
X178582475Y-47954000D01*
X175936312Y-47954000D01*
X175926147Y-47929460D01*
X175536540Y-47539853D01*
X175027494Y-47329000D01*
X174476506Y-47329000D01*
X173967460Y-47539853D01*
X173577853Y-47929460D01*
X173367000Y-48438506D01*
X173367000Y-48989494D01*
X173377165Y-49014034D01*
X172605199Y-49786000D01*
X171145804Y-49786000D01*
X171666265Y-49265540D01*
X171729718Y-49223142D01*
X171772116Y-49159689D01*
X171772118Y-49159687D01*
X171897692Y-48971751D01*
X171897693Y-48971750D01*
X171941789Y-48750065D01*
X171941789Y-48750061D01*
X171956677Y-48675214D01*
X171941789Y-48600367D01*
X171941789Y-46575191D01*
X178468000Y-46575191D01*
X178468000Y-46853250D01*
X178626750Y-47012000D01*
X179451000Y-47012000D01*
X179451000Y-46225250D01*
X179292250Y-46066500D01*
X178976690Y-46066500D01*
X178743301Y-46163173D01*
X178564673Y-46341802D01*
X178468000Y-46575191D01*
X171941789Y-46575191D01*
X171941789Y-39745345D01*
X172252414Y-39537792D01*
X172580628Y-39046585D01*
X172695881Y-38467167D01*
X172580628Y-37887749D01*
X172252414Y-37396542D01*
X171954028Y-37197167D01*
X172252414Y-36997792D01*
X172580628Y-36506585D01*
X172695881Y-35927167D01*
X172580628Y-35347749D01*
X172252414Y-34856542D01*
X171954028Y-34657167D01*
X172252414Y-34457792D01*
X172580628Y-33966585D01*
X172695881Y-33387167D01*
X172580628Y-32807749D01*
X172252414Y-32316542D01*
X172092963Y-32210000D01*
X180290001Y-32210000D01*
X180290001Y-46112350D01*
X180290001Y-46112350D01*
G37*
X180290001Y-46112350D02*
X180179310Y-46066500D01*
X179863750Y-46066500D01*
X179705000Y-46225250D01*
X179705000Y-47012000D01*
X179725000Y-47012000D01*
X179725000Y-47266000D01*
X179705000Y-47266000D01*
X179705000Y-47286000D01*
X179451000Y-47286000D01*
X179451000Y-47266000D01*
X178626750Y-47266000D01*
X178468000Y-47424750D01*
X178468000Y-47702809D01*
X178564673Y-47936198D01*
X178582475Y-47954000D01*
X175936312Y-47954000D01*
X175926147Y-47929460D01*
X175536540Y-47539853D01*
X175027494Y-47329000D01*
X174476506Y-47329000D01*
X173967460Y-47539853D01*
X173577853Y-47929460D01*
X173367000Y-48438506D01*
X173367000Y-48989494D01*
X173377165Y-49014034D01*
X172605199Y-49786000D01*
X171145804Y-49786000D01*
X171666265Y-49265540D01*
X171729718Y-49223142D01*
X171772116Y-49159689D01*
X171772118Y-49159687D01*
X171897692Y-48971751D01*
X171897693Y-48971750D01*
X171941789Y-48750065D01*
X171941789Y-48750061D01*
X171956677Y-48675214D01*
X171941789Y-48600367D01*
X171941789Y-46575191D01*
X178468000Y-46575191D01*
X178468000Y-46853250D01*
X178626750Y-47012000D01*
X179451000Y-47012000D01*
X179451000Y-46225250D01*
X179292250Y-46066500D01*
X178976690Y-46066500D01*
X178743301Y-46163173D01*
X178564673Y-46341802D01*
X178468000Y-46575191D01*
X171941789Y-46575191D01*
X171941789Y-39745345D01*
X172252414Y-39537792D01*
X172580628Y-39046585D01*
X172695881Y-38467167D01*
X172580628Y-37887749D01*
X172252414Y-37396542D01*
X171954028Y-37197167D01*
X172252414Y-36997792D01*
X172580628Y-36506585D01*
X172695881Y-35927167D01*
X172580628Y-35347749D01*
X172252414Y-34856542D01*
X171954028Y-34657167D01*
X172252414Y-34457792D01*
X172580628Y-33966585D01*
X172695881Y-33387167D01*
X172580628Y-32807749D01*
X172252414Y-32316542D01*
X172092963Y-32210000D01*
X180290001Y-32210000D01*
X180290001Y-46112350D01*
G36*
X170111164Y-39537792D02*
X170421790Y-39745346D01*
X170421790Y-43202793D01*
X170309995Y-43180007D01*
X167536000Y-43166922D01*
X167536000Y-42651525D01*
X167553802Y-42669327D01*
X167787191Y-42766000D01*
X168065250Y-42766000D01*
X168224000Y-42607250D01*
X168224000Y-41783000D01*
X168478000Y-41783000D01*
X168478000Y-42607250D01*
X168636750Y-42766000D01*
X168914809Y-42766000D01*
X169148198Y-42669327D01*
X169326827Y-42490699D01*
X169423500Y-42257310D01*
X169423500Y-41941750D01*
X169264750Y-41783000D01*
X168478000Y-41783000D01*
X168224000Y-41783000D01*
X168204000Y-41783000D01*
X168204000Y-41529000D01*
X168224000Y-41529000D01*
X168224000Y-40704750D01*
X168478000Y-40704750D01*
X168478000Y-41529000D01*
X169264750Y-41529000D01*
X169423500Y-41370250D01*
X169423500Y-41054690D01*
X169326827Y-40821301D01*
X169148198Y-40642673D01*
X168914809Y-40546000D01*
X168636750Y-40546000D01*
X168478000Y-40704750D01*
X168224000Y-40704750D01*
X168065250Y-40546000D01*
X167787191Y-40546000D01*
X167553802Y-40642673D01*
X167488531Y-40707943D01*
X167326227Y-40599495D01*
X166994750Y-40533560D01*
X166557250Y-40533560D01*
X166225773Y-40599495D01*
X165944761Y-40787261D01*
X165756995Y-41068273D01*
X165691060Y-41399750D01*
X165691060Y-41912250D01*
X165724726Y-42081500D01*
X165719626Y-42081500D01*
X165339220Y-42239069D01*
X165136000Y-42442289D01*
X165136000Y-40507757D01*
X165735381Y-39908376D01*
X165955533Y-39952167D01*
X166248045Y-39952167D01*
X166681207Y-39866006D01*
X167172414Y-39537792D01*
X167371789Y-39239406D01*
X167571164Y-39537792D01*
X168062371Y-39866006D01*
X168495533Y-39952167D01*
X168788045Y-39952167D01*
X169221207Y-39866006D01*
X169712414Y-39537792D01*
X169911789Y-39239406D01*
X170111164Y-39537792D01*
X170111164Y-39537792D01*
G37*
X170111164Y-39537792D02*
X170421790Y-39745346D01*
X170421790Y-43202793D01*
X170309995Y-43180007D01*
X167536000Y-43166922D01*
X167536000Y-42651525D01*
X167553802Y-42669327D01*
X167787191Y-42766000D01*
X168065250Y-42766000D01*
X168224000Y-42607250D01*
X168224000Y-41783000D01*
X168478000Y-41783000D01*
X168478000Y-42607250D01*
X168636750Y-42766000D01*
X168914809Y-42766000D01*
X169148198Y-42669327D01*
X169326827Y-42490699D01*
X169423500Y-42257310D01*
X169423500Y-41941750D01*
X169264750Y-41783000D01*
X168478000Y-41783000D01*
X168224000Y-41783000D01*
X168204000Y-41783000D01*
X168204000Y-41529000D01*
X168224000Y-41529000D01*
X168224000Y-40704750D01*
X168478000Y-40704750D01*
X168478000Y-41529000D01*
X169264750Y-41529000D01*
X169423500Y-41370250D01*
X169423500Y-41054690D01*
X169326827Y-40821301D01*
X169148198Y-40642673D01*
X168914809Y-40546000D01*
X168636750Y-40546000D01*
X168478000Y-40704750D01*
X168224000Y-40704750D01*
X168065250Y-40546000D01*
X167787191Y-40546000D01*
X167553802Y-40642673D01*
X167488531Y-40707943D01*
X167326227Y-40599495D01*
X166994750Y-40533560D01*
X166557250Y-40533560D01*
X166225773Y-40599495D01*
X165944761Y-40787261D01*
X165756995Y-41068273D01*
X165691060Y-41399750D01*
X165691060Y-41912250D01*
X165724726Y-42081500D01*
X165719626Y-42081500D01*
X165339220Y-42239069D01*
X165136000Y-42442289D01*
X165136000Y-40507757D01*
X165735381Y-39908376D01*
X165955533Y-39952167D01*
X166248045Y-39952167D01*
X166681207Y-39866006D01*
X167172414Y-39537792D01*
X167371789Y-39239406D01*
X167571164Y-39537792D01*
X168062371Y-39866006D01*
X168495533Y-39952167D01*
X168788045Y-39952167D01*
X169221207Y-39866006D01*
X169712414Y-39537792D01*
X169911789Y-39239406D01*
X170111164Y-39537792D01*
G36*
X154444349Y-39317167D02*
X154493632Y-39564932D01*
X154633980Y-39774976D01*
X154844024Y-39915324D01*
X155091789Y-39964607D01*
X156791789Y-39964607D01*
X157039554Y-39915324D01*
X157249598Y-39774976D01*
X157389946Y-39564932D01*
X157398973Y-39519548D01*
X157411164Y-39537792D01*
X157721790Y-39745346D01*
X157721789Y-43120629D01*
X156847995Y-43116507D01*
X156845000Y-43116500D01*
X146431002Y-43116500D01*
X146431002Y-42976156D01*
X146660890Y-43097476D01*
X147070924Y-42927645D01*
X147499183Y-42537358D01*
X147745486Y-42012892D01*
X147624819Y-41783000D01*
X146431000Y-41783000D01*
X146431000Y-41803000D01*
X146177000Y-41803000D01*
X146177000Y-41783000D01*
X146157000Y-41783000D01*
X146157000Y-41529000D01*
X146177000Y-41529000D01*
X146177000Y-40335845D01*
X146431000Y-40335845D01*
X146431000Y-41529000D01*
X147624819Y-41529000D01*
X147745486Y-41299108D01*
X147499183Y-40774642D01*
X147070924Y-40384355D01*
X146660890Y-40214524D01*
X146431000Y-40335845D01*
X146177000Y-40335845D01*
X145947110Y-40214524D01*
X145537076Y-40384355D01*
X145108817Y-40774642D01*
X145047843Y-40904478D01*
X144834625Y-40585375D01*
X144343418Y-40257161D01*
X143910256Y-40171000D01*
X143617744Y-40171000D01*
X143184582Y-40257161D01*
X142693375Y-40585375D01*
X142494000Y-40883761D01*
X142294625Y-40585375D01*
X141803418Y-40257161D01*
X141370256Y-40171000D01*
X141077744Y-40171000D01*
X140644582Y-40257161D01*
X140153375Y-40585375D01*
X139954000Y-40883761D01*
X139754625Y-40585375D01*
X139263418Y-40257161D01*
X138830256Y-40171000D01*
X138703801Y-40171000D01*
X141012634Y-37862168D01*
X154444349Y-37862168D01*
X154444349Y-39317167D01*
X154444349Y-39317167D01*
G37*
X154444349Y-39317167D02*
X154493632Y-39564932D01*
X154633980Y-39774976D01*
X154844024Y-39915324D01*
X155091789Y-39964607D01*
X156791789Y-39964607D01*
X157039554Y-39915324D01*
X157249598Y-39774976D01*
X157389946Y-39564932D01*
X157398973Y-39519548D01*
X157411164Y-39537792D01*
X157721790Y-39745346D01*
X157721789Y-43120629D01*
X156847995Y-43116507D01*
X156845000Y-43116500D01*
X146431002Y-43116500D01*
X146431002Y-42976156D01*
X146660890Y-43097476D01*
X147070924Y-42927645D01*
X147499183Y-42537358D01*
X147745486Y-42012892D01*
X147624819Y-41783000D01*
X146431000Y-41783000D01*
X146431000Y-41803000D01*
X146177000Y-41803000D01*
X146177000Y-41783000D01*
X146157000Y-41783000D01*
X146157000Y-41529000D01*
X146177000Y-41529000D01*
X146177000Y-40335845D01*
X146431000Y-40335845D01*
X146431000Y-41529000D01*
X147624819Y-41529000D01*
X147745486Y-41299108D01*
X147499183Y-40774642D01*
X147070924Y-40384355D01*
X146660890Y-40214524D01*
X146431000Y-40335845D01*
X146177000Y-40335845D01*
X145947110Y-40214524D01*
X145537076Y-40384355D01*
X145108817Y-40774642D01*
X145047843Y-40904478D01*
X144834625Y-40585375D01*
X144343418Y-40257161D01*
X143910256Y-40171000D01*
X143617744Y-40171000D01*
X143184582Y-40257161D01*
X142693375Y-40585375D01*
X142494000Y-40883761D01*
X142294625Y-40585375D01*
X141803418Y-40257161D01*
X141370256Y-40171000D01*
X141077744Y-40171000D01*
X140644582Y-40257161D01*
X140153375Y-40585375D01*
X139954000Y-40883761D01*
X139754625Y-40585375D01*
X139263418Y-40257161D01*
X138830256Y-40171000D01*
X138703801Y-40171000D01*
X141012634Y-37862168D01*
X154444349Y-37862168D01*
X154444349Y-39317167D01*
G36*
X136510408Y-40214791D02*
X136290256Y-40171000D01*
X135997744Y-40171000D01*
X135564582Y-40257161D01*
X135509000Y-40294300D01*
X135509000Y-39973289D01*
X138620123Y-36862167D01*
X139863031Y-36862167D01*
X136510408Y-40214791D01*
X136510408Y-40214791D01*
G37*
X136510408Y-40214791D02*
X136290256Y-40171000D01*
X135997744Y-40171000D01*
X135564582Y-40257161D01*
X135509000Y-40294300D01*
X135509000Y-39973289D01*
X138620123Y-36862167D01*
X139863031Y-36862167D01*
X136510408Y-40214791D01*
G04 #@! TD*
M02*
