G04 #@! TF.GenerationSoftware,KiCad,Pcbnew,(5.0.1)-4*
G04 #@! TF.CreationDate,2019-07-04T23:41:43-04:00*
G04 #@! TF.ProjectId,Receiver Board,526563656976657220426F6172642E6B,rev?*
G04 #@! TF.SameCoordinates,Original*
G04 #@! TF.FileFunction,Soldermask,Top*
G04 #@! TF.FilePolarity,Negative*
%FSLAX46Y46*%
G04 Gerber Fmt 4.6, Leading zero omitted, Abs format (unit mm)*
G04 Created by KiCad (PCBNEW (5.0.1)-4) date 7/4/2019 11:41:43 PM*
%MOMM*%
%LPD*%
G01*
G04 APERTURE LIST*
%ADD10C,0.100000*%
G04 APERTURE END LIST*
D10*
G36*
X158323862Y-72054398D02*
X158336114Y-72055000D01*
X159549000Y-72055000D01*
X159549000Y-74057000D01*
X158336114Y-74057000D01*
X158323862Y-74057602D01*
X158298000Y-74060149D01*
X158272138Y-74057602D01*
X158259886Y-74057000D01*
X158186593Y-74057000D01*
X158169835Y-74048043D01*
X158158292Y-74043913D01*
X158095118Y-74024749D01*
X158047667Y-74010355D01*
X157934576Y-73949906D01*
X157934574Y-73949905D01*
X157835447Y-73868553D01*
X157754095Y-73769425D01*
X157693646Y-73656333D01*
X157693645Y-73656332D01*
X157681237Y-73615426D01*
X157656420Y-73533617D01*
X157647000Y-73437972D01*
X157647000Y-72674027D01*
X157656420Y-72578382D01*
X157658074Y-72572931D01*
X157682735Y-72491633D01*
X157693645Y-72455668D01*
X157754096Y-72342574D01*
X157835448Y-72243447D01*
X157934575Y-72162095D01*
X158047669Y-72101645D01*
X158158295Y-72068087D01*
X158180924Y-72058714D01*
X158186482Y-72055000D01*
X158259886Y-72055000D01*
X158272138Y-72054398D01*
X158298000Y-72051851D01*
X158323862Y-72054398D01*
X158323862Y-72054398D01*
G37*
G36*
X165323862Y-72054398D02*
X165336114Y-72055000D01*
X165409405Y-72055000D01*
X165426165Y-72063958D01*
X165437695Y-72068084D01*
X165548331Y-72101645D01*
X165661425Y-72162095D01*
X165661427Y-72162096D01*
X165661426Y-72162096D01*
X165750523Y-72235215D01*
X165760553Y-72243447D01*
X165841905Y-72342574D01*
X165841906Y-72342576D01*
X165902355Y-72455667D01*
X165908187Y-72474893D01*
X165939580Y-72578382D01*
X165949000Y-72674027D01*
X165949000Y-73437973D01*
X165939580Y-73533618D01*
X165936127Y-73545000D01*
X165902355Y-73656333D01*
X165848819Y-73756491D01*
X165841905Y-73769426D01*
X165760553Y-73868553D01*
X165661426Y-73949905D01*
X165661424Y-73949906D01*
X165548333Y-74010355D01*
X165500882Y-74024749D01*
X165437711Y-74043912D01*
X165415076Y-74053288D01*
X165409520Y-74057000D01*
X165336114Y-74057000D01*
X165323862Y-74057602D01*
X165298000Y-74060149D01*
X165272138Y-74057602D01*
X165259886Y-74057000D01*
X164047000Y-74057000D01*
X164047000Y-72055000D01*
X165259886Y-72055000D01*
X165272138Y-72054398D01*
X165298000Y-72051851D01*
X165323862Y-72054398D01*
X165323862Y-72054398D01*
G37*
G36*
X161599000Y-74057000D02*
X159997000Y-74057000D01*
X159997000Y-72055000D01*
X161599000Y-72055000D01*
X161599000Y-74057000D01*
X161599000Y-74057000D01*
G37*
G36*
X163599000Y-74057000D02*
X161997000Y-74057000D01*
X161997000Y-72055000D01*
X163599000Y-72055000D01*
X163599000Y-74057000D01*
X163599000Y-74057000D01*
G37*
G36*
X141617000Y-73545000D02*
X139815000Y-73545000D01*
X139815000Y-71743000D01*
X141617000Y-71743000D01*
X141617000Y-73545000D01*
X141617000Y-73545000D01*
G37*
G36*
X137031591Y-72464585D02*
X137065569Y-72474893D01*
X137096887Y-72491633D01*
X137124339Y-72514161D01*
X137146867Y-72541613D01*
X137163607Y-72572931D01*
X137173915Y-72606909D01*
X137178000Y-72648390D01*
X137178000Y-73249610D01*
X137173915Y-73291091D01*
X137163607Y-73325069D01*
X137146867Y-73356387D01*
X137124339Y-73383839D01*
X137096887Y-73406367D01*
X137065569Y-73423107D01*
X137031591Y-73433415D01*
X136990110Y-73437500D01*
X136313890Y-73437500D01*
X136272409Y-73433415D01*
X136238431Y-73423107D01*
X136207113Y-73406367D01*
X136179661Y-73383839D01*
X136157133Y-73356387D01*
X136140393Y-73325069D01*
X136130085Y-73291091D01*
X136126000Y-73249610D01*
X136126000Y-72648390D01*
X136130085Y-72606909D01*
X136140393Y-72572931D01*
X136157133Y-72541613D01*
X136179661Y-72514161D01*
X136207113Y-72491633D01*
X136238431Y-72474893D01*
X136272409Y-72464585D01*
X136313890Y-72460500D01*
X136990110Y-72460500D01*
X137031591Y-72464585D01*
X137031591Y-72464585D01*
G37*
G36*
X150890000Y-73426000D02*
X149188000Y-73426000D01*
X149188000Y-72624000D01*
X150890000Y-72624000D01*
X150890000Y-73426000D01*
X150890000Y-73426000D01*
G37*
G36*
X145960000Y-73426000D02*
X144258000Y-73426000D01*
X144258000Y-72624000D01*
X145960000Y-72624000D01*
X145960000Y-73426000D01*
X145960000Y-73426000D01*
G37*
G36*
X128990087Y-70038719D02*
X129172072Y-70074918D01*
X129417939Y-70176759D01*
X129573384Y-70280625D01*
X129639215Y-70324612D01*
X129827388Y-70512785D01*
X129827390Y-70512788D01*
X129975241Y-70734061D01*
X130077082Y-70979928D01*
X130129000Y-71240938D01*
X130129000Y-71507062D01*
X130077082Y-71768072D01*
X129975241Y-72013939D01*
X129827890Y-72234464D01*
X129827388Y-72235215D01*
X129639215Y-72423388D01*
X129639212Y-72423390D01*
X129417939Y-72571241D01*
X129172072Y-72673082D01*
X129041567Y-72699041D01*
X128911063Y-72725000D01*
X128644937Y-72725000D01*
X128514433Y-72699041D01*
X128383928Y-72673082D01*
X128138061Y-72571241D01*
X127916788Y-72423390D01*
X127916785Y-72423388D01*
X127728612Y-72235215D01*
X127728110Y-72234464D01*
X127580759Y-72013939D01*
X127478918Y-71768072D01*
X127427000Y-71507062D01*
X127427000Y-71240938D01*
X127478918Y-70979928D01*
X127580759Y-70734061D01*
X127728610Y-70512788D01*
X127728612Y-70512785D01*
X127916785Y-70324612D01*
X127982616Y-70280625D01*
X128138061Y-70176759D01*
X128383928Y-70074918D01*
X128565913Y-70038719D01*
X128644937Y-70023000D01*
X128911063Y-70023000D01*
X128990087Y-70038719D01*
X128990087Y-70038719D01*
G37*
G36*
X177526000Y-72547000D02*
X175874000Y-72547000D01*
X175874000Y-71145000D01*
X177526000Y-71145000D01*
X177526000Y-72547000D01*
X177526000Y-72547000D01*
G37*
G36*
X169566000Y-72547000D02*
X167914000Y-72547000D01*
X167914000Y-71145000D01*
X169566000Y-71145000D01*
X169566000Y-72547000D01*
X169566000Y-72547000D01*
G37*
G36*
X150890000Y-72156000D02*
X149188000Y-72156000D01*
X149188000Y-71354000D01*
X150890000Y-71354000D01*
X150890000Y-72156000D01*
X150890000Y-72156000D01*
G37*
G36*
X145960000Y-72156000D02*
X144258000Y-72156000D01*
X144258000Y-71354000D01*
X145960000Y-71354000D01*
X145960000Y-72156000D01*
X145960000Y-72156000D01*
G37*
G36*
X137031591Y-70889585D02*
X137065569Y-70899893D01*
X137096887Y-70916633D01*
X137124339Y-70939161D01*
X137146867Y-70966613D01*
X137163607Y-70997931D01*
X137173915Y-71031909D01*
X137178000Y-71073390D01*
X137178000Y-71674610D01*
X137173915Y-71716091D01*
X137163607Y-71750069D01*
X137146867Y-71781387D01*
X137124339Y-71808839D01*
X137096887Y-71831367D01*
X137065569Y-71848107D01*
X137031591Y-71858415D01*
X136990110Y-71862500D01*
X136313890Y-71862500D01*
X136272409Y-71858415D01*
X136238431Y-71848107D01*
X136207113Y-71831367D01*
X136179661Y-71808839D01*
X136157133Y-71781387D01*
X136140393Y-71750069D01*
X136130085Y-71716091D01*
X136126000Y-71674610D01*
X136126000Y-71073390D01*
X136130085Y-71031909D01*
X136140393Y-70997931D01*
X136157133Y-70966613D01*
X136179661Y-70939161D01*
X136207113Y-70916633D01*
X136238431Y-70899893D01*
X136272409Y-70889585D01*
X136313890Y-70885500D01*
X136990110Y-70885500D01*
X137031591Y-70889585D01*
X137031591Y-70889585D01*
G37*
G36*
X159524349Y-69609820D02*
X159524352Y-69609821D01*
X159524351Y-69609821D01*
X159665574Y-69668317D01*
X159665575Y-69668318D01*
X159792674Y-69753243D01*
X159900757Y-69861326D01*
X159900759Y-69861329D01*
X159985683Y-69988426D01*
X159986701Y-69990884D01*
X160006515Y-70038720D01*
X160018067Y-70060331D01*
X160033612Y-70079273D01*
X160052554Y-70094818D01*
X160074165Y-70106369D01*
X160097614Y-70113482D01*
X160122000Y-70115884D01*
X160146387Y-70113482D01*
X160169836Y-70106369D01*
X160191447Y-70094817D01*
X160210389Y-70079272D01*
X160225934Y-70060330D01*
X160237485Y-70038719D01*
X160244598Y-70015270D01*
X160247000Y-69990884D01*
X160247000Y-69630000D01*
X163349000Y-69630000D01*
X163349000Y-69990884D01*
X163351402Y-70015270D01*
X163358515Y-70038719D01*
X163370066Y-70060330D01*
X163385612Y-70079272D01*
X163404554Y-70094818D01*
X163426165Y-70106369D01*
X163449614Y-70113482D01*
X163474000Y-70115884D01*
X163498386Y-70113482D01*
X163521835Y-70106369D01*
X163543446Y-70094818D01*
X163562388Y-70079272D01*
X163577934Y-70060330D01*
X163589485Y-70038720D01*
X163609299Y-69990884D01*
X163610317Y-69988426D01*
X163695241Y-69861329D01*
X163695243Y-69861326D01*
X163803326Y-69753243D01*
X163930425Y-69668318D01*
X163930426Y-69668317D01*
X164071649Y-69609821D01*
X164071648Y-69609821D01*
X164071651Y-69609820D01*
X164221569Y-69580000D01*
X164374431Y-69580000D01*
X164524349Y-69609820D01*
X164524352Y-69609821D01*
X164524351Y-69609821D01*
X164665574Y-69668317D01*
X164665575Y-69668318D01*
X164792674Y-69753243D01*
X164900757Y-69861326D01*
X164900759Y-69861329D01*
X164985683Y-69988426D01*
X164986701Y-69990884D01*
X165044180Y-70129651D01*
X165074000Y-70279569D01*
X165074000Y-70432431D01*
X165044180Y-70582349D01*
X165034536Y-70605631D01*
X164985683Y-70723574D01*
X164978674Y-70734063D01*
X164900757Y-70850674D01*
X164792674Y-70958757D01*
X164792671Y-70958759D01*
X164665574Y-71043683D01*
X164593854Y-71073390D01*
X164524349Y-71102180D01*
X164374431Y-71132000D01*
X164221569Y-71132000D01*
X164071651Y-71102180D01*
X164002146Y-71073390D01*
X163930426Y-71043683D01*
X163803329Y-70958759D01*
X163803326Y-70958757D01*
X163695243Y-70850674D01*
X163617326Y-70734063D01*
X163610317Y-70723574D01*
X163589484Y-70673278D01*
X163577933Y-70651669D01*
X163562388Y-70632727D01*
X163543446Y-70617182D01*
X163521835Y-70605631D01*
X163498386Y-70598518D01*
X163474000Y-70596116D01*
X163449613Y-70598518D01*
X163426164Y-70605631D01*
X163404553Y-70617183D01*
X163385611Y-70632728D01*
X163370066Y-70651670D01*
X163358515Y-70673281D01*
X163351402Y-70696730D01*
X163349000Y-70721116D01*
X163349000Y-71082000D01*
X160247000Y-71082000D01*
X160247000Y-70721116D01*
X160244598Y-70696730D01*
X160237485Y-70673281D01*
X160225934Y-70651670D01*
X160210388Y-70632728D01*
X160191446Y-70617182D01*
X160169835Y-70605631D01*
X160146386Y-70598518D01*
X160122000Y-70596116D01*
X160097614Y-70598518D01*
X160074165Y-70605631D01*
X160052554Y-70617182D01*
X160033612Y-70632728D01*
X160018066Y-70651670D01*
X160006516Y-70673278D01*
X159985683Y-70723574D01*
X159978674Y-70734063D01*
X159900757Y-70850674D01*
X159792674Y-70958757D01*
X159792671Y-70958759D01*
X159665574Y-71043683D01*
X159593854Y-71073390D01*
X159524349Y-71102180D01*
X159374431Y-71132000D01*
X159221569Y-71132000D01*
X159071651Y-71102180D01*
X159002146Y-71073390D01*
X158930426Y-71043683D01*
X158803329Y-70958759D01*
X158803326Y-70958757D01*
X158695243Y-70850674D01*
X158617326Y-70734063D01*
X158610317Y-70723574D01*
X158561464Y-70605631D01*
X158551820Y-70582349D01*
X158522000Y-70432431D01*
X158522000Y-70279569D01*
X158551820Y-70129651D01*
X158609299Y-69990884D01*
X158610317Y-69988426D01*
X158695241Y-69861329D01*
X158695243Y-69861326D01*
X158803326Y-69753243D01*
X158930425Y-69668318D01*
X158930426Y-69668317D01*
X159071649Y-69609821D01*
X159071648Y-69609821D01*
X159071651Y-69609820D01*
X159221569Y-69580000D01*
X159374431Y-69580000D01*
X159524349Y-69609820D01*
X159524349Y-69609820D01*
G37*
G36*
X140826443Y-69209519D02*
X140892627Y-69216037D01*
X141005853Y-69250384D01*
X141062467Y-69267557D01*
X141201087Y-69341652D01*
X141218991Y-69351222D01*
X141254729Y-69380552D01*
X141356186Y-69463814D01*
X141439448Y-69565271D01*
X141468778Y-69601009D01*
X141468779Y-69601011D01*
X141552443Y-69757533D01*
X141552443Y-69757534D01*
X141603963Y-69927373D01*
X141621359Y-70104000D01*
X141603963Y-70280627D01*
X141590621Y-70324610D01*
X141552443Y-70450467D01*
X141519133Y-70512785D01*
X141468778Y-70606991D01*
X141447657Y-70632727D01*
X141356186Y-70744186D01*
X141254729Y-70827448D01*
X141218991Y-70856778D01*
X141218989Y-70856779D01*
X141062467Y-70940443D01*
X141007756Y-70957039D01*
X140892627Y-70991963D01*
X140832032Y-70997931D01*
X140760260Y-71005000D01*
X140671740Y-71005000D01*
X140599968Y-70997931D01*
X140539373Y-70991963D01*
X140424244Y-70957039D01*
X140369533Y-70940443D01*
X140213011Y-70856779D01*
X140213009Y-70856778D01*
X140177271Y-70827448D01*
X140075814Y-70744186D01*
X139984343Y-70632727D01*
X139963222Y-70606991D01*
X139912867Y-70512785D01*
X139879557Y-70450467D01*
X139841379Y-70324610D01*
X139828037Y-70280627D01*
X139810641Y-70104000D01*
X139828037Y-69927373D01*
X139879557Y-69757534D01*
X139879557Y-69757533D01*
X139963221Y-69601011D01*
X139963222Y-69601009D01*
X139992552Y-69565271D01*
X140075814Y-69463814D01*
X140177271Y-69380552D01*
X140213009Y-69351222D01*
X140230913Y-69341652D01*
X140369533Y-69267557D01*
X140426147Y-69250384D01*
X140539373Y-69216037D01*
X140605557Y-69209519D01*
X140671740Y-69203000D01*
X140760260Y-69203000D01*
X140826443Y-69209519D01*
X140826443Y-69209519D01*
G37*
G36*
X145960000Y-70886000D02*
X144258000Y-70886000D01*
X144258000Y-70084000D01*
X145960000Y-70084000D01*
X145960000Y-70886000D01*
X145960000Y-70886000D01*
G37*
G36*
X150890000Y-70886000D02*
X149188000Y-70886000D01*
X149188000Y-70084000D01*
X150890000Y-70084000D01*
X150890000Y-70886000D01*
X150890000Y-70886000D01*
G37*
G36*
X150890000Y-69616000D02*
X149188000Y-69616000D01*
X149188000Y-68814000D01*
X150890000Y-68814000D01*
X150890000Y-69616000D01*
X150890000Y-69616000D01*
G37*
G36*
X145960000Y-69616000D02*
X144258000Y-69616000D01*
X144258000Y-68814000D01*
X145960000Y-68814000D01*
X145960000Y-69616000D01*
X145960000Y-69616000D01*
G37*
G36*
X169566000Y-68047000D02*
X167914000Y-68047000D01*
X167914000Y-66645000D01*
X169566000Y-66645000D01*
X169566000Y-68047000D01*
X169566000Y-68047000D01*
G37*
G36*
X177526000Y-68047000D02*
X175874000Y-68047000D01*
X175874000Y-66645000D01*
X177526000Y-66645000D01*
X177526000Y-68047000D01*
X177526000Y-68047000D01*
G37*
G36*
X129041567Y-64968959D02*
X129172072Y-64994918D01*
X129417939Y-65096759D01*
X129638464Y-65244110D01*
X129639215Y-65244612D01*
X129827388Y-65432785D01*
X129827390Y-65432788D01*
X129975241Y-65654061D01*
X130077082Y-65899928D01*
X130077082Y-65899929D01*
X130122628Y-66128901D01*
X130129000Y-66160938D01*
X130129000Y-66427062D01*
X130077082Y-66688072D01*
X129975241Y-66933939D01*
X129827890Y-67154464D01*
X129827388Y-67155215D01*
X129639215Y-67343388D01*
X129639212Y-67343390D01*
X129417939Y-67491241D01*
X129172072Y-67593082D01*
X129041567Y-67619041D01*
X128911063Y-67645000D01*
X128644937Y-67645000D01*
X128514433Y-67619041D01*
X128383928Y-67593082D01*
X128138061Y-67491241D01*
X127916788Y-67343390D01*
X127916785Y-67343388D01*
X127728612Y-67155215D01*
X127728110Y-67154464D01*
X127580759Y-66933939D01*
X127478918Y-66688072D01*
X127427000Y-66427062D01*
X127427000Y-66160938D01*
X127433373Y-66128901D01*
X127478918Y-65899929D01*
X127478918Y-65899928D01*
X127580759Y-65654061D01*
X127728610Y-65432788D01*
X127728612Y-65432785D01*
X127916785Y-65244612D01*
X127917536Y-65244110D01*
X128138061Y-65096759D01*
X128383928Y-64994918D01*
X128514433Y-64968959D01*
X128644937Y-64943000D01*
X128911063Y-64943000D01*
X129041567Y-64968959D01*
X129041567Y-64968959D01*
G37*
G36*
X160585308Y-63277498D02*
X160623317Y-63289028D01*
X160658348Y-63307753D01*
X160689050Y-63332950D01*
X160714247Y-63363652D01*
X160732972Y-63398683D01*
X160744502Y-63436692D01*
X160749000Y-63482362D01*
X160749000Y-66565638D01*
X160744502Y-66611308D01*
X160732972Y-66649317D01*
X160714247Y-66684348D01*
X160689050Y-66715050D01*
X160658348Y-66740247D01*
X160623317Y-66758972D01*
X160585308Y-66770502D01*
X160539638Y-66775000D01*
X159731362Y-66775000D01*
X159685692Y-66770502D01*
X159647683Y-66758972D01*
X159612652Y-66740247D01*
X159581950Y-66715050D01*
X159556753Y-66684348D01*
X159538028Y-66649317D01*
X159526498Y-66611308D01*
X159522000Y-66565638D01*
X159522000Y-63482362D01*
X159526498Y-63436692D01*
X159538028Y-63398683D01*
X159556753Y-63363652D01*
X159581950Y-63332950D01*
X159612652Y-63307753D01*
X159647683Y-63289028D01*
X159685692Y-63277498D01*
X159731362Y-63273000D01*
X160539638Y-63273000D01*
X160585308Y-63277498D01*
X160585308Y-63277498D01*
G37*
G36*
X156310308Y-63277498D02*
X156348317Y-63289028D01*
X156383348Y-63307753D01*
X156414050Y-63332950D01*
X156439247Y-63363652D01*
X156457972Y-63398683D01*
X156469502Y-63436692D01*
X156474000Y-63482362D01*
X156474000Y-66565638D01*
X156469502Y-66611308D01*
X156457972Y-66649317D01*
X156439247Y-66684348D01*
X156414050Y-66715050D01*
X156383348Y-66740247D01*
X156348317Y-66758972D01*
X156310308Y-66770502D01*
X156264638Y-66775000D01*
X155456362Y-66775000D01*
X155410692Y-66770502D01*
X155372683Y-66758972D01*
X155337652Y-66740247D01*
X155306950Y-66715050D01*
X155281753Y-66684348D01*
X155263028Y-66649317D01*
X155251498Y-66611308D01*
X155247000Y-66565638D01*
X155247000Y-63482362D01*
X155251498Y-63436692D01*
X155263028Y-63398683D01*
X155281753Y-63363652D01*
X155306950Y-63332950D01*
X155337652Y-63307753D01*
X155372683Y-63289028D01*
X155410692Y-63277498D01*
X155456362Y-63273000D01*
X156264638Y-63273000D01*
X156310308Y-63277498D01*
X156310308Y-63277498D01*
G37*
G36*
X137539591Y-65352585D02*
X137573569Y-65362893D01*
X137604887Y-65379633D01*
X137632339Y-65402161D01*
X137654867Y-65429613D01*
X137671607Y-65460931D01*
X137681915Y-65494909D01*
X137686000Y-65536390D01*
X137686000Y-66137610D01*
X137681915Y-66179091D01*
X137671607Y-66213069D01*
X137654867Y-66244387D01*
X137632339Y-66271839D01*
X137604887Y-66294367D01*
X137573569Y-66311107D01*
X137539591Y-66321415D01*
X137498110Y-66325500D01*
X136821890Y-66325500D01*
X136780409Y-66321415D01*
X136746431Y-66311107D01*
X136715113Y-66294367D01*
X136687661Y-66271839D01*
X136665133Y-66244387D01*
X136648393Y-66213069D01*
X136638085Y-66179091D01*
X136634000Y-66137610D01*
X136634000Y-65536390D01*
X136638085Y-65494909D01*
X136648393Y-65460931D01*
X136665133Y-65429613D01*
X136687661Y-65402161D01*
X136715113Y-65379633D01*
X136746431Y-65362893D01*
X136780409Y-65352585D01*
X136821890Y-65348500D01*
X137498110Y-65348500D01*
X137539591Y-65352585D01*
X137539591Y-65352585D01*
G37*
G36*
X153541591Y-65352585D02*
X153575569Y-65362893D01*
X153606887Y-65379633D01*
X153634339Y-65402161D01*
X153656867Y-65429613D01*
X153673607Y-65460931D01*
X153683915Y-65494909D01*
X153688000Y-65536390D01*
X153688000Y-66137610D01*
X153683915Y-66179091D01*
X153673607Y-66213069D01*
X153656867Y-66244387D01*
X153634339Y-66271839D01*
X153606887Y-66294367D01*
X153575569Y-66311107D01*
X153541591Y-66321415D01*
X153500110Y-66325500D01*
X152823890Y-66325500D01*
X152782409Y-66321415D01*
X152748431Y-66311107D01*
X152717113Y-66294367D01*
X152689661Y-66271839D01*
X152667133Y-66244387D01*
X152650393Y-66213069D01*
X152640085Y-66179091D01*
X152636000Y-66137610D01*
X152636000Y-65536390D01*
X152640085Y-65494909D01*
X152650393Y-65460931D01*
X152667133Y-65429613D01*
X152689661Y-65402161D01*
X152717113Y-65379633D01*
X152748431Y-65362893D01*
X152782409Y-65352585D01*
X152823890Y-65348500D01*
X153500110Y-65348500D01*
X153541591Y-65352585D01*
X153541591Y-65352585D01*
G37*
G36*
X142981643Y-63491781D02*
X143127415Y-63552162D01*
X143258611Y-63639824D01*
X143370176Y-63751389D01*
X143457838Y-63882585D01*
X143518219Y-64028357D01*
X143549000Y-64183107D01*
X143549000Y-64340893D01*
X143518219Y-64495643D01*
X143457838Y-64641415D01*
X143370176Y-64772611D01*
X143258611Y-64884176D01*
X143127415Y-64971838D01*
X142981643Y-65032219D01*
X142826893Y-65063000D01*
X142669107Y-65063000D01*
X142514357Y-65032219D01*
X142368585Y-64971838D01*
X142237389Y-64884176D01*
X142125824Y-64772611D01*
X142038162Y-64641415D01*
X141977781Y-64495643D01*
X141947000Y-64340893D01*
X141947000Y-64183107D01*
X141977781Y-64028357D01*
X142038162Y-63882585D01*
X142125824Y-63751389D01*
X142237389Y-63639824D01*
X142368585Y-63552162D01*
X142514357Y-63491781D01*
X142669107Y-63461000D01*
X142826893Y-63461000D01*
X142981643Y-63491781D01*
X142981643Y-63491781D01*
G37*
G36*
X147861643Y-63491781D02*
X148007415Y-63552162D01*
X148138611Y-63639824D01*
X148250176Y-63751389D01*
X148337838Y-63882585D01*
X148398219Y-64028357D01*
X148429000Y-64183107D01*
X148429000Y-64340893D01*
X148398219Y-64495643D01*
X148337838Y-64641415D01*
X148250176Y-64772611D01*
X148138611Y-64884176D01*
X148007415Y-64971838D01*
X147861643Y-65032219D01*
X147706893Y-65063000D01*
X147549107Y-65063000D01*
X147394357Y-65032219D01*
X147248585Y-64971838D01*
X147117389Y-64884176D01*
X147005824Y-64772611D01*
X146918162Y-64641415D01*
X146857781Y-64495643D01*
X146827000Y-64340893D01*
X146827000Y-64183107D01*
X146857781Y-64028357D01*
X146918162Y-63882585D01*
X147005824Y-63751389D01*
X147117389Y-63639824D01*
X147248585Y-63552162D01*
X147394357Y-63491781D01*
X147549107Y-63461000D01*
X147706893Y-63461000D01*
X147861643Y-63491781D01*
X147861643Y-63491781D01*
G37*
G36*
X153541591Y-63777585D02*
X153575569Y-63787893D01*
X153606887Y-63804633D01*
X153634339Y-63827161D01*
X153656867Y-63854613D01*
X153673607Y-63885931D01*
X153683915Y-63919909D01*
X153688000Y-63961390D01*
X153688000Y-64562610D01*
X153683915Y-64604091D01*
X153673607Y-64638069D01*
X153656867Y-64669387D01*
X153634339Y-64696839D01*
X153606887Y-64719367D01*
X153575569Y-64736107D01*
X153541591Y-64746415D01*
X153500110Y-64750500D01*
X152823890Y-64750500D01*
X152782409Y-64746415D01*
X152748431Y-64736107D01*
X152717113Y-64719367D01*
X152689661Y-64696839D01*
X152667133Y-64669387D01*
X152650393Y-64638069D01*
X152640085Y-64604091D01*
X152636000Y-64562610D01*
X152636000Y-63961390D01*
X152640085Y-63919909D01*
X152650393Y-63885931D01*
X152667133Y-63854613D01*
X152689661Y-63827161D01*
X152717113Y-63804633D01*
X152748431Y-63787893D01*
X152782409Y-63777585D01*
X152823890Y-63773500D01*
X153500110Y-63773500D01*
X153541591Y-63777585D01*
X153541591Y-63777585D01*
G37*
G36*
X137539591Y-63777585D02*
X137573569Y-63787893D01*
X137604887Y-63804633D01*
X137632339Y-63827161D01*
X137654867Y-63854613D01*
X137671607Y-63885931D01*
X137681915Y-63919909D01*
X137686000Y-63961390D01*
X137686000Y-64562610D01*
X137681915Y-64604091D01*
X137671607Y-64638069D01*
X137654867Y-64669387D01*
X137632339Y-64696839D01*
X137604887Y-64719367D01*
X137573569Y-64736107D01*
X137539591Y-64746415D01*
X137498110Y-64750500D01*
X136821890Y-64750500D01*
X136780409Y-64746415D01*
X136746431Y-64736107D01*
X136715113Y-64719367D01*
X136687661Y-64696839D01*
X136665133Y-64669387D01*
X136648393Y-64638069D01*
X136638085Y-64604091D01*
X136634000Y-64562610D01*
X136634000Y-63961390D01*
X136638085Y-63919909D01*
X136648393Y-63885931D01*
X136665133Y-63854613D01*
X136687661Y-63827161D01*
X136715113Y-63804633D01*
X136746431Y-63787893D01*
X136780409Y-63777585D01*
X136821890Y-63773500D01*
X137498110Y-63773500D01*
X137539591Y-63777585D01*
X137539591Y-63777585D01*
G37*
G36*
X169528443Y-61843519D02*
X169594627Y-61850037D01*
X169707853Y-61884384D01*
X169764467Y-61901557D01*
X169903087Y-61975652D01*
X169920991Y-61985222D01*
X169956729Y-62014552D01*
X170058186Y-62097814D01*
X170141448Y-62199271D01*
X170170778Y-62235009D01*
X170170779Y-62235011D01*
X170254443Y-62391533D01*
X170254443Y-62391534D01*
X170305963Y-62561373D01*
X170323359Y-62738000D01*
X170305963Y-62914627D01*
X170271616Y-63027853D01*
X170254443Y-63084467D01*
X170180348Y-63223087D01*
X170170778Y-63240991D01*
X170144509Y-63273000D01*
X170058186Y-63378186D01*
X169957275Y-63461000D01*
X169920991Y-63490778D01*
X169919113Y-63491782D01*
X169764467Y-63574443D01*
X169707853Y-63591616D01*
X169594627Y-63625963D01*
X169528443Y-63632481D01*
X169462260Y-63639000D01*
X169373740Y-63639000D01*
X169307557Y-63632481D01*
X169241373Y-63625963D01*
X169128147Y-63591616D01*
X169071533Y-63574443D01*
X168916887Y-63491782D01*
X168915009Y-63490778D01*
X168878725Y-63461000D01*
X168777814Y-63378186D01*
X168691491Y-63273000D01*
X168665222Y-63240991D01*
X168655652Y-63223087D01*
X168581557Y-63084467D01*
X168564384Y-63027853D01*
X168530037Y-62914627D01*
X168512641Y-62738000D01*
X168530037Y-62561373D01*
X168581557Y-62391534D01*
X168581557Y-62391533D01*
X168665221Y-62235011D01*
X168665222Y-62235009D01*
X168694552Y-62199271D01*
X168777814Y-62097814D01*
X168879271Y-62014552D01*
X168915009Y-61985222D01*
X168932913Y-61975652D01*
X169071533Y-61901557D01*
X169128147Y-61884384D01*
X169241373Y-61850037D01*
X169307557Y-61843519D01*
X169373740Y-61837000D01*
X169462260Y-61837000D01*
X169528443Y-61843519D01*
X169528443Y-61843519D01*
G37*
G36*
X174608443Y-61843519D02*
X174674627Y-61850037D01*
X174787853Y-61884384D01*
X174844467Y-61901557D01*
X174983087Y-61975652D01*
X175000991Y-61985222D01*
X175036729Y-62014552D01*
X175138186Y-62097814D01*
X175221448Y-62199271D01*
X175250778Y-62235009D01*
X175250779Y-62235011D01*
X175334443Y-62391533D01*
X175334443Y-62391534D01*
X175385963Y-62561373D01*
X175403359Y-62738000D01*
X175385963Y-62914627D01*
X175351616Y-63027853D01*
X175334443Y-63084467D01*
X175260348Y-63223087D01*
X175250778Y-63240991D01*
X175224509Y-63273000D01*
X175138186Y-63378186D01*
X175037275Y-63461000D01*
X175000991Y-63490778D01*
X174999113Y-63491782D01*
X174844467Y-63574443D01*
X174787853Y-63591616D01*
X174674627Y-63625963D01*
X174608443Y-63632481D01*
X174542260Y-63639000D01*
X174453740Y-63639000D01*
X174387557Y-63632481D01*
X174321373Y-63625963D01*
X174208147Y-63591616D01*
X174151533Y-63574443D01*
X173996887Y-63491782D01*
X173995009Y-63490778D01*
X173958725Y-63461000D01*
X173857814Y-63378186D01*
X173771491Y-63273000D01*
X173745222Y-63240991D01*
X173735652Y-63223087D01*
X173661557Y-63084467D01*
X173644384Y-63027853D01*
X173610037Y-62914627D01*
X173592641Y-62738000D01*
X173610037Y-62561373D01*
X173661557Y-62391534D01*
X173661557Y-62391533D01*
X173745221Y-62235011D01*
X173745222Y-62235009D01*
X173774552Y-62199271D01*
X173857814Y-62097814D01*
X173959271Y-62014552D01*
X173995009Y-61985222D01*
X174012913Y-61975652D01*
X174151533Y-61901557D01*
X174208147Y-61884384D01*
X174321373Y-61850037D01*
X174387557Y-61843519D01*
X174453740Y-61837000D01*
X174542260Y-61837000D01*
X174608443Y-61843519D01*
X174608443Y-61843519D01*
G37*
G36*
X172068443Y-61843519D02*
X172134627Y-61850037D01*
X172247853Y-61884384D01*
X172304467Y-61901557D01*
X172443087Y-61975652D01*
X172460991Y-61985222D01*
X172496729Y-62014552D01*
X172598186Y-62097814D01*
X172681448Y-62199271D01*
X172710778Y-62235009D01*
X172710779Y-62235011D01*
X172794443Y-62391533D01*
X172794443Y-62391534D01*
X172845963Y-62561373D01*
X172863359Y-62738000D01*
X172845963Y-62914627D01*
X172811616Y-63027853D01*
X172794443Y-63084467D01*
X172720348Y-63223087D01*
X172710778Y-63240991D01*
X172684509Y-63273000D01*
X172598186Y-63378186D01*
X172497275Y-63461000D01*
X172460991Y-63490778D01*
X172459113Y-63491782D01*
X172304467Y-63574443D01*
X172247853Y-63591616D01*
X172134627Y-63625963D01*
X172068443Y-63632481D01*
X172002260Y-63639000D01*
X171913740Y-63639000D01*
X171847557Y-63632481D01*
X171781373Y-63625963D01*
X171668147Y-63591616D01*
X171611533Y-63574443D01*
X171456887Y-63491782D01*
X171455009Y-63490778D01*
X171418725Y-63461000D01*
X171317814Y-63378186D01*
X171231491Y-63273000D01*
X171205222Y-63240991D01*
X171195652Y-63223087D01*
X171121557Y-63084467D01*
X171104384Y-63027853D01*
X171070037Y-62914627D01*
X171052641Y-62738000D01*
X171070037Y-62561373D01*
X171121557Y-62391534D01*
X171121557Y-62391533D01*
X171205221Y-62235011D01*
X171205222Y-62235009D01*
X171234552Y-62199271D01*
X171317814Y-62097814D01*
X171419271Y-62014552D01*
X171455009Y-61985222D01*
X171472913Y-61975652D01*
X171611533Y-61901557D01*
X171668147Y-61884384D01*
X171781373Y-61850037D01*
X171847557Y-61843519D01*
X171913740Y-61837000D01*
X172002260Y-61837000D01*
X172068443Y-61843519D01*
X172068443Y-61843519D01*
G37*
G36*
X129041567Y-59888959D02*
X129172072Y-59914918D01*
X129417939Y-60016759D01*
X129638464Y-60164110D01*
X129639215Y-60164612D01*
X129827388Y-60352785D01*
X129827390Y-60352788D01*
X129975241Y-60574061D01*
X130077082Y-60819928D01*
X130129000Y-61080938D01*
X130129000Y-61347062D01*
X130077082Y-61608072D01*
X129975241Y-61853939D01*
X129827890Y-62074464D01*
X129827388Y-62075215D01*
X129639215Y-62263388D01*
X129639212Y-62263390D01*
X129417939Y-62411241D01*
X129172072Y-62513082D01*
X129041567Y-62539041D01*
X128911063Y-62565000D01*
X128644937Y-62565000D01*
X128514433Y-62539041D01*
X128383928Y-62513082D01*
X128138061Y-62411241D01*
X127916788Y-62263390D01*
X127916785Y-62263388D01*
X127728612Y-62075215D01*
X127728110Y-62074464D01*
X127580759Y-61853939D01*
X127478918Y-61608072D01*
X127427000Y-61347062D01*
X127427000Y-61080938D01*
X127478918Y-60819928D01*
X127580759Y-60574061D01*
X127728610Y-60352788D01*
X127728612Y-60352785D01*
X127916785Y-60164612D01*
X127917536Y-60164110D01*
X128138061Y-60016759D01*
X128383928Y-59914918D01*
X128514433Y-59888959D01*
X128644937Y-59863000D01*
X128911063Y-59863000D01*
X129041567Y-59888959D01*
X129041567Y-59888959D01*
G37*
G36*
X160399591Y-60247085D02*
X160433569Y-60257393D01*
X160464887Y-60274133D01*
X160492339Y-60296661D01*
X160514867Y-60324113D01*
X160531607Y-60355431D01*
X160541915Y-60389409D01*
X160546000Y-60430890D01*
X160546000Y-61032110D01*
X160541915Y-61073591D01*
X160531607Y-61107569D01*
X160514867Y-61138887D01*
X160492339Y-61166339D01*
X160464887Y-61188867D01*
X160433569Y-61205607D01*
X160399591Y-61215915D01*
X160358110Y-61220000D01*
X159681890Y-61220000D01*
X159640409Y-61215915D01*
X159606431Y-61205607D01*
X159575113Y-61188867D01*
X159547661Y-61166339D01*
X159525133Y-61138887D01*
X159508393Y-61107569D01*
X159498085Y-61073591D01*
X159494000Y-61032110D01*
X159494000Y-60430890D01*
X159498085Y-60389409D01*
X159508393Y-60355431D01*
X159525133Y-60324113D01*
X159547661Y-60296661D01*
X159575113Y-60274133D01*
X159606431Y-60257393D01*
X159640409Y-60247085D01*
X159681890Y-60243000D01*
X160358110Y-60243000D01*
X160399591Y-60247085D01*
X160399591Y-60247085D01*
G37*
G36*
X163193591Y-60247085D02*
X163227569Y-60257393D01*
X163258887Y-60274133D01*
X163286339Y-60296661D01*
X163308867Y-60324113D01*
X163325607Y-60355431D01*
X163335915Y-60389409D01*
X163340000Y-60430890D01*
X163340000Y-61032110D01*
X163335915Y-61073591D01*
X163325607Y-61107569D01*
X163308867Y-61138887D01*
X163286339Y-61166339D01*
X163258887Y-61188867D01*
X163227569Y-61205607D01*
X163193591Y-61215915D01*
X163152110Y-61220000D01*
X162475890Y-61220000D01*
X162434409Y-61215915D01*
X162400431Y-61205607D01*
X162369113Y-61188867D01*
X162341661Y-61166339D01*
X162319133Y-61138887D01*
X162302393Y-61107569D01*
X162292085Y-61073591D01*
X162288000Y-61032110D01*
X162288000Y-60430890D01*
X162292085Y-60389409D01*
X162302393Y-60355431D01*
X162319133Y-60324113D01*
X162341661Y-60296661D01*
X162369113Y-60274133D01*
X162400431Y-60257393D01*
X162434409Y-60247085D01*
X162475890Y-60243000D01*
X163152110Y-60243000D01*
X163193591Y-60247085D01*
X163193591Y-60247085D01*
G37*
G36*
X165987591Y-60247085D02*
X166021569Y-60257393D01*
X166052887Y-60274133D01*
X166080339Y-60296661D01*
X166102867Y-60324113D01*
X166119607Y-60355431D01*
X166129915Y-60389409D01*
X166134000Y-60430890D01*
X166134000Y-61032110D01*
X166129915Y-61073591D01*
X166119607Y-61107569D01*
X166102867Y-61138887D01*
X166080339Y-61166339D01*
X166052887Y-61188867D01*
X166021569Y-61205607D01*
X165987591Y-61215915D01*
X165946110Y-61220000D01*
X165269890Y-61220000D01*
X165228409Y-61215915D01*
X165194431Y-61205607D01*
X165163113Y-61188867D01*
X165135661Y-61166339D01*
X165113133Y-61138887D01*
X165096393Y-61107569D01*
X165086085Y-61073591D01*
X165082000Y-61032110D01*
X165082000Y-60430890D01*
X165086085Y-60389409D01*
X165096393Y-60355431D01*
X165113133Y-60324113D01*
X165135661Y-60296661D01*
X165163113Y-60274133D01*
X165194431Y-60257393D01*
X165228409Y-60247085D01*
X165269890Y-60243000D01*
X165946110Y-60243000D01*
X165987591Y-60247085D01*
X165987591Y-60247085D01*
G37*
G36*
X172068442Y-59303518D02*
X172134627Y-59310037D01*
X172247853Y-59344384D01*
X172304467Y-59361557D01*
X172443087Y-59435652D01*
X172460991Y-59445222D01*
X172475476Y-59457110D01*
X172598186Y-59557814D01*
X172681448Y-59659271D01*
X172710778Y-59695009D01*
X172710779Y-59695011D01*
X172794443Y-59851533D01*
X172794443Y-59851534D01*
X172845963Y-60021373D01*
X172863359Y-60198000D01*
X172845963Y-60374627D01*
X172840153Y-60393780D01*
X172794443Y-60544467D01*
X172778624Y-60574061D01*
X172710778Y-60700991D01*
X172681448Y-60736729D01*
X172598186Y-60838186D01*
X172496729Y-60921448D01*
X172460991Y-60950778D01*
X172460989Y-60950779D01*
X172304467Y-61034443D01*
X172247853Y-61051616D01*
X172134627Y-61085963D01*
X172068442Y-61092482D01*
X172002260Y-61099000D01*
X171913740Y-61099000D01*
X171847558Y-61092482D01*
X171781373Y-61085963D01*
X171668147Y-61051616D01*
X171611533Y-61034443D01*
X171455011Y-60950779D01*
X171455009Y-60950778D01*
X171419271Y-60921448D01*
X171317814Y-60838186D01*
X171234552Y-60736729D01*
X171205222Y-60700991D01*
X171137376Y-60574061D01*
X171121557Y-60544467D01*
X171075847Y-60393780D01*
X171070037Y-60374627D01*
X171052641Y-60198000D01*
X171070037Y-60021373D01*
X171121557Y-59851534D01*
X171121557Y-59851533D01*
X171205221Y-59695011D01*
X171205222Y-59695009D01*
X171234552Y-59659271D01*
X171317814Y-59557814D01*
X171440524Y-59457110D01*
X171455009Y-59445222D01*
X171472913Y-59435652D01*
X171611533Y-59361557D01*
X171668147Y-59344384D01*
X171781373Y-59310037D01*
X171847558Y-59303518D01*
X171913740Y-59297000D01*
X172002260Y-59297000D01*
X172068442Y-59303518D01*
X172068442Y-59303518D01*
G37*
G36*
X175399000Y-61099000D02*
X173597000Y-61099000D01*
X173597000Y-59297000D01*
X175399000Y-59297000D01*
X175399000Y-61099000D01*
X175399000Y-61099000D01*
G37*
G36*
X169528442Y-59303518D02*
X169594627Y-59310037D01*
X169707853Y-59344384D01*
X169764467Y-59361557D01*
X169903087Y-59435652D01*
X169920991Y-59445222D01*
X169935476Y-59457110D01*
X170058186Y-59557814D01*
X170141448Y-59659271D01*
X170170778Y-59695009D01*
X170170779Y-59695011D01*
X170254443Y-59851533D01*
X170254443Y-59851534D01*
X170305963Y-60021373D01*
X170323359Y-60198000D01*
X170305963Y-60374627D01*
X170300153Y-60393780D01*
X170254443Y-60544467D01*
X170238624Y-60574061D01*
X170170778Y-60700991D01*
X170141448Y-60736729D01*
X170058186Y-60838186D01*
X169956729Y-60921448D01*
X169920991Y-60950778D01*
X169920989Y-60950779D01*
X169764467Y-61034443D01*
X169707853Y-61051616D01*
X169594627Y-61085963D01*
X169528442Y-61092482D01*
X169462260Y-61099000D01*
X169373740Y-61099000D01*
X169307558Y-61092482D01*
X169241373Y-61085963D01*
X169128147Y-61051616D01*
X169071533Y-61034443D01*
X168915011Y-60950779D01*
X168915009Y-60950778D01*
X168879271Y-60921448D01*
X168777814Y-60838186D01*
X168694552Y-60736729D01*
X168665222Y-60700991D01*
X168597376Y-60574061D01*
X168581557Y-60544467D01*
X168535847Y-60393780D01*
X168530037Y-60374627D01*
X168512641Y-60198000D01*
X168530037Y-60021373D01*
X168581557Y-59851534D01*
X168581557Y-59851533D01*
X168665221Y-59695011D01*
X168665222Y-59695009D01*
X168694552Y-59659271D01*
X168777814Y-59557814D01*
X168900524Y-59457110D01*
X168915009Y-59445222D01*
X168932913Y-59435652D01*
X169071533Y-59361557D01*
X169128147Y-59344384D01*
X169241373Y-59310037D01*
X169307558Y-59303518D01*
X169373740Y-59297000D01*
X169462260Y-59297000D01*
X169528442Y-59303518D01*
X169528442Y-59303518D01*
G37*
G36*
X139816000Y-59872000D02*
X139076000Y-59872000D01*
X139076000Y-57732000D01*
X139816000Y-57732000D01*
X139816000Y-59872000D01*
X139816000Y-59872000D01*
G37*
G36*
X146166000Y-59872000D02*
X145426000Y-59872000D01*
X145426000Y-57732000D01*
X146166000Y-57732000D01*
X146166000Y-59872000D01*
X146166000Y-59872000D01*
G37*
G36*
X143626000Y-59872000D02*
X142886000Y-59872000D01*
X142886000Y-57732000D01*
X143626000Y-57732000D01*
X143626000Y-59872000D01*
X143626000Y-59872000D01*
G37*
G36*
X144896000Y-59872000D02*
X144156000Y-59872000D01*
X144156000Y-57732000D01*
X144896000Y-57732000D01*
X144896000Y-59872000D01*
X144896000Y-59872000D01*
G37*
G36*
X142356000Y-59872000D02*
X141616000Y-59872000D01*
X141616000Y-57732000D01*
X142356000Y-57732000D01*
X142356000Y-59872000D01*
X142356000Y-59872000D01*
G37*
G36*
X141086000Y-59872000D02*
X140346000Y-59872000D01*
X140346000Y-57732000D01*
X141086000Y-57732000D01*
X141086000Y-59872000D01*
X141086000Y-59872000D01*
G37*
G36*
X147436000Y-59872000D02*
X146696000Y-59872000D01*
X146696000Y-57732000D01*
X147436000Y-57732000D01*
X147436000Y-59872000D01*
X147436000Y-59872000D01*
G37*
G36*
X137276000Y-59872000D02*
X136536000Y-59872000D01*
X136536000Y-57732000D01*
X137276000Y-57732000D01*
X137276000Y-59872000D01*
X137276000Y-59872000D01*
G37*
G36*
X138546000Y-59872000D02*
X137806000Y-59872000D01*
X137806000Y-57732000D01*
X138546000Y-57732000D01*
X138546000Y-59872000D01*
X138546000Y-59872000D01*
G37*
G36*
X165987591Y-58672085D02*
X166021569Y-58682393D01*
X166052887Y-58699133D01*
X166080339Y-58721661D01*
X166102867Y-58749113D01*
X166119607Y-58780431D01*
X166129915Y-58814409D01*
X166134000Y-58855890D01*
X166134000Y-59457110D01*
X166129915Y-59498591D01*
X166119607Y-59532569D01*
X166102867Y-59563887D01*
X166080339Y-59591339D01*
X166052887Y-59613867D01*
X166021569Y-59630607D01*
X165987591Y-59640915D01*
X165946110Y-59645000D01*
X165269890Y-59645000D01*
X165228409Y-59640915D01*
X165194431Y-59630607D01*
X165163113Y-59613867D01*
X165135661Y-59591339D01*
X165113133Y-59563887D01*
X165096393Y-59532569D01*
X165086085Y-59498591D01*
X165082000Y-59457110D01*
X165082000Y-58855890D01*
X165086085Y-58814409D01*
X165096393Y-58780431D01*
X165113133Y-58749113D01*
X165135661Y-58721661D01*
X165163113Y-58699133D01*
X165194431Y-58682393D01*
X165228409Y-58672085D01*
X165269890Y-58668000D01*
X165946110Y-58668000D01*
X165987591Y-58672085D01*
X165987591Y-58672085D01*
G37*
G36*
X163193591Y-58672085D02*
X163227569Y-58682393D01*
X163258887Y-58699133D01*
X163286339Y-58721661D01*
X163308867Y-58749113D01*
X163325607Y-58780431D01*
X163335915Y-58814409D01*
X163340000Y-58855890D01*
X163340000Y-59457110D01*
X163335915Y-59498591D01*
X163325607Y-59532569D01*
X163308867Y-59563887D01*
X163286339Y-59591339D01*
X163258887Y-59613867D01*
X163227569Y-59630607D01*
X163193591Y-59640915D01*
X163152110Y-59645000D01*
X162475890Y-59645000D01*
X162434409Y-59640915D01*
X162400431Y-59630607D01*
X162369113Y-59613867D01*
X162341661Y-59591339D01*
X162319133Y-59563887D01*
X162302393Y-59532569D01*
X162292085Y-59498591D01*
X162288000Y-59457110D01*
X162288000Y-58855890D01*
X162292085Y-58814409D01*
X162302393Y-58780431D01*
X162319133Y-58749113D01*
X162341661Y-58721661D01*
X162369113Y-58699133D01*
X162400431Y-58682393D01*
X162434409Y-58672085D01*
X162475890Y-58668000D01*
X163152110Y-58668000D01*
X163193591Y-58672085D01*
X163193591Y-58672085D01*
G37*
G36*
X160399591Y-58672085D02*
X160433569Y-58682393D01*
X160464887Y-58699133D01*
X160492339Y-58721661D01*
X160514867Y-58749113D01*
X160531607Y-58780431D01*
X160541915Y-58814409D01*
X160546000Y-58855890D01*
X160546000Y-59457110D01*
X160541915Y-59498591D01*
X160531607Y-59532569D01*
X160514867Y-59563887D01*
X160492339Y-59591339D01*
X160464887Y-59613867D01*
X160433569Y-59630607D01*
X160399591Y-59640915D01*
X160358110Y-59645000D01*
X159681890Y-59645000D01*
X159640409Y-59640915D01*
X159606431Y-59630607D01*
X159575113Y-59613867D01*
X159547661Y-59591339D01*
X159525133Y-59563887D01*
X159508393Y-59532569D01*
X159498085Y-59498591D01*
X159494000Y-59457110D01*
X159494000Y-58855890D01*
X159498085Y-58814409D01*
X159508393Y-58780431D01*
X159525133Y-58749113D01*
X159547661Y-58721661D01*
X159575113Y-58699133D01*
X159606431Y-58682393D01*
X159640409Y-58672085D01*
X159681890Y-58668000D01*
X160358110Y-58668000D01*
X160399591Y-58672085D01*
X160399591Y-58672085D01*
G37*
G36*
X128960989Y-54792931D02*
X129172072Y-54834918D01*
X129417939Y-54936759D01*
X129638464Y-55084110D01*
X129639215Y-55084612D01*
X129827388Y-55272785D01*
X129827390Y-55272788D01*
X129975241Y-55494061D01*
X130077082Y-55739928D01*
X130129000Y-56000938D01*
X130129000Y-56267062D01*
X130077082Y-56528072D01*
X129975241Y-56773939D01*
X129827890Y-56994464D01*
X129827388Y-56995215D01*
X129639215Y-57183388D01*
X129639212Y-57183390D01*
X129417939Y-57331241D01*
X129172072Y-57433082D01*
X129041567Y-57459041D01*
X128911063Y-57485000D01*
X128644937Y-57485000D01*
X128514433Y-57459041D01*
X128383928Y-57433082D01*
X128138061Y-57331241D01*
X127916788Y-57183390D01*
X127916785Y-57183388D01*
X127728612Y-56995215D01*
X127728110Y-56994464D01*
X127580759Y-56773939D01*
X127478918Y-56528072D01*
X127427000Y-56267062D01*
X127427000Y-56000938D01*
X127478918Y-55739928D01*
X127580759Y-55494061D01*
X127728610Y-55272788D01*
X127728612Y-55272785D01*
X127916785Y-55084612D01*
X127917536Y-55084110D01*
X128138061Y-54936759D01*
X128383928Y-54834918D01*
X128595011Y-54792931D01*
X128644937Y-54783000D01*
X128911063Y-54783000D01*
X128960989Y-54792931D01*
X128960989Y-54792931D01*
G37*
G36*
X167927000Y-57047000D02*
X159225000Y-57047000D01*
X159225000Y-55445000D01*
X167927000Y-55445000D01*
X167927000Y-57047000D01*
X167927000Y-57047000D01*
G37*
G36*
X153950591Y-55724085D02*
X153984569Y-55734393D01*
X154015887Y-55751133D01*
X154043339Y-55773661D01*
X154065867Y-55801113D01*
X154082607Y-55832431D01*
X154092915Y-55866409D01*
X154097000Y-55907890D01*
X154097000Y-56584110D01*
X154092915Y-56625591D01*
X154082607Y-56659569D01*
X154065867Y-56690887D01*
X154043339Y-56718339D01*
X154015887Y-56740867D01*
X153984569Y-56757607D01*
X153950591Y-56767915D01*
X153909110Y-56772000D01*
X153307890Y-56772000D01*
X153266409Y-56767915D01*
X153232431Y-56757607D01*
X153201113Y-56740867D01*
X153173661Y-56718339D01*
X153151133Y-56690887D01*
X153134393Y-56659569D01*
X153124085Y-56625591D01*
X153120000Y-56584110D01*
X153120000Y-55907890D01*
X153124085Y-55866409D01*
X153134393Y-55832431D01*
X153151133Y-55801113D01*
X153173661Y-55773661D01*
X153201113Y-55751133D01*
X153232431Y-55734393D01*
X153266409Y-55724085D01*
X153307890Y-55720000D01*
X153909110Y-55720000D01*
X153950591Y-55724085D01*
X153950591Y-55724085D01*
G37*
G36*
X155525591Y-55724085D02*
X155559569Y-55734393D01*
X155590887Y-55751133D01*
X155618339Y-55773661D01*
X155640867Y-55801113D01*
X155657607Y-55832431D01*
X155667915Y-55866409D01*
X155672000Y-55907890D01*
X155672000Y-56584110D01*
X155667915Y-56625591D01*
X155657607Y-56659569D01*
X155640867Y-56690887D01*
X155618339Y-56718339D01*
X155590887Y-56740867D01*
X155559569Y-56757607D01*
X155525591Y-56767915D01*
X155484110Y-56772000D01*
X154882890Y-56772000D01*
X154841409Y-56767915D01*
X154807431Y-56757607D01*
X154776113Y-56740867D01*
X154748661Y-56718339D01*
X154726133Y-56690887D01*
X154709393Y-56659569D01*
X154699085Y-56625591D01*
X154695000Y-56584110D01*
X154695000Y-55907890D01*
X154699085Y-55866409D01*
X154709393Y-55832431D01*
X154726133Y-55801113D01*
X154748661Y-55773661D01*
X154776113Y-55751133D01*
X154807431Y-55734393D01*
X154841409Y-55724085D01*
X154882890Y-55720000D01*
X155484110Y-55720000D01*
X155525591Y-55724085D01*
X155525591Y-55724085D01*
G37*
G36*
X151624591Y-54723085D02*
X151658569Y-54733393D01*
X151689887Y-54750133D01*
X151717339Y-54772661D01*
X151739867Y-54800113D01*
X151756607Y-54831431D01*
X151766915Y-54865409D01*
X151771000Y-54906890D01*
X151771000Y-55583110D01*
X151766915Y-55624591D01*
X151756607Y-55658569D01*
X151739867Y-55689887D01*
X151717339Y-55717339D01*
X151689887Y-55739867D01*
X151658569Y-55756607D01*
X151624591Y-55766915D01*
X151583110Y-55771000D01*
X150981890Y-55771000D01*
X150940409Y-55766915D01*
X150906431Y-55756607D01*
X150875113Y-55739867D01*
X150847661Y-55717339D01*
X150825133Y-55689887D01*
X150808393Y-55658569D01*
X150798085Y-55624591D01*
X150794000Y-55583110D01*
X150794000Y-54906890D01*
X150798085Y-54865409D01*
X150808393Y-54831431D01*
X150825133Y-54800113D01*
X150847661Y-54772661D01*
X150875113Y-54750133D01*
X150906431Y-54733393D01*
X150940409Y-54723085D01*
X150981890Y-54719000D01*
X151583110Y-54719000D01*
X151624591Y-54723085D01*
X151624591Y-54723085D01*
G37*
G36*
X150049591Y-54723085D02*
X150083569Y-54733393D01*
X150114887Y-54750133D01*
X150142339Y-54772661D01*
X150164867Y-54800113D01*
X150181607Y-54831431D01*
X150191915Y-54865409D01*
X150196000Y-54906890D01*
X150196000Y-55583110D01*
X150191915Y-55624591D01*
X150181607Y-55658569D01*
X150164867Y-55689887D01*
X150142339Y-55717339D01*
X150114887Y-55739867D01*
X150083569Y-55756607D01*
X150049591Y-55766915D01*
X150008110Y-55771000D01*
X149406890Y-55771000D01*
X149365409Y-55766915D01*
X149331431Y-55756607D01*
X149300113Y-55739867D01*
X149272661Y-55717339D01*
X149250133Y-55689887D01*
X149233393Y-55658569D01*
X149223085Y-55624591D01*
X149219000Y-55583110D01*
X149219000Y-54906890D01*
X149223085Y-54865409D01*
X149233393Y-54831431D01*
X149250133Y-54800113D01*
X149272661Y-54772661D01*
X149300113Y-54750133D01*
X149331431Y-54733393D01*
X149365409Y-54723085D01*
X149406890Y-54719000D01*
X150008110Y-54719000D01*
X150049591Y-54723085D01*
X150049591Y-54723085D01*
G37*
G36*
X179957591Y-54684585D02*
X179991569Y-54694893D01*
X180022887Y-54711633D01*
X180050339Y-54734161D01*
X180072867Y-54761613D01*
X180089607Y-54792931D01*
X180099915Y-54826909D01*
X180104000Y-54868390D01*
X180104000Y-55469610D01*
X180099915Y-55511091D01*
X180089607Y-55545069D01*
X180072867Y-55576387D01*
X180050339Y-55603839D01*
X180022887Y-55626367D01*
X179991569Y-55643107D01*
X179957591Y-55653415D01*
X179916110Y-55657500D01*
X179239890Y-55657500D01*
X179198409Y-55653415D01*
X179164431Y-55643107D01*
X179133113Y-55626367D01*
X179105661Y-55603839D01*
X179083133Y-55576387D01*
X179066393Y-55545069D01*
X179056085Y-55511091D01*
X179052000Y-55469610D01*
X179052000Y-54868390D01*
X179056085Y-54826909D01*
X179066393Y-54792931D01*
X179083133Y-54761613D01*
X179105661Y-54734161D01*
X179133113Y-54711633D01*
X179164431Y-54694893D01*
X179198409Y-54684585D01*
X179239890Y-54680500D01*
X179916110Y-54680500D01*
X179957591Y-54684585D01*
X179957591Y-54684585D01*
G37*
G36*
X170077000Y-54897000D02*
X168475000Y-54897000D01*
X168475000Y-46195000D01*
X170077000Y-46195000D01*
X170077000Y-54897000D01*
X170077000Y-54897000D01*
G37*
G36*
X158677000Y-54897000D02*
X157075000Y-54897000D01*
X157075000Y-46195000D01*
X158677000Y-46195000D01*
X158677000Y-54897000D01*
X158677000Y-54897000D01*
G37*
G36*
X174985643Y-52823781D02*
X175131415Y-52884162D01*
X175262611Y-52971824D01*
X175374176Y-53083389D01*
X175461838Y-53214585D01*
X175522219Y-53360357D01*
X175553000Y-53515107D01*
X175553000Y-53672893D01*
X175522219Y-53827643D01*
X175461838Y-53973415D01*
X175374176Y-54104611D01*
X175262611Y-54216176D01*
X175131415Y-54303838D01*
X174985643Y-54364219D01*
X174830893Y-54395000D01*
X174673107Y-54395000D01*
X174518357Y-54364219D01*
X174372585Y-54303838D01*
X174241389Y-54216176D01*
X174129824Y-54104611D01*
X174042162Y-53973415D01*
X173981781Y-53827643D01*
X173951000Y-53672893D01*
X173951000Y-53515107D01*
X173981781Y-53360357D01*
X174042162Y-53214585D01*
X174129824Y-53083389D01*
X174241389Y-52971824D01*
X174372585Y-52884162D01*
X174518357Y-52823781D01*
X174673107Y-52793000D01*
X174830893Y-52793000D01*
X174985643Y-52823781D01*
X174985643Y-52823781D01*
G37*
G36*
X179957591Y-53109585D02*
X179991569Y-53119893D01*
X180022887Y-53136633D01*
X180050339Y-53159161D01*
X180072867Y-53186613D01*
X180089607Y-53217931D01*
X180099915Y-53251909D01*
X180104000Y-53293390D01*
X180104000Y-53894610D01*
X180099915Y-53936091D01*
X180089607Y-53970069D01*
X180072867Y-54001387D01*
X180050339Y-54028839D01*
X180022887Y-54051367D01*
X179991569Y-54068107D01*
X179957591Y-54078415D01*
X179916110Y-54082500D01*
X179239890Y-54082500D01*
X179198409Y-54078415D01*
X179164431Y-54068107D01*
X179133113Y-54051367D01*
X179105661Y-54028839D01*
X179083133Y-54001387D01*
X179066393Y-53970069D01*
X179056085Y-53936091D01*
X179052000Y-53894610D01*
X179052000Y-53293390D01*
X179056085Y-53251909D01*
X179066393Y-53217931D01*
X179083133Y-53186613D01*
X179105661Y-53159161D01*
X179133113Y-53136633D01*
X179164431Y-53119893D01*
X179198409Y-53109585D01*
X179239890Y-53105500D01*
X179916110Y-53105500D01*
X179957591Y-53109585D01*
X179957591Y-53109585D01*
G37*
G36*
X155065591Y-52461585D02*
X155099569Y-52471893D01*
X155130887Y-52488633D01*
X155158339Y-52511161D01*
X155180867Y-52538613D01*
X155197607Y-52569931D01*
X155207915Y-52603909D01*
X155212000Y-52645390D01*
X155212000Y-53246610D01*
X155207915Y-53288091D01*
X155197607Y-53322069D01*
X155180867Y-53353387D01*
X155158339Y-53380839D01*
X155130887Y-53403367D01*
X155099569Y-53420107D01*
X155065591Y-53430415D01*
X155024110Y-53434500D01*
X154347890Y-53434500D01*
X154306409Y-53430415D01*
X154272431Y-53420107D01*
X154241113Y-53403367D01*
X154213661Y-53380839D01*
X154191133Y-53353387D01*
X154174393Y-53322069D01*
X154164085Y-53288091D01*
X154160000Y-53246610D01*
X154160000Y-52645390D01*
X154164085Y-52603909D01*
X154174393Y-52569931D01*
X154191133Y-52538613D01*
X154213661Y-52511161D01*
X154241113Y-52488633D01*
X154272431Y-52471893D01*
X154306409Y-52461585D01*
X154347890Y-52457500D01*
X155024110Y-52457500D01*
X155065591Y-52461585D01*
X155065591Y-52461585D01*
G37*
G36*
X130129000Y-52405000D02*
X127427000Y-52405000D01*
X127427000Y-49703000D01*
X130129000Y-49703000D01*
X130129000Y-52405000D01*
X130129000Y-52405000D01*
G37*
G36*
X155065591Y-50886585D02*
X155099569Y-50896893D01*
X155130887Y-50913633D01*
X155158339Y-50936161D01*
X155180867Y-50963613D01*
X155197607Y-50994931D01*
X155207915Y-51028909D01*
X155212000Y-51070390D01*
X155212000Y-51671610D01*
X155207915Y-51713091D01*
X155197607Y-51747069D01*
X155180867Y-51778387D01*
X155158339Y-51805839D01*
X155130887Y-51828367D01*
X155099569Y-51845107D01*
X155065591Y-51855415D01*
X155024110Y-51859500D01*
X154347890Y-51859500D01*
X154306409Y-51855415D01*
X154272431Y-51845107D01*
X154241113Y-51828367D01*
X154213661Y-51805839D01*
X154191133Y-51778387D01*
X154174393Y-51747069D01*
X154164085Y-51713091D01*
X154160000Y-51671610D01*
X154160000Y-51070390D01*
X154164085Y-51028909D01*
X154174393Y-50994931D01*
X154191133Y-50963613D01*
X154213661Y-50936161D01*
X154241113Y-50913633D01*
X154272431Y-50896893D01*
X154306409Y-50886585D01*
X154347890Y-50882500D01*
X155024110Y-50882500D01*
X155065591Y-50886585D01*
X155065591Y-50886585D01*
G37*
G36*
X138546000Y-50472000D02*
X137806000Y-50472000D01*
X137806000Y-48332000D01*
X138546000Y-48332000D01*
X138546000Y-50472000D01*
X138546000Y-50472000D01*
G37*
G36*
X144896000Y-50472000D02*
X144156000Y-50472000D01*
X144156000Y-48332000D01*
X144896000Y-48332000D01*
X144896000Y-50472000D01*
X144896000Y-50472000D01*
G37*
G36*
X146166000Y-50472000D02*
X145426000Y-50472000D01*
X145426000Y-48332000D01*
X146166000Y-48332000D01*
X146166000Y-50472000D01*
X146166000Y-50472000D01*
G37*
G36*
X142356000Y-50472000D02*
X141616000Y-50472000D01*
X141616000Y-48332000D01*
X142356000Y-48332000D01*
X142356000Y-50472000D01*
X142356000Y-50472000D01*
G37*
G36*
X141086000Y-50472000D02*
X140346000Y-50472000D01*
X140346000Y-48332000D01*
X141086000Y-48332000D01*
X141086000Y-50472000D01*
X141086000Y-50472000D01*
G37*
G36*
X143626000Y-50472000D02*
X142886000Y-50472000D01*
X142886000Y-48332000D01*
X143626000Y-48332000D01*
X143626000Y-50472000D01*
X143626000Y-50472000D01*
G37*
G36*
X137276000Y-50472000D02*
X136536000Y-50472000D01*
X136536000Y-48332000D01*
X137276000Y-48332000D01*
X137276000Y-50472000D01*
X137276000Y-50472000D01*
G37*
G36*
X147436000Y-50472000D02*
X146696000Y-50472000D01*
X146696000Y-48332000D01*
X147436000Y-48332000D01*
X147436000Y-50472000D01*
X147436000Y-50472000D01*
G37*
G36*
X139816000Y-50472000D02*
X139076000Y-50472000D01*
X139076000Y-48332000D01*
X139816000Y-48332000D01*
X139816000Y-50472000D01*
X139816000Y-50472000D01*
G37*
G36*
X174985643Y-47943781D02*
X175131415Y-48004162D01*
X175262611Y-48091824D01*
X175374176Y-48203389D01*
X175461838Y-48334585D01*
X175522219Y-48480357D01*
X175553000Y-48635107D01*
X175553000Y-48792893D01*
X175522219Y-48947643D01*
X175461838Y-49093415D01*
X175374176Y-49224611D01*
X175262611Y-49336176D01*
X175131415Y-49423838D01*
X174985643Y-49484219D01*
X174830893Y-49515000D01*
X174673107Y-49515000D01*
X174518357Y-49484219D01*
X174372585Y-49423838D01*
X174241389Y-49336176D01*
X174129824Y-49224611D01*
X174042162Y-49093415D01*
X173981781Y-48947643D01*
X173951000Y-48792893D01*
X173951000Y-48635107D01*
X173981781Y-48480357D01*
X174042162Y-48334585D01*
X174129824Y-48203389D01*
X174241389Y-48091824D01*
X174372585Y-48004162D01*
X174518357Y-47943781D01*
X174673107Y-47913000D01*
X174830893Y-47913000D01*
X174985643Y-47943781D01*
X174985643Y-47943781D01*
G37*
G36*
X179957591Y-48229585D02*
X179991569Y-48239893D01*
X180022887Y-48256633D01*
X180050339Y-48279161D01*
X180072867Y-48306613D01*
X180089607Y-48337931D01*
X180099915Y-48371909D01*
X180104000Y-48413390D01*
X180104000Y-49014610D01*
X180099915Y-49056091D01*
X180089607Y-49090069D01*
X180072867Y-49121387D01*
X180050339Y-49148839D01*
X180022887Y-49171367D01*
X179991569Y-49188107D01*
X179957591Y-49198415D01*
X179916110Y-49202500D01*
X179239890Y-49202500D01*
X179198409Y-49198415D01*
X179164431Y-49188107D01*
X179133113Y-49171367D01*
X179105661Y-49148839D01*
X179083133Y-49121387D01*
X179066393Y-49090069D01*
X179056085Y-49056091D01*
X179052000Y-49014610D01*
X179052000Y-48413390D01*
X179056085Y-48371909D01*
X179066393Y-48337931D01*
X179083133Y-48306613D01*
X179105661Y-48279161D01*
X179133113Y-48256633D01*
X179164431Y-48239893D01*
X179198409Y-48229585D01*
X179239890Y-48225500D01*
X179916110Y-48225500D01*
X179957591Y-48229585D01*
X179957591Y-48229585D01*
G37*
G36*
X155065591Y-47636585D02*
X155099569Y-47646893D01*
X155130887Y-47663633D01*
X155158339Y-47686161D01*
X155180867Y-47713613D01*
X155197607Y-47744931D01*
X155207915Y-47778909D01*
X155212000Y-47820390D01*
X155212000Y-48421610D01*
X155207915Y-48463091D01*
X155197607Y-48497069D01*
X155180867Y-48528387D01*
X155158339Y-48555839D01*
X155130887Y-48578367D01*
X155099569Y-48595107D01*
X155065591Y-48605415D01*
X155024110Y-48609500D01*
X154347890Y-48609500D01*
X154306409Y-48605415D01*
X154272431Y-48595107D01*
X154241113Y-48578367D01*
X154213661Y-48555839D01*
X154191133Y-48528387D01*
X154174393Y-48497069D01*
X154164085Y-48463091D01*
X154160000Y-48421610D01*
X154160000Y-47820390D01*
X154164085Y-47778909D01*
X154174393Y-47744931D01*
X154191133Y-47713613D01*
X154213661Y-47686161D01*
X154241113Y-47663633D01*
X154272431Y-47646893D01*
X154306409Y-47636585D01*
X154347890Y-47632500D01*
X155024110Y-47632500D01*
X155065591Y-47636585D01*
X155065591Y-47636585D01*
G37*
G36*
X179957591Y-46654585D02*
X179991569Y-46664893D01*
X180022887Y-46681633D01*
X180050339Y-46704161D01*
X180072867Y-46731613D01*
X180089607Y-46762931D01*
X180099915Y-46796909D01*
X180104000Y-46838390D01*
X180104000Y-47439610D01*
X180099915Y-47481091D01*
X180089607Y-47515069D01*
X180072867Y-47546387D01*
X180050339Y-47573839D01*
X180022887Y-47596367D01*
X179991569Y-47613107D01*
X179957591Y-47623415D01*
X179916110Y-47627500D01*
X179239890Y-47627500D01*
X179198409Y-47623415D01*
X179164431Y-47613107D01*
X179133113Y-47596367D01*
X179105661Y-47573839D01*
X179083133Y-47546387D01*
X179066393Y-47515069D01*
X179056085Y-47481091D01*
X179052000Y-47439610D01*
X179052000Y-46838390D01*
X179056085Y-46796909D01*
X179066393Y-46762931D01*
X179083133Y-46731613D01*
X179105661Y-46704161D01*
X179133113Y-46681633D01*
X179164431Y-46664893D01*
X179198409Y-46654585D01*
X179239890Y-46650500D01*
X179916110Y-46650500D01*
X179957591Y-46654585D01*
X179957591Y-46654585D01*
G37*
G36*
X155065591Y-46061585D02*
X155099569Y-46071893D01*
X155130887Y-46088633D01*
X155158339Y-46111161D01*
X155180867Y-46138613D01*
X155197607Y-46169931D01*
X155207915Y-46203909D01*
X155212000Y-46245390D01*
X155212000Y-46846610D01*
X155207915Y-46888091D01*
X155197607Y-46922069D01*
X155180867Y-46953387D01*
X155158339Y-46980839D01*
X155130887Y-47003367D01*
X155099569Y-47020107D01*
X155065591Y-47030415D01*
X155024110Y-47034500D01*
X154347890Y-47034500D01*
X154306409Y-47030415D01*
X154272431Y-47020107D01*
X154241113Y-47003367D01*
X154213661Y-46980839D01*
X154191133Y-46953387D01*
X154174393Y-46922069D01*
X154164085Y-46888091D01*
X154160000Y-46846610D01*
X154160000Y-46245390D01*
X154164085Y-46203909D01*
X154174393Y-46169931D01*
X154191133Y-46138613D01*
X154213661Y-46111161D01*
X154241113Y-46088633D01*
X154272431Y-46071893D01*
X154306409Y-46061585D01*
X154347890Y-46057500D01*
X155024110Y-46057500D01*
X155065591Y-46061585D01*
X155065591Y-46061585D01*
G37*
G36*
X134733591Y-45452085D02*
X134767569Y-45462393D01*
X134798887Y-45479133D01*
X134826339Y-45501661D01*
X134848867Y-45529113D01*
X134865607Y-45560431D01*
X134875915Y-45594409D01*
X134880000Y-45635890D01*
X134880000Y-46312110D01*
X134875915Y-46353591D01*
X134865607Y-46387569D01*
X134848867Y-46418887D01*
X134826339Y-46446339D01*
X134798887Y-46468867D01*
X134767569Y-46485607D01*
X134733591Y-46495915D01*
X134692110Y-46500000D01*
X134090890Y-46500000D01*
X134049409Y-46495915D01*
X134015431Y-46485607D01*
X133984113Y-46468867D01*
X133956661Y-46446339D01*
X133934133Y-46418887D01*
X133917393Y-46387569D01*
X133907085Y-46353591D01*
X133903000Y-46312110D01*
X133903000Y-45635890D01*
X133907085Y-45594409D01*
X133917393Y-45560431D01*
X133934133Y-45529113D01*
X133956661Y-45501661D01*
X133984113Y-45479133D01*
X134015431Y-45462393D01*
X134049409Y-45452085D01*
X134090890Y-45448000D01*
X134692110Y-45448000D01*
X134733591Y-45452085D01*
X134733591Y-45452085D01*
G37*
G36*
X133158591Y-45452085D02*
X133192569Y-45462393D01*
X133223887Y-45479133D01*
X133251339Y-45501661D01*
X133273867Y-45529113D01*
X133290607Y-45560431D01*
X133300915Y-45594409D01*
X133305000Y-45635890D01*
X133305000Y-46312110D01*
X133300915Y-46353591D01*
X133290607Y-46387569D01*
X133273867Y-46418887D01*
X133251339Y-46446339D01*
X133223887Y-46468867D01*
X133192569Y-46485607D01*
X133158591Y-46495915D01*
X133117110Y-46500000D01*
X132515890Y-46500000D01*
X132474409Y-46495915D01*
X132440431Y-46485607D01*
X132409113Y-46468867D01*
X132381661Y-46446339D01*
X132359133Y-46418887D01*
X132342393Y-46387569D01*
X132332085Y-46353591D01*
X132328000Y-46312110D01*
X132328000Y-45635890D01*
X132332085Y-45594409D01*
X132342393Y-45560431D01*
X132359133Y-45529113D01*
X132381661Y-45501661D01*
X132409113Y-45479133D01*
X132440431Y-45462393D01*
X132474409Y-45452085D01*
X132515890Y-45448000D01*
X133117110Y-45448000D01*
X133158591Y-45452085D01*
X133158591Y-45452085D01*
G37*
G36*
X130695091Y-45452085D02*
X130729069Y-45462393D01*
X130760387Y-45479133D01*
X130787839Y-45501661D01*
X130810367Y-45529113D01*
X130827107Y-45560431D01*
X130837415Y-45594409D01*
X130841500Y-45635890D01*
X130841500Y-46312110D01*
X130837415Y-46353591D01*
X130827107Y-46387569D01*
X130810367Y-46418887D01*
X130787839Y-46446339D01*
X130760387Y-46468867D01*
X130729069Y-46485607D01*
X130695091Y-46495915D01*
X130653610Y-46500000D01*
X130052390Y-46500000D01*
X130010909Y-46495915D01*
X129976931Y-46485607D01*
X129945613Y-46468867D01*
X129918161Y-46446339D01*
X129895633Y-46418887D01*
X129878893Y-46387569D01*
X129868585Y-46353591D01*
X129864500Y-46312110D01*
X129864500Y-45635890D01*
X129868585Y-45594409D01*
X129878893Y-45560431D01*
X129895633Y-45529113D01*
X129918161Y-45501661D01*
X129945613Y-45479133D01*
X129976931Y-45462393D01*
X130010909Y-45452085D01*
X130052390Y-45448000D01*
X130653610Y-45448000D01*
X130695091Y-45452085D01*
X130695091Y-45452085D01*
G37*
G36*
X136968591Y-45452085D02*
X137002569Y-45462393D01*
X137033887Y-45479133D01*
X137061339Y-45501661D01*
X137083867Y-45529113D01*
X137100607Y-45560431D01*
X137110915Y-45594409D01*
X137115000Y-45635890D01*
X137115000Y-46312110D01*
X137110915Y-46353591D01*
X137100607Y-46387569D01*
X137083867Y-46418887D01*
X137061339Y-46446339D01*
X137033887Y-46468867D01*
X137002569Y-46485607D01*
X136968591Y-46495915D01*
X136927110Y-46500000D01*
X136325890Y-46500000D01*
X136284409Y-46495915D01*
X136250431Y-46485607D01*
X136219113Y-46468867D01*
X136191661Y-46446339D01*
X136169133Y-46418887D01*
X136152393Y-46387569D01*
X136142085Y-46353591D01*
X136138000Y-46312110D01*
X136138000Y-45635890D01*
X136142085Y-45594409D01*
X136152393Y-45560431D01*
X136169133Y-45529113D01*
X136191661Y-45501661D01*
X136219113Y-45479133D01*
X136250431Y-45462393D01*
X136284409Y-45452085D01*
X136325890Y-45448000D01*
X136927110Y-45448000D01*
X136968591Y-45452085D01*
X136968591Y-45452085D01*
G37*
G36*
X129120091Y-45452085D02*
X129154069Y-45462393D01*
X129185387Y-45479133D01*
X129212839Y-45501661D01*
X129235367Y-45529113D01*
X129252107Y-45560431D01*
X129262415Y-45594409D01*
X129266500Y-45635890D01*
X129266500Y-46312110D01*
X129262415Y-46353591D01*
X129252107Y-46387569D01*
X129235367Y-46418887D01*
X129212839Y-46446339D01*
X129185387Y-46468867D01*
X129154069Y-46485607D01*
X129120091Y-46495915D01*
X129078610Y-46500000D01*
X128477390Y-46500000D01*
X128435909Y-46495915D01*
X128401931Y-46485607D01*
X128370613Y-46468867D01*
X128343161Y-46446339D01*
X128320633Y-46418887D01*
X128303893Y-46387569D01*
X128293585Y-46353591D01*
X128289500Y-46312110D01*
X128289500Y-45635890D01*
X128293585Y-45594409D01*
X128303893Y-45560431D01*
X128320633Y-45529113D01*
X128343161Y-45501661D01*
X128370613Y-45479133D01*
X128401931Y-45462393D01*
X128435909Y-45452085D01*
X128477390Y-45448000D01*
X129078610Y-45448000D01*
X129120091Y-45452085D01*
X129120091Y-45452085D01*
G37*
G36*
X138543591Y-45452085D02*
X138577569Y-45462393D01*
X138608887Y-45479133D01*
X138636339Y-45501661D01*
X138658867Y-45529113D01*
X138675607Y-45560431D01*
X138685915Y-45594409D01*
X138690000Y-45635890D01*
X138690000Y-46312110D01*
X138685915Y-46353591D01*
X138675607Y-46387569D01*
X138658867Y-46418887D01*
X138636339Y-46446339D01*
X138608887Y-46468867D01*
X138577569Y-46485607D01*
X138543591Y-46495915D01*
X138502110Y-46500000D01*
X137900890Y-46500000D01*
X137859409Y-46495915D01*
X137825431Y-46485607D01*
X137794113Y-46468867D01*
X137766661Y-46446339D01*
X137744133Y-46418887D01*
X137727393Y-46387569D01*
X137717085Y-46353591D01*
X137713000Y-46312110D01*
X137713000Y-45635890D01*
X137717085Y-45594409D01*
X137727393Y-45560431D01*
X137744133Y-45529113D01*
X137766661Y-45501661D01*
X137794113Y-45479133D01*
X137825431Y-45462393D01*
X137859409Y-45452085D01*
X137900890Y-45448000D01*
X138502110Y-45448000D01*
X138543591Y-45452085D01*
X138543591Y-45452085D01*
G37*
G36*
X167927000Y-45647000D02*
X159225000Y-45647000D01*
X159225000Y-44045000D01*
X167927000Y-44045000D01*
X167927000Y-45647000D01*
X167927000Y-45647000D01*
G37*
G36*
X141334443Y-40761519D02*
X141400627Y-40768037D01*
X141513853Y-40802384D01*
X141570467Y-40819557D01*
X141709087Y-40893652D01*
X141726991Y-40903222D01*
X141762729Y-40932552D01*
X141864186Y-41015814D01*
X141947448Y-41117271D01*
X141976778Y-41153009D01*
X141976779Y-41153011D01*
X142060443Y-41309533D01*
X142060443Y-41309534D01*
X142111963Y-41479373D01*
X142129359Y-41656000D01*
X142111963Y-41832627D01*
X142080074Y-41937750D01*
X142060443Y-42002467D01*
X142002718Y-42110461D01*
X141976778Y-42158991D01*
X141961746Y-42177307D01*
X141864186Y-42296186D01*
X141762729Y-42379448D01*
X141726991Y-42408778D01*
X141726989Y-42408779D01*
X141570467Y-42492443D01*
X141513853Y-42509616D01*
X141400627Y-42543963D01*
X141334442Y-42550482D01*
X141268260Y-42557000D01*
X141179740Y-42557000D01*
X141113557Y-42550481D01*
X141047373Y-42543963D01*
X140934147Y-42509616D01*
X140877533Y-42492443D01*
X140721011Y-42408779D01*
X140721009Y-42408778D01*
X140685271Y-42379448D01*
X140583814Y-42296186D01*
X140486254Y-42177307D01*
X140471222Y-42158991D01*
X140445282Y-42110461D01*
X140387557Y-42002467D01*
X140367926Y-41937750D01*
X140336037Y-41832627D01*
X140318641Y-41656000D01*
X140336037Y-41479373D01*
X140387557Y-41309534D01*
X140387557Y-41309533D01*
X140471221Y-41153011D01*
X140471222Y-41153009D01*
X140500552Y-41117271D01*
X140583814Y-41015814D01*
X140685271Y-40932552D01*
X140721009Y-40903222D01*
X140738913Y-40893652D01*
X140877533Y-40819557D01*
X140934147Y-40802384D01*
X141047373Y-40768037D01*
X141113557Y-40761519D01*
X141179740Y-40755000D01*
X141268260Y-40755000D01*
X141334443Y-40761519D01*
X141334443Y-40761519D01*
G37*
G36*
X143874443Y-40761519D02*
X143940627Y-40768037D01*
X144053853Y-40802384D01*
X144110467Y-40819557D01*
X144249087Y-40893652D01*
X144266991Y-40903222D01*
X144302729Y-40932552D01*
X144404186Y-41015814D01*
X144487448Y-41117271D01*
X144516778Y-41153009D01*
X144516779Y-41153011D01*
X144600443Y-41309533D01*
X144600443Y-41309534D01*
X144651963Y-41479373D01*
X144669359Y-41656000D01*
X144651963Y-41832627D01*
X144620074Y-41937750D01*
X144600443Y-42002467D01*
X144542718Y-42110461D01*
X144516778Y-42158991D01*
X144501746Y-42177307D01*
X144404186Y-42296186D01*
X144302729Y-42379448D01*
X144266991Y-42408778D01*
X144266989Y-42408779D01*
X144110467Y-42492443D01*
X144053853Y-42509616D01*
X143940627Y-42543963D01*
X143874442Y-42550482D01*
X143808260Y-42557000D01*
X143719740Y-42557000D01*
X143653557Y-42550481D01*
X143587373Y-42543963D01*
X143474147Y-42509616D01*
X143417533Y-42492443D01*
X143261011Y-42408779D01*
X143261009Y-42408778D01*
X143225271Y-42379448D01*
X143123814Y-42296186D01*
X143026254Y-42177307D01*
X143011222Y-42158991D01*
X142985282Y-42110461D01*
X142927557Y-42002467D01*
X142907926Y-41937750D01*
X142876037Y-41832627D01*
X142858641Y-41656000D01*
X142876037Y-41479373D01*
X142927557Y-41309534D01*
X142927557Y-41309533D01*
X143011221Y-41153011D01*
X143011222Y-41153009D01*
X143040552Y-41117271D01*
X143123814Y-41015814D01*
X143225271Y-40932552D01*
X143261009Y-40903222D01*
X143278913Y-40893652D01*
X143417533Y-40819557D01*
X143474147Y-40802384D01*
X143587373Y-40768037D01*
X143653557Y-40761519D01*
X143719740Y-40755000D01*
X143808260Y-40755000D01*
X143874443Y-40761519D01*
X143874443Y-40761519D01*
G37*
G36*
X146414443Y-40761519D02*
X146480627Y-40768037D01*
X146593853Y-40802384D01*
X146650467Y-40819557D01*
X146789087Y-40893652D01*
X146806991Y-40903222D01*
X146842729Y-40932552D01*
X146944186Y-41015814D01*
X147027448Y-41117271D01*
X147056778Y-41153009D01*
X147056779Y-41153011D01*
X147140443Y-41309533D01*
X147140443Y-41309534D01*
X147191963Y-41479373D01*
X147209359Y-41656000D01*
X147191963Y-41832627D01*
X147160074Y-41937750D01*
X147140443Y-42002467D01*
X147082718Y-42110461D01*
X147056778Y-42158991D01*
X147041746Y-42177307D01*
X146944186Y-42296186D01*
X146842729Y-42379448D01*
X146806991Y-42408778D01*
X146806989Y-42408779D01*
X146650467Y-42492443D01*
X146593853Y-42509616D01*
X146480627Y-42543963D01*
X146414442Y-42550482D01*
X146348260Y-42557000D01*
X146259740Y-42557000D01*
X146193557Y-42550481D01*
X146127373Y-42543963D01*
X146014147Y-42509616D01*
X145957533Y-42492443D01*
X145801011Y-42408779D01*
X145801009Y-42408778D01*
X145765271Y-42379448D01*
X145663814Y-42296186D01*
X145566254Y-42177307D01*
X145551222Y-42158991D01*
X145525282Y-42110461D01*
X145467557Y-42002467D01*
X145447926Y-41937750D01*
X145416037Y-41832627D01*
X145398641Y-41656000D01*
X145416037Y-41479373D01*
X145467557Y-41309534D01*
X145467557Y-41309533D01*
X145551221Y-41153011D01*
X145551222Y-41153009D01*
X145580552Y-41117271D01*
X145663814Y-41015814D01*
X145765271Y-40932552D01*
X145801009Y-40903222D01*
X145818913Y-40893652D01*
X145957533Y-40819557D01*
X146014147Y-40802384D01*
X146127373Y-40768037D01*
X146193557Y-40761519D01*
X146259740Y-40755000D01*
X146348260Y-40755000D01*
X146414443Y-40761519D01*
X146414443Y-40761519D01*
G37*
G36*
X138794443Y-40761519D02*
X138860627Y-40768037D01*
X138973853Y-40802384D01*
X139030467Y-40819557D01*
X139169087Y-40893652D01*
X139186991Y-40903222D01*
X139222729Y-40932552D01*
X139324186Y-41015814D01*
X139407448Y-41117271D01*
X139436778Y-41153009D01*
X139436779Y-41153011D01*
X139520443Y-41309533D01*
X139520443Y-41309534D01*
X139571963Y-41479373D01*
X139589359Y-41656000D01*
X139571963Y-41832627D01*
X139540074Y-41937750D01*
X139520443Y-42002467D01*
X139462718Y-42110461D01*
X139436778Y-42158991D01*
X139421746Y-42177307D01*
X139324186Y-42296186D01*
X139222729Y-42379448D01*
X139186991Y-42408778D01*
X139186989Y-42408779D01*
X139030467Y-42492443D01*
X138973853Y-42509616D01*
X138860627Y-42543963D01*
X138794442Y-42550482D01*
X138728260Y-42557000D01*
X138639740Y-42557000D01*
X138573557Y-42550481D01*
X138507373Y-42543963D01*
X138394147Y-42509616D01*
X138337533Y-42492443D01*
X138181011Y-42408779D01*
X138181009Y-42408778D01*
X138145271Y-42379448D01*
X138043814Y-42296186D01*
X137946254Y-42177307D01*
X137931222Y-42158991D01*
X137905282Y-42110461D01*
X137847557Y-42002467D01*
X137827926Y-41937750D01*
X137796037Y-41832627D01*
X137778641Y-41656000D01*
X137796037Y-41479373D01*
X137847557Y-41309534D01*
X137847557Y-41309533D01*
X137931221Y-41153011D01*
X137931222Y-41153009D01*
X137960552Y-41117271D01*
X138043814Y-41015814D01*
X138145271Y-40932552D01*
X138181009Y-40903222D01*
X138198913Y-40893652D01*
X138337533Y-40819557D01*
X138394147Y-40802384D01*
X138507373Y-40768037D01*
X138573557Y-40761519D01*
X138639740Y-40755000D01*
X138728260Y-40755000D01*
X138794443Y-40761519D01*
X138794443Y-40761519D01*
G37*
G36*
X136254443Y-40761519D02*
X136320627Y-40768037D01*
X136433853Y-40802384D01*
X136490467Y-40819557D01*
X136629087Y-40893652D01*
X136646991Y-40903222D01*
X136682729Y-40932552D01*
X136784186Y-41015814D01*
X136867448Y-41117271D01*
X136896778Y-41153009D01*
X136896779Y-41153011D01*
X136980443Y-41309533D01*
X136980443Y-41309534D01*
X137031963Y-41479373D01*
X137049359Y-41656000D01*
X137031963Y-41832627D01*
X137000074Y-41937750D01*
X136980443Y-42002467D01*
X136922718Y-42110461D01*
X136896778Y-42158991D01*
X136881746Y-42177307D01*
X136784186Y-42296186D01*
X136682729Y-42379448D01*
X136646991Y-42408778D01*
X136646989Y-42408779D01*
X136490467Y-42492443D01*
X136433853Y-42509616D01*
X136320627Y-42543963D01*
X136254442Y-42550482D01*
X136188260Y-42557000D01*
X136099740Y-42557000D01*
X136033557Y-42550481D01*
X135967373Y-42543963D01*
X135854147Y-42509616D01*
X135797533Y-42492443D01*
X135641011Y-42408779D01*
X135641009Y-42408778D01*
X135605271Y-42379448D01*
X135503814Y-42296186D01*
X135406254Y-42177307D01*
X135391222Y-42158991D01*
X135365282Y-42110461D01*
X135307557Y-42002467D01*
X135287926Y-41937750D01*
X135256037Y-41832627D01*
X135238641Y-41656000D01*
X135256037Y-41479373D01*
X135307557Y-41309534D01*
X135307557Y-41309533D01*
X135391221Y-41153011D01*
X135391222Y-41153009D01*
X135420552Y-41117271D01*
X135503814Y-41015814D01*
X135605271Y-40932552D01*
X135641009Y-40903222D01*
X135658913Y-40893652D01*
X135797533Y-40819557D01*
X135854147Y-40802384D01*
X135967373Y-40768037D01*
X136033557Y-40761519D01*
X136099740Y-40755000D01*
X136188260Y-40755000D01*
X136254443Y-40761519D01*
X136254443Y-40761519D01*
G37*
G36*
X134505000Y-42557000D02*
X132703000Y-42557000D01*
X132703000Y-40755000D01*
X134505000Y-40755000D01*
X134505000Y-42557000D01*
X134505000Y-42557000D01*
G37*
G36*
X168693091Y-41134085D02*
X168727069Y-41144393D01*
X168758387Y-41161133D01*
X168785839Y-41183661D01*
X168808367Y-41211113D01*
X168825107Y-41242431D01*
X168835415Y-41276409D01*
X168839500Y-41317890D01*
X168839500Y-41994110D01*
X168835415Y-42035591D01*
X168825107Y-42069569D01*
X168808367Y-42100887D01*
X168785839Y-42128339D01*
X168758387Y-42150867D01*
X168727069Y-42167607D01*
X168693091Y-42177915D01*
X168651610Y-42182000D01*
X168050390Y-42182000D01*
X168008909Y-42177915D01*
X167974931Y-42167607D01*
X167943613Y-42150867D01*
X167916161Y-42128339D01*
X167893633Y-42100887D01*
X167876893Y-42069569D01*
X167866585Y-42035591D01*
X167862500Y-41994110D01*
X167862500Y-41317890D01*
X167866585Y-41276409D01*
X167876893Y-41242431D01*
X167893633Y-41211113D01*
X167916161Y-41183661D01*
X167943613Y-41161133D01*
X167974931Y-41144393D01*
X168008909Y-41134085D01*
X168050390Y-41130000D01*
X168651610Y-41130000D01*
X168693091Y-41134085D01*
X168693091Y-41134085D01*
G37*
G36*
X167118091Y-41134085D02*
X167152069Y-41144393D01*
X167183387Y-41161133D01*
X167210839Y-41183661D01*
X167233367Y-41211113D01*
X167250107Y-41242431D01*
X167260415Y-41276409D01*
X167264500Y-41317890D01*
X167264500Y-41994110D01*
X167260415Y-42035591D01*
X167250107Y-42069569D01*
X167233367Y-42100887D01*
X167210839Y-42128339D01*
X167183387Y-42150867D01*
X167152069Y-42167607D01*
X167118091Y-42177915D01*
X167076610Y-42182000D01*
X166475390Y-42182000D01*
X166433909Y-42177915D01*
X166399931Y-42167607D01*
X166368613Y-42150867D01*
X166341161Y-42128339D01*
X166318633Y-42100887D01*
X166301893Y-42069569D01*
X166291585Y-42035591D01*
X166287500Y-41994110D01*
X166287500Y-41317890D01*
X166291585Y-41276409D01*
X166301893Y-41242431D01*
X166318633Y-41211113D01*
X166341161Y-41183661D01*
X166368613Y-41161133D01*
X166399931Y-41144393D01*
X166433909Y-41134085D01*
X166475390Y-41130000D01*
X167076610Y-41130000D01*
X167118091Y-41134085D01*
X167118091Y-41134085D01*
G37*
G36*
X161132232Y-37572686D02*
X161198416Y-37579204D01*
X161311642Y-37613551D01*
X161368256Y-37630724D01*
X161506876Y-37704819D01*
X161524780Y-37714389D01*
X161560518Y-37743719D01*
X161661975Y-37826981D01*
X161745237Y-37928438D01*
X161774567Y-37964176D01*
X161774568Y-37964178D01*
X161858232Y-38120700D01*
X161858232Y-38120701D01*
X161909752Y-38290540D01*
X161927148Y-38467167D01*
X161909752Y-38643794D01*
X161875405Y-38757020D01*
X161858232Y-38813634D01*
X161784137Y-38952254D01*
X161774567Y-38970158D01*
X161745237Y-39005896D01*
X161661975Y-39107353D01*
X161560518Y-39190615D01*
X161524780Y-39219945D01*
X161524778Y-39219946D01*
X161368256Y-39303610D01*
X161311642Y-39320783D01*
X161198416Y-39355130D01*
X161132232Y-39361648D01*
X161066049Y-39368167D01*
X160977529Y-39368167D01*
X160911346Y-39361648D01*
X160845162Y-39355130D01*
X160731936Y-39320783D01*
X160675322Y-39303610D01*
X160518800Y-39219946D01*
X160518798Y-39219945D01*
X160483060Y-39190615D01*
X160381603Y-39107353D01*
X160298341Y-39005896D01*
X160269011Y-38970158D01*
X160259441Y-38952254D01*
X160185346Y-38813634D01*
X160168173Y-38757020D01*
X160133826Y-38643794D01*
X160116430Y-38467167D01*
X160133826Y-38290540D01*
X160185346Y-38120701D01*
X160185346Y-38120700D01*
X160269010Y-37964178D01*
X160269011Y-37964176D01*
X160298341Y-37928438D01*
X160381603Y-37826981D01*
X160483060Y-37743719D01*
X160518798Y-37714389D01*
X160536702Y-37704819D01*
X160675322Y-37630724D01*
X160731936Y-37613551D01*
X160845162Y-37579204D01*
X160911346Y-37572686D01*
X160977529Y-37566167D01*
X161066049Y-37566167D01*
X161132232Y-37572686D01*
X161132232Y-37572686D01*
G37*
G36*
X156842789Y-39368167D02*
X155040789Y-39368167D01*
X155040789Y-37566167D01*
X156842789Y-37566167D01*
X156842789Y-39368167D01*
X156842789Y-39368167D01*
G37*
G36*
X158592232Y-37572686D02*
X158658416Y-37579204D01*
X158771642Y-37613551D01*
X158828256Y-37630724D01*
X158966876Y-37704819D01*
X158984780Y-37714389D01*
X159020518Y-37743719D01*
X159121975Y-37826981D01*
X159205237Y-37928438D01*
X159234567Y-37964176D01*
X159234568Y-37964178D01*
X159318232Y-38120700D01*
X159318232Y-38120701D01*
X159369752Y-38290540D01*
X159387148Y-38467167D01*
X159369752Y-38643794D01*
X159335405Y-38757020D01*
X159318232Y-38813634D01*
X159244137Y-38952254D01*
X159234567Y-38970158D01*
X159205237Y-39005896D01*
X159121975Y-39107353D01*
X159020518Y-39190615D01*
X158984780Y-39219945D01*
X158984778Y-39219946D01*
X158828256Y-39303610D01*
X158771642Y-39320783D01*
X158658416Y-39355130D01*
X158592232Y-39361648D01*
X158526049Y-39368167D01*
X158437529Y-39368167D01*
X158371346Y-39361648D01*
X158305162Y-39355130D01*
X158191936Y-39320783D01*
X158135322Y-39303610D01*
X157978800Y-39219946D01*
X157978798Y-39219945D01*
X157943060Y-39190615D01*
X157841603Y-39107353D01*
X157758341Y-39005896D01*
X157729011Y-38970158D01*
X157719441Y-38952254D01*
X157645346Y-38813634D01*
X157628173Y-38757020D01*
X157593826Y-38643794D01*
X157576430Y-38467167D01*
X157593826Y-38290540D01*
X157645346Y-38120701D01*
X157645346Y-38120700D01*
X157729010Y-37964178D01*
X157729011Y-37964176D01*
X157758341Y-37928438D01*
X157841603Y-37826981D01*
X157943060Y-37743719D01*
X157978798Y-37714389D01*
X157996702Y-37704819D01*
X158135322Y-37630724D01*
X158191936Y-37613551D01*
X158305162Y-37579204D01*
X158371346Y-37572686D01*
X158437529Y-37566167D01*
X158526049Y-37566167D01*
X158592232Y-37572686D01*
X158592232Y-37572686D01*
G37*
G36*
X166212232Y-37572686D02*
X166278416Y-37579204D01*
X166391642Y-37613551D01*
X166448256Y-37630724D01*
X166586876Y-37704819D01*
X166604780Y-37714389D01*
X166640518Y-37743719D01*
X166741975Y-37826981D01*
X166825237Y-37928438D01*
X166854567Y-37964176D01*
X166854568Y-37964178D01*
X166938232Y-38120700D01*
X166938232Y-38120701D01*
X166989752Y-38290540D01*
X167007148Y-38467167D01*
X166989752Y-38643794D01*
X166955405Y-38757020D01*
X166938232Y-38813634D01*
X166864137Y-38952254D01*
X166854567Y-38970158D01*
X166825237Y-39005896D01*
X166741975Y-39107353D01*
X166640518Y-39190615D01*
X166604780Y-39219945D01*
X166604778Y-39219946D01*
X166448256Y-39303610D01*
X166391642Y-39320783D01*
X166278416Y-39355130D01*
X166212232Y-39361648D01*
X166146049Y-39368167D01*
X166057529Y-39368167D01*
X165991346Y-39361648D01*
X165925162Y-39355130D01*
X165811936Y-39320783D01*
X165755322Y-39303610D01*
X165598800Y-39219946D01*
X165598798Y-39219945D01*
X165563060Y-39190615D01*
X165461603Y-39107353D01*
X165378341Y-39005896D01*
X165349011Y-38970158D01*
X165339441Y-38952254D01*
X165265346Y-38813634D01*
X165248173Y-38757020D01*
X165213826Y-38643794D01*
X165196430Y-38467167D01*
X165213826Y-38290540D01*
X165265346Y-38120701D01*
X165265346Y-38120700D01*
X165349010Y-37964178D01*
X165349011Y-37964176D01*
X165378341Y-37928438D01*
X165461603Y-37826981D01*
X165563060Y-37743719D01*
X165598798Y-37714389D01*
X165616702Y-37704819D01*
X165755322Y-37630724D01*
X165811936Y-37613551D01*
X165925162Y-37579204D01*
X165991346Y-37572686D01*
X166057529Y-37566167D01*
X166146049Y-37566167D01*
X166212232Y-37572686D01*
X166212232Y-37572686D01*
G37*
G36*
X168752232Y-37572686D02*
X168818416Y-37579204D01*
X168931642Y-37613551D01*
X168988256Y-37630724D01*
X169126876Y-37704819D01*
X169144780Y-37714389D01*
X169180518Y-37743719D01*
X169281975Y-37826981D01*
X169365237Y-37928438D01*
X169394567Y-37964176D01*
X169394568Y-37964178D01*
X169478232Y-38120700D01*
X169478232Y-38120701D01*
X169529752Y-38290540D01*
X169547148Y-38467167D01*
X169529752Y-38643794D01*
X169495405Y-38757020D01*
X169478232Y-38813634D01*
X169404137Y-38952254D01*
X169394567Y-38970158D01*
X169365237Y-39005896D01*
X169281975Y-39107353D01*
X169180518Y-39190615D01*
X169144780Y-39219945D01*
X169144778Y-39219946D01*
X168988256Y-39303610D01*
X168931642Y-39320783D01*
X168818416Y-39355130D01*
X168752232Y-39361648D01*
X168686049Y-39368167D01*
X168597529Y-39368167D01*
X168531346Y-39361648D01*
X168465162Y-39355130D01*
X168351936Y-39320783D01*
X168295322Y-39303610D01*
X168138800Y-39219946D01*
X168138798Y-39219945D01*
X168103060Y-39190615D01*
X168001603Y-39107353D01*
X167918341Y-39005896D01*
X167889011Y-38970158D01*
X167879441Y-38952254D01*
X167805346Y-38813634D01*
X167788173Y-38757020D01*
X167753826Y-38643794D01*
X167736430Y-38467167D01*
X167753826Y-38290540D01*
X167805346Y-38120701D01*
X167805346Y-38120700D01*
X167889010Y-37964178D01*
X167889011Y-37964176D01*
X167918341Y-37928438D01*
X168001603Y-37826981D01*
X168103060Y-37743719D01*
X168138798Y-37714389D01*
X168156702Y-37704819D01*
X168295322Y-37630724D01*
X168351936Y-37613551D01*
X168465162Y-37579204D01*
X168531346Y-37572686D01*
X168597529Y-37566167D01*
X168686049Y-37566167D01*
X168752232Y-37572686D01*
X168752232Y-37572686D01*
G37*
G36*
X171292232Y-37572686D02*
X171358416Y-37579204D01*
X171471642Y-37613551D01*
X171528256Y-37630724D01*
X171666876Y-37704819D01*
X171684780Y-37714389D01*
X171720518Y-37743719D01*
X171821975Y-37826981D01*
X171905237Y-37928438D01*
X171934567Y-37964176D01*
X171934568Y-37964178D01*
X172018232Y-38120700D01*
X172018232Y-38120701D01*
X172069752Y-38290540D01*
X172087148Y-38467167D01*
X172069752Y-38643794D01*
X172035405Y-38757020D01*
X172018232Y-38813634D01*
X171944137Y-38952254D01*
X171934567Y-38970158D01*
X171905237Y-39005896D01*
X171821975Y-39107353D01*
X171720518Y-39190615D01*
X171684780Y-39219945D01*
X171684778Y-39219946D01*
X171528256Y-39303610D01*
X171471642Y-39320783D01*
X171358416Y-39355130D01*
X171292232Y-39361648D01*
X171226049Y-39368167D01*
X171137529Y-39368167D01*
X171071346Y-39361648D01*
X171005162Y-39355130D01*
X170891936Y-39320783D01*
X170835322Y-39303610D01*
X170678800Y-39219946D01*
X170678798Y-39219945D01*
X170643060Y-39190615D01*
X170541603Y-39107353D01*
X170458341Y-39005896D01*
X170429011Y-38970158D01*
X170419441Y-38952254D01*
X170345346Y-38813634D01*
X170328173Y-38757020D01*
X170293826Y-38643794D01*
X170276430Y-38467167D01*
X170293826Y-38290540D01*
X170345346Y-38120701D01*
X170345346Y-38120700D01*
X170429010Y-37964178D01*
X170429011Y-37964176D01*
X170458341Y-37928438D01*
X170541603Y-37826981D01*
X170643060Y-37743719D01*
X170678798Y-37714389D01*
X170696702Y-37704819D01*
X170835322Y-37630724D01*
X170891936Y-37613551D01*
X171005162Y-37579204D01*
X171071346Y-37572686D01*
X171137529Y-37566167D01*
X171226049Y-37566167D01*
X171292232Y-37572686D01*
X171292232Y-37572686D01*
G37*
G36*
X163672232Y-37572686D02*
X163738416Y-37579204D01*
X163851642Y-37613551D01*
X163908256Y-37630724D01*
X164046876Y-37704819D01*
X164064780Y-37714389D01*
X164100518Y-37743719D01*
X164201975Y-37826981D01*
X164285237Y-37928438D01*
X164314567Y-37964176D01*
X164314568Y-37964178D01*
X164398232Y-38120700D01*
X164398232Y-38120701D01*
X164449752Y-38290540D01*
X164467148Y-38467167D01*
X164449752Y-38643794D01*
X164415405Y-38757020D01*
X164398232Y-38813634D01*
X164324137Y-38952254D01*
X164314567Y-38970158D01*
X164285237Y-39005896D01*
X164201975Y-39107353D01*
X164100518Y-39190615D01*
X164064780Y-39219945D01*
X164064778Y-39219946D01*
X163908256Y-39303610D01*
X163851642Y-39320783D01*
X163738416Y-39355130D01*
X163672232Y-39361648D01*
X163606049Y-39368167D01*
X163517529Y-39368167D01*
X163451346Y-39361648D01*
X163385162Y-39355130D01*
X163271936Y-39320783D01*
X163215322Y-39303610D01*
X163058800Y-39219946D01*
X163058798Y-39219945D01*
X163023060Y-39190615D01*
X162921603Y-39107353D01*
X162838341Y-39005896D01*
X162809011Y-38970158D01*
X162799441Y-38952254D01*
X162725346Y-38813634D01*
X162708173Y-38757020D01*
X162673826Y-38643794D01*
X162656430Y-38467167D01*
X162673826Y-38290540D01*
X162725346Y-38120701D01*
X162725346Y-38120700D01*
X162809010Y-37964178D01*
X162809011Y-37964176D01*
X162838341Y-37928438D01*
X162921603Y-37826981D01*
X163023060Y-37743719D01*
X163058798Y-37714389D01*
X163076702Y-37704819D01*
X163215322Y-37630724D01*
X163271936Y-37613551D01*
X163385162Y-37579204D01*
X163451346Y-37572686D01*
X163517529Y-37566167D01*
X163606049Y-37566167D01*
X163672232Y-37572686D01*
X163672232Y-37572686D01*
G37*
G36*
X161132231Y-35032685D02*
X161198416Y-35039204D01*
X161311642Y-35073551D01*
X161368256Y-35090724D01*
X161506876Y-35164819D01*
X161524780Y-35174389D01*
X161560518Y-35203719D01*
X161661975Y-35286981D01*
X161745237Y-35388438D01*
X161774567Y-35424176D01*
X161774568Y-35424178D01*
X161858232Y-35580700D01*
X161858232Y-35580701D01*
X161909752Y-35750540D01*
X161927148Y-35927167D01*
X161909752Y-36103794D01*
X161875405Y-36217020D01*
X161858232Y-36273634D01*
X161784137Y-36412254D01*
X161774567Y-36430158D01*
X161745237Y-36465896D01*
X161661975Y-36567353D01*
X161560518Y-36650615D01*
X161524780Y-36679945D01*
X161524778Y-36679946D01*
X161368256Y-36763610D01*
X161311642Y-36780783D01*
X161198416Y-36815130D01*
X161132231Y-36821649D01*
X161066049Y-36828167D01*
X160977529Y-36828167D01*
X160911347Y-36821649D01*
X160845162Y-36815130D01*
X160731936Y-36780783D01*
X160675322Y-36763610D01*
X160518800Y-36679946D01*
X160518798Y-36679945D01*
X160483060Y-36650615D01*
X160381603Y-36567353D01*
X160298341Y-36465896D01*
X160269011Y-36430158D01*
X160259441Y-36412254D01*
X160185346Y-36273634D01*
X160168173Y-36217020D01*
X160133826Y-36103794D01*
X160116430Y-35927167D01*
X160133826Y-35750540D01*
X160185346Y-35580701D01*
X160185346Y-35580700D01*
X160269010Y-35424178D01*
X160269011Y-35424176D01*
X160298341Y-35388438D01*
X160381603Y-35286981D01*
X160483060Y-35203719D01*
X160518798Y-35174389D01*
X160536702Y-35164819D01*
X160675322Y-35090724D01*
X160731936Y-35073551D01*
X160845162Y-35039204D01*
X160911347Y-35032685D01*
X160977529Y-35026167D01*
X161066049Y-35026167D01*
X161132231Y-35032685D01*
X161132231Y-35032685D01*
G37*
G36*
X156842789Y-36828167D02*
X155040789Y-36828167D01*
X155040789Y-35026167D01*
X156842789Y-35026167D01*
X156842789Y-36828167D01*
X156842789Y-36828167D01*
G37*
G36*
X163672231Y-35032685D02*
X163738416Y-35039204D01*
X163851642Y-35073551D01*
X163908256Y-35090724D01*
X164046876Y-35164819D01*
X164064780Y-35174389D01*
X164100518Y-35203719D01*
X164201975Y-35286981D01*
X164285237Y-35388438D01*
X164314567Y-35424176D01*
X164314568Y-35424178D01*
X164398232Y-35580700D01*
X164398232Y-35580701D01*
X164449752Y-35750540D01*
X164467148Y-35927167D01*
X164449752Y-36103794D01*
X164415405Y-36217020D01*
X164398232Y-36273634D01*
X164324137Y-36412254D01*
X164314567Y-36430158D01*
X164285237Y-36465896D01*
X164201975Y-36567353D01*
X164100518Y-36650615D01*
X164064780Y-36679945D01*
X164064778Y-36679946D01*
X163908256Y-36763610D01*
X163851642Y-36780783D01*
X163738416Y-36815130D01*
X163672231Y-36821649D01*
X163606049Y-36828167D01*
X163517529Y-36828167D01*
X163451347Y-36821649D01*
X163385162Y-36815130D01*
X163271936Y-36780783D01*
X163215322Y-36763610D01*
X163058800Y-36679946D01*
X163058798Y-36679945D01*
X163023060Y-36650615D01*
X162921603Y-36567353D01*
X162838341Y-36465896D01*
X162809011Y-36430158D01*
X162799441Y-36412254D01*
X162725346Y-36273634D01*
X162708173Y-36217020D01*
X162673826Y-36103794D01*
X162656430Y-35927167D01*
X162673826Y-35750540D01*
X162725346Y-35580701D01*
X162725346Y-35580700D01*
X162809010Y-35424178D01*
X162809011Y-35424176D01*
X162838341Y-35388438D01*
X162921603Y-35286981D01*
X163023060Y-35203719D01*
X163058798Y-35174389D01*
X163076702Y-35164819D01*
X163215322Y-35090724D01*
X163271936Y-35073551D01*
X163385162Y-35039204D01*
X163451347Y-35032685D01*
X163517529Y-35026167D01*
X163606049Y-35026167D01*
X163672231Y-35032685D01*
X163672231Y-35032685D01*
G37*
G36*
X166212231Y-35032685D02*
X166278416Y-35039204D01*
X166391642Y-35073551D01*
X166448256Y-35090724D01*
X166586876Y-35164819D01*
X166604780Y-35174389D01*
X166640518Y-35203719D01*
X166741975Y-35286981D01*
X166825237Y-35388438D01*
X166854567Y-35424176D01*
X166854568Y-35424178D01*
X166938232Y-35580700D01*
X166938232Y-35580701D01*
X166989752Y-35750540D01*
X167007148Y-35927167D01*
X166989752Y-36103794D01*
X166955405Y-36217020D01*
X166938232Y-36273634D01*
X166864137Y-36412254D01*
X166854567Y-36430158D01*
X166825237Y-36465896D01*
X166741975Y-36567353D01*
X166640518Y-36650615D01*
X166604780Y-36679945D01*
X166604778Y-36679946D01*
X166448256Y-36763610D01*
X166391642Y-36780783D01*
X166278416Y-36815130D01*
X166212231Y-36821649D01*
X166146049Y-36828167D01*
X166057529Y-36828167D01*
X165991347Y-36821649D01*
X165925162Y-36815130D01*
X165811936Y-36780783D01*
X165755322Y-36763610D01*
X165598800Y-36679946D01*
X165598798Y-36679945D01*
X165563060Y-36650615D01*
X165461603Y-36567353D01*
X165378341Y-36465896D01*
X165349011Y-36430158D01*
X165339441Y-36412254D01*
X165265346Y-36273634D01*
X165248173Y-36217020D01*
X165213826Y-36103794D01*
X165196430Y-35927167D01*
X165213826Y-35750540D01*
X165265346Y-35580701D01*
X165265346Y-35580700D01*
X165349010Y-35424178D01*
X165349011Y-35424176D01*
X165378341Y-35388438D01*
X165461603Y-35286981D01*
X165563060Y-35203719D01*
X165598798Y-35174389D01*
X165616702Y-35164819D01*
X165755322Y-35090724D01*
X165811936Y-35073551D01*
X165925162Y-35039204D01*
X165991347Y-35032685D01*
X166057529Y-35026167D01*
X166146049Y-35026167D01*
X166212231Y-35032685D01*
X166212231Y-35032685D01*
G37*
G36*
X168752231Y-35032685D02*
X168818416Y-35039204D01*
X168931642Y-35073551D01*
X168988256Y-35090724D01*
X169126876Y-35164819D01*
X169144780Y-35174389D01*
X169180518Y-35203719D01*
X169281975Y-35286981D01*
X169365237Y-35388438D01*
X169394567Y-35424176D01*
X169394568Y-35424178D01*
X169478232Y-35580700D01*
X169478232Y-35580701D01*
X169529752Y-35750540D01*
X169547148Y-35927167D01*
X169529752Y-36103794D01*
X169495405Y-36217020D01*
X169478232Y-36273634D01*
X169404137Y-36412254D01*
X169394567Y-36430158D01*
X169365237Y-36465896D01*
X169281975Y-36567353D01*
X169180518Y-36650615D01*
X169144780Y-36679945D01*
X169144778Y-36679946D01*
X168988256Y-36763610D01*
X168931642Y-36780783D01*
X168818416Y-36815130D01*
X168752231Y-36821649D01*
X168686049Y-36828167D01*
X168597529Y-36828167D01*
X168531347Y-36821649D01*
X168465162Y-36815130D01*
X168351936Y-36780783D01*
X168295322Y-36763610D01*
X168138800Y-36679946D01*
X168138798Y-36679945D01*
X168103060Y-36650615D01*
X168001603Y-36567353D01*
X167918341Y-36465896D01*
X167889011Y-36430158D01*
X167879441Y-36412254D01*
X167805346Y-36273634D01*
X167788173Y-36217020D01*
X167753826Y-36103794D01*
X167736430Y-35927167D01*
X167753826Y-35750540D01*
X167805346Y-35580701D01*
X167805346Y-35580700D01*
X167889010Y-35424178D01*
X167889011Y-35424176D01*
X167918341Y-35388438D01*
X168001603Y-35286981D01*
X168103060Y-35203719D01*
X168138798Y-35174389D01*
X168156702Y-35164819D01*
X168295322Y-35090724D01*
X168351936Y-35073551D01*
X168465162Y-35039204D01*
X168531347Y-35032685D01*
X168597529Y-35026167D01*
X168686049Y-35026167D01*
X168752231Y-35032685D01*
X168752231Y-35032685D01*
G37*
G36*
X171292231Y-35032685D02*
X171358416Y-35039204D01*
X171471642Y-35073551D01*
X171528256Y-35090724D01*
X171666876Y-35164819D01*
X171684780Y-35174389D01*
X171720518Y-35203719D01*
X171821975Y-35286981D01*
X171905237Y-35388438D01*
X171934567Y-35424176D01*
X171934568Y-35424178D01*
X172018232Y-35580700D01*
X172018232Y-35580701D01*
X172069752Y-35750540D01*
X172087148Y-35927167D01*
X172069752Y-36103794D01*
X172035405Y-36217020D01*
X172018232Y-36273634D01*
X171944137Y-36412254D01*
X171934567Y-36430158D01*
X171905237Y-36465896D01*
X171821975Y-36567353D01*
X171720518Y-36650615D01*
X171684780Y-36679945D01*
X171684778Y-36679946D01*
X171528256Y-36763610D01*
X171471642Y-36780783D01*
X171358416Y-36815130D01*
X171292231Y-36821649D01*
X171226049Y-36828167D01*
X171137529Y-36828167D01*
X171071347Y-36821649D01*
X171005162Y-36815130D01*
X170891936Y-36780783D01*
X170835322Y-36763610D01*
X170678800Y-36679946D01*
X170678798Y-36679945D01*
X170643060Y-36650615D01*
X170541603Y-36567353D01*
X170458341Y-36465896D01*
X170429011Y-36430158D01*
X170419441Y-36412254D01*
X170345346Y-36273634D01*
X170328173Y-36217020D01*
X170293826Y-36103794D01*
X170276430Y-35927167D01*
X170293826Y-35750540D01*
X170345346Y-35580701D01*
X170345346Y-35580700D01*
X170429010Y-35424178D01*
X170429011Y-35424176D01*
X170458341Y-35388438D01*
X170541603Y-35286981D01*
X170643060Y-35203719D01*
X170678798Y-35174389D01*
X170696702Y-35164819D01*
X170835322Y-35090724D01*
X170891936Y-35073551D01*
X171005162Y-35039204D01*
X171071347Y-35032685D01*
X171137529Y-35026167D01*
X171226049Y-35026167D01*
X171292231Y-35032685D01*
X171292231Y-35032685D01*
G37*
G36*
X158592231Y-35032685D02*
X158658416Y-35039204D01*
X158771642Y-35073551D01*
X158828256Y-35090724D01*
X158966876Y-35164819D01*
X158984780Y-35174389D01*
X159020518Y-35203719D01*
X159121975Y-35286981D01*
X159205237Y-35388438D01*
X159234567Y-35424176D01*
X159234568Y-35424178D01*
X159318232Y-35580700D01*
X159318232Y-35580701D01*
X159369752Y-35750540D01*
X159387148Y-35927167D01*
X159369752Y-36103794D01*
X159335405Y-36217020D01*
X159318232Y-36273634D01*
X159244137Y-36412254D01*
X159234567Y-36430158D01*
X159205237Y-36465896D01*
X159121975Y-36567353D01*
X159020518Y-36650615D01*
X158984780Y-36679945D01*
X158984778Y-36679946D01*
X158828256Y-36763610D01*
X158771642Y-36780783D01*
X158658416Y-36815130D01*
X158592231Y-36821649D01*
X158526049Y-36828167D01*
X158437529Y-36828167D01*
X158371347Y-36821649D01*
X158305162Y-36815130D01*
X158191936Y-36780783D01*
X158135322Y-36763610D01*
X157978800Y-36679946D01*
X157978798Y-36679945D01*
X157943060Y-36650615D01*
X157841603Y-36567353D01*
X157758341Y-36465896D01*
X157729011Y-36430158D01*
X157719441Y-36412254D01*
X157645346Y-36273634D01*
X157628173Y-36217020D01*
X157593826Y-36103794D01*
X157576430Y-35927167D01*
X157593826Y-35750540D01*
X157645346Y-35580701D01*
X157645346Y-35580700D01*
X157729010Y-35424178D01*
X157729011Y-35424176D01*
X157758341Y-35388438D01*
X157841603Y-35286981D01*
X157943060Y-35203719D01*
X157978798Y-35174389D01*
X157996702Y-35164819D01*
X158135322Y-35090724D01*
X158191936Y-35073551D01*
X158305162Y-35039204D01*
X158371347Y-35032685D01*
X158437529Y-35026167D01*
X158526049Y-35026167D01*
X158592231Y-35032685D01*
X158592231Y-35032685D01*
G37*
G36*
X156842789Y-34288167D02*
X155040789Y-34288167D01*
X155040789Y-32486167D01*
X156842789Y-32486167D01*
X156842789Y-34288167D01*
X156842789Y-34288167D01*
G37*
G36*
X158592232Y-32492686D02*
X158658416Y-32499204D01*
X158771642Y-32533551D01*
X158828256Y-32550724D01*
X158966876Y-32624819D01*
X158984780Y-32634389D01*
X159020518Y-32663719D01*
X159121975Y-32746981D01*
X159205237Y-32848438D01*
X159234567Y-32884176D01*
X159234568Y-32884178D01*
X159318232Y-33040700D01*
X159318232Y-33040701D01*
X159369752Y-33210540D01*
X159387148Y-33387167D01*
X159369752Y-33563794D01*
X159335405Y-33677020D01*
X159318232Y-33733634D01*
X159244137Y-33872254D01*
X159234567Y-33890158D01*
X159205237Y-33925896D01*
X159121975Y-34027353D01*
X159020518Y-34110615D01*
X158984780Y-34139945D01*
X158984778Y-34139946D01*
X158828256Y-34223610D01*
X158771642Y-34240783D01*
X158658416Y-34275130D01*
X158592231Y-34281649D01*
X158526049Y-34288167D01*
X158437529Y-34288167D01*
X158371347Y-34281649D01*
X158305162Y-34275130D01*
X158191936Y-34240783D01*
X158135322Y-34223610D01*
X157978800Y-34139946D01*
X157978798Y-34139945D01*
X157943060Y-34110615D01*
X157841603Y-34027353D01*
X157758341Y-33925896D01*
X157729011Y-33890158D01*
X157719441Y-33872254D01*
X157645346Y-33733634D01*
X157628173Y-33677020D01*
X157593826Y-33563794D01*
X157576430Y-33387167D01*
X157593826Y-33210540D01*
X157645346Y-33040701D01*
X157645346Y-33040700D01*
X157729010Y-32884178D01*
X157729011Y-32884176D01*
X157758341Y-32848438D01*
X157841603Y-32746981D01*
X157943060Y-32663719D01*
X157978798Y-32634389D01*
X157996702Y-32624819D01*
X158135322Y-32550724D01*
X158191936Y-32533551D01*
X158305162Y-32499204D01*
X158371346Y-32492686D01*
X158437529Y-32486167D01*
X158526049Y-32486167D01*
X158592232Y-32492686D01*
X158592232Y-32492686D01*
G37*
G36*
X161132232Y-32492686D02*
X161198416Y-32499204D01*
X161311642Y-32533551D01*
X161368256Y-32550724D01*
X161506876Y-32624819D01*
X161524780Y-32634389D01*
X161560518Y-32663719D01*
X161661975Y-32746981D01*
X161745237Y-32848438D01*
X161774567Y-32884176D01*
X161774568Y-32884178D01*
X161858232Y-33040700D01*
X161858232Y-33040701D01*
X161909752Y-33210540D01*
X161927148Y-33387167D01*
X161909752Y-33563794D01*
X161875405Y-33677020D01*
X161858232Y-33733634D01*
X161784137Y-33872254D01*
X161774567Y-33890158D01*
X161745237Y-33925896D01*
X161661975Y-34027353D01*
X161560518Y-34110615D01*
X161524780Y-34139945D01*
X161524778Y-34139946D01*
X161368256Y-34223610D01*
X161311642Y-34240783D01*
X161198416Y-34275130D01*
X161132231Y-34281649D01*
X161066049Y-34288167D01*
X160977529Y-34288167D01*
X160911347Y-34281649D01*
X160845162Y-34275130D01*
X160731936Y-34240783D01*
X160675322Y-34223610D01*
X160518800Y-34139946D01*
X160518798Y-34139945D01*
X160483060Y-34110615D01*
X160381603Y-34027353D01*
X160298341Y-33925896D01*
X160269011Y-33890158D01*
X160259441Y-33872254D01*
X160185346Y-33733634D01*
X160168173Y-33677020D01*
X160133826Y-33563794D01*
X160116430Y-33387167D01*
X160133826Y-33210540D01*
X160185346Y-33040701D01*
X160185346Y-33040700D01*
X160269010Y-32884178D01*
X160269011Y-32884176D01*
X160298341Y-32848438D01*
X160381603Y-32746981D01*
X160483060Y-32663719D01*
X160518798Y-32634389D01*
X160536702Y-32624819D01*
X160675322Y-32550724D01*
X160731936Y-32533551D01*
X160845162Y-32499204D01*
X160911346Y-32492686D01*
X160977529Y-32486167D01*
X161066049Y-32486167D01*
X161132232Y-32492686D01*
X161132232Y-32492686D01*
G37*
G36*
X163672232Y-32492686D02*
X163738416Y-32499204D01*
X163851642Y-32533551D01*
X163908256Y-32550724D01*
X164046876Y-32624819D01*
X164064780Y-32634389D01*
X164100518Y-32663719D01*
X164201975Y-32746981D01*
X164285237Y-32848438D01*
X164314567Y-32884176D01*
X164314568Y-32884178D01*
X164398232Y-33040700D01*
X164398232Y-33040701D01*
X164449752Y-33210540D01*
X164467148Y-33387167D01*
X164449752Y-33563794D01*
X164415405Y-33677020D01*
X164398232Y-33733634D01*
X164324137Y-33872254D01*
X164314567Y-33890158D01*
X164285237Y-33925896D01*
X164201975Y-34027353D01*
X164100518Y-34110615D01*
X164064780Y-34139945D01*
X164064778Y-34139946D01*
X163908256Y-34223610D01*
X163851642Y-34240783D01*
X163738416Y-34275130D01*
X163672231Y-34281649D01*
X163606049Y-34288167D01*
X163517529Y-34288167D01*
X163451347Y-34281649D01*
X163385162Y-34275130D01*
X163271936Y-34240783D01*
X163215322Y-34223610D01*
X163058800Y-34139946D01*
X163058798Y-34139945D01*
X163023060Y-34110615D01*
X162921603Y-34027353D01*
X162838341Y-33925896D01*
X162809011Y-33890158D01*
X162799441Y-33872254D01*
X162725346Y-33733634D01*
X162708173Y-33677020D01*
X162673826Y-33563794D01*
X162656430Y-33387167D01*
X162673826Y-33210540D01*
X162725346Y-33040701D01*
X162725346Y-33040700D01*
X162809010Y-32884178D01*
X162809011Y-32884176D01*
X162838341Y-32848438D01*
X162921603Y-32746981D01*
X163023060Y-32663719D01*
X163058798Y-32634389D01*
X163076702Y-32624819D01*
X163215322Y-32550724D01*
X163271936Y-32533551D01*
X163385162Y-32499204D01*
X163451346Y-32492686D01*
X163517529Y-32486167D01*
X163606049Y-32486167D01*
X163672232Y-32492686D01*
X163672232Y-32492686D01*
G37*
G36*
X171292232Y-32492686D02*
X171358416Y-32499204D01*
X171471642Y-32533551D01*
X171528256Y-32550724D01*
X171666876Y-32624819D01*
X171684780Y-32634389D01*
X171720518Y-32663719D01*
X171821975Y-32746981D01*
X171905237Y-32848438D01*
X171934567Y-32884176D01*
X171934568Y-32884178D01*
X172018232Y-33040700D01*
X172018232Y-33040701D01*
X172069752Y-33210540D01*
X172087148Y-33387167D01*
X172069752Y-33563794D01*
X172035405Y-33677020D01*
X172018232Y-33733634D01*
X171944137Y-33872254D01*
X171934567Y-33890158D01*
X171905237Y-33925896D01*
X171821975Y-34027353D01*
X171720518Y-34110615D01*
X171684780Y-34139945D01*
X171684778Y-34139946D01*
X171528256Y-34223610D01*
X171471642Y-34240783D01*
X171358416Y-34275130D01*
X171292231Y-34281649D01*
X171226049Y-34288167D01*
X171137529Y-34288167D01*
X171071347Y-34281649D01*
X171005162Y-34275130D01*
X170891936Y-34240783D01*
X170835322Y-34223610D01*
X170678800Y-34139946D01*
X170678798Y-34139945D01*
X170643060Y-34110615D01*
X170541603Y-34027353D01*
X170458341Y-33925896D01*
X170429011Y-33890158D01*
X170419441Y-33872254D01*
X170345346Y-33733634D01*
X170328173Y-33677020D01*
X170293826Y-33563794D01*
X170276430Y-33387167D01*
X170293826Y-33210540D01*
X170345346Y-33040701D01*
X170345346Y-33040700D01*
X170429010Y-32884178D01*
X170429011Y-32884176D01*
X170458341Y-32848438D01*
X170541603Y-32746981D01*
X170643060Y-32663719D01*
X170678798Y-32634389D01*
X170696702Y-32624819D01*
X170835322Y-32550724D01*
X170891936Y-32533551D01*
X171005162Y-32499204D01*
X171071346Y-32492686D01*
X171137529Y-32486167D01*
X171226049Y-32486167D01*
X171292232Y-32492686D01*
X171292232Y-32492686D01*
G37*
G36*
X166212232Y-32492686D02*
X166278416Y-32499204D01*
X166391642Y-32533551D01*
X166448256Y-32550724D01*
X166586876Y-32624819D01*
X166604780Y-32634389D01*
X166640518Y-32663719D01*
X166741975Y-32746981D01*
X166825237Y-32848438D01*
X166854567Y-32884176D01*
X166854568Y-32884178D01*
X166938232Y-33040700D01*
X166938232Y-33040701D01*
X166989752Y-33210540D01*
X167007148Y-33387167D01*
X166989752Y-33563794D01*
X166955405Y-33677020D01*
X166938232Y-33733634D01*
X166864137Y-33872254D01*
X166854567Y-33890158D01*
X166825237Y-33925896D01*
X166741975Y-34027353D01*
X166640518Y-34110615D01*
X166604780Y-34139945D01*
X166604778Y-34139946D01*
X166448256Y-34223610D01*
X166391642Y-34240783D01*
X166278416Y-34275130D01*
X166212231Y-34281649D01*
X166146049Y-34288167D01*
X166057529Y-34288167D01*
X165991347Y-34281649D01*
X165925162Y-34275130D01*
X165811936Y-34240783D01*
X165755322Y-34223610D01*
X165598800Y-34139946D01*
X165598798Y-34139945D01*
X165563060Y-34110615D01*
X165461603Y-34027353D01*
X165378341Y-33925896D01*
X165349011Y-33890158D01*
X165339441Y-33872254D01*
X165265346Y-33733634D01*
X165248173Y-33677020D01*
X165213826Y-33563794D01*
X165196430Y-33387167D01*
X165213826Y-33210540D01*
X165265346Y-33040701D01*
X165265346Y-33040700D01*
X165349010Y-32884178D01*
X165349011Y-32884176D01*
X165378341Y-32848438D01*
X165461603Y-32746981D01*
X165563060Y-32663719D01*
X165598798Y-32634389D01*
X165616702Y-32624819D01*
X165755322Y-32550724D01*
X165811936Y-32533551D01*
X165925162Y-32499204D01*
X165991346Y-32492686D01*
X166057529Y-32486167D01*
X166146049Y-32486167D01*
X166212232Y-32492686D01*
X166212232Y-32492686D01*
G37*
G36*
X168752232Y-32492686D02*
X168818416Y-32499204D01*
X168931642Y-32533551D01*
X168988256Y-32550724D01*
X169126876Y-32624819D01*
X169144780Y-32634389D01*
X169180518Y-32663719D01*
X169281975Y-32746981D01*
X169365237Y-32848438D01*
X169394567Y-32884176D01*
X169394568Y-32884178D01*
X169478232Y-33040700D01*
X169478232Y-33040701D01*
X169529752Y-33210540D01*
X169547148Y-33387167D01*
X169529752Y-33563794D01*
X169495405Y-33677020D01*
X169478232Y-33733634D01*
X169404137Y-33872254D01*
X169394567Y-33890158D01*
X169365237Y-33925896D01*
X169281975Y-34027353D01*
X169180518Y-34110615D01*
X169144780Y-34139945D01*
X169144778Y-34139946D01*
X168988256Y-34223610D01*
X168931642Y-34240783D01*
X168818416Y-34275130D01*
X168752231Y-34281649D01*
X168686049Y-34288167D01*
X168597529Y-34288167D01*
X168531347Y-34281649D01*
X168465162Y-34275130D01*
X168351936Y-34240783D01*
X168295322Y-34223610D01*
X168138800Y-34139946D01*
X168138798Y-34139945D01*
X168103060Y-34110615D01*
X168001603Y-34027353D01*
X167918341Y-33925896D01*
X167889011Y-33890158D01*
X167879441Y-33872254D01*
X167805346Y-33733634D01*
X167788173Y-33677020D01*
X167753826Y-33563794D01*
X167736430Y-33387167D01*
X167753826Y-33210540D01*
X167805346Y-33040701D01*
X167805346Y-33040700D01*
X167889010Y-32884178D01*
X167889011Y-32884176D01*
X167918341Y-32848438D01*
X168001603Y-32746981D01*
X168103060Y-32663719D01*
X168138798Y-32634389D01*
X168156702Y-32624819D01*
X168295322Y-32550724D01*
X168351936Y-32533551D01*
X168465162Y-32499204D01*
X168531346Y-32492686D01*
X168597529Y-32486167D01*
X168686049Y-32486167D01*
X168752232Y-32492686D01*
X168752232Y-32492686D01*
G37*
M02*
