G04 #@! TF.GenerationSoftware,KiCad,Pcbnew,(5.0.1)-4*
G04 #@! TF.CreationDate,2019-07-04T23:41:43-04:00*
G04 #@! TF.ProjectId,Receiver Board,526563656976657220426F6172642E6B,rev?*
G04 #@! TF.SameCoordinates,Original*
G04 #@! TF.FileFunction,Copper,L2,Bot,Signal*
G04 #@! TF.FilePolarity,Positive*
%FSLAX46Y46*%
G04 Gerber Fmt 4.6, Leading zero omitted, Abs format (unit mm)*
G04 Created by KiCad (PCBNEW (5.0.1)-4) date 7/4/2019 11:41:43 PM*
%MOMM*%
%LPD*%
G01*
G04 APERTURE LIST*
G04 #@! TA.AperFunction,ComponentPad*
%ADD10R,2.600000X2.600000*%
G04 #@! TD*
G04 #@! TA.AperFunction,ComponentPad*
%ADD11C,2.600000*%
G04 #@! TD*
G04 #@! TA.AperFunction,ComponentPad*
%ADD12C,1.450000*%
G04 #@! TD*
G04 #@! TA.AperFunction,ComponentPad*
%ADD13O,1.200000X1.900000*%
G04 #@! TD*
G04 #@! TA.AperFunction,ComponentPad*
%ADD14R,1.700000X1.700000*%
G04 #@! TD*
G04 #@! TA.AperFunction,ComponentPad*
%ADD15O,1.700000X1.700000*%
G04 #@! TD*
G04 #@! TA.AperFunction,ComponentPad*
%ADD16C,1.500000*%
G04 #@! TD*
G04 #@! TA.AperFunction,ViaPad*
%ADD17C,1.000000*%
G04 #@! TD*
G04 #@! TA.AperFunction,ViaPad*
%ADD18C,0.800000*%
G04 #@! TD*
G04 #@! TA.AperFunction,Conductor*
%ADD19C,0.600000*%
G04 #@! TD*
G04 #@! TA.AperFunction,Conductor*
%ADD20C,0.500000*%
G04 #@! TD*
G04 #@! TA.AperFunction,Conductor*
%ADD21C,0.250000*%
G04 #@! TD*
G04 #@! TA.AperFunction,Conductor*
%ADD22C,0.254000*%
G04 #@! TD*
G04 APERTURE END LIST*
D10*
G04 #@! TO.P,J1,1*
G04 #@! TO.N,+5V*
X128778000Y-51054000D03*
D11*
G04 #@! TO.P,J1,2*
G04 #@! TO.N,+12V*
X128778000Y-56134000D03*
G04 #@! TO.P,J1,3*
G04 #@! TO.N,GND*
X128778000Y-61214000D03*
G04 #@! TO.P,J1,4*
G04 #@! TO.N,/CANL*
X128778000Y-66294000D03*
G04 #@! TO.P,J1,5*
G04 #@! TO.N,/CANH*
X128778000Y-71374000D03*
G04 #@! TD*
D12*
G04 #@! TO.P,J3,6*
G04 #@! TO.N,GND*
X159298000Y-70356000D03*
X164298000Y-70356000D03*
D13*
X158298000Y-73056000D03*
X165298000Y-73056000D03*
G04 #@! TD*
D14*
G04 #@! TO.P,J5,1*
G04 #@! TO.N,+5V*
X133604000Y-41656000D03*
D15*
G04 #@! TO.P,J5,2*
G04 #@! TO.N,/CH1*
X136144000Y-41656000D03*
G04 #@! TO.P,J5,3*
G04 #@! TO.N,/~INT*
X138684000Y-41656000D03*
G04 #@! TO.P,J5,4*
G04 #@! TO.N,/A0*
X141224000Y-41656000D03*
G04 #@! TO.P,J5,5*
G04 #@! TO.N,/A1*
X143764000Y-41656000D03*
G04 #@! TO.P,J5,6*
G04 #@! TO.N,GND*
X146304000Y-41656000D03*
G04 #@! TD*
D14*
G04 #@! TO.P,J6,1*
G04 #@! TO.N,/CH7*
X155941789Y-38467167D03*
D15*
G04 #@! TO.P,J6,2*
G04 #@! TO.N,/CH6*
X158481789Y-38467167D03*
G04 #@! TO.P,J6,3*
G04 #@! TO.N,/CH5*
X161021789Y-38467167D03*
G04 #@! TO.P,J6,4*
G04 #@! TO.N,/CH4*
X163561789Y-38467167D03*
G04 #@! TO.P,J6,5*
G04 #@! TO.N,/CH3*
X166101789Y-38467167D03*
G04 #@! TO.P,J6,6*
G04 #@! TO.N,/CH2*
X168641789Y-38467167D03*
G04 #@! TO.P,J6,7*
G04 #@! TO.N,/CH1*
X171181789Y-38467167D03*
G04 #@! TD*
G04 #@! TO.P,5V,7*
G04 #@! TO.N,Net-(J7-Pad7)*
X171181789Y-35927167D03*
G04 #@! TO.P,5V,6*
G04 #@! TO.N,Net-(J7-Pad6)*
X168641789Y-35927167D03*
G04 #@! TO.P,5V,5*
G04 #@! TO.N,Net-(J7-Pad5)*
X166101789Y-35927167D03*
G04 #@! TO.P,5V,4*
G04 #@! TO.N,Net-(J7-Pad4)*
X163561789Y-35927167D03*
G04 #@! TO.P,5V,3*
G04 #@! TO.N,Net-(J7-Pad3)*
X161021789Y-35927167D03*
G04 #@! TO.P,5V,2*
G04 #@! TO.N,Net-(J7-Pad2)*
X158481789Y-35927167D03*
D14*
G04 #@! TO.P,5V,1*
G04 #@! TO.N,+5V*
X155941789Y-35927167D03*
G04 #@! TD*
G04 #@! TO.P,GND,1*
G04 #@! TO.N,GND*
X155941789Y-33387167D03*
D15*
G04 #@! TO.P,GND,2*
G04 #@! TO.N,Net-(J8-Pad2)*
X158481789Y-33387167D03*
G04 #@! TO.P,GND,3*
G04 #@! TO.N,Net-(J8-Pad3)*
X161021789Y-33387167D03*
G04 #@! TO.P,GND,4*
G04 #@! TO.N,Net-(J8-Pad4)*
X163561789Y-33387167D03*
G04 #@! TO.P,GND,5*
G04 #@! TO.N,Net-(J8-Pad5)*
X166101789Y-33387167D03*
G04 #@! TO.P,GND,6*
G04 #@! TO.N,Net-(J8-Pad6)*
X168641789Y-33387167D03*
G04 #@! TO.P,GND,7*
G04 #@! TO.N,Net-(J8-Pad7)*
X171181789Y-33387167D03*
G04 #@! TD*
D14*
G04 #@! TO.P,J2,1*
G04 #@! TO.N,Net-(J2-Pad1)*
X140716000Y-72644000D03*
D15*
G04 #@! TO.P,J2,2*
G04 #@! TO.N,/CANL*
X140716000Y-70104000D03*
G04 #@! TD*
D14*
G04 #@! TO.P,J4,1*
G04 #@! TO.N,/MISO*
X174498000Y-60198000D03*
D15*
G04 #@! TO.P,J4,2*
G04 #@! TO.N,+5V*
X174498000Y-62738000D03*
G04 #@! TO.P,J4,3*
G04 #@! TO.N,/SCK*
X171958000Y-60198000D03*
G04 #@! TO.P,J4,4*
G04 #@! TO.N,/MOSI*
X171958000Y-62738000D03*
G04 #@! TO.P,J4,5*
G04 #@! TO.N,/RST*
X169418000Y-60198000D03*
G04 #@! TO.P,J4,6*
G04 #@! TO.N,GND*
X169418000Y-62738000D03*
G04 #@! TD*
D16*
G04 #@! TO.P,Y1,1*
G04 #@! TO.N,Net-(C1-Pad1)*
X142748000Y-64262000D03*
G04 #@! TO.P,Y1,2*
G04 #@! TO.N,Net-(C2-Pad1)*
X147628000Y-64262000D03*
G04 #@! TD*
G04 #@! TO.P,Y2,2*
G04 #@! TO.N,/XTAL1*
X174752000Y-48714000D03*
G04 #@! TO.P,Y2,1*
G04 #@! TO.N,Net-(C7-Pad2)*
X174752000Y-53594000D03*
G04 #@! TD*
D17*
G04 #@! TO.N,+5V*
X148526500Y-70485000D03*
D18*
X157162500Y-44831000D03*
X165925500Y-43116500D03*
D17*
X162623500Y-65087500D03*
X157988000Y-65024000D03*
D18*
G04 #@! TO.N,GND*
X153035000Y-46228000D03*
X159258000Y-53022500D03*
X165608000Y-61912500D03*
X153162000Y-67119500D03*
X143446500Y-73025000D03*
X151638000Y-71755000D03*
X137160000Y-67056000D03*
X147066000Y-60642500D03*
X134429500Y-47244000D03*
X179578000Y-56451500D03*
X179578000Y-45910500D03*
X167767000Y-52133500D03*
X169608500Y-41656000D03*
X167576500Y-43307000D03*
X162750500Y-57848500D03*
X156146500Y-52070000D03*
X148463000Y-55081000D03*
X145796000Y-66230500D03*
X158305500Y-61849000D03*
X177355500Y-51054000D03*
X137985500Y-38163500D03*
G04 #@! TO.N,/~INT*
X164592000Y-46482000D03*
X144526000Y-47498000D03*
G04 #@! TO.N,/A0*
X159503950Y-48223000D03*
G04 #@! TO.N,/A1*
X148526500Y-46545500D03*
G04 #@! TO.N,/CH7*
X159702500Y-43180000D03*
G04 #@! TO.N,/CH2*
X161251000Y-43180000D03*
G04 #@! TO.N,/RST*
X167386000Y-53848000D03*
X170434000Y-67310000D03*
G04 #@! TO.N,Net-(C1-Pad1)*
X144526000Y-60706000D03*
X139128500Y-64262000D03*
G04 #@! TO.N,/SCK*
X143256000Y-49673001D03*
X163648097Y-54029903D03*
G04 #@! TO.N,/MISO*
X168084500Y-57441000D03*
X140779500Y-47625000D03*
G04 #@! TO.N,/~CS*
X164993153Y-57637847D03*
X139446000Y-50927000D03*
G04 #@! TD*
D19*
G04 #@! TO.N,+5V*
X131508500Y-51054000D02*
X128778000Y-51054000D01*
X136842500Y-56388000D02*
X131508500Y-51054000D01*
X136842500Y-63493502D02*
X136842500Y-56388000D01*
X143433999Y-70085001D02*
X136842500Y-63493502D01*
X148526500Y-70485000D02*
X148126501Y-70085001D01*
X148126501Y-70085001D02*
X143433999Y-70085001D01*
D20*
X157728185Y-44831000D02*
X157162500Y-44831000D01*
X164776685Y-44831000D02*
X157728185Y-44831000D01*
X165925500Y-43682185D02*
X164776685Y-44831000D01*
X165925500Y-43116500D02*
X165925500Y-43682185D01*
D21*
X162560000Y-65024000D02*
X162623500Y-65087500D01*
D19*
X157988000Y-65024000D02*
X162560000Y-65024000D01*
D21*
G04 #@! TO.N,/~INT*
X164592000Y-46482000D02*
X163576000Y-47498000D01*
X163576000Y-47498000D02*
X144526000Y-47498000D01*
X139533999Y-40806001D02*
X138684000Y-41656000D01*
X141788001Y-40480999D02*
X139859001Y-40480999D01*
X139859001Y-40480999D02*
X139533999Y-40806001D01*
X142399001Y-41091999D02*
X141788001Y-40480999D01*
X142399001Y-44805316D02*
X142399001Y-41091999D01*
X144526000Y-46932315D02*
X142399001Y-44805316D01*
X144526000Y-47498000D02*
X144526000Y-46932315D01*
G04 #@! TO.N,/A0*
X144177998Y-48223000D02*
X159503950Y-48223000D01*
X141224000Y-41656000D02*
X141224000Y-45269002D01*
X141224000Y-45269002D02*
X144177998Y-48223000D01*
G04 #@! TO.N,/A1*
X143764000Y-41783000D02*
X143764000Y-41656000D01*
X148526500Y-46545500D02*
X143764000Y-41783000D01*
G04 #@! TO.N,/CH7*
X155941789Y-39419289D02*
X155941789Y-38467167D01*
X159702500Y-43180000D02*
X155941789Y-39419289D01*
G04 #@! TO.N,/CH2*
X168641789Y-38467167D02*
X163928956Y-43180000D01*
X163928956Y-43180000D02*
X161251000Y-43180000D01*
G04 #@! TO.N,/RST*
X169418000Y-60198000D02*
X169418000Y-55880000D01*
X169418000Y-55880000D02*
X167386000Y-53848000D01*
X168242999Y-65118999D02*
X170434000Y-67310000D01*
X169418000Y-60198000D02*
X168242999Y-61373001D01*
X168242999Y-61373001D02*
X168242999Y-65118999D01*
G04 #@! TO.N,Net-(C1-Pad1)*
X142748000Y-64262000D02*
X142748000Y-62484000D01*
X142748000Y-62484000D02*
X144526000Y-60706000D01*
X142748000Y-64262000D02*
X139128500Y-64262000D01*
G04 #@! TO.N,/SCK*
X163275694Y-53657500D02*
X163648097Y-54029903D01*
X159058193Y-49439999D02*
X163275694Y-53657500D01*
X143256000Y-49673001D02*
X143489002Y-49439999D01*
X143489002Y-49439999D02*
X159058193Y-49439999D01*
G04 #@! TO.N,/MISO*
X142102501Y-48948001D02*
X140779500Y-47625000D01*
X168084500Y-57441000D02*
X159591501Y-48948001D01*
X159591501Y-48948001D02*
X142102501Y-48948001D01*
G04 #@! TO.N,/~CS*
X139482999Y-50890001D02*
X139446000Y-50927000D01*
X164993153Y-57637847D02*
X158245307Y-50890001D01*
X158245307Y-50890001D02*
X139482999Y-50890001D01*
G04 #@! TD*
D22*
G04 #@! TO.N,GND*
G36*
X154456789Y-32410858D02*
X154456789Y-33101417D01*
X154615539Y-33260167D01*
X155814789Y-33260167D01*
X155814789Y-33240167D01*
X156068789Y-33240167D01*
X156068789Y-33260167D01*
X156088789Y-33260167D01*
X156088789Y-33514167D01*
X156068789Y-33514167D01*
X156068789Y-33534167D01*
X155814789Y-33534167D01*
X155814789Y-33514167D01*
X154615539Y-33514167D01*
X154456789Y-33672917D01*
X154456789Y-34363476D01*
X154553462Y-34596865D01*
X154610738Y-34654142D01*
X154493632Y-34829402D01*
X154444349Y-35077167D01*
X154444349Y-36777167D01*
X154493632Y-37024932D01*
X154608717Y-37197167D01*
X154493632Y-37369402D01*
X154444349Y-37617167D01*
X154444349Y-39317167D01*
X154493632Y-39564932D01*
X154633980Y-39774976D01*
X154844024Y-39915324D01*
X155091789Y-39964607D01*
X155392115Y-39964607D01*
X155393860Y-39967218D01*
X155457319Y-40009620D01*
X158667500Y-43219802D01*
X158667500Y-43385874D01*
X158825069Y-43766280D01*
X159004789Y-43946000D01*
X157730507Y-43946000D01*
X157368374Y-43796000D01*
X156956626Y-43796000D01*
X156576220Y-43953569D01*
X156285069Y-44244720D01*
X156127500Y-44625126D01*
X156127500Y-45036874D01*
X156285069Y-45417280D01*
X156576220Y-45708431D01*
X156956626Y-45866000D01*
X157368374Y-45866000D01*
X157730507Y-45716000D01*
X163894289Y-45716000D01*
X163714569Y-45895720D01*
X163557000Y-46276126D01*
X163557000Y-46442198D01*
X163261199Y-46738000D01*
X149561500Y-46738000D01*
X149561500Y-46339626D01*
X149403931Y-45959220D01*
X149112780Y-45668069D01*
X148732374Y-45510500D01*
X148566302Y-45510500D01*
X146082060Y-43026258D01*
X146177000Y-42976155D01*
X146177000Y-41783000D01*
X146431000Y-41783000D01*
X146431000Y-42976155D01*
X146660890Y-43097476D01*
X147070924Y-42927645D01*
X147499183Y-42537358D01*
X147745486Y-42012892D01*
X147624819Y-41783000D01*
X146431000Y-41783000D01*
X146177000Y-41783000D01*
X146157000Y-41783000D01*
X146157000Y-41529000D01*
X146177000Y-41529000D01*
X146177000Y-40335845D01*
X146431000Y-40335845D01*
X146431000Y-41529000D01*
X147624819Y-41529000D01*
X147745486Y-41299108D01*
X147499183Y-40774642D01*
X147070924Y-40384355D01*
X146660890Y-40214524D01*
X146431000Y-40335845D01*
X146177000Y-40335845D01*
X145947110Y-40214524D01*
X145537076Y-40384355D01*
X145108817Y-40774642D01*
X145047843Y-40904478D01*
X144834625Y-40585375D01*
X144343418Y-40257161D01*
X143910256Y-40171000D01*
X143617744Y-40171000D01*
X143184582Y-40257161D01*
X142857509Y-40475704D01*
X142378331Y-39996528D01*
X142335930Y-39933070D01*
X142084538Y-39765095D01*
X141862853Y-39720999D01*
X141862848Y-39720999D01*
X141788001Y-39706111D01*
X141713154Y-39720999D01*
X139933847Y-39720999D01*
X139859000Y-39706111D01*
X139784153Y-39720999D01*
X139784149Y-39720999D01*
X139562464Y-39765095D01*
X139311072Y-39933070D01*
X139268670Y-39996529D01*
X139050408Y-40214791D01*
X138830256Y-40171000D01*
X138537744Y-40171000D01*
X138104582Y-40257161D01*
X137613375Y-40585375D01*
X137414000Y-40883761D01*
X137214625Y-40585375D01*
X136723418Y-40257161D01*
X136290256Y-40171000D01*
X135997744Y-40171000D01*
X135564582Y-40257161D01*
X135073375Y-40585375D01*
X135061184Y-40603619D01*
X135052157Y-40558235D01*
X134911809Y-40348191D01*
X134701765Y-40207843D01*
X134454000Y-40158560D01*
X132754000Y-40158560D01*
X132506235Y-40207843D01*
X132296191Y-40348191D01*
X132155843Y-40558235D01*
X132106560Y-40806000D01*
X132106560Y-42506000D01*
X132155843Y-42753765D01*
X132296191Y-42963809D01*
X132506235Y-43104157D01*
X132754000Y-43153440D01*
X134454000Y-43153440D01*
X134701765Y-43104157D01*
X134911809Y-42963809D01*
X135052157Y-42753765D01*
X135061184Y-42708381D01*
X135073375Y-42726625D01*
X135564582Y-43054839D01*
X135997744Y-43141000D01*
X136290256Y-43141000D01*
X136723418Y-43054839D01*
X137214625Y-42726625D01*
X137414000Y-42428239D01*
X137613375Y-42726625D01*
X138104582Y-43054839D01*
X138537744Y-43141000D01*
X138830256Y-43141000D01*
X139263418Y-43054839D01*
X139754625Y-42726625D01*
X139954000Y-42428239D01*
X140153375Y-42726625D01*
X140464000Y-42934178D01*
X140464001Y-45194150D01*
X140449112Y-45269002D01*
X140508097Y-45565539D01*
X140603575Y-45708431D01*
X140676072Y-45816931D01*
X140739528Y-45859331D01*
X143068197Y-48188001D01*
X142417303Y-48188001D01*
X141814500Y-47585199D01*
X141814500Y-47419126D01*
X141656931Y-47038720D01*
X141365780Y-46747569D01*
X140985374Y-46590000D01*
X140573626Y-46590000D01*
X140193220Y-46747569D01*
X139902069Y-47038720D01*
X139744500Y-47419126D01*
X139744500Y-47830874D01*
X139902069Y-48211280D01*
X140193220Y-48502431D01*
X140573626Y-48660000D01*
X140739699Y-48660000D01*
X141512171Y-49432473D01*
X141554572Y-49495930D01*
X141805964Y-49663905D01*
X142027649Y-49708001D01*
X142027654Y-49708001D01*
X142102501Y-49722889D01*
X142177348Y-49708001D01*
X142221000Y-49708001D01*
X142221000Y-49878875D01*
X142325020Y-50130001D01*
X140112712Y-50130001D01*
X140032280Y-50049569D01*
X139651874Y-49892000D01*
X139240126Y-49892000D01*
X138859720Y-50049569D01*
X138568569Y-50340720D01*
X138411000Y-50721126D01*
X138411000Y-51132874D01*
X138568569Y-51513280D01*
X138859720Y-51804431D01*
X139240126Y-51962000D01*
X139651874Y-51962000D01*
X140032280Y-51804431D01*
X140186710Y-51650001D01*
X157930506Y-51650001D01*
X163958153Y-57677650D01*
X163958153Y-57843721D01*
X164115722Y-58224127D01*
X164406873Y-58515278D01*
X164787279Y-58672847D01*
X165199027Y-58672847D01*
X165579433Y-58515278D01*
X165870584Y-58224127D01*
X166028153Y-57843721D01*
X166028153Y-57431973D01*
X165870584Y-57051567D01*
X165579433Y-56760416D01*
X165199027Y-56602847D01*
X165032956Y-56602847D01*
X163495011Y-55064903D01*
X163853971Y-55064903D01*
X164234377Y-54907334D01*
X164355204Y-54786507D01*
X167049500Y-57480803D01*
X167049500Y-57646874D01*
X167207069Y-58027280D01*
X167498220Y-58318431D01*
X167878626Y-58476000D01*
X168290374Y-58476000D01*
X168658000Y-58323724D01*
X168658000Y-58919822D01*
X168347375Y-59127375D01*
X168019161Y-59618582D01*
X167903908Y-60198000D01*
X167976791Y-60564408D01*
X167758529Y-60782670D01*
X167695070Y-60825072D01*
X167527095Y-61076465D01*
X167482999Y-61298150D01*
X167482999Y-61298154D01*
X167468111Y-61373001D01*
X167482999Y-61447848D01*
X167483000Y-65044147D01*
X167468111Y-65118999D01*
X167483000Y-65193851D01*
X167527096Y-65415536D01*
X167695071Y-65666928D01*
X167758527Y-65709328D01*
X169399000Y-67349803D01*
X169399000Y-67515874D01*
X169556569Y-67896280D01*
X169847720Y-68187431D01*
X170228126Y-68345000D01*
X170639874Y-68345000D01*
X171020280Y-68187431D01*
X171311431Y-67896280D01*
X171469000Y-67515874D01*
X171469000Y-67104126D01*
X171311431Y-66723720D01*
X171020280Y-66432569D01*
X170639874Y-66275000D01*
X170473803Y-66275000D01*
X169002999Y-64804198D01*
X169002999Y-64155407D01*
X169061110Y-64179476D01*
X169291000Y-64058155D01*
X169291000Y-62865000D01*
X169271000Y-62865000D01*
X169271000Y-62611000D01*
X169291000Y-62611000D01*
X169291000Y-62591000D01*
X169545000Y-62591000D01*
X169545000Y-62611000D01*
X169565000Y-62611000D01*
X169565000Y-62865000D01*
X169545000Y-62865000D01*
X169545000Y-64058155D01*
X169774890Y-64179476D01*
X170184924Y-64009645D01*
X170613183Y-63619358D01*
X170674157Y-63489522D01*
X170887375Y-63808625D01*
X171378582Y-64136839D01*
X171811744Y-64223000D01*
X172104256Y-64223000D01*
X172537418Y-64136839D01*
X173028625Y-63808625D01*
X173228000Y-63510239D01*
X173427375Y-63808625D01*
X173918582Y-64136839D01*
X174351744Y-64223000D01*
X174644256Y-64223000D01*
X175077418Y-64136839D01*
X175568625Y-63808625D01*
X175896839Y-63317418D01*
X176012092Y-62738000D01*
X175896839Y-62158582D01*
X175568625Y-61667375D01*
X175550381Y-61655184D01*
X175595765Y-61646157D01*
X175805809Y-61505809D01*
X175946157Y-61295765D01*
X175995440Y-61048000D01*
X175995440Y-59348000D01*
X175946157Y-59100235D01*
X175805809Y-58890191D01*
X175595765Y-58749843D01*
X175348000Y-58700560D01*
X173648000Y-58700560D01*
X173400235Y-58749843D01*
X173190191Y-58890191D01*
X173049843Y-59100235D01*
X173040816Y-59145619D01*
X173028625Y-59127375D01*
X172537418Y-58799161D01*
X172104256Y-58713000D01*
X171811744Y-58713000D01*
X171378582Y-58799161D01*
X170887375Y-59127375D01*
X170688000Y-59425761D01*
X170488625Y-59127375D01*
X170178000Y-58919822D01*
X170178000Y-55954847D01*
X170192888Y-55880000D01*
X170178000Y-55805153D01*
X170178000Y-55805148D01*
X170133904Y-55583463D01*
X169965929Y-55332071D01*
X169902473Y-55289671D01*
X168421000Y-53808199D01*
X168421000Y-53642126D01*
X168286953Y-53318506D01*
X173367000Y-53318506D01*
X173367000Y-53869494D01*
X173577853Y-54378540D01*
X173967460Y-54768147D01*
X174476506Y-54979000D01*
X175027494Y-54979000D01*
X175536540Y-54768147D01*
X175926147Y-54378540D01*
X176137000Y-53869494D01*
X176137000Y-53318506D01*
X175926147Y-52809460D01*
X175536540Y-52419853D01*
X175027494Y-52209000D01*
X174476506Y-52209000D01*
X173967460Y-52419853D01*
X173577853Y-52809460D01*
X173367000Y-53318506D01*
X168286953Y-53318506D01*
X168263431Y-53261720D01*
X167972280Y-52970569D01*
X167591874Y-52813000D01*
X167180126Y-52813000D01*
X166799720Y-52970569D01*
X166508569Y-53261720D01*
X166351000Y-53642126D01*
X166351000Y-54053874D01*
X166508569Y-54434280D01*
X166799720Y-54725431D01*
X167180126Y-54883000D01*
X167346199Y-54883000D01*
X168658001Y-56194803D01*
X168658001Y-56558276D01*
X168290374Y-56406000D01*
X168124303Y-56406000D01*
X160424202Y-48705901D01*
X160534960Y-48438506D01*
X173367000Y-48438506D01*
X173367000Y-48989494D01*
X173577853Y-49498540D01*
X173967460Y-49888147D01*
X174476506Y-50099000D01*
X175027494Y-50099000D01*
X175536540Y-49888147D01*
X175926147Y-49498540D01*
X176137000Y-48989494D01*
X176137000Y-48438506D01*
X175926147Y-47929460D01*
X175536540Y-47539853D01*
X175027494Y-47329000D01*
X174476506Y-47329000D01*
X173967460Y-47539853D01*
X173577853Y-47929460D01*
X173367000Y-48438506D01*
X160534960Y-48438506D01*
X160538950Y-48428874D01*
X160538950Y-48258000D01*
X163501153Y-48258000D01*
X163576000Y-48272888D01*
X163650847Y-48258000D01*
X163650852Y-48258000D01*
X163872537Y-48213904D01*
X164123929Y-48045929D01*
X164166331Y-47982470D01*
X164631802Y-47517000D01*
X164797874Y-47517000D01*
X165178280Y-47359431D01*
X165469431Y-47068280D01*
X165627000Y-46687874D01*
X165627000Y-46276126D01*
X165469431Y-45895720D01*
X165191752Y-45618041D01*
X165414734Y-45469049D01*
X165464110Y-45395153D01*
X166489656Y-44369608D01*
X166563549Y-44320234D01*
X166633865Y-44215000D01*
X166759152Y-44027495D01*
X166810500Y-43769350D01*
X166810500Y-43769346D01*
X166827837Y-43682185D01*
X166822525Y-43655477D01*
X166960500Y-43322374D01*
X166960500Y-42910626D01*
X166802931Y-42530220D01*
X166511780Y-42239069D01*
X166131374Y-42081500D01*
X166102258Y-42081500D01*
X168275382Y-39908376D01*
X168495533Y-39952167D01*
X168788045Y-39952167D01*
X169221207Y-39866006D01*
X169712414Y-39537792D01*
X169911789Y-39239406D01*
X170111164Y-39537792D01*
X170602371Y-39866006D01*
X171035533Y-39952167D01*
X171328045Y-39952167D01*
X171761207Y-39866006D01*
X172252414Y-39537792D01*
X172580628Y-39046585D01*
X172695881Y-38467167D01*
X172580628Y-37887749D01*
X172252414Y-37396542D01*
X171954028Y-37197167D01*
X172252414Y-36997792D01*
X172580628Y-36506585D01*
X172695881Y-35927167D01*
X172580628Y-35347749D01*
X172252414Y-34856542D01*
X171954028Y-34657167D01*
X172252414Y-34457792D01*
X172580628Y-33966585D01*
X172695881Y-33387167D01*
X172580628Y-32807749D01*
X172252414Y-32316542D01*
X172092963Y-32210000D01*
X180290001Y-32210000D01*
X180290000Y-73790000D01*
X166453832Y-73790000D01*
X166533000Y-73533000D01*
X166533000Y-73183000D01*
X165425000Y-73183000D01*
X165425000Y-73203000D01*
X165171000Y-73203000D01*
X165171000Y-73183000D01*
X164063000Y-73183000D01*
X164063000Y-73533000D01*
X164142168Y-73790000D01*
X159453832Y-73790000D01*
X159533000Y-73533000D01*
X159533000Y-73183000D01*
X158425000Y-73183000D01*
X158425000Y-73203000D01*
X158171000Y-73203000D01*
X158171000Y-73183000D01*
X157063000Y-73183000D01*
X157063000Y-73533000D01*
X157142168Y-73790000D01*
X142131927Y-73790000D01*
X142164157Y-73741765D01*
X142213440Y-73494000D01*
X142213440Y-72579000D01*
X157063000Y-72579000D01*
X157063000Y-72929000D01*
X158171000Y-72929000D01*
X158171000Y-71637269D01*
X158425000Y-71637269D01*
X158425000Y-72929000D01*
X159533000Y-72929000D01*
X159533000Y-72579000D01*
X159390390Y-72116053D01*
X159081474Y-71742920D01*
X158962232Y-71679842D01*
X159099146Y-71728312D01*
X159639444Y-71699949D01*
X160006878Y-71547753D01*
X160071793Y-71309398D01*
X163524207Y-71309398D01*
X163589122Y-71547753D01*
X164099146Y-71728312D01*
X164590945Y-71702495D01*
X164514526Y-71742920D01*
X164205610Y-72116053D01*
X164063000Y-72579000D01*
X164063000Y-72929000D01*
X165171000Y-72929000D01*
X165171000Y-71637269D01*
X165425000Y-71637269D01*
X165425000Y-72929000D01*
X166533000Y-72929000D01*
X166533000Y-72579000D01*
X166390390Y-72116053D01*
X166081474Y-71742920D01*
X165653281Y-71516408D01*
X165615609Y-71512538D01*
X165425000Y-71637269D01*
X165171000Y-71637269D01*
X165011012Y-71532576D01*
X165071793Y-71309398D01*
X164298000Y-70535605D01*
X163524207Y-71309398D01*
X160071793Y-71309398D01*
X159298000Y-70535605D01*
X158524207Y-71309398D01*
X158584988Y-71532576D01*
X158425000Y-71637269D01*
X158171000Y-71637269D01*
X157980391Y-71512538D01*
X157942719Y-71516408D01*
X157514526Y-71742920D01*
X157205610Y-72116053D01*
X157063000Y-72579000D01*
X142213440Y-72579000D01*
X142213440Y-71794000D01*
X142164157Y-71546235D01*
X142023809Y-71336191D01*
X141813765Y-71195843D01*
X141768381Y-71186816D01*
X141786625Y-71174625D01*
X142114839Y-70683418D01*
X142213603Y-70186895D01*
X142707739Y-70681031D01*
X142759902Y-70759098D01*
X143069180Y-70965751D01*
X143341913Y-71020001D01*
X143341916Y-71020001D01*
X143433998Y-71038317D01*
X143526080Y-71020001D01*
X147519589Y-71020001D01*
X147564293Y-71127926D01*
X147883574Y-71447207D01*
X148300734Y-71620000D01*
X148752266Y-71620000D01*
X149169426Y-71447207D01*
X149488707Y-71127926D01*
X149661500Y-70710766D01*
X149661500Y-70259234D01*
X149619214Y-70157146D01*
X157925688Y-70157146D01*
X157954051Y-70697444D01*
X158106247Y-71064878D01*
X158344602Y-71129793D01*
X159118395Y-70356000D01*
X159477605Y-70356000D01*
X160251398Y-71129793D01*
X160489753Y-71064878D01*
X160670312Y-70554854D01*
X160649435Y-70157146D01*
X162925688Y-70157146D01*
X162954051Y-70697444D01*
X163106247Y-71064878D01*
X163344602Y-71129793D01*
X164118395Y-70356000D01*
X164477605Y-70356000D01*
X165251398Y-71129793D01*
X165489753Y-71064878D01*
X165670312Y-70554854D01*
X165641949Y-70014556D01*
X165489753Y-69647122D01*
X165251398Y-69582207D01*
X164477605Y-70356000D01*
X164118395Y-70356000D01*
X163344602Y-69582207D01*
X163106247Y-69647122D01*
X162925688Y-70157146D01*
X160649435Y-70157146D01*
X160641949Y-70014556D01*
X160489753Y-69647122D01*
X160251398Y-69582207D01*
X159477605Y-70356000D01*
X159118395Y-70356000D01*
X158344602Y-69582207D01*
X158106247Y-69647122D01*
X157925688Y-70157146D01*
X149619214Y-70157146D01*
X149488707Y-69842074D01*
X149169426Y-69522793D01*
X148879259Y-69402602D01*
X158524207Y-69402602D01*
X159298000Y-70176395D01*
X160071793Y-69402602D01*
X163524207Y-69402602D01*
X164298000Y-70176395D01*
X165071793Y-69402602D01*
X165006878Y-69164247D01*
X164496854Y-68983688D01*
X163956556Y-69012051D01*
X163589122Y-69164247D01*
X163524207Y-69402602D01*
X160071793Y-69402602D01*
X160006878Y-69164247D01*
X159496854Y-68983688D01*
X158956556Y-69012051D01*
X158589122Y-69164247D01*
X158524207Y-69402602D01*
X148879259Y-69402602D01*
X148752266Y-69350000D01*
X148709449Y-69350000D01*
X148491320Y-69204251D01*
X148218587Y-69150001D01*
X148126501Y-69131684D01*
X148034415Y-69150001D01*
X143821289Y-69150001D01*
X139762749Y-65091462D01*
X139832211Y-65022000D01*
X141563688Y-65022000D01*
X141573853Y-65046540D01*
X141963460Y-65436147D01*
X142472506Y-65647000D01*
X143023494Y-65647000D01*
X143532540Y-65436147D01*
X143922147Y-65046540D01*
X144133000Y-64537494D01*
X144133000Y-63986506D01*
X146243000Y-63986506D01*
X146243000Y-64537494D01*
X146453853Y-65046540D01*
X146843460Y-65436147D01*
X147352506Y-65647000D01*
X147903494Y-65647000D01*
X148412540Y-65436147D01*
X148802147Y-65046540D01*
X148904998Y-64798234D01*
X156853000Y-64798234D01*
X156853000Y-65249766D01*
X157025793Y-65666926D01*
X157345074Y-65986207D01*
X157762234Y-66159000D01*
X158213766Y-66159000D01*
X158630926Y-65986207D01*
X158658133Y-65959000D01*
X161889867Y-65959000D01*
X161980574Y-66049707D01*
X162397734Y-66222500D01*
X162849266Y-66222500D01*
X163266426Y-66049707D01*
X163585707Y-65730426D01*
X163758500Y-65313266D01*
X163758500Y-64861734D01*
X163585707Y-64444574D01*
X163266426Y-64125293D01*
X162849266Y-63952500D01*
X162397734Y-63952500D01*
X162068193Y-64089000D01*
X158658133Y-64089000D01*
X158630926Y-64061793D01*
X158213766Y-63889000D01*
X157762234Y-63889000D01*
X157345074Y-64061793D01*
X157025793Y-64381074D01*
X156853000Y-64798234D01*
X148904998Y-64798234D01*
X149013000Y-64537494D01*
X149013000Y-63986506D01*
X148802147Y-63477460D01*
X148412540Y-63087853D01*
X147903494Y-62877000D01*
X147352506Y-62877000D01*
X146843460Y-63087853D01*
X146453853Y-63477460D01*
X146243000Y-63986506D01*
X144133000Y-63986506D01*
X143922147Y-63477460D01*
X143532540Y-63087853D01*
X143508000Y-63077688D01*
X143508000Y-62798801D01*
X144565802Y-61741000D01*
X144731874Y-61741000D01*
X145112280Y-61583431D01*
X145403431Y-61292280D01*
X145561000Y-60911874D01*
X145561000Y-60500126D01*
X145403431Y-60119720D01*
X145112280Y-59828569D01*
X144731874Y-59671000D01*
X144320126Y-59671000D01*
X143939720Y-59828569D01*
X143648569Y-60119720D01*
X143491000Y-60500126D01*
X143491000Y-60666198D01*
X142263528Y-61893671D01*
X142200072Y-61936071D01*
X142157672Y-61999527D01*
X142157671Y-61999528D01*
X142051395Y-62158582D01*
X142032097Y-62187463D01*
X142015979Y-62268496D01*
X141973112Y-62484000D01*
X141988001Y-62558852D01*
X141988001Y-63077688D01*
X141963460Y-63087853D01*
X141573853Y-63477460D01*
X141563688Y-63502000D01*
X139832211Y-63502000D01*
X139714780Y-63384569D01*
X139334374Y-63227000D01*
X138922626Y-63227000D01*
X138542220Y-63384569D01*
X138299038Y-63627751D01*
X137777500Y-63106213D01*
X137777500Y-56480085D01*
X137795817Y-56387999D01*
X137723250Y-56023181D01*
X137568759Y-55791969D01*
X137516597Y-55713903D01*
X137438531Y-55661741D01*
X132234761Y-50457972D01*
X132182597Y-50379903D01*
X131873319Y-50173250D01*
X131600586Y-50119000D01*
X131508500Y-50100683D01*
X131416414Y-50119000D01*
X130725440Y-50119000D01*
X130725440Y-49754000D01*
X130676157Y-49506235D01*
X130535809Y-49296191D01*
X130325765Y-49155843D01*
X130078000Y-49106560D01*
X127478000Y-49106560D01*
X127230235Y-49155843D01*
X127020191Y-49296191D01*
X126879843Y-49506235D01*
X126830560Y-49754000D01*
X126830560Y-52354000D01*
X126879843Y-52601765D01*
X127020191Y-52811809D01*
X127230235Y-52952157D01*
X127478000Y-53001440D01*
X130078000Y-53001440D01*
X130325765Y-52952157D01*
X130535809Y-52811809D01*
X130676157Y-52601765D01*
X130725440Y-52354000D01*
X130725440Y-51989000D01*
X131121211Y-51989000D01*
X135907501Y-56775291D01*
X135907500Y-63401416D01*
X135889183Y-63493502D01*
X135907500Y-63585587D01*
X135961750Y-63858320D01*
X136168403Y-64167599D01*
X136246472Y-64219763D01*
X140645708Y-68619000D01*
X140569744Y-68619000D01*
X140136582Y-68705161D01*
X139645375Y-69033375D01*
X139317161Y-69524582D01*
X139201908Y-70104000D01*
X139317161Y-70683418D01*
X139645375Y-71174625D01*
X139663619Y-71186816D01*
X139618235Y-71195843D01*
X139408191Y-71336191D01*
X139267843Y-71546235D01*
X139218560Y-71794000D01*
X139218560Y-73494000D01*
X139267843Y-73741765D01*
X139300073Y-73790000D01*
X124210000Y-73790000D01*
X124210000Y-70989105D01*
X126843000Y-70989105D01*
X126843000Y-71758895D01*
X127137586Y-72470090D01*
X127681910Y-73014414D01*
X128393105Y-73309000D01*
X129162895Y-73309000D01*
X129874090Y-73014414D01*
X130418414Y-72470090D01*
X130713000Y-71758895D01*
X130713000Y-70989105D01*
X130418414Y-70277910D01*
X129874090Y-69733586D01*
X129162895Y-69439000D01*
X128393105Y-69439000D01*
X127681910Y-69733586D01*
X127137586Y-70277910D01*
X126843000Y-70989105D01*
X124210000Y-70989105D01*
X124210000Y-65909105D01*
X126843000Y-65909105D01*
X126843000Y-66678895D01*
X127137586Y-67390090D01*
X127681910Y-67934414D01*
X128393105Y-68229000D01*
X129162895Y-68229000D01*
X129874090Y-67934414D01*
X130418414Y-67390090D01*
X130713000Y-66678895D01*
X130713000Y-65909105D01*
X130418414Y-65197910D01*
X129874090Y-64653586D01*
X129162895Y-64359000D01*
X128393105Y-64359000D01*
X127681910Y-64653586D01*
X127137586Y-65197910D01*
X126843000Y-65909105D01*
X124210000Y-65909105D01*
X124210000Y-62583459D01*
X127588146Y-62583459D01*
X127723504Y-62881455D01*
X128441880Y-63158066D01*
X129211427Y-63138710D01*
X129832496Y-62881455D01*
X129967854Y-62583459D01*
X128778000Y-61393605D01*
X127588146Y-62583459D01*
X124210000Y-62583459D01*
X124210000Y-60877880D01*
X126833934Y-60877880D01*
X126853290Y-61647427D01*
X127110545Y-62268496D01*
X127408541Y-62403854D01*
X128598395Y-61214000D01*
X128957605Y-61214000D01*
X130147459Y-62403854D01*
X130445455Y-62268496D01*
X130722066Y-61550120D01*
X130702710Y-60780573D01*
X130445455Y-60159504D01*
X130147459Y-60024146D01*
X128957605Y-61214000D01*
X128598395Y-61214000D01*
X127408541Y-60024146D01*
X127110545Y-60159504D01*
X126833934Y-60877880D01*
X124210000Y-60877880D01*
X124210000Y-59844541D01*
X127588146Y-59844541D01*
X128778000Y-61034395D01*
X129967854Y-59844541D01*
X129832496Y-59546545D01*
X129114120Y-59269934D01*
X128344573Y-59289290D01*
X127723504Y-59546545D01*
X127588146Y-59844541D01*
X124210000Y-59844541D01*
X124210000Y-55749105D01*
X126843000Y-55749105D01*
X126843000Y-56518895D01*
X127137586Y-57230090D01*
X127681910Y-57774414D01*
X128393105Y-58069000D01*
X129162895Y-58069000D01*
X129874090Y-57774414D01*
X130418414Y-57230090D01*
X130713000Y-56518895D01*
X130713000Y-55749105D01*
X130418414Y-55037910D01*
X129874090Y-54493586D01*
X129162895Y-54199000D01*
X128393105Y-54199000D01*
X127681910Y-54493586D01*
X127137586Y-55037910D01*
X126843000Y-55749105D01*
X124210000Y-55749105D01*
X124210000Y-32210000D01*
X154539987Y-32210000D01*
X154456789Y-32410858D01*
X154456789Y-32410858D01*
G37*
X154456789Y-32410858D02*
X154456789Y-33101417D01*
X154615539Y-33260167D01*
X155814789Y-33260167D01*
X155814789Y-33240167D01*
X156068789Y-33240167D01*
X156068789Y-33260167D01*
X156088789Y-33260167D01*
X156088789Y-33514167D01*
X156068789Y-33514167D01*
X156068789Y-33534167D01*
X155814789Y-33534167D01*
X155814789Y-33514167D01*
X154615539Y-33514167D01*
X154456789Y-33672917D01*
X154456789Y-34363476D01*
X154553462Y-34596865D01*
X154610738Y-34654142D01*
X154493632Y-34829402D01*
X154444349Y-35077167D01*
X154444349Y-36777167D01*
X154493632Y-37024932D01*
X154608717Y-37197167D01*
X154493632Y-37369402D01*
X154444349Y-37617167D01*
X154444349Y-39317167D01*
X154493632Y-39564932D01*
X154633980Y-39774976D01*
X154844024Y-39915324D01*
X155091789Y-39964607D01*
X155392115Y-39964607D01*
X155393860Y-39967218D01*
X155457319Y-40009620D01*
X158667500Y-43219802D01*
X158667500Y-43385874D01*
X158825069Y-43766280D01*
X159004789Y-43946000D01*
X157730507Y-43946000D01*
X157368374Y-43796000D01*
X156956626Y-43796000D01*
X156576220Y-43953569D01*
X156285069Y-44244720D01*
X156127500Y-44625126D01*
X156127500Y-45036874D01*
X156285069Y-45417280D01*
X156576220Y-45708431D01*
X156956626Y-45866000D01*
X157368374Y-45866000D01*
X157730507Y-45716000D01*
X163894289Y-45716000D01*
X163714569Y-45895720D01*
X163557000Y-46276126D01*
X163557000Y-46442198D01*
X163261199Y-46738000D01*
X149561500Y-46738000D01*
X149561500Y-46339626D01*
X149403931Y-45959220D01*
X149112780Y-45668069D01*
X148732374Y-45510500D01*
X148566302Y-45510500D01*
X146082060Y-43026258D01*
X146177000Y-42976155D01*
X146177000Y-41783000D01*
X146431000Y-41783000D01*
X146431000Y-42976155D01*
X146660890Y-43097476D01*
X147070924Y-42927645D01*
X147499183Y-42537358D01*
X147745486Y-42012892D01*
X147624819Y-41783000D01*
X146431000Y-41783000D01*
X146177000Y-41783000D01*
X146157000Y-41783000D01*
X146157000Y-41529000D01*
X146177000Y-41529000D01*
X146177000Y-40335845D01*
X146431000Y-40335845D01*
X146431000Y-41529000D01*
X147624819Y-41529000D01*
X147745486Y-41299108D01*
X147499183Y-40774642D01*
X147070924Y-40384355D01*
X146660890Y-40214524D01*
X146431000Y-40335845D01*
X146177000Y-40335845D01*
X145947110Y-40214524D01*
X145537076Y-40384355D01*
X145108817Y-40774642D01*
X145047843Y-40904478D01*
X144834625Y-40585375D01*
X144343418Y-40257161D01*
X143910256Y-40171000D01*
X143617744Y-40171000D01*
X143184582Y-40257161D01*
X142857509Y-40475704D01*
X142378331Y-39996528D01*
X142335930Y-39933070D01*
X142084538Y-39765095D01*
X141862853Y-39720999D01*
X141862848Y-39720999D01*
X141788001Y-39706111D01*
X141713154Y-39720999D01*
X139933847Y-39720999D01*
X139859000Y-39706111D01*
X139784153Y-39720999D01*
X139784149Y-39720999D01*
X139562464Y-39765095D01*
X139311072Y-39933070D01*
X139268670Y-39996529D01*
X139050408Y-40214791D01*
X138830256Y-40171000D01*
X138537744Y-40171000D01*
X138104582Y-40257161D01*
X137613375Y-40585375D01*
X137414000Y-40883761D01*
X137214625Y-40585375D01*
X136723418Y-40257161D01*
X136290256Y-40171000D01*
X135997744Y-40171000D01*
X135564582Y-40257161D01*
X135073375Y-40585375D01*
X135061184Y-40603619D01*
X135052157Y-40558235D01*
X134911809Y-40348191D01*
X134701765Y-40207843D01*
X134454000Y-40158560D01*
X132754000Y-40158560D01*
X132506235Y-40207843D01*
X132296191Y-40348191D01*
X132155843Y-40558235D01*
X132106560Y-40806000D01*
X132106560Y-42506000D01*
X132155843Y-42753765D01*
X132296191Y-42963809D01*
X132506235Y-43104157D01*
X132754000Y-43153440D01*
X134454000Y-43153440D01*
X134701765Y-43104157D01*
X134911809Y-42963809D01*
X135052157Y-42753765D01*
X135061184Y-42708381D01*
X135073375Y-42726625D01*
X135564582Y-43054839D01*
X135997744Y-43141000D01*
X136290256Y-43141000D01*
X136723418Y-43054839D01*
X137214625Y-42726625D01*
X137414000Y-42428239D01*
X137613375Y-42726625D01*
X138104582Y-43054839D01*
X138537744Y-43141000D01*
X138830256Y-43141000D01*
X139263418Y-43054839D01*
X139754625Y-42726625D01*
X139954000Y-42428239D01*
X140153375Y-42726625D01*
X140464000Y-42934178D01*
X140464001Y-45194150D01*
X140449112Y-45269002D01*
X140508097Y-45565539D01*
X140603575Y-45708431D01*
X140676072Y-45816931D01*
X140739528Y-45859331D01*
X143068197Y-48188001D01*
X142417303Y-48188001D01*
X141814500Y-47585199D01*
X141814500Y-47419126D01*
X141656931Y-47038720D01*
X141365780Y-46747569D01*
X140985374Y-46590000D01*
X140573626Y-46590000D01*
X140193220Y-46747569D01*
X139902069Y-47038720D01*
X139744500Y-47419126D01*
X139744500Y-47830874D01*
X139902069Y-48211280D01*
X140193220Y-48502431D01*
X140573626Y-48660000D01*
X140739699Y-48660000D01*
X141512171Y-49432473D01*
X141554572Y-49495930D01*
X141805964Y-49663905D01*
X142027649Y-49708001D01*
X142027654Y-49708001D01*
X142102501Y-49722889D01*
X142177348Y-49708001D01*
X142221000Y-49708001D01*
X142221000Y-49878875D01*
X142325020Y-50130001D01*
X140112712Y-50130001D01*
X140032280Y-50049569D01*
X139651874Y-49892000D01*
X139240126Y-49892000D01*
X138859720Y-50049569D01*
X138568569Y-50340720D01*
X138411000Y-50721126D01*
X138411000Y-51132874D01*
X138568569Y-51513280D01*
X138859720Y-51804431D01*
X139240126Y-51962000D01*
X139651874Y-51962000D01*
X140032280Y-51804431D01*
X140186710Y-51650001D01*
X157930506Y-51650001D01*
X163958153Y-57677650D01*
X163958153Y-57843721D01*
X164115722Y-58224127D01*
X164406873Y-58515278D01*
X164787279Y-58672847D01*
X165199027Y-58672847D01*
X165579433Y-58515278D01*
X165870584Y-58224127D01*
X166028153Y-57843721D01*
X166028153Y-57431973D01*
X165870584Y-57051567D01*
X165579433Y-56760416D01*
X165199027Y-56602847D01*
X165032956Y-56602847D01*
X163495011Y-55064903D01*
X163853971Y-55064903D01*
X164234377Y-54907334D01*
X164355204Y-54786507D01*
X167049500Y-57480803D01*
X167049500Y-57646874D01*
X167207069Y-58027280D01*
X167498220Y-58318431D01*
X167878626Y-58476000D01*
X168290374Y-58476000D01*
X168658000Y-58323724D01*
X168658000Y-58919822D01*
X168347375Y-59127375D01*
X168019161Y-59618582D01*
X167903908Y-60198000D01*
X167976791Y-60564408D01*
X167758529Y-60782670D01*
X167695070Y-60825072D01*
X167527095Y-61076465D01*
X167482999Y-61298150D01*
X167482999Y-61298154D01*
X167468111Y-61373001D01*
X167482999Y-61447848D01*
X167483000Y-65044147D01*
X167468111Y-65118999D01*
X167483000Y-65193851D01*
X167527096Y-65415536D01*
X167695071Y-65666928D01*
X167758527Y-65709328D01*
X169399000Y-67349803D01*
X169399000Y-67515874D01*
X169556569Y-67896280D01*
X169847720Y-68187431D01*
X170228126Y-68345000D01*
X170639874Y-68345000D01*
X171020280Y-68187431D01*
X171311431Y-67896280D01*
X171469000Y-67515874D01*
X171469000Y-67104126D01*
X171311431Y-66723720D01*
X171020280Y-66432569D01*
X170639874Y-66275000D01*
X170473803Y-66275000D01*
X169002999Y-64804198D01*
X169002999Y-64155407D01*
X169061110Y-64179476D01*
X169291000Y-64058155D01*
X169291000Y-62865000D01*
X169271000Y-62865000D01*
X169271000Y-62611000D01*
X169291000Y-62611000D01*
X169291000Y-62591000D01*
X169545000Y-62591000D01*
X169545000Y-62611000D01*
X169565000Y-62611000D01*
X169565000Y-62865000D01*
X169545000Y-62865000D01*
X169545000Y-64058155D01*
X169774890Y-64179476D01*
X170184924Y-64009645D01*
X170613183Y-63619358D01*
X170674157Y-63489522D01*
X170887375Y-63808625D01*
X171378582Y-64136839D01*
X171811744Y-64223000D01*
X172104256Y-64223000D01*
X172537418Y-64136839D01*
X173028625Y-63808625D01*
X173228000Y-63510239D01*
X173427375Y-63808625D01*
X173918582Y-64136839D01*
X174351744Y-64223000D01*
X174644256Y-64223000D01*
X175077418Y-64136839D01*
X175568625Y-63808625D01*
X175896839Y-63317418D01*
X176012092Y-62738000D01*
X175896839Y-62158582D01*
X175568625Y-61667375D01*
X175550381Y-61655184D01*
X175595765Y-61646157D01*
X175805809Y-61505809D01*
X175946157Y-61295765D01*
X175995440Y-61048000D01*
X175995440Y-59348000D01*
X175946157Y-59100235D01*
X175805809Y-58890191D01*
X175595765Y-58749843D01*
X175348000Y-58700560D01*
X173648000Y-58700560D01*
X173400235Y-58749843D01*
X173190191Y-58890191D01*
X173049843Y-59100235D01*
X173040816Y-59145619D01*
X173028625Y-59127375D01*
X172537418Y-58799161D01*
X172104256Y-58713000D01*
X171811744Y-58713000D01*
X171378582Y-58799161D01*
X170887375Y-59127375D01*
X170688000Y-59425761D01*
X170488625Y-59127375D01*
X170178000Y-58919822D01*
X170178000Y-55954847D01*
X170192888Y-55880000D01*
X170178000Y-55805153D01*
X170178000Y-55805148D01*
X170133904Y-55583463D01*
X169965929Y-55332071D01*
X169902473Y-55289671D01*
X168421000Y-53808199D01*
X168421000Y-53642126D01*
X168286953Y-53318506D01*
X173367000Y-53318506D01*
X173367000Y-53869494D01*
X173577853Y-54378540D01*
X173967460Y-54768147D01*
X174476506Y-54979000D01*
X175027494Y-54979000D01*
X175536540Y-54768147D01*
X175926147Y-54378540D01*
X176137000Y-53869494D01*
X176137000Y-53318506D01*
X175926147Y-52809460D01*
X175536540Y-52419853D01*
X175027494Y-52209000D01*
X174476506Y-52209000D01*
X173967460Y-52419853D01*
X173577853Y-52809460D01*
X173367000Y-53318506D01*
X168286953Y-53318506D01*
X168263431Y-53261720D01*
X167972280Y-52970569D01*
X167591874Y-52813000D01*
X167180126Y-52813000D01*
X166799720Y-52970569D01*
X166508569Y-53261720D01*
X166351000Y-53642126D01*
X166351000Y-54053874D01*
X166508569Y-54434280D01*
X166799720Y-54725431D01*
X167180126Y-54883000D01*
X167346199Y-54883000D01*
X168658001Y-56194803D01*
X168658001Y-56558276D01*
X168290374Y-56406000D01*
X168124303Y-56406000D01*
X160424202Y-48705901D01*
X160534960Y-48438506D01*
X173367000Y-48438506D01*
X173367000Y-48989494D01*
X173577853Y-49498540D01*
X173967460Y-49888147D01*
X174476506Y-50099000D01*
X175027494Y-50099000D01*
X175536540Y-49888147D01*
X175926147Y-49498540D01*
X176137000Y-48989494D01*
X176137000Y-48438506D01*
X175926147Y-47929460D01*
X175536540Y-47539853D01*
X175027494Y-47329000D01*
X174476506Y-47329000D01*
X173967460Y-47539853D01*
X173577853Y-47929460D01*
X173367000Y-48438506D01*
X160534960Y-48438506D01*
X160538950Y-48428874D01*
X160538950Y-48258000D01*
X163501153Y-48258000D01*
X163576000Y-48272888D01*
X163650847Y-48258000D01*
X163650852Y-48258000D01*
X163872537Y-48213904D01*
X164123929Y-48045929D01*
X164166331Y-47982470D01*
X164631802Y-47517000D01*
X164797874Y-47517000D01*
X165178280Y-47359431D01*
X165469431Y-47068280D01*
X165627000Y-46687874D01*
X165627000Y-46276126D01*
X165469431Y-45895720D01*
X165191752Y-45618041D01*
X165414734Y-45469049D01*
X165464110Y-45395153D01*
X166489656Y-44369608D01*
X166563549Y-44320234D01*
X166633865Y-44215000D01*
X166759152Y-44027495D01*
X166810500Y-43769350D01*
X166810500Y-43769346D01*
X166827837Y-43682185D01*
X166822525Y-43655477D01*
X166960500Y-43322374D01*
X166960500Y-42910626D01*
X166802931Y-42530220D01*
X166511780Y-42239069D01*
X166131374Y-42081500D01*
X166102258Y-42081500D01*
X168275382Y-39908376D01*
X168495533Y-39952167D01*
X168788045Y-39952167D01*
X169221207Y-39866006D01*
X169712414Y-39537792D01*
X169911789Y-39239406D01*
X170111164Y-39537792D01*
X170602371Y-39866006D01*
X171035533Y-39952167D01*
X171328045Y-39952167D01*
X171761207Y-39866006D01*
X172252414Y-39537792D01*
X172580628Y-39046585D01*
X172695881Y-38467167D01*
X172580628Y-37887749D01*
X172252414Y-37396542D01*
X171954028Y-37197167D01*
X172252414Y-36997792D01*
X172580628Y-36506585D01*
X172695881Y-35927167D01*
X172580628Y-35347749D01*
X172252414Y-34856542D01*
X171954028Y-34657167D01*
X172252414Y-34457792D01*
X172580628Y-33966585D01*
X172695881Y-33387167D01*
X172580628Y-32807749D01*
X172252414Y-32316542D01*
X172092963Y-32210000D01*
X180290001Y-32210000D01*
X180290000Y-73790000D01*
X166453832Y-73790000D01*
X166533000Y-73533000D01*
X166533000Y-73183000D01*
X165425000Y-73183000D01*
X165425000Y-73203000D01*
X165171000Y-73203000D01*
X165171000Y-73183000D01*
X164063000Y-73183000D01*
X164063000Y-73533000D01*
X164142168Y-73790000D01*
X159453832Y-73790000D01*
X159533000Y-73533000D01*
X159533000Y-73183000D01*
X158425000Y-73183000D01*
X158425000Y-73203000D01*
X158171000Y-73203000D01*
X158171000Y-73183000D01*
X157063000Y-73183000D01*
X157063000Y-73533000D01*
X157142168Y-73790000D01*
X142131927Y-73790000D01*
X142164157Y-73741765D01*
X142213440Y-73494000D01*
X142213440Y-72579000D01*
X157063000Y-72579000D01*
X157063000Y-72929000D01*
X158171000Y-72929000D01*
X158171000Y-71637269D01*
X158425000Y-71637269D01*
X158425000Y-72929000D01*
X159533000Y-72929000D01*
X159533000Y-72579000D01*
X159390390Y-72116053D01*
X159081474Y-71742920D01*
X158962232Y-71679842D01*
X159099146Y-71728312D01*
X159639444Y-71699949D01*
X160006878Y-71547753D01*
X160071793Y-71309398D01*
X163524207Y-71309398D01*
X163589122Y-71547753D01*
X164099146Y-71728312D01*
X164590945Y-71702495D01*
X164514526Y-71742920D01*
X164205610Y-72116053D01*
X164063000Y-72579000D01*
X164063000Y-72929000D01*
X165171000Y-72929000D01*
X165171000Y-71637269D01*
X165425000Y-71637269D01*
X165425000Y-72929000D01*
X166533000Y-72929000D01*
X166533000Y-72579000D01*
X166390390Y-72116053D01*
X166081474Y-71742920D01*
X165653281Y-71516408D01*
X165615609Y-71512538D01*
X165425000Y-71637269D01*
X165171000Y-71637269D01*
X165011012Y-71532576D01*
X165071793Y-71309398D01*
X164298000Y-70535605D01*
X163524207Y-71309398D01*
X160071793Y-71309398D01*
X159298000Y-70535605D01*
X158524207Y-71309398D01*
X158584988Y-71532576D01*
X158425000Y-71637269D01*
X158171000Y-71637269D01*
X157980391Y-71512538D01*
X157942719Y-71516408D01*
X157514526Y-71742920D01*
X157205610Y-72116053D01*
X157063000Y-72579000D01*
X142213440Y-72579000D01*
X142213440Y-71794000D01*
X142164157Y-71546235D01*
X142023809Y-71336191D01*
X141813765Y-71195843D01*
X141768381Y-71186816D01*
X141786625Y-71174625D01*
X142114839Y-70683418D01*
X142213603Y-70186895D01*
X142707739Y-70681031D01*
X142759902Y-70759098D01*
X143069180Y-70965751D01*
X143341913Y-71020001D01*
X143341916Y-71020001D01*
X143433998Y-71038317D01*
X143526080Y-71020001D01*
X147519589Y-71020001D01*
X147564293Y-71127926D01*
X147883574Y-71447207D01*
X148300734Y-71620000D01*
X148752266Y-71620000D01*
X149169426Y-71447207D01*
X149488707Y-71127926D01*
X149661500Y-70710766D01*
X149661500Y-70259234D01*
X149619214Y-70157146D01*
X157925688Y-70157146D01*
X157954051Y-70697444D01*
X158106247Y-71064878D01*
X158344602Y-71129793D01*
X159118395Y-70356000D01*
X159477605Y-70356000D01*
X160251398Y-71129793D01*
X160489753Y-71064878D01*
X160670312Y-70554854D01*
X160649435Y-70157146D01*
X162925688Y-70157146D01*
X162954051Y-70697444D01*
X163106247Y-71064878D01*
X163344602Y-71129793D01*
X164118395Y-70356000D01*
X164477605Y-70356000D01*
X165251398Y-71129793D01*
X165489753Y-71064878D01*
X165670312Y-70554854D01*
X165641949Y-70014556D01*
X165489753Y-69647122D01*
X165251398Y-69582207D01*
X164477605Y-70356000D01*
X164118395Y-70356000D01*
X163344602Y-69582207D01*
X163106247Y-69647122D01*
X162925688Y-70157146D01*
X160649435Y-70157146D01*
X160641949Y-70014556D01*
X160489753Y-69647122D01*
X160251398Y-69582207D01*
X159477605Y-70356000D01*
X159118395Y-70356000D01*
X158344602Y-69582207D01*
X158106247Y-69647122D01*
X157925688Y-70157146D01*
X149619214Y-70157146D01*
X149488707Y-69842074D01*
X149169426Y-69522793D01*
X148879259Y-69402602D01*
X158524207Y-69402602D01*
X159298000Y-70176395D01*
X160071793Y-69402602D01*
X163524207Y-69402602D01*
X164298000Y-70176395D01*
X165071793Y-69402602D01*
X165006878Y-69164247D01*
X164496854Y-68983688D01*
X163956556Y-69012051D01*
X163589122Y-69164247D01*
X163524207Y-69402602D01*
X160071793Y-69402602D01*
X160006878Y-69164247D01*
X159496854Y-68983688D01*
X158956556Y-69012051D01*
X158589122Y-69164247D01*
X158524207Y-69402602D01*
X148879259Y-69402602D01*
X148752266Y-69350000D01*
X148709449Y-69350000D01*
X148491320Y-69204251D01*
X148218587Y-69150001D01*
X148126501Y-69131684D01*
X148034415Y-69150001D01*
X143821289Y-69150001D01*
X139762749Y-65091462D01*
X139832211Y-65022000D01*
X141563688Y-65022000D01*
X141573853Y-65046540D01*
X141963460Y-65436147D01*
X142472506Y-65647000D01*
X143023494Y-65647000D01*
X143532540Y-65436147D01*
X143922147Y-65046540D01*
X144133000Y-64537494D01*
X144133000Y-63986506D01*
X146243000Y-63986506D01*
X146243000Y-64537494D01*
X146453853Y-65046540D01*
X146843460Y-65436147D01*
X147352506Y-65647000D01*
X147903494Y-65647000D01*
X148412540Y-65436147D01*
X148802147Y-65046540D01*
X148904998Y-64798234D01*
X156853000Y-64798234D01*
X156853000Y-65249766D01*
X157025793Y-65666926D01*
X157345074Y-65986207D01*
X157762234Y-66159000D01*
X158213766Y-66159000D01*
X158630926Y-65986207D01*
X158658133Y-65959000D01*
X161889867Y-65959000D01*
X161980574Y-66049707D01*
X162397734Y-66222500D01*
X162849266Y-66222500D01*
X163266426Y-66049707D01*
X163585707Y-65730426D01*
X163758500Y-65313266D01*
X163758500Y-64861734D01*
X163585707Y-64444574D01*
X163266426Y-64125293D01*
X162849266Y-63952500D01*
X162397734Y-63952500D01*
X162068193Y-64089000D01*
X158658133Y-64089000D01*
X158630926Y-64061793D01*
X158213766Y-63889000D01*
X157762234Y-63889000D01*
X157345074Y-64061793D01*
X157025793Y-64381074D01*
X156853000Y-64798234D01*
X148904998Y-64798234D01*
X149013000Y-64537494D01*
X149013000Y-63986506D01*
X148802147Y-63477460D01*
X148412540Y-63087853D01*
X147903494Y-62877000D01*
X147352506Y-62877000D01*
X146843460Y-63087853D01*
X146453853Y-63477460D01*
X146243000Y-63986506D01*
X144133000Y-63986506D01*
X143922147Y-63477460D01*
X143532540Y-63087853D01*
X143508000Y-63077688D01*
X143508000Y-62798801D01*
X144565802Y-61741000D01*
X144731874Y-61741000D01*
X145112280Y-61583431D01*
X145403431Y-61292280D01*
X145561000Y-60911874D01*
X145561000Y-60500126D01*
X145403431Y-60119720D01*
X145112280Y-59828569D01*
X144731874Y-59671000D01*
X144320126Y-59671000D01*
X143939720Y-59828569D01*
X143648569Y-60119720D01*
X143491000Y-60500126D01*
X143491000Y-60666198D01*
X142263528Y-61893671D01*
X142200072Y-61936071D01*
X142157672Y-61999527D01*
X142157671Y-61999528D01*
X142051395Y-62158582D01*
X142032097Y-62187463D01*
X142015979Y-62268496D01*
X141973112Y-62484000D01*
X141988001Y-62558852D01*
X141988001Y-63077688D01*
X141963460Y-63087853D01*
X141573853Y-63477460D01*
X141563688Y-63502000D01*
X139832211Y-63502000D01*
X139714780Y-63384569D01*
X139334374Y-63227000D01*
X138922626Y-63227000D01*
X138542220Y-63384569D01*
X138299038Y-63627751D01*
X137777500Y-63106213D01*
X137777500Y-56480085D01*
X137795817Y-56387999D01*
X137723250Y-56023181D01*
X137568759Y-55791969D01*
X137516597Y-55713903D01*
X137438531Y-55661741D01*
X132234761Y-50457972D01*
X132182597Y-50379903D01*
X131873319Y-50173250D01*
X131600586Y-50119000D01*
X131508500Y-50100683D01*
X131416414Y-50119000D01*
X130725440Y-50119000D01*
X130725440Y-49754000D01*
X130676157Y-49506235D01*
X130535809Y-49296191D01*
X130325765Y-49155843D01*
X130078000Y-49106560D01*
X127478000Y-49106560D01*
X127230235Y-49155843D01*
X127020191Y-49296191D01*
X126879843Y-49506235D01*
X126830560Y-49754000D01*
X126830560Y-52354000D01*
X126879843Y-52601765D01*
X127020191Y-52811809D01*
X127230235Y-52952157D01*
X127478000Y-53001440D01*
X130078000Y-53001440D01*
X130325765Y-52952157D01*
X130535809Y-52811809D01*
X130676157Y-52601765D01*
X130725440Y-52354000D01*
X130725440Y-51989000D01*
X131121211Y-51989000D01*
X135907501Y-56775291D01*
X135907500Y-63401416D01*
X135889183Y-63493502D01*
X135907500Y-63585587D01*
X135961750Y-63858320D01*
X136168403Y-64167599D01*
X136246472Y-64219763D01*
X140645708Y-68619000D01*
X140569744Y-68619000D01*
X140136582Y-68705161D01*
X139645375Y-69033375D01*
X139317161Y-69524582D01*
X139201908Y-70104000D01*
X139317161Y-70683418D01*
X139645375Y-71174625D01*
X139663619Y-71186816D01*
X139618235Y-71195843D01*
X139408191Y-71336191D01*
X139267843Y-71546235D01*
X139218560Y-71794000D01*
X139218560Y-73494000D01*
X139267843Y-73741765D01*
X139300073Y-73790000D01*
X124210000Y-73790000D01*
X124210000Y-70989105D01*
X126843000Y-70989105D01*
X126843000Y-71758895D01*
X127137586Y-72470090D01*
X127681910Y-73014414D01*
X128393105Y-73309000D01*
X129162895Y-73309000D01*
X129874090Y-73014414D01*
X130418414Y-72470090D01*
X130713000Y-71758895D01*
X130713000Y-70989105D01*
X130418414Y-70277910D01*
X129874090Y-69733586D01*
X129162895Y-69439000D01*
X128393105Y-69439000D01*
X127681910Y-69733586D01*
X127137586Y-70277910D01*
X126843000Y-70989105D01*
X124210000Y-70989105D01*
X124210000Y-65909105D01*
X126843000Y-65909105D01*
X126843000Y-66678895D01*
X127137586Y-67390090D01*
X127681910Y-67934414D01*
X128393105Y-68229000D01*
X129162895Y-68229000D01*
X129874090Y-67934414D01*
X130418414Y-67390090D01*
X130713000Y-66678895D01*
X130713000Y-65909105D01*
X130418414Y-65197910D01*
X129874090Y-64653586D01*
X129162895Y-64359000D01*
X128393105Y-64359000D01*
X127681910Y-64653586D01*
X127137586Y-65197910D01*
X126843000Y-65909105D01*
X124210000Y-65909105D01*
X124210000Y-62583459D01*
X127588146Y-62583459D01*
X127723504Y-62881455D01*
X128441880Y-63158066D01*
X129211427Y-63138710D01*
X129832496Y-62881455D01*
X129967854Y-62583459D01*
X128778000Y-61393605D01*
X127588146Y-62583459D01*
X124210000Y-62583459D01*
X124210000Y-60877880D01*
X126833934Y-60877880D01*
X126853290Y-61647427D01*
X127110545Y-62268496D01*
X127408541Y-62403854D01*
X128598395Y-61214000D01*
X128957605Y-61214000D01*
X130147459Y-62403854D01*
X130445455Y-62268496D01*
X130722066Y-61550120D01*
X130702710Y-60780573D01*
X130445455Y-60159504D01*
X130147459Y-60024146D01*
X128957605Y-61214000D01*
X128598395Y-61214000D01*
X127408541Y-60024146D01*
X127110545Y-60159504D01*
X126833934Y-60877880D01*
X124210000Y-60877880D01*
X124210000Y-59844541D01*
X127588146Y-59844541D01*
X128778000Y-61034395D01*
X129967854Y-59844541D01*
X129832496Y-59546545D01*
X129114120Y-59269934D01*
X128344573Y-59289290D01*
X127723504Y-59546545D01*
X127588146Y-59844541D01*
X124210000Y-59844541D01*
X124210000Y-55749105D01*
X126843000Y-55749105D01*
X126843000Y-56518895D01*
X127137586Y-57230090D01*
X127681910Y-57774414D01*
X128393105Y-58069000D01*
X129162895Y-58069000D01*
X129874090Y-57774414D01*
X130418414Y-57230090D01*
X130713000Y-56518895D01*
X130713000Y-55749105D01*
X130418414Y-55037910D01*
X129874090Y-54493586D01*
X129162895Y-54199000D01*
X128393105Y-54199000D01*
X127681910Y-54493586D01*
X127137586Y-55037910D01*
X126843000Y-55749105D01*
X124210000Y-55749105D01*
X124210000Y-32210000D01*
X154539987Y-32210000D01*
X154456789Y-32410858D01*
G04 #@! TD*
M02*
