M48
;DRILL file {KiCad (5.0.1)-4} date 2018-11-20 11:07:28 PM
;FORMAT={-:-/ absolute / metric / decimal}
FMAT,2
METRIC,TZ
T1C0.400
T2C1.000
T3C1.100
T4C3.200
%
G90
G05
M71
T1
X103.632Y-100.584
X105.029Y-106.553
X105.41Y-110.744
X106.934Y-94.234
X109.35Y-68.325
X109.982Y-78.486
X110.998Y-82.677
X110.998Y-89.662
X112.776Y-80.264
X113.538Y-89.662
X114.3Y-69.088
X114.554Y-76.962
X114.554Y-82.296
X114.808Y-91.694
X114.808Y-96.393
X115.062Y-93.345
X115.57Y-90.17
X115.575Y-65.575
X115.824Y-73.787
X116.713Y-79.883
X117.675Y-60.9
X117.856Y-90.551
X118.364Y-84.709
X119.761Y-110.236
X121.412Y-74.168
X122.936Y-81.407
X123.063Y-90.678
X123.19Y-75.946
X124.206Y-78.486
X124.46Y-94.996
X124.841Y-105.537
X125.476Y-88.773
X125.476Y-97.282
X125.857Y-104.267
X126.225Y-82.175
X126.365Y-97.536
X126.873Y-67.818
X127.889Y-97.536
X128.27Y-73.152
X129.032Y-74.803
X129.794Y-72.517
X130.048Y-94.234
X130.81Y-94.615
X131.064Y-104.267
X131.318Y-82.931
X131.445Y-78.74
X131.699Y-97.282
X132.207Y-79.502
X132.588Y-94.615
X132.842Y-72.517
X132.842Y-78.994
X133.096Y-97.409
X133.35Y-88.519
X133.35Y-96.012
X134.112Y-98.298
X134.239Y-86.36
X134.366Y-79.629
X135.255Y-72.263
X135.382Y-98.171
X135.509Y-82.042
X135.89Y-80.264
X136.398Y-96.266
X137.922Y-69.596
X138.049Y-96.774
X138.176Y-99.06
X138.303Y-84.582
X139.827Y-80.391
X140.716Y-80.391
X141.351Y-96.139
X141.605Y-80.391
X142.748Y-82.042
X143.256Y-104.013
X143.891Y-75.565
X144.78Y-85.217
X145.669Y-105.41
X147.193Y-102.362
X147.32Y-98.171
X149.479Y-80.137
X149.606Y-69.469
X149.733Y-98.679
X151.765Y-70.485
X152.908Y-78.74
X154.813Y-79.248
X156.972Y-79.883
X159.004Y-80.645
X162.814Y-81.661
X162.941Y-100.584
X162.941Y-104.648
X163.703Y-96.647
X166.116Y-101.092
X166.37Y-93.853
X166.37Y-96.139
T2
X108.077Y-102.362
X108.077Y-104.902
X110.617Y-102.362
X110.617Y-104.902
X145.72Y-62.8
X148.26Y-62.8
X150.8Y-62.8
X153.34Y-62.8
X155.88Y-62.8
X158.42Y-62.8
X160.96Y-62.8
X163.5Y-62.8
X118.796Y-62.8
X121.336Y-62.8
X123.876Y-62.8
X126.416Y-62.8
X128.956Y-62.8
X131.496Y-62.8
X134.036Y-62.8
X136.576Y-62.8
X139.116Y-62.8
X141.656Y-62.8
X127.94Y-110.76
X130.48Y-110.76
X133.02Y-110.76
X135.56Y-110.76
X138.1Y-110.76
X140.64Y-110.76
X143.18Y-110.76
X145.72Y-110.76
X118.796Y-65.34
X121.336Y-65.34
X123.876Y-65.34
X126.416Y-65.34
X128.956Y-65.34
X131.496Y-65.34
X134.036Y-65.34
X136.576Y-65.34
X139.116Y-65.34
X141.656Y-65.34
X150.8Y-110.76
X153.34Y-110.76
X155.88Y-110.76
X158.42Y-110.76
X160.96Y-110.76
X163.5Y-110.76
X150.8Y-108.06
X153.34Y-108.06
X155.88Y-108.06
X158.42Y-108.06
X160.96Y-108.06
X163.5Y-108.06
X127.94Y-108.06
X130.48Y-108.06
X133.02Y-108.06
X135.56Y-108.06
X138.1Y-108.06
X140.64Y-108.06
X143.18Y-108.06
X145.72Y-108.06
X127.94Y-92.8
X127.94Y-100.42
X130.48Y-92.8
X130.48Y-100.42
X133.02Y-92.8
X133.02Y-100.42
X135.56Y-92.8
X135.56Y-100.42
X138.1Y-92.8
X138.1Y-100.42
X140.64Y-92.8
X140.64Y-100.42
X143.18Y-92.8
X143.18Y-100.42
X145.72Y-92.8
X145.72Y-100.42
X148.26Y-92.8
X148.26Y-100.42
X150.8Y-92.8
X150.8Y-100.42
X153.34Y-92.8
X153.34Y-100.42
X155.88Y-92.8
X155.88Y-100.42
X158.42Y-92.8
X158.42Y-100.42
X160.96Y-92.8
X160.96Y-100.42
X162.5Y-84.2
X162.5Y-86.74
X162.5Y-89.28
X165.04Y-84.2
X165.04Y-86.74
X165.04Y-89.28
X145.72Y-65.34
X148.26Y-65.34
X150.8Y-65.34
X153.34Y-65.34
X155.88Y-65.34
X158.42Y-65.34
X160.96Y-65.34
X163.5Y-65.34
T3
X104.84Y-77.8
X104.84Y-82.2
T4
X166.04Y-105.68
X113.97Y-110.76
X115.24Y-62.45
X166.04Y-77.74
T0
M30
