G04 #@! TF.GenerationSoftware,KiCad,Pcbnew,(5.0.1)-4*
G04 #@! TF.CreationDate,2018-11-20T23:07:17-05:00*
G04 #@! TF.ProjectId,Custom Arduino,437573746F6D2041726475696E6F2E6B,rev?*
G04 #@! TF.SameCoordinates,Original*
G04 #@! TF.FileFunction,Copper,L1,Top,Signal*
G04 #@! TF.FilePolarity,Positive*
%FSLAX46Y46*%
G04 Gerber Fmt 4.6, Leading zero omitted, Abs format (unit mm)*
G04 Created by KiCad (PCBNEW (5.0.1)-4) date 2018-11-20 11:07:17 PM*
%MOMM*%
%LPD*%
G01*
G04 APERTURE LIST*
G04 #@! TA.AperFunction,SMDPad,CuDef*
%ADD10R,2.200000X1.500000*%
G04 #@! TD*
G04 #@! TA.AperFunction,SMDPad,CuDef*
%ADD11R,2.200000X3.800000*%
G04 #@! TD*
G04 #@! TA.AperFunction,ComponentPad*
%ADD12R,1.700000X1.700000*%
G04 #@! TD*
G04 #@! TA.AperFunction,ComponentPad*
%ADD13O,1.700000X1.700000*%
G04 #@! TD*
G04 #@! TA.AperFunction,SMDPad,CuDef*
%ADD14R,1.600000X2.600000*%
G04 #@! TD*
G04 #@! TA.AperFunction,SMDPad,CuDef*
%ADD15R,0.800000X0.750000*%
G04 #@! TD*
G04 #@! TA.AperFunction,SMDPad,CuDef*
%ADD16R,0.750000X0.800000*%
G04 #@! TD*
G04 #@! TA.AperFunction,SMDPad,CuDef*
%ADD17R,0.800000X0.600000*%
G04 #@! TD*
G04 #@! TA.AperFunction,SMDPad,CuDef*
%ADD18R,0.800000X0.800000*%
G04 #@! TD*
G04 #@! TA.AperFunction,SMDPad,CuDef*
%ADD19R,2.030000X1.140000*%
G04 #@! TD*
G04 #@! TA.AperFunction,SMDPad,CuDef*
%ADD20R,2.500000X2.000000*%
G04 #@! TD*
G04 #@! TA.AperFunction,SMDPad,CuDef*
%ADD21R,2.500000X0.500000*%
G04 #@! TD*
G04 #@! TA.AperFunction,ComponentPad*
%ADD22C,2.100000*%
G04 #@! TD*
G04 #@! TA.AperFunction,SMDPad,CuDef*
%ADD23R,0.900000X0.500000*%
G04 #@! TD*
G04 #@! TA.AperFunction,SMDPad,CuDef*
%ADD24R,0.500000X0.900000*%
G04 #@! TD*
G04 #@! TA.AperFunction,SMDPad,CuDef*
%ADD25R,1.550000X1.300000*%
G04 #@! TD*
G04 #@! TA.AperFunction,ComponentPad*
%ADD26R,1.600000X1.600000*%
G04 #@! TD*
G04 #@! TA.AperFunction,ComponentPad*
%ADD27C,1.600000*%
G04 #@! TD*
G04 #@! TA.AperFunction,SMDPad,CuDef*
%ADD28R,1.750000X0.450000*%
G04 #@! TD*
G04 #@! TA.AperFunction,SMDPad,CuDef*
%ADD29R,0.600000X2.000000*%
G04 #@! TD*
G04 #@! TA.AperFunction,SMDPad,CuDef*
%ADD30R,2.000000X2.400000*%
G04 #@! TD*
G04 #@! TA.AperFunction,ViaPad*
%ADD31C,0.600000*%
G04 #@! TD*
G04 #@! TA.AperFunction,Conductor*
%ADD32C,0.250000*%
G04 #@! TD*
G04 #@! TA.AperFunction,Conductor*
%ADD33C,0.254000*%
G04 #@! TD*
G04 APERTURE END LIST*
D10*
G04 #@! TO.P,U4,3*
G04 #@! TO.N,Vin*
X110850000Y-91600000D03*
G04 #@! TO.P,U4,2*
G04 #@! TO.N,GND*
X110850000Y-93900000D03*
G04 #@! TO.P,U4,1*
G04 #@! TO.N,3.3V*
X110850000Y-96200000D03*
D11*
G04 #@! TO.P,U4,4*
G04 #@! TO.N,GND*
X104550000Y-93900000D03*
G04 #@! TD*
D12*
G04 #@! TO.P,J3,1*
G04 #@! TO.N,Vin*
X145720000Y-108060000D03*
D13*
G04 #@! TO.P,J3,2*
G04 #@! TO.N,GND*
X143180000Y-108060000D03*
G04 #@! TO.P,J3,3*
X140640000Y-108060000D03*
G04 #@! TO.P,J3,4*
G04 #@! TO.N,VCC*
X138100000Y-108060000D03*
G04 #@! TO.P,J3,5*
G04 #@! TO.N,3.3V*
X135560000Y-108060000D03*
G04 #@! TO.P,J3,6*
G04 #@! TO.N,DTR*
X133020000Y-108060000D03*
G04 #@! TO.P,J3,7*
G04 #@! TO.N,VCC*
X130480000Y-108060000D03*
G04 #@! TO.P,J3,8*
G04 #@! TO.N,Net-(J3-Pad8)*
X127940000Y-108060000D03*
G04 #@! TD*
D14*
G04 #@! TO.P,C1,1*
G04 #@! TO.N,Vin*
X122800000Y-101700000D03*
G04 #@! TO.P,C1,2*
G04 #@! TO.N,GND*
X122800000Y-105300000D03*
G04 #@! TD*
G04 #@! TO.P,C2,1*
G04 #@! TO.N,5V*
X117900000Y-101700000D03*
G04 #@! TO.P,C2,2*
G04 #@! TO.N,GND*
X117900000Y-105300000D03*
G04 #@! TD*
D15*
G04 #@! TO.P,C3,2*
G04 #@! TO.N,GND*
X122550000Y-89100000D03*
G04 #@! TO.P,C3,1*
G04 #@! TO.N,5V*
X121050000Y-89100000D03*
G04 #@! TD*
D16*
G04 #@! TO.P,C4,2*
G04 #@! TO.N,VCC*
X119100000Y-79050000D03*
G04 #@! TO.P,C4,1*
G04 #@! TO.N,GND*
X119100000Y-80550000D03*
G04 #@! TD*
D15*
G04 #@! TO.P,C5,2*
G04 #@! TO.N,Net-(C5-Pad2)*
X119050000Y-77400000D03*
G04 #@! TO.P,C5,1*
G04 #@! TO.N,GND*
X117550000Y-77400000D03*
G04 #@! TD*
D16*
G04 #@! TO.P,C6,2*
G04 #@! TO.N,GND*
X113700000Y-93150000D03*
G04 #@! TO.P,C6,1*
G04 #@! TO.N,Vin*
X113700000Y-91650000D03*
G04 #@! TD*
G04 #@! TO.P,C7,2*
G04 #@! TO.N,GND*
X113700000Y-94750000D03*
G04 #@! TO.P,C7,1*
G04 #@! TO.N,3.3V*
X113700000Y-96250000D03*
G04 #@! TD*
D15*
G04 #@! TO.P,C8,2*
G04 #@! TO.N,DTR*
X113250000Y-66400000D03*
G04 #@! TO.P,C8,1*
G04 #@! TO.N,Net-(C8-Pad1)*
X111750000Y-66400000D03*
G04 #@! TD*
D16*
G04 #@! TO.P,C9,2*
G04 #@! TO.N,Net-(C9-Pad2)*
X141000000Y-82950000D03*
G04 #@! TO.P,C9,1*
G04 #@! TO.N,GND*
X141000000Y-81450000D03*
G04 #@! TD*
G04 #@! TO.P,C10,2*
G04 #@! TO.N,Net-(C10-Pad2)*
X137400000Y-82950000D03*
G04 #@! TO.P,C10,1*
G04 #@! TO.N,GND*
X137400000Y-81450000D03*
G04 #@! TD*
D17*
G04 #@! TO.P,D1,1*
G04 #@! TO.N,Net-(C1-Pad1)*
X124600000Y-98250000D03*
G04 #@! TO.P,D1,2*
G04 #@! TO.N,Vin*
X124600000Y-96550000D03*
G04 #@! TD*
D18*
G04 #@! TO.P,D2,2*
G04 #@! TO.N,Net-(D2-Pad2)*
X113400000Y-85400000D03*
G04 #@! TO.P,D2,1*
G04 #@! TO.N,Net-(D2-Pad1)*
X113400000Y-83800000D03*
G04 #@! TD*
G04 #@! TO.P,D3,2*
G04 #@! TO.N,Net-(D3-Pad2)*
X110900000Y-85400000D03*
G04 #@! TO.P,D3,1*
G04 #@! TO.N,Net-(D3-Pad1)*
X110900000Y-83800000D03*
G04 #@! TD*
G04 #@! TO.P,D4,2*
G04 #@! TO.N,D13*
X129800000Y-71300000D03*
G04 #@! TO.P,D4,1*
G04 #@! TO.N,Net-(D4-Pad1)*
X131400000Y-71300000D03*
G04 #@! TD*
D19*
G04 #@! TO.P,F1,1*
G04 #@! TO.N,5V_USB*
X103505000Y-104832000D03*
G04 #@! TO.P,F1,2*
G04 #@! TO.N,Net-(F1-Pad2)*
X103505000Y-102432000D03*
G04 #@! TD*
D20*
G04 #@! TO.P,J1,SH*
G04 #@! TO.N,GND*
X102470000Y-84360000D03*
X102470000Y-75640000D03*
X107950000Y-75640000D03*
X107950000Y-84360000D03*
D21*
G04 #@! TO.P,J1,1*
G04 #@! TO.N,Net-(F1-Pad2)*
X107950000Y-78400000D03*
G04 #@! TO.P,J1,2*
G04 #@! TO.N,Net-(J1-Pad2)*
X107950000Y-79200000D03*
G04 #@! TO.P,J1,3*
G04 #@! TO.N,Net-(J1-Pad3)*
X107950000Y-80000000D03*
G04 #@! TO.P,J1,4*
G04 #@! TO.N,Net-(J1-Pad4)*
X107950000Y-80800000D03*
G04 #@! TO.P,J1,5*
G04 #@! TO.N,GND*
X107950000Y-81600000D03*
D22*
G04 #@! TO.P,J1,SH*
X104840000Y-77800000D03*
X104840000Y-82200000D03*
G04 #@! TD*
D12*
G04 #@! TO.P,J2,1*
G04 #@! TO.N,5V_USB*
X108077000Y-104902000D03*
D13*
G04 #@! TO.P,J2,2*
G04 #@! TO.N,VCC*
X108077000Y-102362000D03*
G04 #@! TO.P,J2,3*
G04 #@! TO.N,5V*
X110617000Y-104902000D03*
G04 #@! TO.P,J2,4*
G04 #@! TO.N,VCC*
X110617000Y-102362000D03*
G04 #@! TD*
D12*
G04 #@! TO.P,J4,1*
G04 #@! TO.N,A5*
X163500000Y-108060000D03*
D13*
G04 #@! TO.P,J4,2*
G04 #@! TO.N,A4*
X160960000Y-108060000D03*
G04 #@! TO.P,J4,3*
G04 #@! TO.N,A3*
X158420000Y-108060000D03*
G04 #@! TO.P,J4,4*
G04 #@! TO.N,A2*
X155880000Y-108060000D03*
G04 #@! TO.P,J4,5*
G04 #@! TO.N,A1*
X153340000Y-108060000D03*
G04 #@! TO.P,J4,6*
G04 #@! TO.N,A0*
X150800000Y-108060000D03*
G04 #@! TD*
D12*
G04 #@! TO.P,J5,1*
G04 #@! TO.N,A5*
X118796000Y-65340000D03*
D13*
G04 #@! TO.P,J5,2*
G04 #@! TO.N,A4*
X121336000Y-65340000D03*
G04 #@! TO.P,J5,3*
G04 #@! TO.N,VCC*
X123876000Y-65340000D03*
G04 #@! TO.P,J5,4*
G04 #@! TO.N,GND*
X126416000Y-65340000D03*
G04 #@! TO.P,J5,5*
G04 #@! TO.N,D13*
X128956000Y-65340000D03*
G04 #@! TO.P,J5,6*
G04 #@! TO.N,D12*
X131496000Y-65340000D03*
G04 #@! TO.P,J5,7*
G04 #@! TO.N,D11*
X134036000Y-65340000D03*
G04 #@! TO.P,J5,8*
G04 #@! TO.N,D10*
X136576000Y-65340000D03*
G04 #@! TO.P,J5,9*
G04 #@! TO.N,D9*
X139116000Y-65340000D03*
G04 #@! TO.P,J5,10*
G04 #@! TO.N,D8*
X141656000Y-65340000D03*
G04 #@! TD*
D12*
G04 #@! TO.P,J6,1*
G04 #@! TO.N,D7*
X145720000Y-65340000D03*
D13*
G04 #@! TO.P,J6,2*
G04 #@! TO.N,D6*
X148260000Y-65340000D03*
G04 #@! TO.P,J6,3*
G04 #@! TO.N,D5*
X150800000Y-65340000D03*
G04 #@! TO.P,J6,4*
G04 #@! TO.N,D4*
X153340000Y-65340000D03*
G04 #@! TO.P,J6,5*
G04 #@! TO.N,D3*
X155880000Y-65340000D03*
G04 #@! TO.P,J6,6*
G04 #@! TO.N,D2*
X158420000Y-65340000D03*
G04 #@! TO.P,J6,7*
G04 #@! TO.N,TX*
X160960000Y-65340000D03*
G04 #@! TO.P,J6,8*
G04 #@! TO.N,RX*
X163500000Y-65340000D03*
G04 #@! TD*
D12*
G04 #@! TO.P,J7,1*
G04 #@! TO.N,Vin*
X145720000Y-110760000D03*
D13*
G04 #@! TO.P,J7,2*
G04 #@! TO.N,GND*
X143180000Y-110760000D03*
G04 #@! TO.P,J7,3*
X140640000Y-110760000D03*
G04 #@! TO.P,J7,4*
G04 #@! TO.N,VCC*
X138100000Y-110760000D03*
G04 #@! TO.P,J7,5*
G04 #@! TO.N,3.3V*
X135560000Y-110760000D03*
G04 #@! TO.P,J7,6*
G04 #@! TO.N,DTR*
X133020000Y-110760000D03*
G04 #@! TO.P,J7,7*
G04 #@! TO.N,VCC*
X130480000Y-110760000D03*
G04 #@! TO.P,J7,8*
G04 #@! TO.N,Net-(J7-Pad8)*
X127940000Y-110760000D03*
G04 #@! TD*
D12*
G04 #@! TO.P,J8,1*
G04 #@! TO.N,A5*
X163500000Y-110760000D03*
D13*
G04 #@! TO.P,J8,2*
G04 #@! TO.N,A4*
X160960000Y-110760000D03*
G04 #@! TO.P,J8,3*
G04 #@! TO.N,A3*
X158420000Y-110760000D03*
G04 #@! TO.P,J8,4*
G04 #@! TO.N,A2*
X155880000Y-110760000D03*
G04 #@! TO.P,J8,5*
G04 #@! TO.N,A1*
X153340000Y-110760000D03*
G04 #@! TO.P,J8,6*
G04 #@! TO.N,A0*
X150800000Y-110760000D03*
G04 #@! TD*
D12*
G04 #@! TO.P,J9,1*
G04 #@! TO.N,A5*
X118796000Y-62800000D03*
D13*
G04 #@! TO.P,J9,2*
G04 #@! TO.N,A4*
X121336000Y-62800000D03*
G04 #@! TO.P,J9,3*
G04 #@! TO.N,VCC*
X123876000Y-62800000D03*
G04 #@! TO.P,J9,4*
G04 #@! TO.N,GND*
X126416000Y-62800000D03*
G04 #@! TO.P,J9,5*
G04 #@! TO.N,D13*
X128956000Y-62800000D03*
G04 #@! TO.P,J9,6*
G04 #@! TO.N,D12*
X131496000Y-62800000D03*
G04 #@! TO.P,J9,7*
G04 #@! TO.N,D11*
X134036000Y-62800000D03*
G04 #@! TO.P,J9,8*
G04 #@! TO.N,D10*
X136576000Y-62800000D03*
G04 #@! TO.P,J9,9*
G04 #@! TO.N,D9*
X139116000Y-62800000D03*
G04 #@! TO.P,J9,10*
G04 #@! TO.N,D8*
X141656000Y-62800000D03*
G04 #@! TD*
D12*
G04 #@! TO.P,J10,1*
G04 #@! TO.N,D7*
X145720000Y-62800000D03*
D13*
G04 #@! TO.P,J10,2*
G04 #@! TO.N,D6*
X148260000Y-62800000D03*
G04 #@! TO.P,J10,3*
G04 #@! TO.N,D5*
X150800000Y-62800000D03*
G04 #@! TO.P,J10,4*
G04 #@! TO.N,D4*
X153340000Y-62800000D03*
G04 #@! TO.P,J10,5*
G04 #@! TO.N,D3*
X155880000Y-62800000D03*
G04 #@! TO.P,J10,6*
G04 #@! TO.N,D2*
X158420000Y-62800000D03*
G04 #@! TO.P,J10,7*
G04 #@! TO.N,TX*
X160960000Y-62800000D03*
G04 #@! TO.P,J10,8*
G04 #@! TO.N,RX*
X163500000Y-62800000D03*
G04 #@! TD*
D12*
G04 #@! TO.P,J11,1*
G04 #@! TO.N,D12*
X162500000Y-84200000D03*
D13*
G04 #@! TO.P,J11,2*
G04 #@! TO.N,VCC*
X165040000Y-84200000D03*
G04 #@! TO.P,J11,3*
G04 #@! TO.N,D13*
X162500000Y-86740000D03*
G04 #@! TO.P,J11,4*
G04 #@! TO.N,D11*
X165040000Y-86740000D03*
G04 #@! TO.P,J11,5*
G04 #@! TO.N,DTR*
X162500000Y-89280000D03*
G04 #@! TO.P,J11,6*
G04 #@! TO.N,GND*
X165040000Y-89280000D03*
G04 #@! TD*
D23*
G04 #@! TO.P,R1,1*
G04 #@! TO.N,Net-(D2-Pad2)*
X113400000Y-87150000D03*
G04 #@! TO.P,R1,2*
G04 #@! TO.N,VCC*
X113400000Y-88650000D03*
G04 #@! TD*
G04 #@! TO.P,R2,1*
G04 #@! TO.N,Net-(D3-Pad2)*
X110900000Y-87150000D03*
G04 #@! TO.P,R2,2*
G04 #@! TO.N,VCC*
X110900000Y-88650000D03*
G04 #@! TD*
D24*
G04 #@! TO.P,R3,1*
G04 #@! TO.N,Net-(R3-Pad1)*
X132250000Y-81600000D03*
G04 #@! TO.P,R3,2*
G04 #@! TO.N,RX*
X133750000Y-81600000D03*
G04 #@! TD*
G04 #@! TO.P,R4,1*
G04 #@! TO.N,Net-(C8-Pad1)*
X111750000Y-69200000D03*
G04 #@! TO.P,R4,2*
G04 #@! TO.N,VCC*
X113250000Y-69200000D03*
G04 #@! TD*
G04 #@! TO.P,R5,1*
G04 #@! TO.N,TX*
X133750000Y-84400000D03*
G04 #@! TO.P,R5,2*
G04 #@! TO.N,Net-(R5-Pad2)*
X132250000Y-84400000D03*
G04 #@! TD*
G04 #@! TO.P,R6,1*
G04 #@! TO.N,DTR*
X132250000Y-83000000D03*
G04 #@! TO.P,R6,2*
G04 #@! TO.N,GND*
X133750000Y-83000000D03*
G04 #@! TD*
G04 #@! TO.P,R7,1*
G04 #@! TO.N,GND*
X129850000Y-68500000D03*
G04 #@! TO.P,R7,2*
G04 #@! TO.N,Net-(D4-Pad1)*
X131350000Y-68500000D03*
G04 #@! TD*
D25*
G04 #@! TO.P,SW1,2*
G04 #@! TO.N,GND*
X101520000Y-66150000D03*
G04 #@! TO.P,SW1,1*
G04 #@! TO.N,Net-(C8-Pad1)*
X101520000Y-61650000D03*
X109480000Y-61650000D03*
G04 #@! TO.P,SW1,2*
G04 #@! TO.N,GND*
X109480000Y-66150000D03*
G04 #@! TD*
D26*
G04 #@! TO.P,U1,1*
G04 #@! TO.N,Net-(C8-Pad1)*
X160960000Y-92800000D03*
D27*
G04 #@! TO.P,U1,2*
G04 #@! TO.N,RX*
X158420000Y-92800000D03*
G04 #@! TO.P,U1,3*
G04 #@! TO.N,TX*
X155880000Y-92800000D03*
G04 #@! TO.P,U1,4*
G04 #@! TO.N,D2*
X153340000Y-92800000D03*
G04 #@! TO.P,U1,5*
G04 #@! TO.N,D3*
X150800000Y-92800000D03*
G04 #@! TO.P,U1,6*
G04 #@! TO.N,D4*
X148260000Y-92800000D03*
G04 #@! TO.P,U1,7*
G04 #@! TO.N,VCC*
X145720000Y-92800000D03*
G04 #@! TO.P,U1,8*
G04 #@! TO.N,GND*
X143180000Y-92800000D03*
G04 #@! TO.P,U1,9*
G04 #@! TO.N,Net-(C9-Pad2)*
X140640000Y-92800000D03*
G04 #@! TO.P,U1,10*
G04 #@! TO.N,Net-(C10-Pad2)*
X138100000Y-92800000D03*
G04 #@! TO.P,U1,11*
G04 #@! TO.N,D5*
X135560000Y-92800000D03*
G04 #@! TO.P,U1,12*
G04 #@! TO.N,D6*
X133020000Y-92800000D03*
G04 #@! TO.P,U1,13*
G04 #@! TO.N,D7*
X130480000Y-92800000D03*
G04 #@! TO.P,U1,14*
G04 #@! TO.N,D8*
X127940000Y-92800000D03*
G04 #@! TO.P,U1,15*
G04 #@! TO.N,D9*
X127940000Y-100420000D03*
G04 #@! TO.P,U1,16*
G04 #@! TO.N,D10*
X130480000Y-100420000D03*
G04 #@! TO.P,U1,17*
G04 #@! TO.N,D11*
X133020000Y-100420000D03*
G04 #@! TO.P,U1,18*
G04 #@! TO.N,D12*
X135560000Y-100420000D03*
G04 #@! TO.P,U1,19*
G04 #@! TO.N,D13*
X138100000Y-100420000D03*
G04 #@! TO.P,U1,20*
G04 #@! TO.N,VCC*
X140640000Y-100420000D03*
G04 #@! TO.P,U1,21*
X143180000Y-100420000D03*
G04 #@! TO.P,U1,22*
G04 #@! TO.N,GND*
X145720000Y-100420000D03*
G04 #@! TO.P,U1,23*
G04 #@! TO.N,A0*
X148260000Y-100420000D03*
G04 #@! TO.P,U1,24*
G04 #@! TO.N,A1*
X150800000Y-100420000D03*
G04 #@! TO.P,U1,25*
G04 #@! TO.N,A2*
X153340000Y-100420000D03*
G04 #@! TO.P,U1,26*
G04 #@! TO.N,A3*
X155880000Y-100420000D03*
G04 #@! TO.P,U1,27*
G04 #@! TO.N,A4*
X158420000Y-100420000D03*
G04 #@! TO.P,U1,28*
G04 #@! TO.N,A5*
X160960000Y-100420000D03*
G04 #@! TD*
D28*
G04 #@! TO.P,U2,1*
G04 #@! TO.N,Net-(R5-Pad2)*
X128600000Y-84225000D03*
G04 #@! TO.P,U2,2*
G04 #@! TO.N,DTR*
X128600000Y-83575000D03*
G04 #@! TO.P,U2,3*
G04 #@! TO.N,Net-(U2-Pad3)*
X128600000Y-82925000D03*
G04 #@! TO.P,U2,4*
G04 #@! TO.N,VCC*
X128600000Y-82275000D03*
G04 #@! TO.P,U2,5*
G04 #@! TO.N,Net-(R3-Pad1)*
X128600000Y-81625000D03*
G04 #@! TO.P,U2,6*
G04 #@! TO.N,Net-(U2-Pad6)*
X128600000Y-80975000D03*
G04 #@! TO.P,U2,7*
G04 #@! TO.N,GND*
X128600000Y-80325000D03*
G04 #@! TO.P,U2,8*
G04 #@! TO.N,Net-(U2-Pad8)*
X128600000Y-79675000D03*
G04 #@! TO.P,U2,9*
G04 #@! TO.N,Net-(U2-Pad9)*
X128600000Y-79025000D03*
G04 #@! TO.P,U2,10*
G04 #@! TO.N,Net-(U2-Pad10)*
X128600000Y-78375000D03*
G04 #@! TO.P,U2,11*
G04 #@! TO.N,Net-(U2-Pad11)*
X128600000Y-77725000D03*
G04 #@! TO.P,U2,12*
G04 #@! TO.N,Net-(U2-Pad12)*
X128600000Y-77075000D03*
G04 #@! TO.P,U2,13*
G04 #@! TO.N,Net-(U2-Pad13)*
X128600000Y-76425000D03*
G04 #@! TO.P,U2,14*
G04 #@! TO.N,Net-(U2-Pad14)*
X128600000Y-75775000D03*
G04 #@! TO.P,U2,15*
G04 #@! TO.N,Net-(J1-Pad3)*
X121400000Y-75775000D03*
G04 #@! TO.P,U2,16*
G04 #@! TO.N,Net-(J1-Pad2)*
X121400000Y-76425000D03*
G04 #@! TO.P,U2,17*
G04 #@! TO.N,Net-(C5-Pad2)*
X121400000Y-77075000D03*
G04 #@! TO.P,U2,18*
G04 #@! TO.N,GND*
X121400000Y-77725000D03*
G04 #@! TO.P,U2,19*
G04 #@! TO.N,VCC*
X121400000Y-78375000D03*
G04 #@! TO.P,U2,20*
X121400000Y-79025000D03*
G04 #@! TO.P,U2,21*
G04 #@! TO.N,GND*
X121400000Y-79675000D03*
G04 #@! TO.P,U2,22*
G04 #@! TO.N,Net-(D2-Pad1)*
X121400000Y-80325000D03*
G04 #@! TO.P,U2,23*
G04 #@! TO.N,Net-(D3-Pad1)*
X121400000Y-80975000D03*
G04 #@! TO.P,U2,24*
G04 #@! TO.N,Net-(U2-Pad24)*
X121400000Y-81625000D03*
G04 #@! TO.P,U2,25*
G04 #@! TO.N,GND*
X121400000Y-82275000D03*
G04 #@! TO.P,U2,26*
X121400000Y-82925000D03*
G04 #@! TO.P,U2,27*
G04 #@! TO.N,Net-(U2-Pad27)*
X121400000Y-83575000D03*
G04 #@! TO.P,U2,28*
G04 #@! TO.N,Net-(U2-Pad28)*
X121400000Y-84225000D03*
G04 #@! TD*
D29*
G04 #@! TO.P,U3,1*
G04 #@! TO.N,GND*
X118495000Y-97550000D03*
G04 #@! TO.P,U3,2*
G04 #@! TO.N,5V*
X119765000Y-97550000D03*
G04 #@! TO.P,U3,4*
G04 #@! TO.N,Vin*
X122305000Y-97550000D03*
G04 #@! TO.P,U3,5*
G04 #@! TO.N,Net-(U3-Pad5)*
X122305000Y-92650000D03*
G04 #@! TO.P,U3,6*
G04 #@! TO.N,5V*
X121035000Y-92650000D03*
G04 #@! TO.P,U3,7*
X119765000Y-92650000D03*
G04 #@! TO.P,U3,8*
G04 #@! TO.N,Net-(U3-Pad8)*
X118495000Y-92650000D03*
G04 #@! TO.P,U3,3*
G04 #@! TO.N,5V*
X121035000Y-97550000D03*
G04 #@! TD*
D30*
G04 #@! TO.P,Y1,1*
G04 #@! TO.N,Net-(C9-Pad2)*
X141169000Y-86741000D03*
G04 #@! TO.P,Y1,2*
G04 #@! TO.N,Net-(C10-Pad2)*
X137469000Y-86741000D03*
G04 #@! TD*
D31*
G04 #@! TO.N,*
X166370000Y-96139000D03*
X163703000Y-96647000D03*
X162941000Y-100584000D03*
X162941000Y-104648000D03*
G04 #@! TO.N,GND*
X116713000Y-79883000D03*
X112776000Y-80264000D03*
X106934000Y-94234000D03*
X124841000Y-105537000D03*
X119761000Y-110236000D03*
X105410000Y-110744000D03*
X105029000Y-106553000D03*
X131064000Y-104267000D03*
X115570000Y-90170000D03*
X115062000Y-93345000D03*
X145669000Y-105410000D03*
X143256000Y-104013000D03*
X149733000Y-98679000D03*
X166116000Y-101092000D03*
X166370000Y-93853000D03*
X162814000Y-81661000D03*
X159004000Y-80645000D03*
X156972000Y-79883000D03*
X154813000Y-79248000D03*
X152908000Y-78740000D03*
X144780000Y-85217000D03*
X142748000Y-82042000D03*
X138303000Y-84582000D03*
X135509000Y-82042000D03*
X143891000Y-75565000D03*
X149606000Y-69469000D03*
X151765000Y-70485000D03*
X137922000Y-69596000D03*
X135255000Y-72263000D03*
X132842000Y-72517000D03*
X118364000Y-84709000D03*
X128270000Y-73152000D03*
X126873000Y-67818000D03*
X123063000Y-90678000D03*
X117856000Y-90551000D03*
X109350000Y-68325000D03*
X117675000Y-60900000D03*
X115575000Y-65575000D03*
G04 #@! TO.N,VCC*
X113538000Y-89662000D03*
X110998000Y-89662000D03*
X124206000Y-78486000D03*
X114300000Y-69088000D03*
X126225000Y-82175000D03*
G04 #@! TO.N,Vin*
X124460000Y-94996000D03*
X114808000Y-91694000D03*
G04 #@! TO.N,3.3V*
X114808000Y-96393000D03*
X134112000Y-98298000D03*
G04 #@! TO.N,DTR*
X147193000Y-102362000D03*
X131318000Y-82931000D03*
X131699000Y-97282000D03*
G04 #@! TO.N,Net-(C8-Pad1)*
X114554000Y-82296000D03*
X114554000Y-76962000D03*
G04 #@! TO.N,Net-(D3-Pad1)*
X110998000Y-82677000D03*
X122936000Y-81407000D03*
G04 #@! TO.N,D13*
X141351000Y-96139000D03*
X129794000Y-72517000D03*
X132842000Y-78994000D03*
X141605000Y-80391000D03*
X138176000Y-99060000D03*
G04 #@! TO.N,Net-(F1-Pad2)*
X103632000Y-100584000D03*
X109982000Y-78486000D03*
G04 #@! TO.N,A5*
X115824000Y-73787000D03*
G04 #@! TO.N,A4*
X121412000Y-74168000D03*
X123190000Y-75946000D03*
X125476000Y-88773000D03*
X125476000Y-97282000D03*
X125857000Y-104267000D03*
G04 #@! TO.N,D12*
X138049000Y-96774000D03*
X134366000Y-79629000D03*
X140716000Y-80391000D03*
X135382000Y-98171000D03*
G04 #@! TO.N,D11*
X136398000Y-96266000D03*
X135890000Y-80264000D03*
X139827000Y-80391000D03*
X133096000Y-97409000D03*
G04 #@! TO.N,D10*
X126365000Y-97536000D03*
X130048000Y-94234000D03*
X133350000Y-88519000D03*
G04 #@! TO.N,D9*
X132588000Y-94615000D03*
X130810000Y-94615000D03*
X127889000Y-97536000D03*
G04 #@! TO.N,D8*
X129032000Y-74803000D03*
G04 #@! TO.N,D7*
X131445000Y-78740000D03*
G04 #@! TO.N,D6*
X134239000Y-86360000D03*
X132207000Y-79502000D03*
G04 #@! TO.N,D5*
X133350000Y-96012000D03*
X149479000Y-80137000D03*
X147320000Y-98171000D03*
G04 #@! TD*
D32*
G04 #@! TO.N,*
X163703000Y-96647000D02*
X165862000Y-96647000D01*
X165862000Y-96647000D02*
X166370000Y-96139000D01*
X162941000Y-100584000D02*
X162941000Y-104648000D01*
G04 #@! TO.N,GND*
X126416000Y-62800000D02*
X126416000Y-65340000D01*
X119100000Y-80525000D02*
X119100000Y-80550000D01*
X119950000Y-79675000D02*
X119100000Y-80525000D01*
X121400000Y-79675000D02*
X119950000Y-79675000D01*
X122050000Y-82275000D02*
X121400000Y-82275000D01*
X120275000Y-82925000D02*
X119761000Y-83439000D01*
X121400000Y-82925000D02*
X120275000Y-82925000D01*
X119761000Y-83439000D02*
X119126000Y-83439000D01*
X120275000Y-82275000D02*
X119619000Y-82931000D01*
X121400000Y-82275000D02*
X120275000Y-82275000D01*
X127475000Y-80325000D02*
X127250000Y-80100000D01*
X128600000Y-80325000D02*
X127475000Y-80325000D01*
X127250000Y-80100000D02*
X127250000Y-80000000D01*
X127250000Y-80000000D02*
X126800000Y-79550000D01*
X129725000Y-80325000D02*
X129975000Y-80075000D01*
X128600000Y-80325000D02*
X129725000Y-80325000D01*
X119675001Y-78324999D02*
X118025001Y-78324999D01*
X121400000Y-77725000D02*
X120275000Y-77725000D01*
X120275000Y-77725000D02*
X119675001Y-78324999D01*
X118025001Y-78324999D02*
X117475000Y-78875000D01*
X117375001Y-63774999D02*
X115575000Y-65575000D01*
X117675000Y-60900000D02*
X117375001Y-61199999D01*
X117375001Y-61199999D02*
X117375001Y-63774999D01*
G04 #@! TO.N,VCC*
X121400000Y-78375000D02*
X121400000Y-79025000D01*
X119100000Y-79050000D02*
X121375000Y-79050000D01*
X121375000Y-79050000D02*
X121400000Y-79025000D01*
X113400000Y-88650000D02*
X113400000Y-89524000D01*
X113400000Y-89524000D02*
X113538000Y-89662000D01*
X110900000Y-88650000D02*
X110900000Y-89564000D01*
X110900000Y-89564000D02*
X110998000Y-89662000D01*
X124095000Y-78375000D02*
X124206000Y-78486000D01*
X124095000Y-78375000D02*
X121400000Y-78375000D01*
X113250000Y-69200000D02*
X114188000Y-69200000D01*
X114188000Y-69200000D02*
X114300000Y-69088000D01*
X123876000Y-62800000D02*
X123876000Y-65340000D01*
X128600000Y-82275000D02*
X126325000Y-82275000D01*
X126325000Y-82275000D02*
X126225000Y-82175000D01*
G04 #@! TO.N,Net-(C5-Pad2)*
X119050000Y-77400000D02*
X119297600Y-77400000D01*
X119297600Y-77400000D02*
X119622600Y-77075000D01*
X119622600Y-77075000D02*
X121400000Y-77075000D01*
G04 #@! TO.N,Vin*
X124600000Y-96550000D02*
X125379000Y-96550000D01*
X144086000Y-106426000D02*
X145720000Y-108060000D01*
X137414000Y-106426000D02*
X144086000Y-106426000D01*
X136779000Y-105791000D02*
X137414000Y-106426000D01*
X136779000Y-98679000D02*
X136779000Y-105791000D01*
X134747000Y-96647000D02*
X136779000Y-98679000D01*
X125476000Y-96647000D02*
X134747000Y-96647000D01*
X125379000Y-96550000D02*
X125476000Y-96647000D01*
X113700000Y-91650000D02*
X114764000Y-91650000D01*
X124600000Y-95136000D02*
X124600000Y-96550000D01*
X124460000Y-94996000D02*
X124600000Y-95136000D01*
X114764000Y-91650000D02*
X114808000Y-91694000D01*
X145720000Y-108060000D02*
X145720000Y-110760000D01*
X110850000Y-91600000D02*
X113650000Y-91600000D01*
X113650000Y-91600000D02*
X113700000Y-91650000D01*
G04 #@! TO.N,3.3V*
X135560000Y-108060000D02*
X135560000Y-106604000D01*
X114665000Y-96250000D02*
X113700000Y-96250000D01*
X114808000Y-96393000D02*
X114665000Y-96250000D01*
X134239000Y-98425000D02*
X134112000Y-98298000D01*
X134239000Y-105283000D02*
X134239000Y-98425000D01*
X135560000Y-106604000D02*
X134239000Y-105283000D01*
X135560000Y-108060000D02*
X135560000Y-110760000D01*
X113700000Y-96250000D02*
X110900000Y-96250000D01*
X110900000Y-96250000D02*
X110850000Y-96200000D01*
G04 #@! TO.N,DTR*
X147193000Y-103124000D02*
X147193000Y-102362000D01*
X134366000Y-112649000D02*
X147193000Y-112649000D01*
X147193000Y-112649000D02*
X148590000Y-111252000D01*
X148590000Y-111252000D02*
X148590000Y-106934000D01*
X148590000Y-106934000D02*
X147193000Y-105537000D01*
X147193000Y-105537000D02*
X147193000Y-103124000D01*
X133020000Y-111303000D02*
X134366000Y-112649000D01*
X133020000Y-110760000D02*
X133020000Y-111303000D01*
X133020000Y-108060000D02*
X133020000Y-102921000D01*
X131387000Y-83000000D02*
X132250000Y-83000000D01*
X131318000Y-82931000D02*
X131387000Y-83000000D01*
X131699000Y-101600000D02*
X131699000Y-97282000D01*
X133020000Y-102921000D02*
X131699000Y-101600000D01*
X113250000Y-66400000D02*
X113250000Y-66768000D01*
X113250000Y-66768000D02*
X115062000Y-68580000D01*
X115062000Y-68580000D02*
X115062000Y-73914000D01*
X115062000Y-73914000D02*
X116078000Y-74930000D01*
X116078000Y-74930000D02*
X124714000Y-74930000D01*
X124714000Y-74930000D02*
X125476000Y-75692000D01*
X125476000Y-75692000D02*
X125476000Y-82550000D01*
X125476000Y-82550000D02*
X126501000Y-83575000D01*
X126501000Y-83575000D02*
X128600000Y-83575000D01*
X133020000Y-108060000D02*
X133020000Y-110760000D01*
X128600000Y-83575000D02*
X131675000Y-83575000D01*
X131675000Y-83575000D02*
X132250000Y-83000000D01*
G04 #@! TO.N,Net-(C8-Pad1)*
X160960000Y-92800000D02*
X160946000Y-92800000D01*
X160946000Y-92800000D02*
X158369000Y-95377000D01*
X158369000Y-95377000D02*
X126619000Y-95377000D01*
X126619000Y-95377000D02*
X124587000Y-93345000D01*
X124587000Y-93345000D02*
X124587000Y-88646000D01*
X124587000Y-88646000D02*
X123825000Y-87884000D01*
X123825000Y-87884000D02*
X115570000Y-87884000D01*
X115570000Y-87884000D02*
X114554000Y-86868000D01*
X114554000Y-86868000D02*
X114554000Y-82296000D01*
X114554000Y-76962000D02*
X114427000Y-76835000D01*
X114427000Y-76835000D02*
X114427000Y-71877000D01*
X114427000Y-71877000D02*
X111750000Y-69200000D01*
G04 #@! TO.N,Net-(C9-Pad2)*
X141050000Y-92390000D02*
X140640000Y-92800000D01*
X141050000Y-86500000D02*
X141050000Y-92390000D01*
X141000000Y-82950000D02*
X141000000Y-86450000D01*
X141000000Y-86450000D02*
X141050000Y-86500000D01*
G04 #@! TO.N,Net-(C10-Pad2)*
X137350000Y-86500000D02*
X137350000Y-92050000D01*
X137350000Y-92050000D02*
X138100000Y-92800000D01*
X137350000Y-86500000D02*
X137350000Y-83000000D01*
X137350000Y-83000000D02*
X137400000Y-82950000D01*
G04 #@! TO.N,Net-(D2-Pad2)*
X113400000Y-87150000D02*
X113400000Y-85400000D01*
G04 #@! TO.N,Net-(D2-Pad1)*
X121400000Y-80325000D02*
X120462000Y-80325000D01*
X113400000Y-82434000D02*
X113400000Y-83800000D01*
X114173000Y-81661000D02*
X113400000Y-82434000D01*
X119634000Y-81661000D02*
X114173000Y-81661000D01*
X120015000Y-81280000D02*
X119634000Y-81661000D01*
X120015000Y-80772000D02*
X120015000Y-81280000D01*
X120462000Y-80325000D02*
X120015000Y-80772000D01*
G04 #@! TO.N,Net-(D3-Pad2)*
X110900000Y-87150000D02*
X110900000Y-85400000D01*
G04 #@! TO.N,Net-(D3-Pad1)*
X121400000Y-80975000D02*
X122504000Y-80975000D01*
X110900000Y-82775000D02*
X110900000Y-83800000D01*
X110998000Y-82677000D02*
X110900000Y-82775000D01*
X122504000Y-80975000D02*
X122936000Y-81407000D01*
G04 #@! TO.N,D13*
X162500000Y-86740000D02*
X162500000Y-86801000D01*
X162500000Y-86801000D02*
X161036000Y-88265000D01*
X161417000Y-96139000D02*
X141351000Y-96139000D01*
X162687000Y-94869000D02*
X161417000Y-96139000D01*
X162687000Y-91694000D02*
X162687000Y-94869000D01*
X161036000Y-90043000D02*
X162687000Y-91694000D01*
X161036000Y-88265000D02*
X161036000Y-90043000D01*
X129800000Y-72511000D02*
X129800000Y-71300000D01*
X129794000Y-72517000D02*
X129800000Y-72511000D01*
X138100000Y-100420000D02*
X138100000Y-99136000D01*
X140208000Y-78994000D02*
X132842000Y-78994000D01*
X141605000Y-80391000D02*
X140208000Y-78994000D01*
X138100000Y-99136000D02*
X138176000Y-99060000D01*
X128956000Y-62800000D02*
X128956000Y-65340000D01*
G04 #@! TO.N,Net-(D4-Pad1)*
X131350000Y-68500000D02*
X131350000Y-71250000D01*
X131350000Y-71250000D02*
X131400000Y-71300000D01*
G04 #@! TO.N,5V_USB*
X103505000Y-104832000D02*
X108007000Y-104832000D01*
X108007000Y-104832000D02*
X108077000Y-104902000D01*
G04 #@! TO.N,Net-(F1-Pad2)*
X107950000Y-78400000D02*
X109896000Y-78400000D01*
X103505000Y-100711000D02*
X103505000Y-102432000D01*
X103632000Y-100584000D02*
X103505000Y-100711000D01*
X109896000Y-78400000D02*
X109982000Y-78486000D01*
G04 #@! TO.N,Net-(J1-Pad2)*
X107950000Y-79200000D02*
X115160800Y-79200000D01*
X116716600Y-76425000D02*
X121400000Y-76425000D01*
X116433600Y-76708000D02*
X116716600Y-76425000D01*
X116433600Y-77927200D02*
X116433600Y-76708000D01*
X115160800Y-79200000D02*
X116433600Y-77927200D01*
G04 #@! TO.N,Net-(J1-Pad3)*
X107950000Y-80000000D02*
X106720800Y-80000000D01*
X106720800Y-80000000D02*
X106273600Y-79552800D01*
X106273600Y-79552800D02*
X106273600Y-77978000D01*
X106273600Y-77978000D02*
X106527600Y-77724000D01*
X106527600Y-77724000D02*
X114706400Y-77724000D01*
X114706400Y-77724000D02*
X116655400Y-75775000D01*
X116655400Y-75775000D02*
X121400000Y-75775000D01*
G04 #@! TO.N,A5*
X118796000Y-70815000D02*
X115824000Y-73787000D01*
X118796000Y-70815000D02*
X118796000Y-65340000D01*
X160960000Y-100420000D02*
X160960000Y-105520000D01*
X160960000Y-105520000D02*
X163500000Y-108060000D01*
X118796000Y-62800000D02*
X118796000Y-65340000D01*
X163500000Y-108060000D02*
X163500000Y-110760000D01*
G04 #@! TO.N,A4*
X121336000Y-74092000D02*
X121336000Y-65340000D01*
X121412000Y-74168000D02*
X121336000Y-74092000D01*
X124968000Y-77724000D02*
X123190000Y-75946000D01*
X124968000Y-88265000D02*
X124968000Y-77724000D01*
X125476000Y-88773000D02*
X124968000Y-88265000D01*
X125730000Y-97536000D02*
X125476000Y-97282000D01*
X125730000Y-104140000D02*
X125730000Y-97536000D01*
X125857000Y-104267000D02*
X125730000Y-104140000D01*
X158420000Y-100420000D02*
X158420000Y-105520000D01*
X158420000Y-105520000D02*
X160960000Y-108060000D01*
X121336000Y-62800000D02*
X121336000Y-65340000D01*
X160960000Y-108060000D02*
X160960000Y-110760000D01*
G04 #@! TO.N,A3*
X155880000Y-100420000D02*
X155880000Y-105520000D01*
X155880000Y-105520000D02*
X158420000Y-108060000D01*
X158420000Y-108060000D02*
X158420000Y-110760000D01*
G04 #@! TO.N,A2*
X153340000Y-100420000D02*
X153340000Y-105520000D01*
X153340000Y-105520000D02*
X155880000Y-108060000D01*
X155880000Y-108060000D02*
X155880000Y-110760000D01*
G04 #@! TO.N,A1*
X150800000Y-100420000D02*
X150800000Y-105520000D01*
X150800000Y-105520000D02*
X153340000Y-108060000D01*
X153340000Y-108060000D02*
X153340000Y-110760000D01*
G04 #@! TO.N,A0*
X148260000Y-100420000D02*
X148260000Y-105520000D01*
X148260000Y-105520000D02*
X150800000Y-108060000D01*
X150800000Y-108060000D02*
X150800000Y-110760000D01*
G04 #@! TO.N,D12*
X163703000Y-85403000D02*
X162500000Y-84200000D01*
X163703000Y-95250000D02*
X163703000Y-85403000D01*
X162179000Y-96774000D02*
X163703000Y-95250000D01*
X157607000Y-96774000D02*
X162179000Y-96774000D01*
X143002000Y-96774000D02*
X157607000Y-96774000D01*
X138049000Y-96774000D02*
X143002000Y-96774000D01*
X135560000Y-100420000D02*
X135560000Y-98349000D01*
X139954000Y-79629000D02*
X134366000Y-79629000D01*
X140716000Y-80391000D02*
X139954000Y-79629000D01*
X135560000Y-98349000D02*
X135382000Y-98171000D01*
X131496000Y-62800000D02*
X131496000Y-65340000D01*
G04 #@! TO.N,D11*
X166243000Y-97536000D02*
X137668000Y-97536000D01*
X166243000Y-97536000D02*
X167513000Y-96266000D01*
X167513000Y-96266000D02*
X167513000Y-89213000D01*
X165040000Y-86740000D02*
X167513000Y-89213000D01*
X137668000Y-97536000D02*
X136398000Y-96266000D01*
X133020000Y-100420000D02*
X133020000Y-97485000D01*
X139700000Y-80264000D02*
X135890000Y-80264000D01*
X139827000Y-80391000D02*
X139700000Y-80264000D01*
X133020000Y-97485000D02*
X133096000Y-97409000D01*
X134036000Y-62800000D02*
X134036000Y-65340000D01*
G04 #@! TO.N,D10*
X130480000Y-100420000D02*
X130480000Y-100914000D01*
X130480000Y-100914000D02*
X129413000Y-101981000D01*
X129413000Y-101981000D02*
X127000000Y-101981000D01*
X127000000Y-101981000D02*
X126365000Y-101346000D01*
X126365000Y-101346000D02*
X126365000Y-97536000D01*
X130048000Y-94234000D02*
X130302000Y-93980000D01*
X130302000Y-93980000D02*
X131064000Y-93980000D01*
X131064000Y-93980000D02*
X131699000Y-93345000D01*
X131699000Y-93345000D02*
X131699000Y-90170000D01*
X131699000Y-90170000D02*
X133350000Y-88519000D01*
X136576000Y-62800000D02*
X136576000Y-65340000D01*
G04 #@! TO.N,D9*
X130810000Y-94615000D02*
X132588000Y-94615000D01*
X127940000Y-97587000D02*
X127889000Y-97536000D01*
X127940000Y-100420000D02*
X127940000Y-97587000D01*
X139116000Y-62800000D02*
X139116000Y-65340000D01*
G04 #@! TO.N,D8*
X129032000Y-74803000D02*
X136144000Y-74803000D01*
X136144000Y-74803000D02*
X138938000Y-74803000D01*
X138938000Y-74803000D02*
X140208000Y-74803000D01*
X140208000Y-74803000D02*
X141656000Y-73355000D01*
X141656000Y-73355000D02*
X141656000Y-65340000D01*
X141656000Y-62800000D02*
X141656000Y-65340000D01*
G04 #@! TO.N,D7*
X145720000Y-77038000D02*
X145720000Y-65340000D01*
X145161000Y-77597000D02*
X145720000Y-77038000D01*
X132207000Y-77597000D02*
X145161000Y-77597000D01*
X131445000Y-78359000D02*
X132207000Y-77597000D01*
X131445000Y-78740000D02*
X131445000Y-78359000D01*
X145720000Y-62800000D02*
X145720000Y-65340000D01*
G04 #@! TO.N,D6*
X134239000Y-89154000D02*
X134239000Y-86360000D01*
X133020000Y-92800000D02*
X133020000Y-90373000D01*
X148260000Y-77546000D02*
X148260000Y-65340000D01*
X147574000Y-78232000D02*
X148260000Y-77546000D01*
X132588000Y-78232000D02*
X147574000Y-78232000D01*
X132080000Y-78740000D02*
X132588000Y-78232000D01*
X132080000Y-79375000D02*
X132080000Y-78740000D01*
X132207000Y-79502000D02*
X132080000Y-79375000D01*
X133020000Y-90373000D02*
X134239000Y-89154000D01*
X148260000Y-62800000D02*
X148260000Y-65340000D01*
G04 #@! TO.N,D5*
X146939000Y-98298000D02*
X147193000Y-98298000D01*
X135001000Y-96012000D02*
X137287000Y-98298000D01*
X137287000Y-98298000D02*
X146939000Y-98298000D01*
X133350000Y-96012000D02*
X135001000Y-96012000D01*
X150800000Y-78816000D02*
X150800000Y-65340000D01*
X149479000Y-80137000D02*
X150800000Y-78816000D01*
X147193000Y-98298000D02*
X147320000Y-98171000D01*
X150800000Y-62800000D02*
X150800000Y-65340000D01*
G04 #@! TO.N,D4*
X153340000Y-65340000D02*
X153340000Y-77292000D01*
X148260000Y-82372000D02*
X148260000Y-92800000D01*
X153340000Y-77292000D02*
X148260000Y-82372000D01*
X153340000Y-62800000D02*
X153340000Y-65340000D01*
G04 #@! TO.N,D3*
X155880000Y-65340000D02*
X155880000Y-77038000D01*
X150800000Y-82118000D02*
X150800000Y-92800000D01*
X155880000Y-77038000D02*
X150800000Y-82118000D01*
X155880000Y-62800000D02*
X155880000Y-65340000D01*
G04 #@! TO.N,D2*
X153340000Y-92800000D02*
X153340000Y-81991000D01*
X158420000Y-76911000D02*
X158420000Y-65340000D01*
X153340000Y-81991000D02*
X158420000Y-76911000D01*
X158420000Y-62800000D02*
X158420000Y-65340000D01*
G04 #@! TO.N,TX*
X160960000Y-65340000D02*
X160960000Y-77546000D01*
X155880000Y-82626000D02*
X155880000Y-92800000D01*
X160960000Y-77546000D02*
X155880000Y-82626000D01*
X137668000Y-94361000D02*
X154319000Y-94361000D01*
X154319000Y-94361000D02*
X155880000Y-92800000D01*
X133750000Y-84400000D02*
X134692000Y-84400000D01*
X136779000Y-93472000D02*
X137668000Y-94361000D01*
X136779000Y-89662000D02*
X136779000Y-93472000D01*
X135636000Y-88519000D02*
X136779000Y-89662000D01*
X135636000Y-85344000D02*
X135636000Y-88519000D01*
X134692000Y-84400000D02*
X135636000Y-85344000D01*
X160960000Y-62800000D02*
X160960000Y-65340000D01*
G04 #@! TO.N,RX*
X134239000Y-93218000D02*
X134239000Y-93599000D01*
X132969000Y-85217000D02*
X133350000Y-85598000D01*
X133350000Y-85598000D02*
X134747000Y-85598000D01*
X134747000Y-85598000D02*
X135128000Y-85979000D01*
X135128000Y-85979000D02*
X135128000Y-91313000D01*
X135128000Y-91313000D02*
X134239000Y-92202000D01*
X134239000Y-92202000D02*
X134239000Y-93218000D01*
X158420000Y-92800000D02*
X158420000Y-82626000D01*
X163500000Y-77546000D02*
X163500000Y-65340000D01*
X158420000Y-82626000D02*
X163500000Y-77546000D01*
X133411000Y-81600000D02*
X132969000Y-82042000D01*
X132969000Y-82042000D02*
X132969000Y-85217000D01*
X133750000Y-81600000D02*
X133411000Y-81600000D01*
X156351000Y-94869000D02*
X158420000Y-92800000D01*
X135509000Y-94869000D02*
X156351000Y-94869000D01*
X134239000Y-93599000D02*
X135509000Y-94869000D01*
X163500000Y-62800000D02*
X163500000Y-65340000D01*
G04 #@! TO.N,Net-(R3-Pad1)*
X132250000Y-81600000D02*
X128625000Y-81600000D01*
X128625000Y-81600000D02*
X128600000Y-81625000D01*
G04 #@! TO.N,Net-(R5-Pad2)*
X132250000Y-84400000D02*
X128775000Y-84400000D01*
X128775000Y-84400000D02*
X128600000Y-84225000D01*
G04 #@! TD*
D33*
G04 #@! TO.N,5V*
G36*
X121177000Y-88973000D02*
X121197000Y-88973000D01*
X121197000Y-89227000D01*
X121177000Y-89227000D01*
X121177000Y-89951250D01*
X121335750Y-90110000D01*
X121468481Y-90110000D01*
X121429970Y-91015000D01*
X121320750Y-91015000D01*
X121162000Y-91173750D01*
X121162000Y-92523000D01*
X121182000Y-92523000D01*
X121182000Y-92777000D01*
X121162000Y-92777000D01*
X121162000Y-94126250D01*
X121320750Y-94285000D01*
X121412000Y-94285000D01*
X121412000Y-95898542D01*
X121387369Y-95915000D01*
X121320750Y-95915000D01*
X121162000Y-96073750D01*
X121162000Y-96372890D01*
X121158000Y-96393000D01*
X121158000Y-99141704D01*
X119335000Y-102254143D01*
X119335000Y-101985750D01*
X119176250Y-101827000D01*
X118027000Y-101827000D01*
X118027000Y-101847000D01*
X117773000Y-101847000D01*
X117773000Y-101827000D01*
X116623750Y-101827000D01*
X116465000Y-101985750D01*
X116465000Y-103126309D01*
X116534276Y-103293557D01*
X111846553Y-106616500D01*
X109347000Y-106616500D01*
X109347000Y-106235072D01*
X109384809Y-106209809D01*
X109525157Y-105999765D01*
X109545739Y-105896292D01*
X109850076Y-106173645D01*
X110260110Y-106343476D01*
X110490000Y-106222155D01*
X110490000Y-105029000D01*
X110744000Y-105029000D01*
X110744000Y-106222155D01*
X110973890Y-106343476D01*
X111383924Y-106173645D01*
X111812183Y-105783358D01*
X112058486Y-105258892D01*
X111937819Y-105029000D01*
X110744000Y-105029000D01*
X110490000Y-105029000D01*
X110470000Y-105029000D01*
X110470000Y-104775000D01*
X110490000Y-104775000D01*
X110490000Y-104755000D01*
X110744000Y-104755000D01*
X110744000Y-104775000D01*
X111937819Y-104775000D01*
X112058486Y-104545108D01*
X111812183Y-104020642D01*
X111803797Y-104013000D01*
X111823500Y-104013000D01*
X111872101Y-104003333D01*
X111898045Y-103988821D01*
X116465000Y-100677778D01*
X116465000Y-101414250D01*
X116623750Y-101573000D01*
X117773000Y-101573000D01*
X117773000Y-99923750D01*
X118027000Y-99923750D01*
X118027000Y-101573000D01*
X119176250Y-101573000D01*
X119335000Y-101414250D01*
X119335000Y-100273691D01*
X119238327Y-100040302D01*
X119059699Y-99861673D01*
X118826310Y-99765000D01*
X118185750Y-99765000D01*
X118027000Y-99923750D01*
X117773000Y-99923750D01*
X117704111Y-99854861D01*
X118761700Y-99197440D01*
X118795000Y-99197440D01*
X119042765Y-99148157D01*
X119121972Y-99095232D01*
X119338691Y-99185000D01*
X119479250Y-99185000D01*
X119638000Y-99026250D01*
X119638000Y-97677000D01*
X119892000Y-97677000D01*
X119892000Y-99026250D01*
X120050750Y-99185000D01*
X120191309Y-99185000D01*
X120400000Y-99098557D01*
X120608691Y-99185000D01*
X120749250Y-99185000D01*
X120908000Y-99026250D01*
X120908000Y-97677000D01*
X119892000Y-97677000D01*
X119638000Y-97677000D01*
X119618000Y-97677000D01*
X119618000Y-97423000D01*
X119638000Y-97423000D01*
X119638000Y-96073750D01*
X119892000Y-96073750D01*
X119892000Y-97423000D01*
X120908000Y-97423000D01*
X120908000Y-96073750D01*
X120749250Y-95915000D01*
X120608691Y-95915000D01*
X120400000Y-96001443D01*
X120191309Y-95915000D01*
X120050750Y-95915000D01*
X119892000Y-96073750D01*
X119638000Y-96073750D01*
X119479250Y-95915000D01*
X119380000Y-95915000D01*
X119380000Y-94285000D01*
X119479250Y-94285000D01*
X119638000Y-94126250D01*
X119638000Y-92777000D01*
X119892000Y-92777000D01*
X119892000Y-94126250D01*
X120050750Y-94285000D01*
X120191309Y-94285000D01*
X120400000Y-94198557D01*
X120608691Y-94285000D01*
X120749250Y-94285000D01*
X120908000Y-94126250D01*
X120908000Y-92777000D01*
X119892000Y-92777000D01*
X119638000Y-92777000D01*
X119618000Y-92777000D01*
X119618000Y-92523000D01*
X119638000Y-92523000D01*
X119638000Y-91173750D01*
X119892000Y-91173750D01*
X119892000Y-92523000D01*
X120908000Y-92523000D01*
X120908000Y-91173750D01*
X120749250Y-91015000D01*
X120608691Y-91015000D01*
X120400000Y-91101443D01*
X120191309Y-91015000D01*
X120050750Y-91015000D01*
X119892000Y-91173750D01*
X119638000Y-91173750D01*
X119531681Y-91067431D01*
X120055619Y-89699372D01*
X120111673Y-89834699D01*
X120290302Y-90013327D01*
X120523691Y-90110000D01*
X120764250Y-90110000D01*
X120923000Y-89951250D01*
X120923000Y-89227000D01*
X120903000Y-89227000D01*
X120903000Y-88973000D01*
X120923000Y-88973000D01*
X120923000Y-88953000D01*
X121177000Y-88953000D01*
X121177000Y-88973000D01*
X121177000Y-88973000D01*
G37*
X121177000Y-88973000D02*
X121197000Y-88973000D01*
X121197000Y-89227000D01*
X121177000Y-89227000D01*
X121177000Y-89951250D01*
X121335750Y-90110000D01*
X121468481Y-90110000D01*
X121429970Y-91015000D01*
X121320750Y-91015000D01*
X121162000Y-91173750D01*
X121162000Y-92523000D01*
X121182000Y-92523000D01*
X121182000Y-92777000D01*
X121162000Y-92777000D01*
X121162000Y-94126250D01*
X121320750Y-94285000D01*
X121412000Y-94285000D01*
X121412000Y-95898542D01*
X121387369Y-95915000D01*
X121320750Y-95915000D01*
X121162000Y-96073750D01*
X121162000Y-96372890D01*
X121158000Y-96393000D01*
X121158000Y-99141704D01*
X119335000Y-102254143D01*
X119335000Y-101985750D01*
X119176250Y-101827000D01*
X118027000Y-101827000D01*
X118027000Y-101847000D01*
X117773000Y-101847000D01*
X117773000Y-101827000D01*
X116623750Y-101827000D01*
X116465000Y-101985750D01*
X116465000Y-103126309D01*
X116534276Y-103293557D01*
X111846553Y-106616500D01*
X109347000Y-106616500D01*
X109347000Y-106235072D01*
X109384809Y-106209809D01*
X109525157Y-105999765D01*
X109545739Y-105896292D01*
X109850076Y-106173645D01*
X110260110Y-106343476D01*
X110490000Y-106222155D01*
X110490000Y-105029000D01*
X110744000Y-105029000D01*
X110744000Y-106222155D01*
X110973890Y-106343476D01*
X111383924Y-106173645D01*
X111812183Y-105783358D01*
X112058486Y-105258892D01*
X111937819Y-105029000D01*
X110744000Y-105029000D01*
X110490000Y-105029000D01*
X110470000Y-105029000D01*
X110470000Y-104775000D01*
X110490000Y-104775000D01*
X110490000Y-104755000D01*
X110744000Y-104755000D01*
X110744000Y-104775000D01*
X111937819Y-104775000D01*
X112058486Y-104545108D01*
X111812183Y-104020642D01*
X111803797Y-104013000D01*
X111823500Y-104013000D01*
X111872101Y-104003333D01*
X111898045Y-103988821D01*
X116465000Y-100677778D01*
X116465000Y-101414250D01*
X116623750Y-101573000D01*
X117773000Y-101573000D01*
X117773000Y-99923750D01*
X118027000Y-99923750D01*
X118027000Y-101573000D01*
X119176250Y-101573000D01*
X119335000Y-101414250D01*
X119335000Y-100273691D01*
X119238327Y-100040302D01*
X119059699Y-99861673D01*
X118826310Y-99765000D01*
X118185750Y-99765000D01*
X118027000Y-99923750D01*
X117773000Y-99923750D01*
X117704111Y-99854861D01*
X118761700Y-99197440D01*
X118795000Y-99197440D01*
X119042765Y-99148157D01*
X119121972Y-99095232D01*
X119338691Y-99185000D01*
X119479250Y-99185000D01*
X119638000Y-99026250D01*
X119638000Y-97677000D01*
X119892000Y-97677000D01*
X119892000Y-99026250D01*
X120050750Y-99185000D01*
X120191309Y-99185000D01*
X120400000Y-99098557D01*
X120608691Y-99185000D01*
X120749250Y-99185000D01*
X120908000Y-99026250D01*
X120908000Y-97677000D01*
X119892000Y-97677000D01*
X119638000Y-97677000D01*
X119618000Y-97677000D01*
X119618000Y-97423000D01*
X119638000Y-97423000D01*
X119638000Y-96073750D01*
X119892000Y-96073750D01*
X119892000Y-97423000D01*
X120908000Y-97423000D01*
X120908000Y-96073750D01*
X120749250Y-95915000D01*
X120608691Y-95915000D01*
X120400000Y-96001443D01*
X120191309Y-95915000D01*
X120050750Y-95915000D01*
X119892000Y-96073750D01*
X119638000Y-96073750D01*
X119479250Y-95915000D01*
X119380000Y-95915000D01*
X119380000Y-94285000D01*
X119479250Y-94285000D01*
X119638000Y-94126250D01*
X119638000Y-92777000D01*
X119892000Y-92777000D01*
X119892000Y-94126250D01*
X120050750Y-94285000D01*
X120191309Y-94285000D01*
X120400000Y-94198557D01*
X120608691Y-94285000D01*
X120749250Y-94285000D01*
X120908000Y-94126250D01*
X120908000Y-92777000D01*
X119892000Y-92777000D01*
X119638000Y-92777000D01*
X119618000Y-92777000D01*
X119618000Y-92523000D01*
X119638000Y-92523000D01*
X119638000Y-91173750D01*
X119892000Y-91173750D01*
X119892000Y-92523000D01*
X120908000Y-92523000D01*
X120908000Y-91173750D01*
X120749250Y-91015000D01*
X120608691Y-91015000D01*
X120400000Y-91101443D01*
X120191309Y-91015000D01*
X120050750Y-91015000D01*
X119892000Y-91173750D01*
X119638000Y-91173750D01*
X119531681Y-91067431D01*
X120055619Y-89699372D01*
X120111673Y-89834699D01*
X120290302Y-90013327D01*
X120523691Y-90110000D01*
X120764250Y-90110000D01*
X120923000Y-89951250D01*
X120923000Y-89227000D01*
X120903000Y-89227000D01*
X120903000Y-88973000D01*
X120923000Y-88973000D01*
X120923000Y-88953000D01*
X121177000Y-88953000D01*
X121177000Y-88973000D01*
G04 #@! TO.N,Net-(C8-Pad1)*
G36*
X112141000Y-65934084D02*
X112141000Y-69850000D01*
X111379000Y-69850000D01*
X111379000Y-68580000D01*
X111378478Y-68568502D01*
X111252000Y-67177244D01*
X111252000Y-65786000D01*
X111242333Y-65737399D01*
X111222245Y-65704315D01*
X110856464Y-65268862D01*
X110853157Y-65252235D01*
X110712809Y-65042191D01*
X110606255Y-64970993D01*
X108555245Y-62529315D01*
X108516583Y-62498319D01*
X108458000Y-62484000D01*
X100711000Y-62484000D01*
X100711000Y-60833000D01*
X110399167Y-60833000D01*
X112141000Y-65934084D01*
X112141000Y-65934084D01*
G37*
X112141000Y-65934084D02*
X112141000Y-69850000D01*
X111379000Y-69850000D01*
X111379000Y-68580000D01*
X111378478Y-68568502D01*
X111252000Y-67177244D01*
X111252000Y-65786000D01*
X111242333Y-65737399D01*
X111222245Y-65704315D01*
X110856464Y-65268862D01*
X110853157Y-65252235D01*
X110712809Y-65042191D01*
X110606255Y-64970993D01*
X108555245Y-62529315D01*
X108516583Y-62498319D01*
X108458000Y-62484000D01*
X100711000Y-62484000D01*
X100711000Y-60833000D01*
X110399167Y-60833000D01*
X112141000Y-65934084D01*
G04 #@! TO.N,Vin*
G36*
X123565000Y-96264250D02*
X123723750Y-96423000D01*
X124473000Y-96423000D01*
X124473000Y-96403000D01*
X124727000Y-96403000D01*
X124727000Y-96423000D01*
X124747000Y-96423000D01*
X124747000Y-96677000D01*
X124727000Y-96677000D01*
X124727000Y-96697000D01*
X124473000Y-96697000D01*
X124473000Y-96677000D01*
X123723750Y-96677000D01*
X123565000Y-96835750D01*
X123565000Y-96976309D01*
X123661673Y-97209698D01*
X123698000Y-97246025D01*
X123698000Y-97558327D01*
X123601843Y-97702235D01*
X123552560Y-97950000D01*
X123552560Y-98550000D01*
X123601843Y-98797765D01*
X123698000Y-98941673D01*
X123698000Y-99765000D01*
X123085750Y-99765000D01*
X122927000Y-99923750D01*
X122927000Y-101573000D01*
X122947000Y-101573000D01*
X122947000Y-101827000D01*
X122927000Y-101827000D01*
X122927000Y-101847000D01*
X122673000Y-101847000D01*
X122673000Y-101827000D01*
X122653000Y-101827000D01*
X122653000Y-101573000D01*
X122673000Y-101573000D01*
X122673000Y-99923750D01*
X122514250Y-99765000D01*
X121920000Y-99765000D01*
X121920000Y-99185000D01*
X122019250Y-99185000D01*
X122178000Y-99026250D01*
X122178000Y-97677000D01*
X122432000Y-97677000D01*
X122432000Y-99026250D01*
X122590750Y-99185000D01*
X122731309Y-99185000D01*
X122964698Y-99088327D01*
X123143327Y-98909699D01*
X123240000Y-98676310D01*
X123240000Y-97835750D01*
X123081250Y-97677000D01*
X122432000Y-97677000D01*
X122178000Y-97677000D01*
X122158000Y-97677000D01*
X122158000Y-97423000D01*
X122178000Y-97423000D01*
X122178000Y-97403000D01*
X122432000Y-97403000D01*
X122432000Y-97423000D01*
X123081250Y-97423000D01*
X123240000Y-97264250D01*
X123240000Y-96423690D01*
X123179367Y-96277310D01*
X123565000Y-96209257D01*
X123565000Y-96264250D01*
X123565000Y-96264250D01*
G37*
X123565000Y-96264250D02*
X123723750Y-96423000D01*
X124473000Y-96423000D01*
X124473000Y-96403000D01*
X124727000Y-96403000D01*
X124727000Y-96423000D01*
X124747000Y-96423000D01*
X124747000Y-96677000D01*
X124727000Y-96677000D01*
X124727000Y-96697000D01*
X124473000Y-96697000D01*
X124473000Y-96677000D01*
X123723750Y-96677000D01*
X123565000Y-96835750D01*
X123565000Y-96976309D01*
X123661673Y-97209698D01*
X123698000Y-97246025D01*
X123698000Y-97558327D01*
X123601843Y-97702235D01*
X123552560Y-97950000D01*
X123552560Y-98550000D01*
X123601843Y-98797765D01*
X123698000Y-98941673D01*
X123698000Y-99765000D01*
X123085750Y-99765000D01*
X122927000Y-99923750D01*
X122927000Y-101573000D01*
X122947000Y-101573000D01*
X122947000Y-101827000D01*
X122927000Y-101827000D01*
X122927000Y-101847000D01*
X122673000Y-101847000D01*
X122673000Y-101827000D01*
X122653000Y-101827000D01*
X122653000Y-101573000D01*
X122673000Y-101573000D01*
X122673000Y-99923750D01*
X122514250Y-99765000D01*
X121920000Y-99765000D01*
X121920000Y-99185000D01*
X122019250Y-99185000D01*
X122178000Y-99026250D01*
X122178000Y-97677000D01*
X122432000Y-97677000D01*
X122432000Y-99026250D01*
X122590750Y-99185000D01*
X122731309Y-99185000D01*
X122964698Y-99088327D01*
X123143327Y-98909699D01*
X123240000Y-98676310D01*
X123240000Y-97835750D01*
X123081250Y-97677000D01*
X122432000Y-97677000D01*
X122178000Y-97677000D01*
X122158000Y-97677000D01*
X122158000Y-97423000D01*
X122178000Y-97423000D01*
X122178000Y-97403000D01*
X122432000Y-97403000D01*
X122432000Y-97423000D01*
X123081250Y-97423000D01*
X123240000Y-97264250D01*
X123240000Y-96423690D01*
X123179367Y-96277310D01*
X123565000Y-96209257D01*
X123565000Y-96264250D01*
G04 #@! TO.N,GND*
G36*
X109633309Y-64997441D02*
X109607000Y-65023750D01*
X109607000Y-66023000D01*
X109627000Y-66023000D01*
X109627000Y-66277000D01*
X109607000Y-66277000D01*
X109607000Y-67276250D01*
X109765750Y-67435000D01*
X110381309Y-67435000D01*
X110505610Y-67383513D01*
X110617000Y-68608802D01*
X110617000Y-69977000D01*
X110665336Y-70220004D01*
X110802987Y-70426013D01*
X111008996Y-70563664D01*
X111252000Y-70612000D01*
X112087199Y-70612000D01*
X113667001Y-72191803D01*
X113667000Y-76660134D01*
X113619000Y-76776017D01*
X113619000Y-76964000D01*
X109753114Y-76964000D01*
X109835000Y-76766309D01*
X109835000Y-75925750D01*
X109676250Y-75767000D01*
X108077000Y-75767000D01*
X108077000Y-75787000D01*
X107823000Y-75787000D01*
X107823000Y-75767000D01*
X106223750Y-75767000D01*
X106065000Y-75925750D01*
X106065000Y-76766309D01*
X106084011Y-76812205D01*
X106028703Y-76790902D01*
X105019605Y-77800000D01*
X105033748Y-77814143D01*
X104854143Y-77993748D01*
X104840000Y-77979605D01*
X103830902Y-78988703D01*
X103935687Y-79260745D01*
X104563526Y-79495619D01*
X105233456Y-79472349D01*
X105513600Y-79356309D01*
X105513600Y-79477953D01*
X105498712Y-79552800D01*
X105513600Y-79627647D01*
X105513600Y-79627651D01*
X105557696Y-79849336D01*
X105725671Y-80100729D01*
X105789129Y-80143131D01*
X106076358Y-80430359D01*
X106052560Y-80550000D01*
X106052560Y-80986444D01*
X105963254Y-80897138D01*
X105849097Y-81011295D01*
X105744313Y-80739255D01*
X105116474Y-80504381D01*
X104446544Y-80527651D01*
X103935687Y-80739255D01*
X103830902Y-81011297D01*
X104840000Y-82020395D01*
X104854143Y-82006253D01*
X105033748Y-82185858D01*
X105019605Y-82200000D01*
X106028703Y-83209098D01*
X106084011Y-83187795D01*
X106065000Y-83233691D01*
X106065000Y-84074250D01*
X106223750Y-84233000D01*
X107823000Y-84233000D01*
X107823000Y-82883750D01*
X108077000Y-82883750D01*
X108077000Y-84233000D01*
X109676250Y-84233000D01*
X109835000Y-84074250D01*
X109835000Y-83233691D01*
X109738327Y-83000302D01*
X109559699Y-82821673D01*
X109326310Y-82725000D01*
X108235750Y-82725000D01*
X108077000Y-82883750D01*
X107823000Y-82883750D01*
X107664250Y-82725000D01*
X106573690Y-82725000D01*
X106418616Y-82789234D01*
X106535619Y-82476474D01*
X106535364Y-82469125D01*
X106573690Y-82485000D01*
X107664250Y-82485000D01*
X107823000Y-82326250D01*
X107823000Y-81725000D01*
X108077000Y-81725000D01*
X108077000Y-82326250D01*
X108235750Y-82485000D01*
X109326310Y-82485000D01*
X109559699Y-82388327D01*
X109738327Y-82209698D01*
X109835000Y-81976309D01*
X109835000Y-81883750D01*
X109676250Y-81725000D01*
X108077000Y-81725000D01*
X107823000Y-81725000D01*
X107803000Y-81725000D01*
X107803000Y-81697440D01*
X109200000Y-81697440D01*
X109447765Y-81648157D01*
X109657809Y-81507809D01*
X109686742Y-81464508D01*
X109835000Y-81316250D01*
X109835000Y-81223691D01*
X109820064Y-81187632D01*
X109847440Y-81050000D01*
X109847440Y-80550000D01*
X109817603Y-80400000D01*
X109847440Y-80250000D01*
X109847440Y-79960000D01*
X115085953Y-79960000D01*
X115160800Y-79974888D01*
X115235647Y-79960000D01*
X115235652Y-79960000D01*
X115457337Y-79915904D01*
X115708729Y-79747929D01*
X115751131Y-79684470D01*
X116918073Y-78517529D01*
X116981529Y-78475129D01*
X117025047Y-78410000D01*
X117264250Y-78410000D01*
X117423000Y-78251250D01*
X117423000Y-77527000D01*
X117403000Y-77527000D01*
X117403000Y-77273000D01*
X117423000Y-77273000D01*
X117423000Y-77253000D01*
X117677000Y-77253000D01*
X117677000Y-77273000D01*
X117697000Y-77273000D01*
X117697000Y-77527000D01*
X117677000Y-77527000D01*
X117677000Y-78251250D01*
X117835750Y-78410000D01*
X118076309Y-78410000D01*
X118139008Y-78384029D01*
X118126843Y-78402235D01*
X118077560Y-78650000D01*
X118077560Y-79450000D01*
X118126843Y-79697765D01*
X118187873Y-79789102D01*
X118186673Y-79790302D01*
X118090000Y-80023691D01*
X118090000Y-80264250D01*
X118248750Y-80423000D01*
X118973000Y-80423000D01*
X118973000Y-80403000D01*
X119227000Y-80403000D01*
X119227000Y-80423000D01*
X119247000Y-80423000D01*
X119247000Y-80677000D01*
X119227000Y-80677000D01*
X119227000Y-80697000D01*
X118973000Y-80697000D01*
X118973000Y-80677000D01*
X118248750Y-80677000D01*
X118090000Y-80835750D01*
X118090000Y-80901000D01*
X114247846Y-80901000D01*
X114172999Y-80886112D01*
X114098152Y-80901000D01*
X114098148Y-80901000D01*
X113876463Y-80945096D01*
X113625071Y-81113071D01*
X113582671Y-81176527D01*
X112915530Y-81843669D01*
X112852071Y-81886071D01*
X112684096Y-82137464D01*
X112640000Y-82359149D01*
X112640000Y-82359153D01*
X112625112Y-82434000D01*
X112640000Y-82508847D01*
X112640000Y-82876836D01*
X112542191Y-82942191D01*
X112401843Y-83152235D01*
X112352560Y-83400000D01*
X112352560Y-84200000D01*
X112401843Y-84447765D01*
X112503564Y-84600000D01*
X112401843Y-84752235D01*
X112352560Y-85000000D01*
X112352560Y-85800000D01*
X112401843Y-86047765D01*
X112542191Y-86257809D01*
X112640000Y-86323164D01*
X112640000Y-86343427D01*
X112492191Y-86442191D01*
X112351843Y-86652235D01*
X112302560Y-86900000D01*
X112302560Y-87400000D01*
X112351843Y-87647765D01*
X112492191Y-87857809D01*
X112555334Y-87900000D01*
X112492191Y-87942191D01*
X112351843Y-88152235D01*
X112302560Y-88400000D01*
X112302560Y-88900000D01*
X112351843Y-89147765D01*
X112492191Y-89357809D01*
X112617329Y-89441424D01*
X112603000Y-89476017D01*
X112603000Y-89847983D01*
X112745345Y-90191635D01*
X113008365Y-90454655D01*
X113352017Y-90597000D01*
X113723983Y-90597000D01*
X114067635Y-90454655D01*
X114330655Y-90191635D01*
X114473000Y-89847983D01*
X114473000Y-89476017D01*
X114379559Y-89250429D01*
X114448157Y-89147765D01*
X114497440Y-88900000D01*
X114497440Y-88400000D01*
X114448157Y-88152235D01*
X114307809Y-87942191D01*
X114244666Y-87900000D01*
X114307809Y-87857809D01*
X114372376Y-87761178D01*
X114979670Y-88368472D01*
X115022071Y-88431929D01*
X115273463Y-88599904D01*
X115495148Y-88644000D01*
X115495153Y-88644000D01*
X115570000Y-88658888D01*
X115644847Y-88644000D01*
X119643833Y-88644000D01*
X118740554Y-91002560D01*
X118195000Y-91002560D01*
X117947235Y-91051843D01*
X117737191Y-91192191D01*
X117596843Y-91402235D01*
X117547560Y-91650000D01*
X117547560Y-93650000D01*
X117596843Y-93897765D01*
X117737191Y-94107809D01*
X117947235Y-94248157D01*
X118195000Y-94297440D01*
X118618000Y-94297440D01*
X118618000Y-97697000D01*
X118368000Y-97697000D01*
X118368000Y-97677000D01*
X117718750Y-97677000D01*
X117560000Y-97835750D01*
X117560000Y-98676310D01*
X117656673Y-98909699D01*
X117704419Y-98957445D01*
X116568262Y-99663704D01*
X116530776Y-99688897D01*
X111988872Y-102981777D01*
X112015839Y-102941418D01*
X112131092Y-102362000D01*
X112015839Y-101782582D01*
X111687625Y-101291375D01*
X111196418Y-100963161D01*
X110763256Y-100877000D01*
X110470744Y-100877000D01*
X110037582Y-100963161D01*
X109546375Y-101291375D01*
X109347000Y-101589761D01*
X109147625Y-101291375D01*
X108656418Y-100963161D01*
X108223256Y-100877000D01*
X107930744Y-100877000D01*
X107497582Y-100963161D01*
X107006375Y-101291375D01*
X106678161Y-101782582D01*
X106562908Y-102362000D01*
X106678161Y-102941418D01*
X107006375Y-103432625D01*
X107024619Y-103444816D01*
X106979235Y-103453843D01*
X106769191Y-103594191D01*
X106628843Y-103804235D01*
X106579560Y-104052000D01*
X106579560Y-104072000D01*
X105129647Y-104072000D01*
X105118157Y-104014235D01*
X104977809Y-103804191D01*
X104767765Y-103663843D01*
X104607678Y-103632000D01*
X104767765Y-103600157D01*
X104977809Y-103459809D01*
X105118157Y-103249765D01*
X105167440Y-103002000D01*
X105167440Y-101862000D01*
X105118157Y-101614235D01*
X104977809Y-101404191D01*
X104767765Y-101263843D01*
X104520000Y-101214560D01*
X104323730Y-101214560D01*
X104424655Y-101113635D01*
X104567000Y-100769983D01*
X104567000Y-100398017D01*
X104424655Y-100054365D01*
X104161635Y-99791345D01*
X103817983Y-99649000D01*
X103446017Y-99649000D01*
X103102365Y-99791345D01*
X102839345Y-100054365D01*
X102697000Y-100398017D01*
X102697000Y-100769983D01*
X102745000Y-100885866D01*
X102745000Y-101214560D01*
X102490000Y-101214560D01*
X102242235Y-101263843D01*
X102032191Y-101404191D01*
X101891843Y-101614235D01*
X101842560Y-101862000D01*
X101842560Y-103002000D01*
X101891843Y-103249765D01*
X102032191Y-103459809D01*
X102242235Y-103600157D01*
X102402322Y-103632000D01*
X102242235Y-103663843D01*
X102032191Y-103804191D01*
X101891843Y-104014235D01*
X101842560Y-104262000D01*
X101842560Y-105402000D01*
X101891843Y-105649765D01*
X102032191Y-105859809D01*
X102242235Y-106000157D01*
X102490000Y-106049440D01*
X104520000Y-106049440D01*
X104767765Y-106000157D01*
X104977809Y-105859809D01*
X105118157Y-105649765D01*
X105129647Y-105592000D01*
X106579560Y-105592000D01*
X106579560Y-105752000D01*
X106628843Y-105999765D01*
X106769191Y-106209809D01*
X106979235Y-106350157D01*
X107227000Y-106399440D01*
X108585000Y-106399440D01*
X108585000Y-106743500D01*
X108633336Y-106986504D01*
X108770987Y-107192513D01*
X108976996Y-107330164D01*
X109220000Y-107378500D01*
X111887000Y-107378500D01*
X112028022Y-107362643D01*
X112254223Y-107261547D01*
X114618294Y-105585750D01*
X116465000Y-105585750D01*
X116465000Y-106726309D01*
X116561673Y-106959698D01*
X116740301Y-107138327D01*
X116973690Y-107235000D01*
X117614250Y-107235000D01*
X117773000Y-107076250D01*
X117773000Y-105427000D01*
X118027000Y-105427000D01*
X118027000Y-107076250D01*
X118185750Y-107235000D01*
X118826310Y-107235000D01*
X119059699Y-107138327D01*
X119238327Y-106959698D01*
X119335000Y-106726309D01*
X119335000Y-105585750D01*
X121365000Y-105585750D01*
X121365000Y-106726309D01*
X121461673Y-106959698D01*
X121640301Y-107138327D01*
X121873690Y-107235000D01*
X122514250Y-107235000D01*
X122673000Y-107076250D01*
X122673000Y-105427000D01*
X122927000Y-105427000D01*
X122927000Y-107076250D01*
X123085750Y-107235000D01*
X123726310Y-107235000D01*
X123959699Y-107138327D01*
X124138327Y-106959698D01*
X124235000Y-106726309D01*
X124235000Y-105585750D01*
X124076250Y-105427000D01*
X122927000Y-105427000D01*
X122673000Y-105427000D01*
X121523750Y-105427000D01*
X121365000Y-105585750D01*
X119335000Y-105585750D01*
X119176250Y-105427000D01*
X118027000Y-105427000D01*
X117773000Y-105427000D01*
X116623750Y-105427000D01*
X116465000Y-105585750D01*
X114618294Y-105585750D01*
X116465000Y-104276693D01*
X116465000Y-105014250D01*
X116623750Y-105173000D01*
X117773000Y-105173000D01*
X117773000Y-105153000D01*
X118027000Y-105153000D01*
X118027000Y-105173000D01*
X119176250Y-105173000D01*
X119335000Y-105014250D01*
X119335000Y-103873691D01*
X119270227Y-103717315D01*
X119318907Y-103693686D01*
X119483431Y-103508431D01*
X121158000Y-100649411D01*
X121158000Y-103124000D01*
X121192321Y-103329936D01*
X121316853Y-103544130D01*
X121457185Y-103651136D01*
X121365000Y-103873691D01*
X121365000Y-105014250D01*
X121523750Y-105173000D01*
X122673000Y-105173000D01*
X122673000Y-105153000D01*
X122927000Y-105153000D01*
X122927000Y-105173000D01*
X124076250Y-105173000D01*
X124235000Y-105014250D01*
X124235000Y-103873691D01*
X124187112Y-103758079D01*
X124274013Y-103700013D01*
X124411664Y-103494004D01*
X124460000Y-103251000D01*
X124460000Y-99197440D01*
X124970001Y-99197440D01*
X124970000Y-103965134D01*
X124922000Y-104081017D01*
X124922000Y-104452983D01*
X125064345Y-104796635D01*
X125327365Y-105059655D01*
X125671017Y-105202000D01*
X126042983Y-105202000D01*
X126386635Y-105059655D01*
X126649655Y-104796635D01*
X126792000Y-104452983D01*
X126792000Y-104081017D01*
X126649655Y-103737365D01*
X126490000Y-103577710D01*
X126490000Y-102554272D01*
X126703463Y-102696904D01*
X126925148Y-102741000D01*
X126925152Y-102741000D01*
X127000000Y-102755888D01*
X127074848Y-102741000D01*
X129338153Y-102741000D01*
X129413000Y-102755888D01*
X129487847Y-102741000D01*
X129487852Y-102741000D01*
X129709537Y-102696904D01*
X129960929Y-102528929D01*
X130003331Y-102465470D01*
X130613802Y-101855000D01*
X130765439Y-101855000D01*
X130958895Y-101774868D01*
X130983096Y-101896536D01*
X131151071Y-102147929D01*
X131214530Y-102190331D01*
X132260001Y-103235803D01*
X132260000Y-106781822D01*
X131949375Y-106989375D01*
X131750000Y-107287761D01*
X131550625Y-106989375D01*
X131059418Y-106661161D01*
X130626256Y-106575000D01*
X130333744Y-106575000D01*
X129900582Y-106661161D01*
X129409375Y-106989375D01*
X129210000Y-107287761D01*
X129010625Y-106989375D01*
X128519418Y-106661161D01*
X128086256Y-106575000D01*
X127793744Y-106575000D01*
X127360582Y-106661161D01*
X126869375Y-106989375D01*
X126541161Y-107480582D01*
X126425908Y-108060000D01*
X126541161Y-108639418D01*
X126869375Y-109130625D01*
X127287489Y-109410000D01*
X126869375Y-109689375D01*
X126541161Y-110180582D01*
X126425908Y-110760000D01*
X126541161Y-111339418D01*
X126869375Y-111830625D01*
X127360582Y-112158839D01*
X127793744Y-112245000D01*
X128086256Y-112245000D01*
X128519418Y-112158839D01*
X129010625Y-111830625D01*
X129210000Y-111532239D01*
X129409375Y-111830625D01*
X129900582Y-112158839D01*
X130333744Y-112245000D01*
X130626256Y-112245000D01*
X131059418Y-112158839D01*
X131550625Y-111830625D01*
X131750000Y-111532239D01*
X131949375Y-111830625D01*
X132440582Y-112158839D01*
X132873744Y-112245000D01*
X132887198Y-112245000D01*
X133232198Y-112590000D01*
X115300767Y-112590000D01*
X115864741Y-112026026D01*
X116205000Y-111204569D01*
X116205000Y-110315431D01*
X115864741Y-109493974D01*
X115236026Y-108865259D01*
X114414569Y-108525000D01*
X113525431Y-108525000D01*
X112703974Y-108865259D01*
X112075259Y-109493974D01*
X111735000Y-110315431D01*
X111735000Y-111204569D01*
X112075259Y-112026026D01*
X112639233Y-112590000D01*
X100710000Y-112590000D01*
X100710000Y-94185750D01*
X102815000Y-94185750D01*
X102815000Y-95926309D01*
X102911673Y-96159698D01*
X103090301Y-96338327D01*
X103323690Y-96435000D01*
X104264250Y-96435000D01*
X104423000Y-96276250D01*
X104423000Y-94027000D01*
X104677000Y-94027000D01*
X104677000Y-96276250D01*
X104835750Y-96435000D01*
X105776310Y-96435000D01*
X106009699Y-96338327D01*
X106188327Y-96159698D01*
X106285000Y-95926309D01*
X106285000Y-95450000D01*
X109102560Y-95450000D01*
X109102560Y-96950000D01*
X109151843Y-97197765D01*
X109292191Y-97407809D01*
X109502235Y-97548157D01*
X109750000Y-97597440D01*
X111950000Y-97597440D01*
X112197765Y-97548157D01*
X112407809Y-97407809D01*
X112548157Y-97197765D01*
X112585505Y-97010000D01*
X112801837Y-97010000D01*
X112867191Y-97107809D01*
X113077235Y-97248157D01*
X113325000Y-97297440D01*
X114075000Y-97297440D01*
X114322765Y-97248157D01*
X114363518Y-97220926D01*
X114622017Y-97328000D01*
X114993983Y-97328000D01*
X115337635Y-97185655D01*
X115600655Y-96922635D01*
X115743000Y-96578983D01*
X115743000Y-96423690D01*
X117560000Y-96423690D01*
X117560000Y-97264250D01*
X117718750Y-97423000D01*
X118368000Y-97423000D01*
X118368000Y-96073750D01*
X118209250Y-95915000D01*
X118068691Y-95915000D01*
X117835302Y-96011673D01*
X117656673Y-96190301D01*
X117560000Y-96423690D01*
X115743000Y-96423690D01*
X115743000Y-96207017D01*
X115600655Y-95863365D01*
X115337635Y-95600345D01*
X114993983Y-95458000D01*
X114634741Y-95458000D01*
X114710000Y-95276309D01*
X114710000Y-95035750D01*
X114551250Y-94877000D01*
X113827000Y-94877000D01*
X113827000Y-94897000D01*
X113573000Y-94897000D01*
X113573000Y-94877000D01*
X112848750Y-94877000D01*
X112690000Y-95035750D01*
X112690000Y-95276309D01*
X112778514Y-95490000D01*
X112597440Y-95490000D01*
X112597440Y-95450000D01*
X112548157Y-95202235D01*
X112447073Y-95050953D01*
X112488327Y-95009698D01*
X112585000Y-94776309D01*
X112585000Y-94185750D01*
X112426250Y-94027000D01*
X110977000Y-94027000D01*
X110977000Y-94047000D01*
X110723000Y-94047000D01*
X110723000Y-94027000D01*
X109273750Y-94027000D01*
X109115000Y-94185750D01*
X109115000Y-94776309D01*
X109211673Y-95009698D01*
X109252927Y-95050953D01*
X109151843Y-95202235D01*
X109102560Y-95450000D01*
X106285000Y-95450000D01*
X106285000Y-94185750D01*
X106126250Y-94027000D01*
X104677000Y-94027000D01*
X104423000Y-94027000D01*
X102973750Y-94027000D01*
X102815000Y-94185750D01*
X100710000Y-94185750D01*
X100710000Y-91873691D01*
X102815000Y-91873691D01*
X102815000Y-93614250D01*
X102973750Y-93773000D01*
X104423000Y-93773000D01*
X104423000Y-91523750D01*
X104677000Y-91523750D01*
X104677000Y-93773000D01*
X106126250Y-93773000D01*
X106285000Y-93614250D01*
X106285000Y-91873691D01*
X106188327Y-91640302D01*
X106009699Y-91461673D01*
X105776310Y-91365000D01*
X104835750Y-91365000D01*
X104677000Y-91523750D01*
X104423000Y-91523750D01*
X104264250Y-91365000D01*
X103323690Y-91365000D01*
X103090301Y-91461673D01*
X102911673Y-91640302D01*
X102815000Y-91873691D01*
X100710000Y-91873691D01*
X100710000Y-90850000D01*
X109102560Y-90850000D01*
X109102560Y-92350000D01*
X109151843Y-92597765D01*
X109252927Y-92749047D01*
X109211673Y-92790302D01*
X109115000Y-93023691D01*
X109115000Y-93614250D01*
X109273750Y-93773000D01*
X110723000Y-93773000D01*
X110723000Y-93753000D01*
X110977000Y-93753000D01*
X110977000Y-93773000D01*
X112426250Y-93773000D01*
X112585000Y-93614250D01*
X112585000Y-93435750D01*
X112690000Y-93435750D01*
X112690000Y-93676309D01*
X112786673Y-93909698D01*
X112826975Y-93950000D01*
X112786673Y-93990302D01*
X112690000Y-94223691D01*
X112690000Y-94464250D01*
X112848750Y-94623000D01*
X113573000Y-94623000D01*
X113573000Y-93277000D01*
X113827000Y-93277000D01*
X113827000Y-94623000D01*
X114551250Y-94623000D01*
X114710000Y-94464250D01*
X114710000Y-94223691D01*
X114613327Y-93990302D01*
X114573025Y-93950000D01*
X114613327Y-93909698D01*
X114710000Y-93676309D01*
X114710000Y-93435750D01*
X114551250Y-93277000D01*
X113827000Y-93277000D01*
X113573000Y-93277000D01*
X112848750Y-93277000D01*
X112690000Y-93435750D01*
X112585000Y-93435750D01*
X112585000Y-93023691D01*
X112488327Y-92790302D01*
X112447073Y-92749047D01*
X112548157Y-92597765D01*
X112595451Y-92360000D01*
X112768427Y-92360000D01*
X112787873Y-92389102D01*
X112786673Y-92390302D01*
X112690000Y-92623691D01*
X112690000Y-92864250D01*
X112848750Y-93023000D01*
X113573000Y-93023000D01*
X113573000Y-93003000D01*
X113827000Y-93003000D01*
X113827000Y-93023000D01*
X114551250Y-93023000D01*
X114710000Y-92864250D01*
X114710000Y-92629000D01*
X114993983Y-92629000D01*
X115337635Y-92486655D01*
X115600655Y-92223635D01*
X115743000Y-91879983D01*
X115743000Y-91508017D01*
X115600655Y-91164365D01*
X115337635Y-90901345D01*
X114993983Y-90759000D01*
X114622017Y-90759000D01*
X114534777Y-90795136D01*
X114532809Y-90792191D01*
X114322765Y-90651843D01*
X114075000Y-90602560D01*
X113325000Y-90602560D01*
X113077235Y-90651843D01*
X112867191Y-90792191D01*
X112835246Y-90840000D01*
X112595451Y-90840000D01*
X112548157Y-90602235D01*
X112407809Y-90392191D01*
X112197765Y-90251843D01*
X111950000Y-90202560D01*
X111779730Y-90202560D01*
X111790655Y-90191635D01*
X111933000Y-89847983D01*
X111933000Y-89476017D01*
X111854866Y-89287384D01*
X111948157Y-89147765D01*
X111997440Y-88900000D01*
X111997440Y-88400000D01*
X111948157Y-88152235D01*
X111807809Y-87942191D01*
X111744666Y-87900000D01*
X111807809Y-87857809D01*
X111948157Y-87647765D01*
X111997440Y-87400000D01*
X111997440Y-86900000D01*
X111948157Y-86652235D01*
X111807809Y-86442191D01*
X111660000Y-86343427D01*
X111660000Y-86323163D01*
X111757809Y-86257809D01*
X111898157Y-86047765D01*
X111947440Y-85800000D01*
X111947440Y-85000000D01*
X111898157Y-84752235D01*
X111796436Y-84600000D01*
X111898157Y-84447765D01*
X111947440Y-84200000D01*
X111947440Y-83400000D01*
X111898157Y-83152235D01*
X111845704Y-83073734D01*
X111933000Y-82862983D01*
X111933000Y-82491017D01*
X111790655Y-82147365D01*
X111527635Y-81884345D01*
X111183983Y-81742000D01*
X110812017Y-81742000D01*
X110468365Y-81884345D01*
X110205345Y-82147365D01*
X110063000Y-82491017D01*
X110063000Y-82862983D01*
X110084186Y-82914131D01*
X110042191Y-82942191D01*
X109901843Y-83152235D01*
X109852560Y-83400000D01*
X109852560Y-84200000D01*
X109901843Y-84447765D01*
X110003564Y-84600000D01*
X109901843Y-84752235D01*
X109852560Y-85000000D01*
X109852560Y-85800000D01*
X109901843Y-86047765D01*
X110042191Y-86257809D01*
X110140000Y-86323164D01*
X110140000Y-86343427D01*
X109992191Y-86442191D01*
X109851843Y-86652235D01*
X109802560Y-86900000D01*
X109802560Y-87400000D01*
X109851843Y-87647765D01*
X109992191Y-87857809D01*
X110055334Y-87900000D01*
X109992191Y-87942191D01*
X109851843Y-88152235D01*
X109802560Y-88400000D01*
X109802560Y-88900000D01*
X109851843Y-89147765D01*
X109992191Y-89357809D01*
X110086000Y-89420491D01*
X110063000Y-89476017D01*
X110063000Y-89847983D01*
X110205345Y-90191635D01*
X110216270Y-90202560D01*
X109750000Y-90202560D01*
X109502235Y-90251843D01*
X109292191Y-90392191D01*
X109151843Y-90602235D01*
X109102560Y-90850000D01*
X100710000Y-90850000D01*
X100710000Y-85748025D01*
X100860301Y-85898327D01*
X101093690Y-85995000D01*
X102184250Y-85995000D01*
X102343000Y-85836250D01*
X102343000Y-84487000D01*
X102597000Y-84487000D01*
X102597000Y-85836250D01*
X102755750Y-85995000D01*
X103846310Y-85995000D01*
X104079699Y-85898327D01*
X104258327Y-85719698D01*
X104355000Y-85486309D01*
X104355000Y-84645750D01*
X106065000Y-84645750D01*
X106065000Y-85486309D01*
X106161673Y-85719698D01*
X106340301Y-85898327D01*
X106573690Y-85995000D01*
X107664250Y-85995000D01*
X107823000Y-85836250D01*
X107823000Y-84487000D01*
X108077000Y-84487000D01*
X108077000Y-85836250D01*
X108235750Y-85995000D01*
X109326310Y-85995000D01*
X109559699Y-85898327D01*
X109738327Y-85719698D01*
X109835000Y-85486309D01*
X109835000Y-84645750D01*
X109676250Y-84487000D01*
X108077000Y-84487000D01*
X107823000Y-84487000D01*
X106223750Y-84487000D01*
X106065000Y-84645750D01*
X104355000Y-84645750D01*
X104196250Y-84487000D01*
X102597000Y-84487000D01*
X102343000Y-84487000D01*
X102323000Y-84487000D01*
X102323000Y-84233000D01*
X102343000Y-84233000D01*
X102343000Y-82883750D01*
X102597000Y-82883750D01*
X102597000Y-84233000D01*
X104196250Y-84233000D01*
X104355000Y-84074250D01*
X104355000Y-83817610D01*
X104563526Y-83895619D01*
X105233456Y-83872349D01*
X105744313Y-83660745D01*
X105849098Y-83388703D01*
X104840000Y-82379605D01*
X104825858Y-82393748D01*
X104646253Y-82214143D01*
X104660395Y-82200000D01*
X103651297Y-81190902D01*
X103379255Y-81295687D01*
X103144381Y-81923526D01*
X103167651Y-82593456D01*
X103222138Y-82725000D01*
X102755750Y-82725000D01*
X102597000Y-82883750D01*
X102343000Y-82883750D01*
X102184250Y-82725000D01*
X101093690Y-82725000D01*
X100860301Y-82821673D01*
X100710000Y-82971975D01*
X100710000Y-77028025D01*
X100860301Y-77178327D01*
X101093690Y-77275000D01*
X102184250Y-77275000D01*
X102343000Y-77116250D01*
X102343000Y-75767000D01*
X102597000Y-75767000D01*
X102597000Y-77116250D01*
X102755750Y-77275000D01*
X103237354Y-77275000D01*
X103144381Y-77523526D01*
X103167651Y-78193456D01*
X103379255Y-78704313D01*
X103651297Y-78809098D01*
X104660395Y-77800000D01*
X104646253Y-77785858D01*
X104825858Y-77606253D01*
X104840000Y-77620395D01*
X105849098Y-76611297D01*
X105744313Y-76339255D01*
X105116474Y-76104381D01*
X104446544Y-76127651D01*
X104355000Y-76165570D01*
X104355000Y-75925750D01*
X104196250Y-75767000D01*
X102597000Y-75767000D01*
X102343000Y-75767000D01*
X102323000Y-75767000D01*
X102323000Y-75513000D01*
X102343000Y-75513000D01*
X102343000Y-74163750D01*
X102597000Y-74163750D01*
X102597000Y-75513000D01*
X104196250Y-75513000D01*
X104355000Y-75354250D01*
X104355000Y-74513691D01*
X106065000Y-74513691D01*
X106065000Y-75354250D01*
X106223750Y-75513000D01*
X107823000Y-75513000D01*
X107823000Y-74163750D01*
X108077000Y-74163750D01*
X108077000Y-75513000D01*
X109676250Y-75513000D01*
X109835000Y-75354250D01*
X109835000Y-74513691D01*
X109738327Y-74280302D01*
X109559699Y-74101673D01*
X109326310Y-74005000D01*
X108235750Y-74005000D01*
X108077000Y-74163750D01*
X107823000Y-74163750D01*
X107664250Y-74005000D01*
X106573690Y-74005000D01*
X106340301Y-74101673D01*
X106161673Y-74280302D01*
X106065000Y-74513691D01*
X104355000Y-74513691D01*
X104258327Y-74280302D01*
X104079699Y-74101673D01*
X103846310Y-74005000D01*
X102755750Y-74005000D01*
X102597000Y-74163750D01*
X102343000Y-74163750D01*
X102184250Y-74005000D01*
X101093690Y-74005000D01*
X100860301Y-74101673D01*
X100710000Y-74251975D01*
X100710000Y-67435000D01*
X101234250Y-67435000D01*
X101393000Y-67276250D01*
X101393000Y-66277000D01*
X101647000Y-66277000D01*
X101647000Y-67276250D01*
X101805750Y-67435000D01*
X102421309Y-67435000D01*
X102654698Y-67338327D01*
X102833327Y-67159699D01*
X102930000Y-66926310D01*
X102930000Y-66435750D01*
X108070000Y-66435750D01*
X108070000Y-66926310D01*
X108166673Y-67159699D01*
X108345302Y-67338327D01*
X108578691Y-67435000D01*
X109194250Y-67435000D01*
X109353000Y-67276250D01*
X109353000Y-66277000D01*
X108228750Y-66277000D01*
X108070000Y-66435750D01*
X102930000Y-66435750D01*
X102771250Y-66277000D01*
X101647000Y-66277000D01*
X101393000Y-66277000D01*
X101373000Y-66277000D01*
X101373000Y-66023000D01*
X101393000Y-66023000D01*
X101393000Y-65023750D01*
X101647000Y-65023750D01*
X101647000Y-66023000D01*
X102771250Y-66023000D01*
X102930000Y-65864250D01*
X102930000Y-65373690D01*
X108070000Y-65373690D01*
X108070000Y-65864250D01*
X108228750Y-66023000D01*
X109353000Y-66023000D01*
X109353000Y-65023750D01*
X109194250Y-64865000D01*
X108578691Y-64865000D01*
X108345302Y-64961673D01*
X108166673Y-65140301D01*
X108070000Y-65373690D01*
X102930000Y-65373690D01*
X102833327Y-65140301D01*
X102654698Y-64961673D01*
X102421309Y-64865000D01*
X101805750Y-64865000D01*
X101647000Y-65023750D01*
X101393000Y-65023750D01*
X101234250Y-64865000D01*
X100710000Y-64865000D01*
X100710000Y-63246000D01*
X108162098Y-63246000D01*
X109633309Y-64997441D01*
X109633309Y-64997441D01*
G37*
X109633309Y-64997441D02*
X109607000Y-65023750D01*
X109607000Y-66023000D01*
X109627000Y-66023000D01*
X109627000Y-66277000D01*
X109607000Y-66277000D01*
X109607000Y-67276250D01*
X109765750Y-67435000D01*
X110381309Y-67435000D01*
X110505610Y-67383513D01*
X110617000Y-68608802D01*
X110617000Y-69977000D01*
X110665336Y-70220004D01*
X110802987Y-70426013D01*
X111008996Y-70563664D01*
X111252000Y-70612000D01*
X112087199Y-70612000D01*
X113667001Y-72191803D01*
X113667000Y-76660134D01*
X113619000Y-76776017D01*
X113619000Y-76964000D01*
X109753114Y-76964000D01*
X109835000Y-76766309D01*
X109835000Y-75925750D01*
X109676250Y-75767000D01*
X108077000Y-75767000D01*
X108077000Y-75787000D01*
X107823000Y-75787000D01*
X107823000Y-75767000D01*
X106223750Y-75767000D01*
X106065000Y-75925750D01*
X106065000Y-76766309D01*
X106084011Y-76812205D01*
X106028703Y-76790902D01*
X105019605Y-77800000D01*
X105033748Y-77814143D01*
X104854143Y-77993748D01*
X104840000Y-77979605D01*
X103830902Y-78988703D01*
X103935687Y-79260745D01*
X104563526Y-79495619D01*
X105233456Y-79472349D01*
X105513600Y-79356309D01*
X105513600Y-79477953D01*
X105498712Y-79552800D01*
X105513600Y-79627647D01*
X105513600Y-79627651D01*
X105557696Y-79849336D01*
X105725671Y-80100729D01*
X105789129Y-80143131D01*
X106076358Y-80430359D01*
X106052560Y-80550000D01*
X106052560Y-80986444D01*
X105963254Y-80897138D01*
X105849097Y-81011295D01*
X105744313Y-80739255D01*
X105116474Y-80504381D01*
X104446544Y-80527651D01*
X103935687Y-80739255D01*
X103830902Y-81011297D01*
X104840000Y-82020395D01*
X104854143Y-82006253D01*
X105033748Y-82185858D01*
X105019605Y-82200000D01*
X106028703Y-83209098D01*
X106084011Y-83187795D01*
X106065000Y-83233691D01*
X106065000Y-84074250D01*
X106223750Y-84233000D01*
X107823000Y-84233000D01*
X107823000Y-82883750D01*
X108077000Y-82883750D01*
X108077000Y-84233000D01*
X109676250Y-84233000D01*
X109835000Y-84074250D01*
X109835000Y-83233691D01*
X109738327Y-83000302D01*
X109559699Y-82821673D01*
X109326310Y-82725000D01*
X108235750Y-82725000D01*
X108077000Y-82883750D01*
X107823000Y-82883750D01*
X107664250Y-82725000D01*
X106573690Y-82725000D01*
X106418616Y-82789234D01*
X106535619Y-82476474D01*
X106535364Y-82469125D01*
X106573690Y-82485000D01*
X107664250Y-82485000D01*
X107823000Y-82326250D01*
X107823000Y-81725000D01*
X108077000Y-81725000D01*
X108077000Y-82326250D01*
X108235750Y-82485000D01*
X109326310Y-82485000D01*
X109559699Y-82388327D01*
X109738327Y-82209698D01*
X109835000Y-81976309D01*
X109835000Y-81883750D01*
X109676250Y-81725000D01*
X108077000Y-81725000D01*
X107823000Y-81725000D01*
X107803000Y-81725000D01*
X107803000Y-81697440D01*
X109200000Y-81697440D01*
X109447765Y-81648157D01*
X109657809Y-81507809D01*
X109686742Y-81464508D01*
X109835000Y-81316250D01*
X109835000Y-81223691D01*
X109820064Y-81187632D01*
X109847440Y-81050000D01*
X109847440Y-80550000D01*
X109817603Y-80400000D01*
X109847440Y-80250000D01*
X109847440Y-79960000D01*
X115085953Y-79960000D01*
X115160800Y-79974888D01*
X115235647Y-79960000D01*
X115235652Y-79960000D01*
X115457337Y-79915904D01*
X115708729Y-79747929D01*
X115751131Y-79684470D01*
X116918073Y-78517529D01*
X116981529Y-78475129D01*
X117025047Y-78410000D01*
X117264250Y-78410000D01*
X117423000Y-78251250D01*
X117423000Y-77527000D01*
X117403000Y-77527000D01*
X117403000Y-77273000D01*
X117423000Y-77273000D01*
X117423000Y-77253000D01*
X117677000Y-77253000D01*
X117677000Y-77273000D01*
X117697000Y-77273000D01*
X117697000Y-77527000D01*
X117677000Y-77527000D01*
X117677000Y-78251250D01*
X117835750Y-78410000D01*
X118076309Y-78410000D01*
X118139008Y-78384029D01*
X118126843Y-78402235D01*
X118077560Y-78650000D01*
X118077560Y-79450000D01*
X118126843Y-79697765D01*
X118187873Y-79789102D01*
X118186673Y-79790302D01*
X118090000Y-80023691D01*
X118090000Y-80264250D01*
X118248750Y-80423000D01*
X118973000Y-80423000D01*
X118973000Y-80403000D01*
X119227000Y-80403000D01*
X119227000Y-80423000D01*
X119247000Y-80423000D01*
X119247000Y-80677000D01*
X119227000Y-80677000D01*
X119227000Y-80697000D01*
X118973000Y-80697000D01*
X118973000Y-80677000D01*
X118248750Y-80677000D01*
X118090000Y-80835750D01*
X118090000Y-80901000D01*
X114247846Y-80901000D01*
X114172999Y-80886112D01*
X114098152Y-80901000D01*
X114098148Y-80901000D01*
X113876463Y-80945096D01*
X113625071Y-81113071D01*
X113582671Y-81176527D01*
X112915530Y-81843669D01*
X112852071Y-81886071D01*
X112684096Y-82137464D01*
X112640000Y-82359149D01*
X112640000Y-82359153D01*
X112625112Y-82434000D01*
X112640000Y-82508847D01*
X112640000Y-82876836D01*
X112542191Y-82942191D01*
X112401843Y-83152235D01*
X112352560Y-83400000D01*
X112352560Y-84200000D01*
X112401843Y-84447765D01*
X112503564Y-84600000D01*
X112401843Y-84752235D01*
X112352560Y-85000000D01*
X112352560Y-85800000D01*
X112401843Y-86047765D01*
X112542191Y-86257809D01*
X112640000Y-86323164D01*
X112640000Y-86343427D01*
X112492191Y-86442191D01*
X112351843Y-86652235D01*
X112302560Y-86900000D01*
X112302560Y-87400000D01*
X112351843Y-87647765D01*
X112492191Y-87857809D01*
X112555334Y-87900000D01*
X112492191Y-87942191D01*
X112351843Y-88152235D01*
X112302560Y-88400000D01*
X112302560Y-88900000D01*
X112351843Y-89147765D01*
X112492191Y-89357809D01*
X112617329Y-89441424D01*
X112603000Y-89476017D01*
X112603000Y-89847983D01*
X112745345Y-90191635D01*
X113008365Y-90454655D01*
X113352017Y-90597000D01*
X113723983Y-90597000D01*
X114067635Y-90454655D01*
X114330655Y-90191635D01*
X114473000Y-89847983D01*
X114473000Y-89476017D01*
X114379559Y-89250429D01*
X114448157Y-89147765D01*
X114497440Y-88900000D01*
X114497440Y-88400000D01*
X114448157Y-88152235D01*
X114307809Y-87942191D01*
X114244666Y-87900000D01*
X114307809Y-87857809D01*
X114372376Y-87761178D01*
X114979670Y-88368472D01*
X115022071Y-88431929D01*
X115273463Y-88599904D01*
X115495148Y-88644000D01*
X115495153Y-88644000D01*
X115570000Y-88658888D01*
X115644847Y-88644000D01*
X119643833Y-88644000D01*
X118740554Y-91002560D01*
X118195000Y-91002560D01*
X117947235Y-91051843D01*
X117737191Y-91192191D01*
X117596843Y-91402235D01*
X117547560Y-91650000D01*
X117547560Y-93650000D01*
X117596843Y-93897765D01*
X117737191Y-94107809D01*
X117947235Y-94248157D01*
X118195000Y-94297440D01*
X118618000Y-94297440D01*
X118618000Y-97697000D01*
X118368000Y-97697000D01*
X118368000Y-97677000D01*
X117718750Y-97677000D01*
X117560000Y-97835750D01*
X117560000Y-98676310D01*
X117656673Y-98909699D01*
X117704419Y-98957445D01*
X116568262Y-99663704D01*
X116530776Y-99688897D01*
X111988872Y-102981777D01*
X112015839Y-102941418D01*
X112131092Y-102362000D01*
X112015839Y-101782582D01*
X111687625Y-101291375D01*
X111196418Y-100963161D01*
X110763256Y-100877000D01*
X110470744Y-100877000D01*
X110037582Y-100963161D01*
X109546375Y-101291375D01*
X109347000Y-101589761D01*
X109147625Y-101291375D01*
X108656418Y-100963161D01*
X108223256Y-100877000D01*
X107930744Y-100877000D01*
X107497582Y-100963161D01*
X107006375Y-101291375D01*
X106678161Y-101782582D01*
X106562908Y-102362000D01*
X106678161Y-102941418D01*
X107006375Y-103432625D01*
X107024619Y-103444816D01*
X106979235Y-103453843D01*
X106769191Y-103594191D01*
X106628843Y-103804235D01*
X106579560Y-104052000D01*
X106579560Y-104072000D01*
X105129647Y-104072000D01*
X105118157Y-104014235D01*
X104977809Y-103804191D01*
X104767765Y-103663843D01*
X104607678Y-103632000D01*
X104767765Y-103600157D01*
X104977809Y-103459809D01*
X105118157Y-103249765D01*
X105167440Y-103002000D01*
X105167440Y-101862000D01*
X105118157Y-101614235D01*
X104977809Y-101404191D01*
X104767765Y-101263843D01*
X104520000Y-101214560D01*
X104323730Y-101214560D01*
X104424655Y-101113635D01*
X104567000Y-100769983D01*
X104567000Y-100398017D01*
X104424655Y-100054365D01*
X104161635Y-99791345D01*
X103817983Y-99649000D01*
X103446017Y-99649000D01*
X103102365Y-99791345D01*
X102839345Y-100054365D01*
X102697000Y-100398017D01*
X102697000Y-100769983D01*
X102745000Y-100885866D01*
X102745000Y-101214560D01*
X102490000Y-101214560D01*
X102242235Y-101263843D01*
X102032191Y-101404191D01*
X101891843Y-101614235D01*
X101842560Y-101862000D01*
X101842560Y-103002000D01*
X101891843Y-103249765D01*
X102032191Y-103459809D01*
X102242235Y-103600157D01*
X102402322Y-103632000D01*
X102242235Y-103663843D01*
X102032191Y-103804191D01*
X101891843Y-104014235D01*
X101842560Y-104262000D01*
X101842560Y-105402000D01*
X101891843Y-105649765D01*
X102032191Y-105859809D01*
X102242235Y-106000157D01*
X102490000Y-106049440D01*
X104520000Y-106049440D01*
X104767765Y-106000157D01*
X104977809Y-105859809D01*
X105118157Y-105649765D01*
X105129647Y-105592000D01*
X106579560Y-105592000D01*
X106579560Y-105752000D01*
X106628843Y-105999765D01*
X106769191Y-106209809D01*
X106979235Y-106350157D01*
X107227000Y-106399440D01*
X108585000Y-106399440D01*
X108585000Y-106743500D01*
X108633336Y-106986504D01*
X108770987Y-107192513D01*
X108976996Y-107330164D01*
X109220000Y-107378500D01*
X111887000Y-107378500D01*
X112028022Y-107362643D01*
X112254223Y-107261547D01*
X114618294Y-105585750D01*
X116465000Y-105585750D01*
X116465000Y-106726309D01*
X116561673Y-106959698D01*
X116740301Y-107138327D01*
X116973690Y-107235000D01*
X117614250Y-107235000D01*
X117773000Y-107076250D01*
X117773000Y-105427000D01*
X118027000Y-105427000D01*
X118027000Y-107076250D01*
X118185750Y-107235000D01*
X118826310Y-107235000D01*
X119059699Y-107138327D01*
X119238327Y-106959698D01*
X119335000Y-106726309D01*
X119335000Y-105585750D01*
X121365000Y-105585750D01*
X121365000Y-106726309D01*
X121461673Y-106959698D01*
X121640301Y-107138327D01*
X121873690Y-107235000D01*
X122514250Y-107235000D01*
X122673000Y-107076250D01*
X122673000Y-105427000D01*
X122927000Y-105427000D01*
X122927000Y-107076250D01*
X123085750Y-107235000D01*
X123726310Y-107235000D01*
X123959699Y-107138327D01*
X124138327Y-106959698D01*
X124235000Y-106726309D01*
X124235000Y-105585750D01*
X124076250Y-105427000D01*
X122927000Y-105427000D01*
X122673000Y-105427000D01*
X121523750Y-105427000D01*
X121365000Y-105585750D01*
X119335000Y-105585750D01*
X119176250Y-105427000D01*
X118027000Y-105427000D01*
X117773000Y-105427000D01*
X116623750Y-105427000D01*
X116465000Y-105585750D01*
X114618294Y-105585750D01*
X116465000Y-104276693D01*
X116465000Y-105014250D01*
X116623750Y-105173000D01*
X117773000Y-105173000D01*
X117773000Y-105153000D01*
X118027000Y-105153000D01*
X118027000Y-105173000D01*
X119176250Y-105173000D01*
X119335000Y-105014250D01*
X119335000Y-103873691D01*
X119270227Y-103717315D01*
X119318907Y-103693686D01*
X119483431Y-103508431D01*
X121158000Y-100649411D01*
X121158000Y-103124000D01*
X121192321Y-103329936D01*
X121316853Y-103544130D01*
X121457185Y-103651136D01*
X121365000Y-103873691D01*
X121365000Y-105014250D01*
X121523750Y-105173000D01*
X122673000Y-105173000D01*
X122673000Y-105153000D01*
X122927000Y-105153000D01*
X122927000Y-105173000D01*
X124076250Y-105173000D01*
X124235000Y-105014250D01*
X124235000Y-103873691D01*
X124187112Y-103758079D01*
X124274013Y-103700013D01*
X124411664Y-103494004D01*
X124460000Y-103251000D01*
X124460000Y-99197440D01*
X124970001Y-99197440D01*
X124970000Y-103965134D01*
X124922000Y-104081017D01*
X124922000Y-104452983D01*
X125064345Y-104796635D01*
X125327365Y-105059655D01*
X125671017Y-105202000D01*
X126042983Y-105202000D01*
X126386635Y-105059655D01*
X126649655Y-104796635D01*
X126792000Y-104452983D01*
X126792000Y-104081017D01*
X126649655Y-103737365D01*
X126490000Y-103577710D01*
X126490000Y-102554272D01*
X126703463Y-102696904D01*
X126925148Y-102741000D01*
X126925152Y-102741000D01*
X127000000Y-102755888D01*
X127074848Y-102741000D01*
X129338153Y-102741000D01*
X129413000Y-102755888D01*
X129487847Y-102741000D01*
X129487852Y-102741000D01*
X129709537Y-102696904D01*
X129960929Y-102528929D01*
X130003331Y-102465470D01*
X130613802Y-101855000D01*
X130765439Y-101855000D01*
X130958895Y-101774868D01*
X130983096Y-101896536D01*
X131151071Y-102147929D01*
X131214530Y-102190331D01*
X132260001Y-103235803D01*
X132260000Y-106781822D01*
X131949375Y-106989375D01*
X131750000Y-107287761D01*
X131550625Y-106989375D01*
X131059418Y-106661161D01*
X130626256Y-106575000D01*
X130333744Y-106575000D01*
X129900582Y-106661161D01*
X129409375Y-106989375D01*
X129210000Y-107287761D01*
X129010625Y-106989375D01*
X128519418Y-106661161D01*
X128086256Y-106575000D01*
X127793744Y-106575000D01*
X127360582Y-106661161D01*
X126869375Y-106989375D01*
X126541161Y-107480582D01*
X126425908Y-108060000D01*
X126541161Y-108639418D01*
X126869375Y-109130625D01*
X127287489Y-109410000D01*
X126869375Y-109689375D01*
X126541161Y-110180582D01*
X126425908Y-110760000D01*
X126541161Y-111339418D01*
X126869375Y-111830625D01*
X127360582Y-112158839D01*
X127793744Y-112245000D01*
X128086256Y-112245000D01*
X128519418Y-112158839D01*
X129010625Y-111830625D01*
X129210000Y-111532239D01*
X129409375Y-111830625D01*
X129900582Y-112158839D01*
X130333744Y-112245000D01*
X130626256Y-112245000D01*
X131059418Y-112158839D01*
X131550625Y-111830625D01*
X131750000Y-111532239D01*
X131949375Y-111830625D01*
X132440582Y-112158839D01*
X132873744Y-112245000D01*
X132887198Y-112245000D01*
X133232198Y-112590000D01*
X115300767Y-112590000D01*
X115864741Y-112026026D01*
X116205000Y-111204569D01*
X116205000Y-110315431D01*
X115864741Y-109493974D01*
X115236026Y-108865259D01*
X114414569Y-108525000D01*
X113525431Y-108525000D01*
X112703974Y-108865259D01*
X112075259Y-109493974D01*
X111735000Y-110315431D01*
X111735000Y-111204569D01*
X112075259Y-112026026D01*
X112639233Y-112590000D01*
X100710000Y-112590000D01*
X100710000Y-94185750D01*
X102815000Y-94185750D01*
X102815000Y-95926309D01*
X102911673Y-96159698D01*
X103090301Y-96338327D01*
X103323690Y-96435000D01*
X104264250Y-96435000D01*
X104423000Y-96276250D01*
X104423000Y-94027000D01*
X104677000Y-94027000D01*
X104677000Y-96276250D01*
X104835750Y-96435000D01*
X105776310Y-96435000D01*
X106009699Y-96338327D01*
X106188327Y-96159698D01*
X106285000Y-95926309D01*
X106285000Y-95450000D01*
X109102560Y-95450000D01*
X109102560Y-96950000D01*
X109151843Y-97197765D01*
X109292191Y-97407809D01*
X109502235Y-97548157D01*
X109750000Y-97597440D01*
X111950000Y-97597440D01*
X112197765Y-97548157D01*
X112407809Y-97407809D01*
X112548157Y-97197765D01*
X112585505Y-97010000D01*
X112801837Y-97010000D01*
X112867191Y-97107809D01*
X113077235Y-97248157D01*
X113325000Y-97297440D01*
X114075000Y-97297440D01*
X114322765Y-97248157D01*
X114363518Y-97220926D01*
X114622017Y-97328000D01*
X114993983Y-97328000D01*
X115337635Y-97185655D01*
X115600655Y-96922635D01*
X115743000Y-96578983D01*
X115743000Y-96423690D01*
X117560000Y-96423690D01*
X117560000Y-97264250D01*
X117718750Y-97423000D01*
X118368000Y-97423000D01*
X118368000Y-96073750D01*
X118209250Y-95915000D01*
X118068691Y-95915000D01*
X117835302Y-96011673D01*
X117656673Y-96190301D01*
X117560000Y-96423690D01*
X115743000Y-96423690D01*
X115743000Y-96207017D01*
X115600655Y-95863365D01*
X115337635Y-95600345D01*
X114993983Y-95458000D01*
X114634741Y-95458000D01*
X114710000Y-95276309D01*
X114710000Y-95035750D01*
X114551250Y-94877000D01*
X113827000Y-94877000D01*
X113827000Y-94897000D01*
X113573000Y-94897000D01*
X113573000Y-94877000D01*
X112848750Y-94877000D01*
X112690000Y-95035750D01*
X112690000Y-95276309D01*
X112778514Y-95490000D01*
X112597440Y-95490000D01*
X112597440Y-95450000D01*
X112548157Y-95202235D01*
X112447073Y-95050953D01*
X112488327Y-95009698D01*
X112585000Y-94776309D01*
X112585000Y-94185750D01*
X112426250Y-94027000D01*
X110977000Y-94027000D01*
X110977000Y-94047000D01*
X110723000Y-94047000D01*
X110723000Y-94027000D01*
X109273750Y-94027000D01*
X109115000Y-94185750D01*
X109115000Y-94776309D01*
X109211673Y-95009698D01*
X109252927Y-95050953D01*
X109151843Y-95202235D01*
X109102560Y-95450000D01*
X106285000Y-95450000D01*
X106285000Y-94185750D01*
X106126250Y-94027000D01*
X104677000Y-94027000D01*
X104423000Y-94027000D01*
X102973750Y-94027000D01*
X102815000Y-94185750D01*
X100710000Y-94185750D01*
X100710000Y-91873691D01*
X102815000Y-91873691D01*
X102815000Y-93614250D01*
X102973750Y-93773000D01*
X104423000Y-93773000D01*
X104423000Y-91523750D01*
X104677000Y-91523750D01*
X104677000Y-93773000D01*
X106126250Y-93773000D01*
X106285000Y-93614250D01*
X106285000Y-91873691D01*
X106188327Y-91640302D01*
X106009699Y-91461673D01*
X105776310Y-91365000D01*
X104835750Y-91365000D01*
X104677000Y-91523750D01*
X104423000Y-91523750D01*
X104264250Y-91365000D01*
X103323690Y-91365000D01*
X103090301Y-91461673D01*
X102911673Y-91640302D01*
X102815000Y-91873691D01*
X100710000Y-91873691D01*
X100710000Y-90850000D01*
X109102560Y-90850000D01*
X109102560Y-92350000D01*
X109151843Y-92597765D01*
X109252927Y-92749047D01*
X109211673Y-92790302D01*
X109115000Y-93023691D01*
X109115000Y-93614250D01*
X109273750Y-93773000D01*
X110723000Y-93773000D01*
X110723000Y-93753000D01*
X110977000Y-93753000D01*
X110977000Y-93773000D01*
X112426250Y-93773000D01*
X112585000Y-93614250D01*
X112585000Y-93435750D01*
X112690000Y-93435750D01*
X112690000Y-93676309D01*
X112786673Y-93909698D01*
X112826975Y-93950000D01*
X112786673Y-93990302D01*
X112690000Y-94223691D01*
X112690000Y-94464250D01*
X112848750Y-94623000D01*
X113573000Y-94623000D01*
X113573000Y-93277000D01*
X113827000Y-93277000D01*
X113827000Y-94623000D01*
X114551250Y-94623000D01*
X114710000Y-94464250D01*
X114710000Y-94223691D01*
X114613327Y-93990302D01*
X114573025Y-93950000D01*
X114613327Y-93909698D01*
X114710000Y-93676309D01*
X114710000Y-93435750D01*
X114551250Y-93277000D01*
X113827000Y-93277000D01*
X113573000Y-93277000D01*
X112848750Y-93277000D01*
X112690000Y-93435750D01*
X112585000Y-93435750D01*
X112585000Y-93023691D01*
X112488327Y-92790302D01*
X112447073Y-92749047D01*
X112548157Y-92597765D01*
X112595451Y-92360000D01*
X112768427Y-92360000D01*
X112787873Y-92389102D01*
X112786673Y-92390302D01*
X112690000Y-92623691D01*
X112690000Y-92864250D01*
X112848750Y-93023000D01*
X113573000Y-93023000D01*
X113573000Y-93003000D01*
X113827000Y-93003000D01*
X113827000Y-93023000D01*
X114551250Y-93023000D01*
X114710000Y-92864250D01*
X114710000Y-92629000D01*
X114993983Y-92629000D01*
X115337635Y-92486655D01*
X115600655Y-92223635D01*
X115743000Y-91879983D01*
X115743000Y-91508017D01*
X115600655Y-91164365D01*
X115337635Y-90901345D01*
X114993983Y-90759000D01*
X114622017Y-90759000D01*
X114534777Y-90795136D01*
X114532809Y-90792191D01*
X114322765Y-90651843D01*
X114075000Y-90602560D01*
X113325000Y-90602560D01*
X113077235Y-90651843D01*
X112867191Y-90792191D01*
X112835246Y-90840000D01*
X112595451Y-90840000D01*
X112548157Y-90602235D01*
X112407809Y-90392191D01*
X112197765Y-90251843D01*
X111950000Y-90202560D01*
X111779730Y-90202560D01*
X111790655Y-90191635D01*
X111933000Y-89847983D01*
X111933000Y-89476017D01*
X111854866Y-89287384D01*
X111948157Y-89147765D01*
X111997440Y-88900000D01*
X111997440Y-88400000D01*
X111948157Y-88152235D01*
X111807809Y-87942191D01*
X111744666Y-87900000D01*
X111807809Y-87857809D01*
X111948157Y-87647765D01*
X111997440Y-87400000D01*
X111997440Y-86900000D01*
X111948157Y-86652235D01*
X111807809Y-86442191D01*
X111660000Y-86343427D01*
X111660000Y-86323163D01*
X111757809Y-86257809D01*
X111898157Y-86047765D01*
X111947440Y-85800000D01*
X111947440Y-85000000D01*
X111898157Y-84752235D01*
X111796436Y-84600000D01*
X111898157Y-84447765D01*
X111947440Y-84200000D01*
X111947440Y-83400000D01*
X111898157Y-83152235D01*
X111845704Y-83073734D01*
X111933000Y-82862983D01*
X111933000Y-82491017D01*
X111790655Y-82147365D01*
X111527635Y-81884345D01*
X111183983Y-81742000D01*
X110812017Y-81742000D01*
X110468365Y-81884345D01*
X110205345Y-82147365D01*
X110063000Y-82491017D01*
X110063000Y-82862983D01*
X110084186Y-82914131D01*
X110042191Y-82942191D01*
X109901843Y-83152235D01*
X109852560Y-83400000D01*
X109852560Y-84200000D01*
X109901843Y-84447765D01*
X110003564Y-84600000D01*
X109901843Y-84752235D01*
X109852560Y-85000000D01*
X109852560Y-85800000D01*
X109901843Y-86047765D01*
X110042191Y-86257809D01*
X110140000Y-86323164D01*
X110140000Y-86343427D01*
X109992191Y-86442191D01*
X109851843Y-86652235D01*
X109802560Y-86900000D01*
X109802560Y-87400000D01*
X109851843Y-87647765D01*
X109992191Y-87857809D01*
X110055334Y-87900000D01*
X109992191Y-87942191D01*
X109851843Y-88152235D01*
X109802560Y-88400000D01*
X109802560Y-88900000D01*
X109851843Y-89147765D01*
X109992191Y-89357809D01*
X110086000Y-89420491D01*
X110063000Y-89476017D01*
X110063000Y-89847983D01*
X110205345Y-90191635D01*
X110216270Y-90202560D01*
X109750000Y-90202560D01*
X109502235Y-90251843D01*
X109292191Y-90392191D01*
X109151843Y-90602235D01*
X109102560Y-90850000D01*
X100710000Y-90850000D01*
X100710000Y-85748025D01*
X100860301Y-85898327D01*
X101093690Y-85995000D01*
X102184250Y-85995000D01*
X102343000Y-85836250D01*
X102343000Y-84487000D01*
X102597000Y-84487000D01*
X102597000Y-85836250D01*
X102755750Y-85995000D01*
X103846310Y-85995000D01*
X104079699Y-85898327D01*
X104258327Y-85719698D01*
X104355000Y-85486309D01*
X104355000Y-84645750D01*
X106065000Y-84645750D01*
X106065000Y-85486309D01*
X106161673Y-85719698D01*
X106340301Y-85898327D01*
X106573690Y-85995000D01*
X107664250Y-85995000D01*
X107823000Y-85836250D01*
X107823000Y-84487000D01*
X108077000Y-84487000D01*
X108077000Y-85836250D01*
X108235750Y-85995000D01*
X109326310Y-85995000D01*
X109559699Y-85898327D01*
X109738327Y-85719698D01*
X109835000Y-85486309D01*
X109835000Y-84645750D01*
X109676250Y-84487000D01*
X108077000Y-84487000D01*
X107823000Y-84487000D01*
X106223750Y-84487000D01*
X106065000Y-84645750D01*
X104355000Y-84645750D01*
X104196250Y-84487000D01*
X102597000Y-84487000D01*
X102343000Y-84487000D01*
X102323000Y-84487000D01*
X102323000Y-84233000D01*
X102343000Y-84233000D01*
X102343000Y-82883750D01*
X102597000Y-82883750D01*
X102597000Y-84233000D01*
X104196250Y-84233000D01*
X104355000Y-84074250D01*
X104355000Y-83817610D01*
X104563526Y-83895619D01*
X105233456Y-83872349D01*
X105744313Y-83660745D01*
X105849098Y-83388703D01*
X104840000Y-82379605D01*
X104825858Y-82393748D01*
X104646253Y-82214143D01*
X104660395Y-82200000D01*
X103651297Y-81190902D01*
X103379255Y-81295687D01*
X103144381Y-81923526D01*
X103167651Y-82593456D01*
X103222138Y-82725000D01*
X102755750Y-82725000D01*
X102597000Y-82883750D01*
X102343000Y-82883750D01*
X102184250Y-82725000D01*
X101093690Y-82725000D01*
X100860301Y-82821673D01*
X100710000Y-82971975D01*
X100710000Y-77028025D01*
X100860301Y-77178327D01*
X101093690Y-77275000D01*
X102184250Y-77275000D01*
X102343000Y-77116250D01*
X102343000Y-75767000D01*
X102597000Y-75767000D01*
X102597000Y-77116250D01*
X102755750Y-77275000D01*
X103237354Y-77275000D01*
X103144381Y-77523526D01*
X103167651Y-78193456D01*
X103379255Y-78704313D01*
X103651297Y-78809098D01*
X104660395Y-77800000D01*
X104646253Y-77785858D01*
X104825858Y-77606253D01*
X104840000Y-77620395D01*
X105849098Y-76611297D01*
X105744313Y-76339255D01*
X105116474Y-76104381D01*
X104446544Y-76127651D01*
X104355000Y-76165570D01*
X104355000Y-75925750D01*
X104196250Y-75767000D01*
X102597000Y-75767000D01*
X102343000Y-75767000D01*
X102323000Y-75767000D01*
X102323000Y-75513000D01*
X102343000Y-75513000D01*
X102343000Y-74163750D01*
X102597000Y-74163750D01*
X102597000Y-75513000D01*
X104196250Y-75513000D01*
X104355000Y-75354250D01*
X104355000Y-74513691D01*
X106065000Y-74513691D01*
X106065000Y-75354250D01*
X106223750Y-75513000D01*
X107823000Y-75513000D01*
X107823000Y-74163750D01*
X108077000Y-74163750D01*
X108077000Y-75513000D01*
X109676250Y-75513000D01*
X109835000Y-75354250D01*
X109835000Y-74513691D01*
X109738327Y-74280302D01*
X109559699Y-74101673D01*
X109326310Y-74005000D01*
X108235750Y-74005000D01*
X108077000Y-74163750D01*
X107823000Y-74163750D01*
X107664250Y-74005000D01*
X106573690Y-74005000D01*
X106340301Y-74101673D01*
X106161673Y-74280302D01*
X106065000Y-74513691D01*
X104355000Y-74513691D01*
X104258327Y-74280302D01*
X104079699Y-74101673D01*
X103846310Y-74005000D01*
X102755750Y-74005000D01*
X102597000Y-74163750D01*
X102343000Y-74163750D01*
X102184250Y-74005000D01*
X101093690Y-74005000D01*
X100860301Y-74101673D01*
X100710000Y-74251975D01*
X100710000Y-67435000D01*
X101234250Y-67435000D01*
X101393000Y-67276250D01*
X101393000Y-66277000D01*
X101647000Y-66277000D01*
X101647000Y-67276250D01*
X101805750Y-67435000D01*
X102421309Y-67435000D01*
X102654698Y-67338327D01*
X102833327Y-67159699D01*
X102930000Y-66926310D01*
X102930000Y-66435750D01*
X108070000Y-66435750D01*
X108070000Y-66926310D01*
X108166673Y-67159699D01*
X108345302Y-67338327D01*
X108578691Y-67435000D01*
X109194250Y-67435000D01*
X109353000Y-67276250D01*
X109353000Y-66277000D01*
X108228750Y-66277000D01*
X108070000Y-66435750D01*
X102930000Y-66435750D01*
X102771250Y-66277000D01*
X101647000Y-66277000D01*
X101393000Y-66277000D01*
X101373000Y-66277000D01*
X101373000Y-66023000D01*
X101393000Y-66023000D01*
X101393000Y-65023750D01*
X101647000Y-65023750D01*
X101647000Y-66023000D01*
X102771250Y-66023000D01*
X102930000Y-65864250D01*
X102930000Y-65373690D01*
X108070000Y-65373690D01*
X108070000Y-65864250D01*
X108228750Y-66023000D01*
X109353000Y-66023000D01*
X109353000Y-65023750D01*
X109194250Y-64865000D01*
X108578691Y-64865000D01*
X108345302Y-64961673D01*
X108166673Y-65140301D01*
X108070000Y-65373690D01*
X102930000Y-65373690D01*
X102833327Y-65140301D01*
X102654698Y-64961673D01*
X102421309Y-64865000D01*
X101805750Y-64865000D01*
X101647000Y-65023750D01*
X101393000Y-65023750D01*
X101234250Y-64865000D01*
X100710000Y-64865000D01*
X100710000Y-63246000D01*
X108162098Y-63246000D01*
X109633309Y-64997441D01*
G36*
X167890000Y-104369233D02*
X167306026Y-103785259D01*
X166484569Y-103445000D01*
X165595431Y-103445000D01*
X164773974Y-103785259D01*
X164145259Y-104413974D01*
X163805000Y-105235431D01*
X163805000Y-106124569D01*
X163986422Y-106562560D01*
X163077362Y-106562560D01*
X161720000Y-105205199D01*
X161720000Y-101658430D01*
X161772862Y-101636534D01*
X162176534Y-101232862D01*
X162181000Y-101222080D01*
X162181001Y-104085709D01*
X162148345Y-104118365D01*
X162006000Y-104462017D01*
X162006000Y-104833983D01*
X162148345Y-105177635D01*
X162411365Y-105440655D01*
X162755017Y-105583000D01*
X163126983Y-105583000D01*
X163470635Y-105440655D01*
X163733655Y-105177635D01*
X163876000Y-104833983D01*
X163876000Y-104462017D01*
X163733655Y-104118365D01*
X163701000Y-104085710D01*
X163701000Y-101146290D01*
X163733655Y-101113635D01*
X163876000Y-100769983D01*
X163876000Y-100398017D01*
X163733655Y-100054365D01*
X163470635Y-99791345D01*
X163126983Y-99649000D01*
X162755017Y-99649000D01*
X162411365Y-99791345D01*
X162299267Y-99903443D01*
X162176534Y-99607138D01*
X161772862Y-99203466D01*
X161245439Y-98985000D01*
X160674561Y-98985000D01*
X160147138Y-99203466D01*
X159743466Y-99607138D01*
X159690000Y-99736216D01*
X159636534Y-99607138D01*
X159232862Y-99203466D01*
X158705439Y-98985000D01*
X158134561Y-98985000D01*
X157607138Y-99203466D01*
X157203466Y-99607138D01*
X157150000Y-99736216D01*
X157096534Y-99607138D01*
X156692862Y-99203466D01*
X156165439Y-98985000D01*
X155594561Y-98985000D01*
X155067138Y-99203466D01*
X154663466Y-99607138D01*
X154610000Y-99736216D01*
X154556534Y-99607138D01*
X154152862Y-99203466D01*
X153625439Y-98985000D01*
X153054561Y-98985000D01*
X152527138Y-99203466D01*
X152123466Y-99607138D01*
X152070000Y-99736216D01*
X152016534Y-99607138D01*
X151612862Y-99203466D01*
X151085439Y-98985000D01*
X150514561Y-98985000D01*
X149987138Y-99203466D01*
X149583466Y-99607138D01*
X149530000Y-99736216D01*
X149476534Y-99607138D01*
X149072862Y-99203466D01*
X148545439Y-98985000D01*
X147974561Y-98985000D01*
X147447138Y-99203466D01*
X147043466Y-99607138D01*
X146996475Y-99720583D01*
X146973864Y-99665995D01*
X146727745Y-99591861D01*
X145899605Y-100420000D01*
X146727745Y-101248139D01*
X146973864Y-101174005D01*
X146994874Y-101115552D01*
X147043466Y-101232862D01*
X147237604Y-101427000D01*
X147007017Y-101427000D01*
X146663365Y-101569345D01*
X146400345Y-101832365D01*
X146258000Y-102176017D01*
X146258000Y-102547983D01*
X146400345Y-102891635D01*
X146433000Y-102924290D01*
X146433000Y-103198851D01*
X146433001Y-103198856D01*
X146433000Y-105462153D01*
X146418112Y-105537000D01*
X146433000Y-105611847D01*
X146433000Y-105611851D01*
X146477096Y-105833536D01*
X146645071Y-106084929D01*
X146708530Y-106127331D01*
X147830001Y-107248804D01*
X147830000Y-110937197D01*
X147217440Y-111549758D01*
X147217440Y-109910000D01*
X147168157Y-109662235D01*
X147027809Y-109452191D01*
X146964666Y-109410000D01*
X147027809Y-109367809D01*
X147168157Y-109157765D01*
X147217440Y-108910000D01*
X147217440Y-107210000D01*
X147168157Y-106962235D01*
X147027809Y-106752191D01*
X146817765Y-106611843D01*
X146570000Y-106562560D01*
X145297361Y-106562560D01*
X144676331Y-105941530D01*
X144633929Y-105878071D01*
X144382537Y-105710096D01*
X144160852Y-105666000D01*
X144160847Y-105666000D01*
X144086000Y-105651112D01*
X144011153Y-105666000D01*
X137728802Y-105666000D01*
X137539000Y-105476199D01*
X137539000Y-101740859D01*
X137814561Y-101855000D01*
X138385439Y-101855000D01*
X138912862Y-101636534D01*
X139316534Y-101232862D01*
X139370000Y-101103784D01*
X139423466Y-101232862D01*
X139827138Y-101636534D01*
X140354561Y-101855000D01*
X140925439Y-101855000D01*
X141452862Y-101636534D01*
X141856534Y-101232862D01*
X141910000Y-101103784D01*
X141963466Y-101232862D01*
X142367138Y-101636534D01*
X142894561Y-101855000D01*
X143465439Y-101855000D01*
X143992862Y-101636534D01*
X144201651Y-101427745D01*
X144891861Y-101427745D01*
X144965995Y-101673864D01*
X145503223Y-101866965D01*
X146073454Y-101839778D01*
X146474005Y-101673864D01*
X146548139Y-101427745D01*
X145720000Y-100599605D01*
X144891861Y-101427745D01*
X144201651Y-101427745D01*
X144396534Y-101232862D01*
X144443525Y-101119417D01*
X144466136Y-101174005D01*
X144712255Y-101248139D01*
X145540395Y-100420000D01*
X144712255Y-99591861D01*
X144466136Y-99665995D01*
X144445126Y-99724448D01*
X144396534Y-99607138D01*
X143992862Y-99203466D01*
X143641676Y-99058000D01*
X145227058Y-99058000D01*
X144965995Y-99166136D01*
X144891861Y-99412255D01*
X145720000Y-100240395D01*
X146548139Y-99412255D01*
X146474005Y-99166136D01*
X146173159Y-99058000D01*
X147018134Y-99058000D01*
X147134017Y-99106000D01*
X147505983Y-99106000D01*
X147849635Y-98963655D01*
X148112655Y-98700635D01*
X148255000Y-98356983D01*
X148255000Y-98296000D01*
X166168153Y-98296000D01*
X166243000Y-98310888D01*
X166317847Y-98296000D01*
X166317852Y-98296000D01*
X166539537Y-98251904D01*
X166790929Y-98083929D01*
X166833331Y-98020470D01*
X167890000Y-96963801D01*
X167890000Y-104369233D01*
X167890000Y-104369233D01*
G37*
X167890000Y-104369233D02*
X167306026Y-103785259D01*
X166484569Y-103445000D01*
X165595431Y-103445000D01*
X164773974Y-103785259D01*
X164145259Y-104413974D01*
X163805000Y-105235431D01*
X163805000Y-106124569D01*
X163986422Y-106562560D01*
X163077362Y-106562560D01*
X161720000Y-105205199D01*
X161720000Y-101658430D01*
X161772862Y-101636534D01*
X162176534Y-101232862D01*
X162181000Y-101222080D01*
X162181001Y-104085709D01*
X162148345Y-104118365D01*
X162006000Y-104462017D01*
X162006000Y-104833983D01*
X162148345Y-105177635D01*
X162411365Y-105440655D01*
X162755017Y-105583000D01*
X163126983Y-105583000D01*
X163470635Y-105440655D01*
X163733655Y-105177635D01*
X163876000Y-104833983D01*
X163876000Y-104462017D01*
X163733655Y-104118365D01*
X163701000Y-104085710D01*
X163701000Y-101146290D01*
X163733655Y-101113635D01*
X163876000Y-100769983D01*
X163876000Y-100398017D01*
X163733655Y-100054365D01*
X163470635Y-99791345D01*
X163126983Y-99649000D01*
X162755017Y-99649000D01*
X162411365Y-99791345D01*
X162299267Y-99903443D01*
X162176534Y-99607138D01*
X161772862Y-99203466D01*
X161245439Y-98985000D01*
X160674561Y-98985000D01*
X160147138Y-99203466D01*
X159743466Y-99607138D01*
X159690000Y-99736216D01*
X159636534Y-99607138D01*
X159232862Y-99203466D01*
X158705439Y-98985000D01*
X158134561Y-98985000D01*
X157607138Y-99203466D01*
X157203466Y-99607138D01*
X157150000Y-99736216D01*
X157096534Y-99607138D01*
X156692862Y-99203466D01*
X156165439Y-98985000D01*
X155594561Y-98985000D01*
X155067138Y-99203466D01*
X154663466Y-99607138D01*
X154610000Y-99736216D01*
X154556534Y-99607138D01*
X154152862Y-99203466D01*
X153625439Y-98985000D01*
X153054561Y-98985000D01*
X152527138Y-99203466D01*
X152123466Y-99607138D01*
X152070000Y-99736216D01*
X152016534Y-99607138D01*
X151612862Y-99203466D01*
X151085439Y-98985000D01*
X150514561Y-98985000D01*
X149987138Y-99203466D01*
X149583466Y-99607138D01*
X149530000Y-99736216D01*
X149476534Y-99607138D01*
X149072862Y-99203466D01*
X148545439Y-98985000D01*
X147974561Y-98985000D01*
X147447138Y-99203466D01*
X147043466Y-99607138D01*
X146996475Y-99720583D01*
X146973864Y-99665995D01*
X146727745Y-99591861D01*
X145899605Y-100420000D01*
X146727745Y-101248139D01*
X146973864Y-101174005D01*
X146994874Y-101115552D01*
X147043466Y-101232862D01*
X147237604Y-101427000D01*
X147007017Y-101427000D01*
X146663365Y-101569345D01*
X146400345Y-101832365D01*
X146258000Y-102176017D01*
X146258000Y-102547983D01*
X146400345Y-102891635D01*
X146433000Y-102924290D01*
X146433000Y-103198851D01*
X146433001Y-103198856D01*
X146433000Y-105462153D01*
X146418112Y-105537000D01*
X146433000Y-105611847D01*
X146433000Y-105611851D01*
X146477096Y-105833536D01*
X146645071Y-106084929D01*
X146708530Y-106127331D01*
X147830001Y-107248804D01*
X147830000Y-110937197D01*
X147217440Y-111549758D01*
X147217440Y-109910000D01*
X147168157Y-109662235D01*
X147027809Y-109452191D01*
X146964666Y-109410000D01*
X147027809Y-109367809D01*
X147168157Y-109157765D01*
X147217440Y-108910000D01*
X147217440Y-107210000D01*
X147168157Y-106962235D01*
X147027809Y-106752191D01*
X146817765Y-106611843D01*
X146570000Y-106562560D01*
X145297361Y-106562560D01*
X144676331Y-105941530D01*
X144633929Y-105878071D01*
X144382537Y-105710096D01*
X144160852Y-105666000D01*
X144160847Y-105666000D01*
X144086000Y-105651112D01*
X144011153Y-105666000D01*
X137728802Y-105666000D01*
X137539000Y-105476199D01*
X137539000Y-101740859D01*
X137814561Y-101855000D01*
X138385439Y-101855000D01*
X138912862Y-101636534D01*
X139316534Y-101232862D01*
X139370000Y-101103784D01*
X139423466Y-101232862D01*
X139827138Y-101636534D01*
X140354561Y-101855000D01*
X140925439Y-101855000D01*
X141452862Y-101636534D01*
X141856534Y-101232862D01*
X141910000Y-101103784D01*
X141963466Y-101232862D01*
X142367138Y-101636534D01*
X142894561Y-101855000D01*
X143465439Y-101855000D01*
X143992862Y-101636534D01*
X144201651Y-101427745D01*
X144891861Y-101427745D01*
X144965995Y-101673864D01*
X145503223Y-101866965D01*
X146073454Y-101839778D01*
X146474005Y-101673864D01*
X146548139Y-101427745D01*
X145720000Y-100599605D01*
X144891861Y-101427745D01*
X144201651Y-101427745D01*
X144396534Y-101232862D01*
X144443525Y-101119417D01*
X144466136Y-101174005D01*
X144712255Y-101248139D01*
X145540395Y-100420000D01*
X144712255Y-99591861D01*
X144466136Y-99665995D01*
X144445126Y-99724448D01*
X144396534Y-99607138D01*
X143992862Y-99203466D01*
X143641676Y-99058000D01*
X145227058Y-99058000D01*
X144965995Y-99166136D01*
X144891861Y-99412255D01*
X145720000Y-100240395D01*
X146548139Y-99412255D01*
X146474005Y-99166136D01*
X146173159Y-99058000D01*
X147018134Y-99058000D01*
X147134017Y-99106000D01*
X147505983Y-99106000D01*
X147849635Y-98963655D01*
X148112655Y-98700635D01*
X148255000Y-98356983D01*
X148255000Y-98296000D01*
X166168153Y-98296000D01*
X166243000Y-98310888D01*
X166317847Y-98296000D01*
X166317852Y-98296000D01*
X166539537Y-98251904D01*
X166790929Y-98083929D01*
X166833331Y-98020470D01*
X167890000Y-96963801D01*
X167890000Y-104369233D01*
G36*
X140767000Y-107933000D02*
X143053000Y-107933000D01*
X143053000Y-107913000D01*
X143307000Y-107913000D01*
X143307000Y-107933000D01*
X143327000Y-107933000D01*
X143327000Y-108187000D01*
X143307000Y-108187000D01*
X143307000Y-109380155D01*
X143363553Y-109410000D01*
X143307000Y-109439845D01*
X143307000Y-110633000D01*
X143327000Y-110633000D01*
X143327000Y-110887000D01*
X143307000Y-110887000D01*
X143307000Y-110907000D01*
X143053000Y-110907000D01*
X143053000Y-110887000D01*
X140767000Y-110887000D01*
X140767000Y-110907000D01*
X140513000Y-110907000D01*
X140513000Y-110887000D01*
X140493000Y-110887000D01*
X140493000Y-110633000D01*
X140513000Y-110633000D01*
X140513000Y-109439845D01*
X140456447Y-109410000D01*
X140513000Y-109380155D01*
X140513000Y-108187000D01*
X140767000Y-108187000D01*
X140767000Y-109380155D01*
X140823553Y-109410000D01*
X140767000Y-109439845D01*
X140767000Y-110633000D01*
X143053000Y-110633000D01*
X143053000Y-109439845D01*
X142996447Y-109410000D01*
X143053000Y-109380155D01*
X143053000Y-108187000D01*
X140767000Y-108187000D01*
X140513000Y-108187000D01*
X140493000Y-108187000D01*
X140493000Y-107933000D01*
X140513000Y-107933000D01*
X140513000Y-107913000D01*
X140767000Y-107913000D01*
X140767000Y-107933000D01*
X140767000Y-107933000D01*
G37*
X140767000Y-107933000D02*
X143053000Y-107933000D01*
X143053000Y-107913000D01*
X143307000Y-107913000D01*
X143307000Y-107933000D01*
X143327000Y-107933000D01*
X143327000Y-108187000D01*
X143307000Y-108187000D01*
X143307000Y-109380155D01*
X143363553Y-109410000D01*
X143307000Y-109439845D01*
X143307000Y-110633000D01*
X143327000Y-110633000D01*
X143327000Y-110887000D01*
X143307000Y-110887000D01*
X143307000Y-110907000D01*
X143053000Y-110907000D01*
X143053000Y-110887000D01*
X140767000Y-110887000D01*
X140767000Y-110907000D01*
X140513000Y-110907000D01*
X140513000Y-110887000D01*
X140493000Y-110887000D01*
X140493000Y-110633000D01*
X140513000Y-110633000D01*
X140513000Y-109439845D01*
X140456447Y-109410000D01*
X140513000Y-109380155D01*
X140513000Y-108187000D01*
X140767000Y-108187000D01*
X140767000Y-109380155D01*
X140823553Y-109410000D01*
X140767000Y-109439845D01*
X140767000Y-110633000D01*
X143053000Y-110633000D01*
X143053000Y-109439845D01*
X142996447Y-109410000D01*
X143053000Y-109380155D01*
X143053000Y-108187000D01*
X140767000Y-108187000D01*
X140513000Y-108187000D01*
X140493000Y-108187000D01*
X140493000Y-107933000D01*
X140513000Y-107933000D01*
X140513000Y-107913000D01*
X140767000Y-107913000D01*
X140767000Y-107933000D01*
G36*
X165167000Y-89153000D02*
X165187000Y-89153000D01*
X165187000Y-89407000D01*
X165167000Y-89407000D01*
X165167000Y-90600819D01*
X165396892Y-90721486D01*
X165921358Y-90475183D01*
X166311645Y-90046924D01*
X166481476Y-89636890D01*
X166360156Y-89407002D01*
X166525000Y-89407002D01*
X166525000Y-89299802D01*
X166753001Y-89527803D01*
X166753000Y-95285607D01*
X166555983Y-95204000D01*
X166184017Y-95204000D01*
X165840365Y-95346345D01*
X165577345Y-95609365D01*
X165462345Y-95887000D01*
X164265290Y-95887000D01*
X164232635Y-95854345D01*
X164191806Y-95837433D01*
X164250929Y-95797929D01*
X164293327Y-95734476D01*
X164293329Y-95734474D01*
X164393268Y-95584904D01*
X164418904Y-95546537D01*
X164463000Y-95324852D01*
X164463000Y-95324848D01*
X164477888Y-95250001D01*
X164463000Y-95175154D01*
X164463000Y-90618118D01*
X164683108Y-90721486D01*
X164913000Y-90600819D01*
X164913000Y-89407000D01*
X164893000Y-89407000D01*
X164893000Y-89153000D01*
X164913000Y-89153000D01*
X164913000Y-89133000D01*
X165167000Y-89133000D01*
X165167000Y-89153000D01*
X165167000Y-89153000D01*
G37*
X165167000Y-89153000D02*
X165187000Y-89153000D01*
X165187000Y-89407000D01*
X165167000Y-89407000D01*
X165167000Y-90600819D01*
X165396892Y-90721486D01*
X165921358Y-90475183D01*
X166311645Y-90046924D01*
X166481476Y-89636890D01*
X166360156Y-89407002D01*
X166525000Y-89407002D01*
X166525000Y-89299802D01*
X166753001Y-89527803D01*
X166753000Y-95285607D01*
X166555983Y-95204000D01*
X166184017Y-95204000D01*
X165840365Y-95346345D01*
X165577345Y-95609365D01*
X165462345Y-95887000D01*
X164265290Y-95887000D01*
X164232635Y-95854345D01*
X164191806Y-95837433D01*
X164250929Y-95797929D01*
X164293327Y-95734476D01*
X164293329Y-95734474D01*
X164393268Y-95584904D01*
X164418904Y-95546537D01*
X164463000Y-95324852D01*
X164463000Y-95324848D01*
X164477888Y-95250001D01*
X164463000Y-95175154D01*
X164463000Y-90618118D01*
X164683108Y-90721486D01*
X164913000Y-90600819D01*
X164913000Y-89407000D01*
X164893000Y-89407000D01*
X164893000Y-89153000D01*
X164913000Y-89153000D01*
X164913000Y-89133000D01*
X165167000Y-89133000D01*
X165167000Y-89153000D01*
G36*
X123827001Y-88960803D02*
X123827000Y-93270153D01*
X123812112Y-93345000D01*
X123827000Y-93419847D01*
X123827000Y-93419851D01*
X123871096Y-93641536D01*
X124039071Y-93892929D01*
X124102530Y-93935331D01*
X124241619Y-94074420D01*
X123930365Y-94203345D01*
X123667345Y-94466365D01*
X123525000Y-94810017D01*
X123525000Y-95181983D01*
X123625575Y-95424792D01*
X122174000Y-95680952D01*
X122174000Y-94297440D01*
X122605000Y-94297440D01*
X122852765Y-94248157D01*
X123062809Y-94107809D01*
X123203157Y-93897765D01*
X123252440Y-93650000D01*
X123252440Y-91650000D01*
X123203157Y-91402235D01*
X123062809Y-91192191D01*
X122852765Y-91051843D01*
X122605000Y-91002560D01*
X122193189Y-91002560D01*
X122231171Y-90110000D01*
X122264250Y-90110000D01*
X122423000Y-89951250D01*
X122423000Y-89227000D01*
X122677000Y-89227000D01*
X122677000Y-89951250D01*
X122835750Y-90110000D01*
X123076309Y-90110000D01*
X123309698Y-90013327D01*
X123488327Y-89834699D01*
X123585000Y-89601310D01*
X123585000Y-89385750D01*
X123426250Y-89227000D01*
X122677000Y-89227000D01*
X122423000Y-89227000D01*
X122403000Y-89227000D01*
X122403000Y-88973000D01*
X122423000Y-88973000D01*
X122423000Y-88953000D01*
X122677000Y-88953000D01*
X122677000Y-88973000D01*
X123426250Y-88973000D01*
X123585000Y-88814250D01*
X123585000Y-88718801D01*
X123827001Y-88960803D01*
X123827001Y-88960803D01*
G37*
X123827001Y-88960803D02*
X123827000Y-93270153D01*
X123812112Y-93345000D01*
X123827000Y-93419847D01*
X123827000Y-93419851D01*
X123871096Y-93641536D01*
X124039071Y-93892929D01*
X124102530Y-93935331D01*
X124241619Y-94074420D01*
X123930365Y-94203345D01*
X123667345Y-94466365D01*
X123525000Y-94810017D01*
X123525000Y-95181983D01*
X123625575Y-95424792D01*
X122174000Y-95680952D01*
X122174000Y-94297440D01*
X122605000Y-94297440D01*
X122852765Y-94248157D01*
X123062809Y-94107809D01*
X123203157Y-93897765D01*
X123252440Y-93650000D01*
X123252440Y-91650000D01*
X123203157Y-91402235D01*
X123062809Y-91192191D01*
X122852765Y-91051843D01*
X122605000Y-91002560D01*
X122193189Y-91002560D01*
X122231171Y-90110000D01*
X122264250Y-90110000D01*
X122423000Y-89951250D01*
X122423000Y-89227000D01*
X122677000Y-89227000D01*
X122677000Y-89951250D01*
X122835750Y-90110000D01*
X123076309Y-90110000D01*
X123309698Y-90013327D01*
X123488327Y-89834699D01*
X123585000Y-89601310D01*
X123585000Y-89385750D01*
X123426250Y-89227000D01*
X122677000Y-89227000D01*
X122423000Y-89227000D01*
X122403000Y-89227000D01*
X122403000Y-88973000D01*
X122423000Y-88973000D01*
X122423000Y-88953000D01*
X122677000Y-88953000D01*
X122677000Y-88973000D01*
X123426250Y-88973000D01*
X123585000Y-88814250D01*
X123585000Y-88718801D01*
X123827001Y-88960803D01*
G36*
X149729375Y-66410625D02*
X150040001Y-66618179D01*
X150040000Y-78501198D01*
X149339199Y-79202000D01*
X149293017Y-79202000D01*
X148949365Y-79344345D01*
X148686345Y-79607365D01*
X148544000Y-79951017D01*
X148544000Y-80322983D01*
X148686345Y-80666635D01*
X148788454Y-80768744D01*
X147775530Y-81781669D01*
X147712071Y-81824071D01*
X147544096Y-82075464D01*
X147500000Y-82297149D01*
X147500000Y-82297153D01*
X147485112Y-82372000D01*
X147500000Y-82446847D01*
X147500001Y-91561569D01*
X147447138Y-91583466D01*
X147043466Y-91987138D01*
X146990000Y-92116216D01*
X146936534Y-91987138D01*
X146532862Y-91583466D01*
X146005439Y-91365000D01*
X145434561Y-91365000D01*
X144907138Y-91583466D01*
X144503466Y-91987138D01*
X144456475Y-92100583D01*
X144433864Y-92045995D01*
X144187745Y-91971861D01*
X143359605Y-92800000D01*
X143373748Y-92814142D01*
X143194142Y-92993748D01*
X143180000Y-92979605D01*
X143165858Y-92993748D01*
X142986252Y-92814142D01*
X143000395Y-92800000D01*
X142172255Y-91971861D01*
X141926136Y-92045995D01*
X141905126Y-92104448D01*
X141856534Y-91987138D01*
X141810000Y-91940604D01*
X141810000Y-91792255D01*
X142351861Y-91792255D01*
X143180000Y-92620395D01*
X144008139Y-91792255D01*
X143934005Y-91546136D01*
X143396777Y-91353035D01*
X142826546Y-91380222D01*
X142425995Y-91546136D01*
X142351861Y-91792255D01*
X141810000Y-91792255D01*
X141810000Y-88588440D01*
X142169000Y-88588440D01*
X142416765Y-88539157D01*
X142626809Y-88398809D01*
X142767157Y-88188765D01*
X142816440Y-87941000D01*
X142816440Y-85541000D01*
X142767157Y-85293235D01*
X142626809Y-85083191D01*
X142416765Y-84942843D01*
X142169000Y-84893560D01*
X141760000Y-84893560D01*
X141760000Y-83856459D01*
X141832809Y-83807809D01*
X141973157Y-83597765D01*
X142022440Y-83350000D01*
X142022440Y-82550000D01*
X141973157Y-82302235D01*
X141912127Y-82210898D01*
X141913327Y-82209698D01*
X142010000Y-81976309D01*
X142010000Y-81735750D01*
X141851250Y-81577000D01*
X141127000Y-81577000D01*
X141127000Y-81597000D01*
X140873000Y-81597000D01*
X140873000Y-81577000D01*
X140148750Y-81577000D01*
X139990000Y-81735750D01*
X139990000Y-81976309D01*
X140086673Y-82209698D01*
X140087873Y-82210898D01*
X140026843Y-82302235D01*
X139977560Y-82550000D01*
X139977560Y-83350000D01*
X140026843Y-83597765D01*
X140167191Y-83807809D01*
X140240000Y-83856459D01*
X140240001Y-84893560D01*
X140169000Y-84893560D01*
X139921235Y-84942843D01*
X139711191Y-85083191D01*
X139570843Y-85293235D01*
X139521560Y-85541000D01*
X139521560Y-87941000D01*
X139570843Y-88188765D01*
X139711191Y-88398809D01*
X139921235Y-88539157D01*
X140169000Y-88588440D01*
X140290000Y-88588440D01*
X140290001Y-91391742D01*
X139827138Y-91583466D01*
X139423466Y-91987138D01*
X139370000Y-92116216D01*
X139316534Y-91987138D01*
X138912862Y-91583466D01*
X138385439Y-91365000D01*
X138110000Y-91365000D01*
X138110000Y-88588440D01*
X138469000Y-88588440D01*
X138716765Y-88539157D01*
X138926809Y-88398809D01*
X139067157Y-88188765D01*
X139116440Y-87941000D01*
X139116440Y-85541000D01*
X139067157Y-85293235D01*
X138926809Y-85083191D01*
X138716765Y-84942843D01*
X138469000Y-84893560D01*
X138110000Y-84893560D01*
X138110000Y-83889868D01*
X138232809Y-83807809D01*
X138373157Y-83597765D01*
X138422440Y-83350000D01*
X138422440Y-82550000D01*
X138373157Y-82302235D01*
X138312127Y-82210898D01*
X138313327Y-82209698D01*
X138410000Y-81976309D01*
X138410000Y-81735750D01*
X138251250Y-81577000D01*
X137527000Y-81577000D01*
X137527000Y-81597000D01*
X137273000Y-81597000D01*
X137273000Y-81577000D01*
X136548750Y-81577000D01*
X136390000Y-81735750D01*
X136390000Y-81976309D01*
X136486673Y-82209698D01*
X136487873Y-82210898D01*
X136426843Y-82302235D01*
X136377560Y-82550000D01*
X136377560Y-83350000D01*
X136426843Y-83597765D01*
X136567191Y-83807809D01*
X136590001Y-83823050D01*
X136590000Y-84893560D01*
X136469000Y-84893560D01*
X136274870Y-84932174D01*
X136183929Y-84796071D01*
X136120473Y-84753671D01*
X135282331Y-83915530D01*
X135239929Y-83852071D01*
X134988537Y-83684096D01*
X134766852Y-83640000D01*
X134766847Y-83640000D01*
X134692000Y-83625112D01*
X134617153Y-83640000D01*
X134608619Y-83640000D01*
X134635000Y-83576310D01*
X134635000Y-83285750D01*
X134476250Y-83127000D01*
X133875000Y-83127000D01*
X133875000Y-83147000D01*
X133729000Y-83147000D01*
X133729000Y-82853000D01*
X133875000Y-82853000D01*
X133875000Y-82873000D01*
X134476250Y-82873000D01*
X134635000Y-82714250D01*
X134635000Y-82423690D01*
X134588702Y-82311916D01*
X134598157Y-82297765D01*
X134647440Y-82050000D01*
X134647440Y-81150000D01*
X134598157Y-80902235D01*
X134457809Y-80692191D01*
X134265959Y-80564000D01*
X134551983Y-80564000D01*
X134895635Y-80421655D01*
X134928290Y-80389000D01*
X134955000Y-80389000D01*
X134955000Y-80449983D01*
X135097345Y-80793635D01*
X135360365Y-81056655D01*
X135704017Y-81199000D01*
X136075983Y-81199000D01*
X136390000Y-81068930D01*
X136390000Y-81164250D01*
X136548750Y-81323000D01*
X137273000Y-81323000D01*
X137273000Y-81303000D01*
X137527000Y-81303000D01*
X137527000Y-81323000D01*
X138251250Y-81323000D01*
X138410000Y-81164250D01*
X138410000Y-81024000D01*
X139137710Y-81024000D01*
X139297365Y-81183655D01*
X139641017Y-81326000D01*
X140012983Y-81326000D01*
X140111106Y-81285356D01*
X140148750Y-81323000D01*
X140522774Y-81323000D01*
X140530017Y-81326000D01*
X140901983Y-81326000D01*
X140957510Y-81303000D01*
X141127000Y-81303000D01*
X141127000Y-81323000D01*
X141411774Y-81323000D01*
X141419017Y-81326000D01*
X141790983Y-81326000D01*
X141798226Y-81323000D01*
X141851250Y-81323000D01*
X141888744Y-81285506D01*
X142134635Y-81183655D01*
X142397655Y-80920635D01*
X142540000Y-80576983D01*
X142540000Y-80205017D01*
X142397655Y-79861365D01*
X142134635Y-79598345D01*
X141790983Y-79456000D01*
X141744802Y-79456000D01*
X141280802Y-78992000D01*
X147499153Y-78992000D01*
X147574000Y-79006888D01*
X147648847Y-78992000D01*
X147648852Y-78992000D01*
X147870537Y-78947904D01*
X148121929Y-78779929D01*
X148164331Y-78716470D01*
X148744473Y-78136329D01*
X148807929Y-78093929D01*
X148975904Y-77842537D01*
X149020000Y-77620852D01*
X149020000Y-77620848D01*
X149034888Y-77546000D01*
X149020000Y-77471152D01*
X149020000Y-66618178D01*
X149330625Y-66410625D01*
X149530000Y-66112239D01*
X149729375Y-66410625D01*
X149729375Y-66410625D01*
G37*
X149729375Y-66410625D02*
X150040001Y-66618179D01*
X150040000Y-78501198D01*
X149339199Y-79202000D01*
X149293017Y-79202000D01*
X148949365Y-79344345D01*
X148686345Y-79607365D01*
X148544000Y-79951017D01*
X148544000Y-80322983D01*
X148686345Y-80666635D01*
X148788454Y-80768744D01*
X147775530Y-81781669D01*
X147712071Y-81824071D01*
X147544096Y-82075464D01*
X147500000Y-82297149D01*
X147500000Y-82297153D01*
X147485112Y-82372000D01*
X147500000Y-82446847D01*
X147500001Y-91561569D01*
X147447138Y-91583466D01*
X147043466Y-91987138D01*
X146990000Y-92116216D01*
X146936534Y-91987138D01*
X146532862Y-91583466D01*
X146005439Y-91365000D01*
X145434561Y-91365000D01*
X144907138Y-91583466D01*
X144503466Y-91987138D01*
X144456475Y-92100583D01*
X144433864Y-92045995D01*
X144187745Y-91971861D01*
X143359605Y-92800000D01*
X143373748Y-92814142D01*
X143194142Y-92993748D01*
X143180000Y-92979605D01*
X143165858Y-92993748D01*
X142986252Y-92814142D01*
X143000395Y-92800000D01*
X142172255Y-91971861D01*
X141926136Y-92045995D01*
X141905126Y-92104448D01*
X141856534Y-91987138D01*
X141810000Y-91940604D01*
X141810000Y-91792255D01*
X142351861Y-91792255D01*
X143180000Y-92620395D01*
X144008139Y-91792255D01*
X143934005Y-91546136D01*
X143396777Y-91353035D01*
X142826546Y-91380222D01*
X142425995Y-91546136D01*
X142351861Y-91792255D01*
X141810000Y-91792255D01*
X141810000Y-88588440D01*
X142169000Y-88588440D01*
X142416765Y-88539157D01*
X142626809Y-88398809D01*
X142767157Y-88188765D01*
X142816440Y-87941000D01*
X142816440Y-85541000D01*
X142767157Y-85293235D01*
X142626809Y-85083191D01*
X142416765Y-84942843D01*
X142169000Y-84893560D01*
X141760000Y-84893560D01*
X141760000Y-83856459D01*
X141832809Y-83807809D01*
X141973157Y-83597765D01*
X142022440Y-83350000D01*
X142022440Y-82550000D01*
X141973157Y-82302235D01*
X141912127Y-82210898D01*
X141913327Y-82209698D01*
X142010000Y-81976309D01*
X142010000Y-81735750D01*
X141851250Y-81577000D01*
X141127000Y-81577000D01*
X141127000Y-81597000D01*
X140873000Y-81597000D01*
X140873000Y-81577000D01*
X140148750Y-81577000D01*
X139990000Y-81735750D01*
X139990000Y-81976309D01*
X140086673Y-82209698D01*
X140087873Y-82210898D01*
X140026843Y-82302235D01*
X139977560Y-82550000D01*
X139977560Y-83350000D01*
X140026843Y-83597765D01*
X140167191Y-83807809D01*
X140240000Y-83856459D01*
X140240001Y-84893560D01*
X140169000Y-84893560D01*
X139921235Y-84942843D01*
X139711191Y-85083191D01*
X139570843Y-85293235D01*
X139521560Y-85541000D01*
X139521560Y-87941000D01*
X139570843Y-88188765D01*
X139711191Y-88398809D01*
X139921235Y-88539157D01*
X140169000Y-88588440D01*
X140290000Y-88588440D01*
X140290001Y-91391742D01*
X139827138Y-91583466D01*
X139423466Y-91987138D01*
X139370000Y-92116216D01*
X139316534Y-91987138D01*
X138912862Y-91583466D01*
X138385439Y-91365000D01*
X138110000Y-91365000D01*
X138110000Y-88588440D01*
X138469000Y-88588440D01*
X138716765Y-88539157D01*
X138926809Y-88398809D01*
X139067157Y-88188765D01*
X139116440Y-87941000D01*
X139116440Y-85541000D01*
X139067157Y-85293235D01*
X138926809Y-85083191D01*
X138716765Y-84942843D01*
X138469000Y-84893560D01*
X138110000Y-84893560D01*
X138110000Y-83889868D01*
X138232809Y-83807809D01*
X138373157Y-83597765D01*
X138422440Y-83350000D01*
X138422440Y-82550000D01*
X138373157Y-82302235D01*
X138312127Y-82210898D01*
X138313327Y-82209698D01*
X138410000Y-81976309D01*
X138410000Y-81735750D01*
X138251250Y-81577000D01*
X137527000Y-81577000D01*
X137527000Y-81597000D01*
X137273000Y-81597000D01*
X137273000Y-81577000D01*
X136548750Y-81577000D01*
X136390000Y-81735750D01*
X136390000Y-81976309D01*
X136486673Y-82209698D01*
X136487873Y-82210898D01*
X136426843Y-82302235D01*
X136377560Y-82550000D01*
X136377560Y-83350000D01*
X136426843Y-83597765D01*
X136567191Y-83807809D01*
X136590001Y-83823050D01*
X136590000Y-84893560D01*
X136469000Y-84893560D01*
X136274870Y-84932174D01*
X136183929Y-84796071D01*
X136120473Y-84753671D01*
X135282331Y-83915530D01*
X135239929Y-83852071D01*
X134988537Y-83684096D01*
X134766852Y-83640000D01*
X134766847Y-83640000D01*
X134692000Y-83625112D01*
X134617153Y-83640000D01*
X134608619Y-83640000D01*
X134635000Y-83576310D01*
X134635000Y-83285750D01*
X134476250Y-83127000D01*
X133875000Y-83127000D01*
X133875000Y-83147000D01*
X133729000Y-83147000D01*
X133729000Y-82853000D01*
X133875000Y-82853000D01*
X133875000Y-82873000D01*
X134476250Y-82873000D01*
X134635000Y-82714250D01*
X134635000Y-82423690D01*
X134588702Y-82311916D01*
X134598157Y-82297765D01*
X134647440Y-82050000D01*
X134647440Y-81150000D01*
X134598157Y-80902235D01*
X134457809Y-80692191D01*
X134265959Y-80564000D01*
X134551983Y-80564000D01*
X134895635Y-80421655D01*
X134928290Y-80389000D01*
X134955000Y-80389000D01*
X134955000Y-80449983D01*
X135097345Y-80793635D01*
X135360365Y-81056655D01*
X135704017Y-81199000D01*
X136075983Y-81199000D01*
X136390000Y-81068930D01*
X136390000Y-81164250D01*
X136548750Y-81323000D01*
X137273000Y-81323000D01*
X137273000Y-81303000D01*
X137527000Y-81303000D01*
X137527000Y-81323000D01*
X138251250Y-81323000D01*
X138410000Y-81164250D01*
X138410000Y-81024000D01*
X139137710Y-81024000D01*
X139297365Y-81183655D01*
X139641017Y-81326000D01*
X140012983Y-81326000D01*
X140111106Y-81285356D01*
X140148750Y-81323000D01*
X140522774Y-81323000D01*
X140530017Y-81326000D01*
X140901983Y-81326000D01*
X140957510Y-81303000D01*
X141127000Y-81303000D01*
X141127000Y-81323000D01*
X141411774Y-81323000D01*
X141419017Y-81326000D01*
X141790983Y-81326000D01*
X141798226Y-81323000D01*
X141851250Y-81323000D01*
X141888744Y-81285506D01*
X142134635Y-81183655D01*
X142397655Y-80920635D01*
X142540000Y-80576983D01*
X142540000Y-80205017D01*
X142397655Y-79861365D01*
X142134635Y-79598345D01*
X141790983Y-79456000D01*
X141744802Y-79456000D01*
X141280802Y-78992000D01*
X147499153Y-78992000D01*
X147574000Y-79006888D01*
X147648847Y-78992000D01*
X147648852Y-78992000D01*
X147870537Y-78947904D01*
X148121929Y-78779929D01*
X148164331Y-78716470D01*
X148744473Y-78136329D01*
X148807929Y-78093929D01*
X148975904Y-77842537D01*
X149020000Y-77620852D01*
X149020000Y-77620848D01*
X149034888Y-77546000D01*
X149020000Y-77471152D01*
X149020000Y-66618178D01*
X149330625Y-66410625D01*
X149530000Y-66112239D01*
X149729375Y-66410625D01*
G36*
X159889375Y-66410625D02*
X160200000Y-66618178D01*
X160200001Y-77231197D01*
X155395530Y-82035669D01*
X155332071Y-82078071D01*
X155164096Y-82329464D01*
X155120000Y-82551149D01*
X155120000Y-82551153D01*
X155105112Y-82626000D01*
X155120000Y-82700847D01*
X155120001Y-91561569D01*
X155067138Y-91583466D01*
X154663466Y-91987138D01*
X154610000Y-92116216D01*
X154556534Y-91987138D01*
X154152862Y-91583466D01*
X154100000Y-91561570D01*
X154100000Y-82305801D01*
X158904473Y-77501329D01*
X158967929Y-77458929D01*
X159135904Y-77207537D01*
X159180000Y-76985852D01*
X159180000Y-76985847D01*
X159194888Y-76911000D01*
X159180000Y-76836153D01*
X159180000Y-66618178D01*
X159490625Y-66410625D01*
X159690000Y-66112239D01*
X159889375Y-66410625D01*
X159889375Y-66410625D01*
G37*
X159889375Y-66410625D02*
X160200000Y-66618178D01*
X160200001Y-77231197D01*
X155395530Y-82035669D01*
X155332071Y-82078071D01*
X155164096Y-82329464D01*
X155120000Y-82551149D01*
X155120000Y-82551153D01*
X155105112Y-82626000D01*
X155120000Y-82700847D01*
X155120001Y-91561569D01*
X155067138Y-91583466D01*
X154663466Y-91987138D01*
X154610000Y-92116216D01*
X154556534Y-91987138D01*
X154152862Y-91583466D01*
X154100000Y-91561570D01*
X154100000Y-82305801D01*
X158904473Y-77501329D01*
X158967929Y-77458929D01*
X159135904Y-77207537D01*
X159180000Y-76985852D01*
X159180000Y-76985847D01*
X159194888Y-76911000D01*
X159180000Y-76836153D01*
X159180000Y-66618178D01*
X159490625Y-66410625D01*
X159690000Y-66112239D01*
X159889375Y-66410625D01*
G36*
X162429375Y-66410625D02*
X162740001Y-66618179D01*
X162740000Y-77231198D01*
X157935528Y-82035671D01*
X157872072Y-82078071D01*
X157829672Y-82141527D01*
X157829671Y-82141528D01*
X157704097Y-82329463D01*
X157645112Y-82626000D01*
X157660001Y-82700852D01*
X157660000Y-91561570D01*
X157607138Y-91583466D01*
X157203466Y-91987138D01*
X157150000Y-92116216D01*
X157096534Y-91987138D01*
X156692862Y-91583466D01*
X156640000Y-91561570D01*
X156640000Y-82940801D01*
X161444473Y-78136329D01*
X161507929Y-78093929D01*
X161675904Y-77842537D01*
X161720000Y-77620852D01*
X161720000Y-77620847D01*
X161734888Y-77546000D01*
X161720000Y-77471153D01*
X161720000Y-66618178D01*
X162030625Y-66410625D01*
X162230000Y-66112239D01*
X162429375Y-66410625D01*
X162429375Y-66410625D01*
G37*
X162429375Y-66410625D02*
X162740001Y-66618179D01*
X162740000Y-77231198D01*
X157935528Y-82035671D01*
X157872072Y-82078071D01*
X157829672Y-82141527D01*
X157829671Y-82141528D01*
X157704097Y-82329463D01*
X157645112Y-82626000D01*
X157660001Y-82700852D01*
X157660000Y-91561570D01*
X157607138Y-91583466D01*
X157203466Y-91987138D01*
X157150000Y-92116216D01*
X157096534Y-91987138D01*
X156692862Y-91583466D01*
X156640000Y-91561570D01*
X156640000Y-82940801D01*
X161444473Y-78136329D01*
X161507929Y-78093929D01*
X161675904Y-77842537D01*
X161720000Y-77620852D01*
X161720000Y-77620847D01*
X161734888Y-77546000D01*
X161720000Y-77471153D01*
X161720000Y-66618178D01*
X162030625Y-66410625D01*
X162230000Y-66112239D01*
X162429375Y-66410625D01*
G36*
X154809375Y-66410625D02*
X155120000Y-66618178D01*
X155120001Y-76723197D01*
X150315530Y-81527669D01*
X150252071Y-81570071D01*
X150084096Y-81821464D01*
X150040000Y-82043149D01*
X150040000Y-82043153D01*
X150025112Y-82118000D01*
X150040000Y-82192847D01*
X150040001Y-91561569D01*
X149987138Y-91583466D01*
X149583466Y-91987138D01*
X149530000Y-92116216D01*
X149476534Y-91987138D01*
X149072862Y-91583466D01*
X149020000Y-91561570D01*
X149020000Y-82686801D01*
X153824473Y-77882329D01*
X153887929Y-77839929D01*
X154055904Y-77588537D01*
X154100000Y-77366852D01*
X154100000Y-77366847D01*
X154114888Y-77292000D01*
X154100000Y-77217153D01*
X154100000Y-66618178D01*
X154410625Y-66410625D01*
X154610000Y-66112239D01*
X154809375Y-66410625D01*
X154809375Y-66410625D01*
G37*
X154809375Y-66410625D02*
X155120000Y-66618178D01*
X155120001Y-76723197D01*
X150315530Y-81527669D01*
X150252071Y-81570071D01*
X150084096Y-81821464D01*
X150040000Y-82043149D01*
X150040000Y-82043153D01*
X150025112Y-82118000D01*
X150040000Y-82192847D01*
X150040001Y-91561569D01*
X149987138Y-91583466D01*
X149583466Y-91987138D01*
X149530000Y-92116216D01*
X149476534Y-91987138D01*
X149072862Y-91583466D01*
X149020000Y-91561570D01*
X149020000Y-82686801D01*
X153824473Y-77882329D01*
X153887929Y-77839929D01*
X154055904Y-77588537D01*
X154100000Y-77366852D01*
X154100000Y-77366847D01*
X154114888Y-77292000D01*
X154100000Y-77217153D01*
X154100000Y-66618178D01*
X154410625Y-66410625D01*
X154610000Y-66112239D01*
X154809375Y-66410625D01*
G36*
X157349375Y-66410625D02*
X157660001Y-66618179D01*
X157660000Y-76596198D01*
X152855528Y-81400671D01*
X152792072Y-81443071D01*
X152749672Y-81506527D01*
X152749671Y-81506528D01*
X152624097Y-81694463D01*
X152565112Y-81991000D01*
X152580001Y-82065852D01*
X152580000Y-91561570D01*
X152527138Y-91583466D01*
X152123466Y-91987138D01*
X152070000Y-92116216D01*
X152016534Y-91987138D01*
X151612862Y-91583466D01*
X151560000Y-91561570D01*
X151560000Y-82432801D01*
X156364473Y-77628329D01*
X156427929Y-77585929D01*
X156595904Y-77334537D01*
X156640000Y-77112852D01*
X156640000Y-77112847D01*
X156654888Y-77038000D01*
X156640000Y-76963153D01*
X156640000Y-66618178D01*
X156950625Y-66410625D01*
X157150000Y-66112239D01*
X157349375Y-66410625D01*
X157349375Y-66410625D01*
G37*
X157349375Y-66410625D02*
X157660001Y-66618179D01*
X157660000Y-76596198D01*
X152855528Y-81400671D01*
X152792072Y-81443071D01*
X152749672Y-81506527D01*
X152749671Y-81506528D01*
X152624097Y-81694463D01*
X152565112Y-81991000D01*
X152580001Y-82065852D01*
X152580000Y-91561570D01*
X152527138Y-91583466D01*
X152123466Y-91987138D01*
X152070000Y-92116216D01*
X152016534Y-91987138D01*
X151612862Y-91583466D01*
X151560000Y-91561570D01*
X151560000Y-82432801D01*
X156364473Y-77628329D01*
X156427929Y-77585929D01*
X156595904Y-77334537D01*
X156640000Y-77112852D01*
X156640000Y-77112847D01*
X156654888Y-77038000D01*
X156640000Y-76963153D01*
X156640000Y-66618178D01*
X156950625Y-66410625D01*
X157150000Y-66112239D01*
X157349375Y-66410625D01*
G36*
X164145259Y-79006026D02*
X164773974Y-79634741D01*
X165595431Y-79975000D01*
X166484569Y-79975000D01*
X167306026Y-79634741D01*
X167890001Y-79050766D01*
X167890001Y-88515199D01*
X166481209Y-87106408D01*
X166554092Y-86740000D01*
X166438839Y-86160582D01*
X166110625Y-85669375D01*
X165812239Y-85470000D01*
X166110625Y-85270625D01*
X166438839Y-84779418D01*
X166554092Y-84200000D01*
X166438839Y-83620582D01*
X166110625Y-83129375D01*
X165619418Y-82801161D01*
X165186256Y-82715000D01*
X164893744Y-82715000D01*
X164460582Y-82801161D01*
X163969375Y-83129375D01*
X163957184Y-83147619D01*
X163948157Y-83102235D01*
X163807809Y-82892191D01*
X163597765Y-82751843D01*
X163350000Y-82702560D01*
X161650000Y-82702560D01*
X161402235Y-82751843D01*
X161192191Y-82892191D01*
X161051843Y-83102235D01*
X161002560Y-83350000D01*
X161002560Y-85050000D01*
X161051843Y-85297765D01*
X161192191Y-85507809D01*
X161402235Y-85648157D01*
X161447619Y-85657184D01*
X161429375Y-85669375D01*
X161101161Y-86160582D01*
X160985908Y-86740000D01*
X161068911Y-87157287D01*
X160551530Y-87674669D01*
X160488071Y-87717071D01*
X160320096Y-87968464D01*
X160276000Y-88190149D01*
X160276000Y-88190153D01*
X160261112Y-88265000D01*
X160276000Y-88339847D01*
X160276001Y-89968148D01*
X160261112Y-90043000D01*
X160276001Y-90117852D01*
X160320097Y-90339537D01*
X160488072Y-90590929D01*
X160551528Y-90633329D01*
X161270759Y-91352560D01*
X160160000Y-91352560D01*
X159912235Y-91401843D01*
X159702191Y-91542191D01*
X159561843Y-91752235D01*
X159535262Y-91885866D01*
X159232862Y-91583466D01*
X159180000Y-91561570D01*
X159180000Y-82940801D01*
X163843437Y-78277365D01*
X164145259Y-79006026D01*
X164145259Y-79006026D01*
G37*
X164145259Y-79006026D02*
X164773974Y-79634741D01*
X165595431Y-79975000D01*
X166484569Y-79975000D01*
X167306026Y-79634741D01*
X167890001Y-79050766D01*
X167890001Y-88515199D01*
X166481209Y-87106408D01*
X166554092Y-86740000D01*
X166438839Y-86160582D01*
X166110625Y-85669375D01*
X165812239Y-85470000D01*
X166110625Y-85270625D01*
X166438839Y-84779418D01*
X166554092Y-84200000D01*
X166438839Y-83620582D01*
X166110625Y-83129375D01*
X165619418Y-82801161D01*
X165186256Y-82715000D01*
X164893744Y-82715000D01*
X164460582Y-82801161D01*
X163969375Y-83129375D01*
X163957184Y-83147619D01*
X163948157Y-83102235D01*
X163807809Y-82892191D01*
X163597765Y-82751843D01*
X163350000Y-82702560D01*
X161650000Y-82702560D01*
X161402235Y-82751843D01*
X161192191Y-82892191D01*
X161051843Y-83102235D01*
X161002560Y-83350000D01*
X161002560Y-85050000D01*
X161051843Y-85297765D01*
X161192191Y-85507809D01*
X161402235Y-85648157D01*
X161447619Y-85657184D01*
X161429375Y-85669375D01*
X161101161Y-86160582D01*
X160985908Y-86740000D01*
X161068911Y-87157287D01*
X160551530Y-87674669D01*
X160488071Y-87717071D01*
X160320096Y-87968464D01*
X160276000Y-88190149D01*
X160276000Y-88190153D01*
X160261112Y-88265000D01*
X160276000Y-88339847D01*
X160276001Y-89968148D01*
X160261112Y-90043000D01*
X160276001Y-90117852D01*
X160320097Y-90339537D01*
X160488072Y-90590929D01*
X160551528Y-90633329D01*
X161270759Y-91352560D01*
X160160000Y-91352560D01*
X159912235Y-91401843D01*
X159702191Y-91542191D01*
X159561843Y-91752235D01*
X159535262Y-91885866D01*
X159232862Y-91583466D01*
X159180000Y-91561570D01*
X159180000Y-82940801D01*
X163843437Y-78277365D01*
X164145259Y-79006026D01*
G36*
X119890000Y-82402002D02*
X119961116Y-82402002D01*
X119909404Y-82526846D01*
X119890000Y-82546250D01*
X119890000Y-82653750D01*
X119909404Y-82673154D01*
X119986673Y-82859698D01*
X120047955Y-82920980D01*
X119926843Y-83102235D01*
X119912647Y-83173603D01*
X119890000Y-83196250D01*
X119890000Y-83276309D01*
X119891498Y-83279926D01*
X119877560Y-83350000D01*
X119877560Y-83800000D01*
X119897451Y-83900000D01*
X119877560Y-84000000D01*
X119877560Y-84450000D01*
X119926843Y-84697765D01*
X120067191Y-84907809D01*
X120277235Y-85048157D01*
X120525000Y-85097440D01*
X122275000Y-85097440D01*
X122423000Y-85068001D01*
X122423000Y-87124000D01*
X115884802Y-87124000D01*
X115314000Y-86553199D01*
X115314000Y-82858290D01*
X115346655Y-82825635D01*
X115489000Y-82481983D01*
X115489000Y-82421000D01*
X119559153Y-82421000D01*
X119634000Y-82435888D01*
X119708847Y-82421000D01*
X119708852Y-82421000D01*
X119890000Y-82384967D01*
X119890000Y-82402002D01*
X119890000Y-82402002D01*
G37*
X119890000Y-82402002D02*
X119961116Y-82402002D01*
X119909404Y-82526846D01*
X119890000Y-82546250D01*
X119890000Y-82653750D01*
X119909404Y-82673154D01*
X119986673Y-82859698D01*
X120047955Y-82920980D01*
X119926843Y-83102235D01*
X119912647Y-83173603D01*
X119890000Y-83196250D01*
X119890000Y-83276309D01*
X119891498Y-83279926D01*
X119877560Y-83350000D01*
X119877560Y-83800000D01*
X119897451Y-83900000D01*
X119877560Y-84000000D01*
X119877560Y-84450000D01*
X119926843Y-84697765D01*
X120067191Y-84907809D01*
X120277235Y-85048157D01*
X120525000Y-85097440D01*
X122275000Y-85097440D01*
X122423000Y-85068001D01*
X122423000Y-87124000D01*
X115884802Y-87124000D01*
X115314000Y-86553199D01*
X115314000Y-82858290D01*
X115346655Y-82825635D01*
X115489000Y-82481983D01*
X115489000Y-82421000D01*
X119559153Y-82421000D01*
X119634000Y-82435888D01*
X119708847Y-82421000D01*
X119708852Y-82421000D01*
X119890000Y-82384967D01*
X119890000Y-82402002D01*
G36*
X165390000Y-61294092D02*
X165390001Y-73730071D01*
X165376091Y-73800000D01*
X165416869Y-74005000D01*
X165431196Y-74077028D01*
X165588120Y-74311881D01*
X165647402Y-74351492D01*
X167024595Y-75728686D01*
X166484569Y-75505000D01*
X165595431Y-75505000D01*
X164773974Y-75845259D01*
X164260000Y-76359233D01*
X164260000Y-66618178D01*
X164570625Y-66410625D01*
X164898839Y-65919418D01*
X165014092Y-65340000D01*
X164898839Y-64760582D01*
X164570625Y-64269375D01*
X164272239Y-64070000D01*
X164570625Y-63870625D01*
X164898839Y-63379418D01*
X165014092Y-62800000D01*
X164898839Y-62220582D01*
X164570625Y-61729375D01*
X164079418Y-61401161D01*
X163646256Y-61315000D01*
X163353744Y-61315000D01*
X162920582Y-61401161D01*
X162429375Y-61729375D01*
X162230000Y-62027761D01*
X162030625Y-61729375D01*
X161539418Y-61401161D01*
X161106256Y-61315000D01*
X160813744Y-61315000D01*
X160380582Y-61401161D01*
X159889375Y-61729375D01*
X159690000Y-62027761D01*
X159490625Y-61729375D01*
X158999418Y-61401161D01*
X158566256Y-61315000D01*
X158273744Y-61315000D01*
X157840582Y-61401161D01*
X157349375Y-61729375D01*
X157150000Y-62027761D01*
X156950625Y-61729375D01*
X156459418Y-61401161D01*
X156026256Y-61315000D01*
X155733744Y-61315000D01*
X155300582Y-61401161D01*
X154809375Y-61729375D01*
X154610000Y-62027761D01*
X154410625Y-61729375D01*
X153919418Y-61401161D01*
X153486256Y-61315000D01*
X153193744Y-61315000D01*
X152760582Y-61401161D01*
X152269375Y-61729375D01*
X152070000Y-62027761D01*
X151870625Y-61729375D01*
X151379418Y-61401161D01*
X150946256Y-61315000D01*
X150653744Y-61315000D01*
X150220582Y-61401161D01*
X149729375Y-61729375D01*
X149530000Y-62027761D01*
X149330625Y-61729375D01*
X148839418Y-61401161D01*
X148406256Y-61315000D01*
X148113744Y-61315000D01*
X147680582Y-61401161D01*
X147189375Y-61729375D01*
X147177184Y-61747619D01*
X147168157Y-61702235D01*
X147027809Y-61492191D01*
X146817765Y-61351843D01*
X146570000Y-61302560D01*
X144870000Y-61302560D01*
X144622235Y-61351843D01*
X144412191Y-61492191D01*
X144271843Y-61702235D01*
X144222560Y-61950000D01*
X144222560Y-63650000D01*
X144271843Y-63897765D01*
X144386928Y-64070000D01*
X144271843Y-64242235D01*
X144222560Y-64490000D01*
X144222560Y-66190000D01*
X144271843Y-66437765D01*
X144412191Y-66647809D01*
X144622235Y-66788157D01*
X144870000Y-66837440D01*
X144960001Y-66837440D01*
X144960000Y-76723198D01*
X144846198Y-76837000D01*
X132281848Y-76837000D01*
X132207000Y-76822112D01*
X132132152Y-76837000D01*
X132132148Y-76837000D01*
X131958605Y-76871520D01*
X131910462Y-76881096D01*
X131779199Y-76968804D01*
X131659071Y-77049071D01*
X131616671Y-77112527D01*
X130960529Y-77768670D01*
X130897071Y-77811071D01*
X130729096Y-78062463D01*
X130711429Y-78151281D01*
X130652345Y-78210365D01*
X130510000Y-78554017D01*
X130510000Y-78925983D01*
X130652345Y-79269635D01*
X130915365Y-79532655D01*
X131259017Y-79675000D01*
X131272000Y-79675000D01*
X131272000Y-79687983D01*
X131414345Y-80031635D01*
X131677365Y-80294655D01*
X132021017Y-80437000D01*
X132392983Y-80437000D01*
X132736635Y-80294655D01*
X132999655Y-80031635D01*
X133045105Y-79921908D01*
X133371635Y-79786655D01*
X133404290Y-79754000D01*
X133431000Y-79754000D01*
X133431000Y-79814983D01*
X133573345Y-80158635D01*
X133836365Y-80421655D01*
X134060962Y-80514686D01*
X134000000Y-80502560D01*
X133500000Y-80502560D01*
X133252235Y-80551843D01*
X133042191Y-80692191D01*
X133000000Y-80755334D01*
X132957809Y-80692191D01*
X132747765Y-80551843D01*
X132500000Y-80502560D01*
X132000000Y-80502560D01*
X131752235Y-80551843D01*
X131542191Y-80692191D01*
X131443427Y-80840000D01*
X130122440Y-80840000D01*
X130122440Y-80750000D01*
X130108502Y-80679926D01*
X130110000Y-80676309D01*
X130110000Y-80596250D01*
X130087353Y-80573603D01*
X130073157Y-80502235D01*
X129954731Y-80325000D01*
X130073157Y-80147765D01*
X130087353Y-80076397D01*
X130110000Y-80053750D01*
X130110000Y-79973691D01*
X130108502Y-79970074D01*
X130122440Y-79900000D01*
X130122440Y-79450000D01*
X130102549Y-79350000D01*
X130122440Y-79250000D01*
X130122440Y-78800000D01*
X130102549Y-78700000D01*
X130122440Y-78600000D01*
X130122440Y-78150000D01*
X130102549Y-78050000D01*
X130122440Y-77950000D01*
X130122440Y-77500000D01*
X130102549Y-77400000D01*
X130122440Y-77300000D01*
X130122440Y-76850000D01*
X130102549Y-76750000D01*
X130122440Y-76650000D01*
X130122440Y-76200000D01*
X130102549Y-76100000D01*
X130122440Y-76000000D01*
X130122440Y-75563000D01*
X140133153Y-75563000D01*
X140208000Y-75577888D01*
X140282847Y-75563000D01*
X140282852Y-75563000D01*
X140504537Y-75518904D01*
X140755929Y-75350929D01*
X140798331Y-75287470D01*
X142140473Y-73945329D01*
X142203929Y-73902929D01*
X142371904Y-73651537D01*
X142416000Y-73429852D01*
X142416000Y-73429848D01*
X142430888Y-73355001D01*
X142416000Y-73280154D01*
X142416000Y-66618178D01*
X142726625Y-66410625D01*
X143054839Y-65919418D01*
X143170092Y-65340000D01*
X143054839Y-64760582D01*
X142726625Y-64269375D01*
X142428239Y-64070000D01*
X142726625Y-63870625D01*
X143054839Y-63379418D01*
X143170092Y-62800000D01*
X143054839Y-62220582D01*
X142726625Y-61729375D01*
X142235418Y-61401161D01*
X141802256Y-61315000D01*
X141509744Y-61315000D01*
X141076582Y-61401161D01*
X140585375Y-61729375D01*
X140386000Y-62027761D01*
X140186625Y-61729375D01*
X139695418Y-61401161D01*
X139262256Y-61315000D01*
X138969744Y-61315000D01*
X138536582Y-61401161D01*
X138045375Y-61729375D01*
X137846000Y-62027761D01*
X137646625Y-61729375D01*
X137155418Y-61401161D01*
X136722256Y-61315000D01*
X136429744Y-61315000D01*
X135996582Y-61401161D01*
X135505375Y-61729375D01*
X135306000Y-62027761D01*
X135106625Y-61729375D01*
X134615418Y-61401161D01*
X134182256Y-61315000D01*
X133889744Y-61315000D01*
X133456582Y-61401161D01*
X132965375Y-61729375D01*
X132766000Y-62027761D01*
X132566625Y-61729375D01*
X132075418Y-61401161D01*
X131642256Y-61315000D01*
X131349744Y-61315000D01*
X130916582Y-61401161D01*
X130425375Y-61729375D01*
X130226000Y-62027761D01*
X130026625Y-61729375D01*
X129535418Y-61401161D01*
X129102256Y-61315000D01*
X128809744Y-61315000D01*
X128376582Y-61401161D01*
X127885375Y-61729375D01*
X127672157Y-62048478D01*
X127611183Y-61918642D01*
X127182924Y-61528355D01*
X126772890Y-61358524D01*
X126543000Y-61479845D01*
X126543000Y-62673000D01*
X126563000Y-62673000D01*
X126563000Y-62927000D01*
X126543000Y-62927000D01*
X126543000Y-65213000D01*
X126563000Y-65213000D01*
X126563000Y-65467000D01*
X126543000Y-65467000D01*
X126543000Y-66660155D01*
X126772890Y-66781476D01*
X127182924Y-66611645D01*
X127611183Y-66221358D01*
X127672157Y-66091522D01*
X127885375Y-66410625D01*
X128376582Y-66738839D01*
X128809744Y-66825000D01*
X129102256Y-66825000D01*
X129535418Y-66738839D01*
X130026625Y-66410625D01*
X130226000Y-66112239D01*
X130425375Y-66410625D01*
X130916582Y-66738839D01*
X131349744Y-66825000D01*
X131642256Y-66825000D01*
X132075418Y-66738839D01*
X132566625Y-66410625D01*
X132766000Y-66112239D01*
X132965375Y-66410625D01*
X133456582Y-66738839D01*
X133889744Y-66825000D01*
X134182256Y-66825000D01*
X134615418Y-66738839D01*
X135106625Y-66410625D01*
X135306000Y-66112239D01*
X135505375Y-66410625D01*
X135996582Y-66738839D01*
X136429744Y-66825000D01*
X136722256Y-66825000D01*
X137155418Y-66738839D01*
X137646625Y-66410625D01*
X137846000Y-66112239D01*
X138045375Y-66410625D01*
X138536582Y-66738839D01*
X138969744Y-66825000D01*
X139262256Y-66825000D01*
X139695418Y-66738839D01*
X140186625Y-66410625D01*
X140386000Y-66112239D01*
X140585375Y-66410625D01*
X140896001Y-66618179D01*
X140896000Y-73040198D01*
X139893199Y-74043000D01*
X129594290Y-74043000D01*
X129561635Y-74010345D01*
X129217983Y-73868000D01*
X128846017Y-73868000D01*
X128502365Y-74010345D01*
X128239345Y-74273365D01*
X128097000Y-74617017D01*
X128097000Y-74902560D01*
X127725000Y-74902560D01*
X127477235Y-74951843D01*
X127267191Y-75092191D01*
X127126843Y-75302235D01*
X127077560Y-75550000D01*
X127077560Y-76000000D01*
X127097451Y-76100000D01*
X127077560Y-76200000D01*
X127077560Y-76650000D01*
X127097451Y-76750000D01*
X127077560Y-76850000D01*
X127077560Y-77300000D01*
X127097451Y-77400000D01*
X127077560Y-77500000D01*
X127077560Y-77950000D01*
X127097451Y-78050000D01*
X127077560Y-78150000D01*
X127077560Y-78600000D01*
X127097451Y-78700000D01*
X127077560Y-78800000D01*
X127077560Y-79250000D01*
X127097451Y-79350000D01*
X127077560Y-79450000D01*
X127077560Y-79900000D01*
X127091498Y-79970074D01*
X127090000Y-79973691D01*
X127090000Y-80053750D01*
X127112647Y-80076397D01*
X127126843Y-80147765D01*
X127245269Y-80325000D01*
X127126843Y-80502235D01*
X127112647Y-80573603D01*
X127090000Y-80596250D01*
X127090000Y-80676309D01*
X127091498Y-80679926D01*
X127077560Y-80750000D01*
X127077560Y-81200000D01*
X127097451Y-81300000D01*
X127077560Y-81400000D01*
X127077560Y-81515000D01*
X126887290Y-81515000D01*
X126754635Y-81382345D01*
X126410983Y-81240000D01*
X126236000Y-81240000D01*
X126236000Y-75766848D01*
X126250888Y-75692000D01*
X126236000Y-75617152D01*
X126236000Y-75617148D01*
X126191904Y-75395463D01*
X126191904Y-75395462D01*
X126066329Y-75207527D01*
X126023929Y-75144071D01*
X125960473Y-75101671D01*
X125304331Y-74445530D01*
X125261929Y-74382071D01*
X125010537Y-74214096D01*
X124788852Y-74170000D01*
X124788847Y-74170000D01*
X124714000Y-74155112D01*
X124639153Y-74170000D01*
X122347000Y-74170000D01*
X122347000Y-73982017D01*
X122204655Y-73638365D01*
X122096000Y-73529710D01*
X122096000Y-70900000D01*
X128752560Y-70900000D01*
X128752560Y-71700000D01*
X128801843Y-71947765D01*
X128935125Y-72147234D01*
X128859000Y-72331017D01*
X128859000Y-72702983D01*
X129001345Y-73046635D01*
X129264365Y-73309655D01*
X129608017Y-73452000D01*
X129979983Y-73452000D01*
X130323635Y-73309655D01*
X130586655Y-73046635D01*
X130729000Y-72702983D01*
X130729000Y-72331017D01*
X130701289Y-72264115D01*
X130752235Y-72298157D01*
X131000000Y-72347440D01*
X131800000Y-72347440D01*
X132047765Y-72298157D01*
X132257809Y-72157809D01*
X132398157Y-71947765D01*
X132447440Y-71700000D01*
X132447440Y-70900000D01*
X132398157Y-70652235D01*
X132257809Y-70442191D01*
X132110000Y-70343427D01*
X132110000Y-69329700D01*
X132198157Y-69197765D01*
X132247440Y-68950000D01*
X132247440Y-68050000D01*
X132198157Y-67802235D01*
X132057809Y-67592191D01*
X131847765Y-67451843D01*
X131600000Y-67402560D01*
X131100000Y-67402560D01*
X130852235Y-67451843D01*
X130642191Y-67592191D01*
X130601346Y-67653320D01*
X130459698Y-67511673D01*
X130226309Y-67415000D01*
X130133750Y-67415000D01*
X129975000Y-67573750D01*
X129975000Y-68373000D01*
X129997000Y-68373000D01*
X129997000Y-68627000D01*
X129975000Y-68627000D01*
X129975000Y-69426250D01*
X130133750Y-69585000D01*
X130226309Y-69585000D01*
X130459698Y-69488327D01*
X130590000Y-69358025D01*
X130590001Y-70396883D01*
X130447765Y-70301843D01*
X130200000Y-70252560D01*
X129400000Y-70252560D01*
X129152235Y-70301843D01*
X128942191Y-70442191D01*
X128801843Y-70652235D01*
X128752560Y-70900000D01*
X122096000Y-70900000D01*
X122096000Y-68785750D01*
X128965000Y-68785750D01*
X128965000Y-69076310D01*
X129061673Y-69309699D01*
X129240302Y-69488327D01*
X129473691Y-69585000D01*
X129566250Y-69585000D01*
X129725000Y-69426250D01*
X129725000Y-68627000D01*
X129123750Y-68627000D01*
X128965000Y-68785750D01*
X122096000Y-68785750D01*
X122096000Y-67923690D01*
X128965000Y-67923690D01*
X128965000Y-68214250D01*
X129123750Y-68373000D01*
X129725000Y-68373000D01*
X129725000Y-67573750D01*
X129566250Y-67415000D01*
X129473691Y-67415000D01*
X129240302Y-67511673D01*
X129061673Y-67690301D01*
X128965000Y-67923690D01*
X122096000Y-67923690D01*
X122096000Y-66618178D01*
X122406625Y-66410625D01*
X122606000Y-66112239D01*
X122805375Y-66410625D01*
X123296582Y-66738839D01*
X123729744Y-66825000D01*
X124022256Y-66825000D01*
X124455418Y-66738839D01*
X124946625Y-66410625D01*
X125159843Y-66091522D01*
X125220817Y-66221358D01*
X125649076Y-66611645D01*
X126059110Y-66781476D01*
X126289000Y-66660155D01*
X126289000Y-65467000D01*
X126269000Y-65467000D01*
X126269000Y-65213000D01*
X126289000Y-65213000D01*
X126289000Y-62927000D01*
X126269000Y-62927000D01*
X126269000Y-62673000D01*
X126289000Y-62673000D01*
X126289000Y-61479845D01*
X126059110Y-61358524D01*
X125649076Y-61528355D01*
X125220817Y-61918642D01*
X125159843Y-62048478D01*
X124946625Y-61729375D01*
X124455418Y-61401161D01*
X124022256Y-61315000D01*
X123729744Y-61315000D01*
X123296582Y-61401161D01*
X122805375Y-61729375D01*
X122606000Y-62027761D01*
X122406625Y-61729375D01*
X121915418Y-61401161D01*
X121482256Y-61315000D01*
X121189744Y-61315000D01*
X120756582Y-61401161D01*
X120265375Y-61729375D01*
X120253184Y-61747619D01*
X120244157Y-61702235D01*
X120103809Y-61492191D01*
X119893765Y-61351843D01*
X119646000Y-61302560D01*
X117946000Y-61302560D01*
X117698235Y-61351843D01*
X117488191Y-61492191D01*
X117348812Y-61700785D01*
X117134741Y-61183974D01*
X116660767Y-60710000D01*
X164805910Y-60710000D01*
X165390000Y-61294092D01*
X165390000Y-61294092D01*
G37*
X165390000Y-61294092D02*
X165390001Y-73730071D01*
X165376091Y-73800000D01*
X165416869Y-74005000D01*
X165431196Y-74077028D01*
X165588120Y-74311881D01*
X165647402Y-74351492D01*
X167024595Y-75728686D01*
X166484569Y-75505000D01*
X165595431Y-75505000D01*
X164773974Y-75845259D01*
X164260000Y-76359233D01*
X164260000Y-66618178D01*
X164570625Y-66410625D01*
X164898839Y-65919418D01*
X165014092Y-65340000D01*
X164898839Y-64760582D01*
X164570625Y-64269375D01*
X164272239Y-64070000D01*
X164570625Y-63870625D01*
X164898839Y-63379418D01*
X165014092Y-62800000D01*
X164898839Y-62220582D01*
X164570625Y-61729375D01*
X164079418Y-61401161D01*
X163646256Y-61315000D01*
X163353744Y-61315000D01*
X162920582Y-61401161D01*
X162429375Y-61729375D01*
X162230000Y-62027761D01*
X162030625Y-61729375D01*
X161539418Y-61401161D01*
X161106256Y-61315000D01*
X160813744Y-61315000D01*
X160380582Y-61401161D01*
X159889375Y-61729375D01*
X159690000Y-62027761D01*
X159490625Y-61729375D01*
X158999418Y-61401161D01*
X158566256Y-61315000D01*
X158273744Y-61315000D01*
X157840582Y-61401161D01*
X157349375Y-61729375D01*
X157150000Y-62027761D01*
X156950625Y-61729375D01*
X156459418Y-61401161D01*
X156026256Y-61315000D01*
X155733744Y-61315000D01*
X155300582Y-61401161D01*
X154809375Y-61729375D01*
X154610000Y-62027761D01*
X154410625Y-61729375D01*
X153919418Y-61401161D01*
X153486256Y-61315000D01*
X153193744Y-61315000D01*
X152760582Y-61401161D01*
X152269375Y-61729375D01*
X152070000Y-62027761D01*
X151870625Y-61729375D01*
X151379418Y-61401161D01*
X150946256Y-61315000D01*
X150653744Y-61315000D01*
X150220582Y-61401161D01*
X149729375Y-61729375D01*
X149530000Y-62027761D01*
X149330625Y-61729375D01*
X148839418Y-61401161D01*
X148406256Y-61315000D01*
X148113744Y-61315000D01*
X147680582Y-61401161D01*
X147189375Y-61729375D01*
X147177184Y-61747619D01*
X147168157Y-61702235D01*
X147027809Y-61492191D01*
X146817765Y-61351843D01*
X146570000Y-61302560D01*
X144870000Y-61302560D01*
X144622235Y-61351843D01*
X144412191Y-61492191D01*
X144271843Y-61702235D01*
X144222560Y-61950000D01*
X144222560Y-63650000D01*
X144271843Y-63897765D01*
X144386928Y-64070000D01*
X144271843Y-64242235D01*
X144222560Y-64490000D01*
X144222560Y-66190000D01*
X144271843Y-66437765D01*
X144412191Y-66647809D01*
X144622235Y-66788157D01*
X144870000Y-66837440D01*
X144960001Y-66837440D01*
X144960000Y-76723198D01*
X144846198Y-76837000D01*
X132281848Y-76837000D01*
X132207000Y-76822112D01*
X132132152Y-76837000D01*
X132132148Y-76837000D01*
X131958605Y-76871520D01*
X131910462Y-76881096D01*
X131779199Y-76968804D01*
X131659071Y-77049071D01*
X131616671Y-77112527D01*
X130960529Y-77768670D01*
X130897071Y-77811071D01*
X130729096Y-78062463D01*
X130711429Y-78151281D01*
X130652345Y-78210365D01*
X130510000Y-78554017D01*
X130510000Y-78925983D01*
X130652345Y-79269635D01*
X130915365Y-79532655D01*
X131259017Y-79675000D01*
X131272000Y-79675000D01*
X131272000Y-79687983D01*
X131414345Y-80031635D01*
X131677365Y-80294655D01*
X132021017Y-80437000D01*
X132392983Y-80437000D01*
X132736635Y-80294655D01*
X132999655Y-80031635D01*
X133045105Y-79921908D01*
X133371635Y-79786655D01*
X133404290Y-79754000D01*
X133431000Y-79754000D01*
X133431000Y-79814983D01*
X133573345Y-80158635D01*
X133836365Y-80421655D01*
X134060962Y-80514686D01*
X134000000Y-80502560D01*
X133500000Y-80502560D01*
X133252235Y-80551843D01*
X133042191Y-80692191D01*
X133000000Y-80755334D01*
X132957809Y-80692191D01*
X132747765Y-80551843D01*
X132500000Y-80502560D01*
X132000000Y-80502560D01*
X131752235Y-80551843D01*
X131542191Y-80692191D01*
X131443427Y-80840000D01*
X130122440Y-80840000D01*
X130122440Y-80750000D01*
X130108502Y-80679926D01*
X130110000Y-80676309D01*
X130110000Y-80596250D01*
X130087353Y-80573603D01*
X130073157Y-80502235D01*
X129954731Y-80325000D01*
X130073157Y-80147765D01*
X130087353Y-80076397D01*
X130110000Y-80053750D01*
X130110000Y-79973691D01*
X130108502Y-79970074D01*
X130122440Y-79900000D01*
X130122440Y-79450000D01*
X130102549Y-79350000D01*
X130122440Y-79250000D01*
X130122440Y-78800000D01*
X130102549Y-78700000D01*
X130122440Y-78600000D01*
X130122440Y-78150000D01*
X130102549Y-78050000D01*
X130122440Y-77950000D01*
X130122440Y-77500000D01*
X130102549Y-77400000D01*
X130122440Y-77300000D01*
X130122440Y-76850000D01*
X130102549Y-76750000D01*
X130122440Y-76650000D01*
X130122440Y-76200000D01*
X130102549Y-76100000D01*
X130122440Y-76000000D01*
X130122440Y-75563000D01*
X140133153Y-75563000D01*
X140208000Y-75577888D01*
X140282847Y-75563000D01*
X140282852Y-75563000D01*
X140504537Y-75518904D01*
X140755929Y-75350929D01*
X140798331Y-75287470D01*
X142140473Y-73945329D01*
X142203929Y-73902929D01*
X142371904Y-73651537D01*
X142416000Y-73429852D01*
X142416000Y-73429848D01*
X142430888Y-73355001D01*
X142416000Y-73280154D01*
X142416000Y-66618178D01*
X142726625Y-66410625D01*
X143054839Y-65919418D01*
X143170092Y-65340000D01*
X143054839Y-64760582D01*
X142726625Y-64269375D01*
X142428239Y-64070000D01*
X142726625Y-63870625D01*
X143054839Y-63379418D01*
X143170092Y-62800000D01*
X143054839Y-62220582D01*
X142726625Y-61729375D01*
X142235418Y-61401161D01*
X141802256Y-61315000D01*
X141509744Y-61315000D01*
X141076582Y-61401161D01*
X140585375Y-61729375D01*
X140386000Y-62027761D01*
X140186625Y-61729375D01*
X139695418Y-61401161D01*
X139262256Y-61315000D01*
X138969744Y-61315000D01*
X138536582Y-61401161D01*
X138045375Y-61729375D01*
X137846000Y-62027761D01*
X137646625Y-61729375D01*
X137155418Y-61401161D01*
X136722256Y-61315000D01*
X136429744Y-61315000D01*
X135996582Y-61401161D01*
X135505375Y-61729375D01*
X135306000Y-62027761D01*
X135106625Y-61729375D01*
X134615418Y-61401161D01*
X134182256Y-61315000D01*
X133889744Y-61315000D01*
X133456582Y-61401161D01*
X132965375Y-61729375D01*
X132766000Y-62027761D01*
X132566625Y-61729375D01*
X132075418Y-61401161D01*
X131642256Y-61315000D01*
X131349744Y-61315000D01*
X130916582Y-61401161D01*
X130425375Y-61729375D01*
X130226000Y-62027761D01*
X130026625Y-61729375D01*
X129535418Y-61401161D01*
X129102256Y-61315000D01*
X128809744Y-61315000D01*
X128376582Y-61401161D01*
X127885375Y-61729375D01*
X127672157Y-62048478D01*
X127611183Y-61918642D01*
X127182924Y-61528355D01*
X126772890Y-61358524D01*
X126543000Y-61479845D01*
X126543000Y-62673000D01*
X126563000Y-62673000D01*
X126563000Y-62927000D01*
X126543000Y-62927000D01*
X126543000Y-65213000D01*
X126563000Y-65213000D01*
X126563000Y-65467000D01*
X126543000Y-65467000D01*
X126543000Y-66660155D01*
X126772890Y-66781476D01*
X127182924Y-66611645D01*
X127611183Y-66221358D01*
X127672157Y-66091522D01*
X127885375Y-66410625D01*
X128376582Y-66738839D01*
X128809744Y-66825000D01*
X129102256Y-66825000D01*
X129535418Y-66738839D01*
X130026625Y-66410625D01*
X130226000Y-66112239D01*
X130425375Y-66410625D01*
X130916582Y-66738839D01*
X131349744Y-66825000D01*
X131642256Y-66825000D01*
X132075418Y-66738839D01*
X132566625Y-66410625D01*
X132766000Y-66112239D01*
X132965375Y-66410625D01*
X133456582Y-66738839D01*
X133889744Y-66825000D01*
X134182256Y-66825000D01*
X134615418Y-66738839D01*
X135106625Y-66410625D01*
X135306000Y-66112239D01*
X135505375Y-66410625D01*
X135996582Y-66738839D01*
X136429744Y-66825000D01*
X136722256Y-66825000D01*
X137155418Y-66738839D01*
X137646625Y-66410625D01*
X137846000Y-66112239D01*
X138045375Y-66410625D01*
X138536582Y-66738839D01*
X138969744Y-66825000D01*
X139262256Y-66825000D01*
X139695418Y-66738839D01*
X140186625Y-66410625D01*
X140386000Y-66112239D01*
X140585375Y-66410625D01*
X140896001Y-66618179D01*
X140896000Y-73040198D01*
X139893199Y-74043000D01*
X129594290Y-74043000D01*
X129561635Y-74010345D01*
X129217983Y-73868000D01*
X128846017Y-73868000D01*
X128502365Y-74010345D01*
X128239345Y-74273365D01*
X128097000Y-74617017D01*
X128097000Y-74902560D01*
X127725000Y-74902560D01*
X127477235Y-74951843D01*
X127267191Y-75092191D01*
X127126843Y-75302235D01*
X127077560Y-75550000D01*
X127077560Y-76000000D01*
X127097451Y-76100000D01*
X127077560Y-76200000D01*
X127077560Y-76650000D01*
X127097451Y-76750000D01*
X127077560Y-76850000D01*
X127077560Y-77300000D01*
X127097451Y-77400000D01*
X127077560Y-77500000D01*
X127077560Y-77950000D01*
X127097451Y-78050000D01*
X127077560Y-78150000D01*
X127077560Y-78600000D01*
X127097451Y-78700000D01*
X127077560Y-78800000D01*
X127077560Y-79250000D01*
X127097451Y-79350000D01*
X127077560Y-79450000D01*
X127077560Y-79900000D01*
X127091498Y-79970074D01*
X127090000Y-79973691D01*
X127090000Y-80053750D01*
X127112647Y-80076397D01*
X127126843Y-80147765D01*
X127245269Y-80325000D01*
X127126843Y-80502235D01*
X127112647Y-80573603D01*
X127090000Y-80596250D01*
X127090000Y-80676309D01*
X127091498Y-80679926D01*
X127077560Y-80750000D01*
X127077560Y-81200000D01*
X127097451Y-81300000D01*
X127077560Y-81400000D01*
X127077560Y-81515000D01*
X126887290Y-81515000D01*
X126754635Y-81382345D01*
X126410983Y-81240000D01*
X126236000Y-81240000D01*
X126236000Y-75766848D01*
X126250888Y-75692000D01*
X126236000Y-75617152D01*
X126236000Y-75617148D01*
X126191904Y-75395463D01*
X126191904Y-75395462D01*
X126066329Y-75207527D01*
X126023929Y-75144071D01*
X125960473Y-75101671D01*
X125304331Y-74445530D01*
X125261929Y-74382071D01*
X125010537Y-74214096D01*
X124788852Y-74170000D01*
X124788847Y-74170000D01*
X124714000Y-74155112D01*
X124639153Y-74170000D01*
X122347000Y-74170000D01*
X122347000Y-73982017D01*
X122204655Y-73638365D01*
X122096000Y-73529710D01*
X122096000Y-70900000D01*
X128752560Y-70900000D01*
X128752560Y-71700000D01*
X128801843Y-71947765D01*
X128935125Y-72147234D01*
X128859000Y-72331017D01*
X128859000Y-72702983D01*
X129001345Y-73046635D01*
X129264365Y-73309655D01*
X129608017Y-73452000D01*
X129979983Y-73452000D01*
X130323635Y-73309655D01*
X130586655Y-73046635D01*
X130729000Y-72702983D01*
X130729000Y-72331017D01*
X130701289Y-72264115D01*
X130752235Y-72298157D01*
X131000000Y-72347440D01*
X131800000Y-72347440D01*
X132047765Y-72298157D01*
X132257809Y-72157809D01*
X132398157Y-71947765D01*
X132447440Y-71700000D01*
X132447440Y-70900000D01*
X132398157Y-70652235D01*
X132257809Y-70442191D01*
X132110000Y-70343427D01*
X132110000Y-69329700D01*
X132198157Y-69197765D01*
X132247440Y-68950000D01*
X132247440Y-68050000D01*
X132198157Y-67802235D01*
X132057809Y-67592191D01*
X131847765Y-67451843D01*
X131600000Y-67402560D01*
X131100000Y-67402560D01*
X130852235Y-67451843D01*
X130642191Y-67592191D01*
X130601346Y-67653320D01*
X130459698Y-67511673D01*
X130226309Y-67415000D01*
X130133750Y-67415000D01*
X129975000Y-67573750D01*
X129975000Y-68373000D01*
X129997000Y-68373000D01*
X129997000Y-68627000D01*
X129975000Y-68627000D01*
X129975000Y-69426250D01*
X130133750Y-69585000D01*
X130226309Y-69585000D01*
X130459698Y-69488327D01*
X130590000Y-69358025D01*
X130590001Y-70396883D01*
X130447765Y-70301843D01*
X130200000Y-70252560D01*
X129400000Y-70252560D01*
X129152235Y-70301843D01*
X128942191Y-70442191D01*
X128801843Y-70652235D01*
X128752560Y-70900000D01*
X122096000Y-70900000D01*
X122096000Y-68785750D01*
X128965000Y-68785750D01*
X128965000Y-69076310D01*
X129061673Y-69309699D01*
X129240302Y-69488327D01*
X129473691Y-69585000D01*
X129566250Y-69585000D01*
X129725000Y-69426250D01*
X129725000Y-68627000D01*
X129123750Y-68627000D01*
X128965000Y-68785750D01*
X122096000Y-68785750D01*
X122096000Y-67923690D01*
X128965000Y-67923690D01*
X128965000Y-68214250D01*
X129123750Y-68373000D01*
X129725000Y-68373000D01*
X129725000Y-67573750D01*
X129566250Y-67415000D01*
X129473691Y-67415000D01*
X129240302Y-67511673D01*
X129061673Y-67690301D01*
X128965000Y-67923690D01*
X122096000Y-67923690D01*
X122096000Y-66618178D01*
X122406625Y-66410625D01*
X122606000Y-66112239D01*
X122805375Y-66410625D01*
X123296582Y-66738839D01*
X123729744Y-66825000D01*
X124022256Y-66825000D01*
X124455418Y-66738839D01*
X124946625Y-66410625D01*
X125159843Y-66091522D01*
X125220817Y-66221358D01*
X125649076Y-66611645D01*
X126059110Y-66781476D01*
X126289000Y-66660155D01*
X126289000Y-65467000D01*
X126269000Y-65467000D01*
X126269000Y-65213000D01*
X126289000Y-65213000D01*
X126289000Y-62927000D01*
X126269000Y-62927000D01*
X126269000Y-62673000D01*
X126289000Y-62673000D01*
X126289000Y-61479845D01*
X126059110Y-61358524D01*
X125649076Y-61528355D01*
X125220817Y-61918642D01*
X125159843Y-62048478D01*
X124946625Y-61729375D01*
X124455418Y-61401161D01*
X124022256Y-61315000D01*
X123729744Y-61315000D01*
X123296582Y-61401161D01*
X122805375Y-61729375D01*
X122606000Y-62027761D01*
X122406625Y-61729375D01*
X121915418Y-61401161D01*
X121482256Y-61315000D01*
X121189744Y-61315000D01*
X120756582Y-61401161D01*
X120265375Y-61729375D01*
X120253184Y-61747619D01*
X120244157Y-61702235D01*
X120103809Y-61492191D01*
X119893765Y-61351843D01*
X119646000Y-61302560D01*
X117946000Y-61302560D01*
X117698235Y-61351843D01*
X117488191Y-61492191D01*
X117348812Y-61700785D01*
X117134741Y-61183974D01*
X116660767Y-60710000D01*
X164805910Y-60710000D01*
X165390000Y-61294092D01*
G36*
X152269375Y-66410625D02*
X152580000Y-66618178D01*
X152580001Y-76977197D01*
X151560000Y-77997198D01*
X151560000Y-66618178D01*
X151870625Y-66410625D01*
X152070000Y-66112239D01*
X152269375Y-66410625D01*
X152269375Y-66410625D01*
G37*
X152269375Y-66410625D02*
X152580000Y-66618178D01*
X152580001Y-76977197D01*
X151560000Y-77997198D01*
X151560000Y-66618178D01*
X151870625Y-66410625D01*
X152070000Y-66112239D01*
X152269375Y-66410625D01*
G36*
X113345259Y-61183974D02*
X113005000Y-62005431D01*
X113005000Y-62894569D01*
X113345259Y-63716026D01*
X113973974Y-64344741D01*
X114795431Y-64685000D01*
X115684569Y-64685000D01*
X116506026Y-64344741D01*
X117134741Y-63716026D01*
X117298560Y-63320532D01*
X117298560Y-63650000D01*
X117347843Y-63897765D01*
X117462928Y-64070000D01*
X117347843Y-64242235D01*
X117298560Y-64490000D01*
X117298560Y-66190000D01*
X117347843Y-66437765D01*
X117488191Y-66647809D01*
X117698235Y-66788157D01*
X117946000Y-66837440D01*
X118036001Y-66837440D01*
X118036000Y-70500198D01*
X115822000Y-72714199D01*
X115822000Y-68654847D01*
X115836888Y-68580000D01*
X115822000Y-68505153D01*
X115822000Y-68505148D01*
X115777904Y-68283463D01*
X115609929Y-68032071D01*
X115546473Y-67989671D01*
X114297440Y-66740639D01*
X114297440Y-66025000D01*
X114248157Y-65777235D01*
X114107809Y-65567191D01*
X113897765Y-65426843D01*
X113650000Y-65377560D01*
X112850000Y-65377560D01*
X112762134Y-65395038D01*
X111162365Y-60710000D01*
X113819233Y-60710000D01*
X113345259Y-61183974D01*
X113345259Y-61183974D01*
G37*
X113345259Y-61183974D02*
X113005000Y-62005431D01*
X113005000Y-62894569D01*
X113345259Y-63716026D01*
X113973974Y-64344741D01*
X114795431Y-64685000D01*
X115684569Y-64685000D01*
X116506026Y-64344741D01*
X117134741Y-63716026D01*
X117298560Y-63320532D01*
X117298560Y-63650000D01*
X117347843Y-63897765D01*
X117462928Y-64070000D01*
X117347843Y-64242235D01*
X117298560Y-64490000D01*
X117298560Y-66190000D01*
X117347843Y-66437765D01*
X117488191Y-66647809D01*
X117698235Y-66788157D01*
X117946000Y-66837440D01*
X118036001Y-66837440D01*
X118036000Y-70500198D01*
X115822000Y-72714199D01*
X115822000Y-68654847D01*
X115836888Y-68580000D01*
X115822000Y-68505153D01*
X115822000Y-68505148D01*
X115777904Y-68283463D01*
X115609929Y-68032071D01*
X115546473Y-67989671D01*
X114297440Y-66740639D01*
X114297440Y-66025000D01*
X114248157Y-65777235D01*
X114107809Y-65567191D01*
X113897765Y-65426843D01*
X113650000Y-65377560D01*
X112850000Y-65377560D01*
X112762134Y-65395038D01*
X111162365Y-60710000D01*
X113819233Y-60710000D01*
X113345259Y-61183974D01*
G04 #@! TD*
M02*
